<svg xmlns="http://www.w3.org/2000/svg" xmlns:xlink="http://www.w3.org/1999/xlink" xmlns:s="https://github.com/nturley/netlistsvg" width="1007" height="1148">
  <style>svg {
    stroke:#000;
    fill:none;
  }
  text {
    fill:#000;
    stroke:none;
    font-size:10px;
    font-weight: bold;
    font-family: "Courier New", monospace;
  }
  .nodelabel {
    text-anchor: middle;
  }
  .inputPortLabel {
    text-anchor: end;
  }
  .splitjoinBody {
    fill:#000;
  }</style>
  <g s:type="not" transform="translate(739.5,911)" s:width="30" s:height="20" id="cell_$not$daq_core_diagram.v:173$2">
    <s:alias val="$_NOT_"/>
    <s:alias val="$not"/>
    <s:alias val="$logic_not"/>
    <path d="M0,0 L0,20 L20,10 Z" class="cell_$not$daq_core_diagram.v:173$2"/>
    <circle cx="23" cy="10" r="3" class="cell_$not$daq_core_diagram.v:173$2"/>
    <g s:x="0" s:y="10" s:pid="A"/>
    <g s:x="25" s:y="10" s:pid="Y"/>
  </g>
  <g s:type="or" transform="translate(143,337)" s:width="30" s:height="25" id="cell_$or$daq_core_diagram.v:128$1">
    <s:alias val="$or"/>
    <s:alias val="$logic_or"/>
    <s:alias val="$_OR_"/>
    <path d="M0,25 L0,25 L15,25 A15 12.5 0 0 0 15,0 L0,0" class="cell_$or$daq_core_diagram.v:128$1"/>
    <path d="M0,0 A30 25 0 0 1 0,25" class="cell_$or$daq_core_diagram.v:128$1"/>
    <g s:x="3" s:y="5" s:pid="A"/>
    <g s:x="3" s:y="20" s:pid="B"/>
    <g s:x="30" s:y="12.5" s:pid="Y"/>
  </g>
  <g s:type="generic" transform="translate(742,1033)" s:width="30" s:height="40" id="cell_inst_comp_rx">
    <text x="15" y="-4" class="nodelabel cell_inst_comp_rx" s:attribute="ref">comp_out_receiver</text>
    <rect width="30" height="100" s:generic="body" class="cell_inst_comp_rx"/>
    <g transform="translate(0,10)" s:x="0" s:y="10" s:pid="in0" id="port_inst_comp_rx~BUS_CLK">
      <text x="-3" y="-4" class="inputPortLabel cell_inst_comp_rx">BUS_CLK</text>
    </g>
    <g transform="translate(0,30)" s:x="0" s:y="10" s:pid="in0" id="port_inst_comp_rx~COMP_OUT">
      <text x="-3" y="-4" class="inputPortLabel cell_inst_comp_rx">COMP_OUT</text>
    </g>
    <g transform="translate(0,50)" s:x="0" s:y="10" s:pid="in0" id="port_inst_comp_rx~FIFO_READ_NEXT">
      <text x="-3" y="-4" class="inputPortLabel cell_inst_comp_rx">FIFO_READ_NEXT</text>
    </g>
    <g transform="translate(0,70)" s:x="0" s:y="10" s:pid="in0" id="port_inst_comp_rx~RST">
      <text x="-3" y="-4" class="inputPortLabel cell_inst_comp_rx">RST</text>
    </g>
    <g transform="translate(0,90)" s:x="0" s:y="10" s:pid="in0" id="port_inst_comp_rx~SEQ_CLK">
      <text x="-3" y="-4" class="inputPortLabel cell_inst_comp_rx">SEQ_CLK</text>
    </g>
    <g transform="translate(30,10)" s:x="30" s:y="10" s:pid="out0" id="port_inst_comp_rx~FIFO_DATA_OUT">
      <text x="5" y="-4" style="fill:#000; stroke:none" class="cell_inst_comp_rx">FIFO_DATA_OUT</text>
    </g>
    <g transform="translate(30,30)" s:x="30" s:y="10" s:pid="out0" id="port_inst_comp_rx~FIFO_EMPTY">
      <text x="5" y="-4" style="fill:#000; stroke:none" class="cell_inst_comp_rx">FIFO_EMPTY</text>
    </g>
  </g>
  <g s:type="generic" transform="translate(941,528)" s:width="30" s:height="40" id="cell_inst_gpio">
    <text x="15" y="-4" class="nodelabel cell_inst_gpio" s:attribute="ref">gpio</text>
    <rect width="30" height="140" s:generic="body" class="cell_inst_gpio"/>
    <g transform="translate(0,10)" s:x="0" s:y="10" s:pid="in0" id="port_inst_gpio~BUS_ADD">
      <text x="-3" y="-4" class="inputPortLabel cell_inst_gpio">BUS_ADD</text>
    </g>
    <g transform="translate(0,30)" s:x="0" s:y="10" s:pid="in0" id="port_inst_gpio~BUS_CLK">
      <text x="-3" y="-4" class="inputPortLabel cell_inst_gpio">BUS_CLK</text>
    </g>
    <g transform="translate(0,50)" s:x="0" s:y="10" s:pid="in0" id="port_inst_gpio~BUS_DATA">
      <text x="-3" y="-4" class="inputPortLabel cell_inst_gpio">BUS_DATA</text>
    </g>
    <g transform="translate(0,70)" s:x="0" s:y="10" s:pid="in0" id="port_inst_gpio~BUS_RD">
      <text x="-3" y="-4" class="inputPortLabel cell_inst_gpio">BUS_RD</text>
    </g>
    <g transform="translate(0,90)" s:x="0" s:y="10" s:pid="in0" id="port_inst_gpio~BUS_RST">
      <text x="-3" y="-4" class="inputPortLabel cell_inst_gpio">BUS_RST</text>
    </g>
    <g transform="translate(0,110)" s:x="0" s:y="10" s:pid="in0" id="port_inst_gpio~BUS_WR">
      <text x="-3" y="-4" class="inputPortLabel cell_inst_gpio">BUS_WR</text>
    </g>
    <g transform="translate(0,130)" s:x="0" s:y="10" s:pid="in0" id="port_inst_gpio~IO">
      <text x="-3" y="-4" class="inputPortLabel cell_inst_gpio">IO</text>
    </g>
  </g>
  <g s:type="generic" transform="translate(330,381.5)" s:width="30" s:height="40" id="cell_inst_pulse_gen">
    <text x="15" y="-4" class="nodelabel cell_inst_pulse_gen" s:attribute="ref">pulse_gen</text>
    <rect width="30" height="160" s:generic="body" class="cell_inst_pulse_gen"/>
    <g transform="translate(0,10)" s:x="0" s:y="10" s:pid="in0" id="port_inst_pulse_gen~BUS_ADD">
      <text x="-3" y="-4" class="inputPortLabel cell_inst_pulse_gen">BUS_ADD</text>
    </g>
    <g transform="translate(0,30)" s:x="0" s:y="10" s:pid="in0" id="port_inst_pulse_gen~BUS_CLK">
      <text x="-3" y="-4" class="inputPortLabel cell_inst_pulse_gen">BUS_CLK</text>
    </g>
    <g transform="translate(0,50)" s:x="0" s:y="10" s:pid="in0" id="port_inst_pulse_gen~BUS_DATA">
      <text x="-3" y="-4" class="inputPortLabel cell_inst_pulse_gen">BUS_DATA</text>
    </g>
    <g transform="translate(0,70)" s:x="0" s:y="10" s:pid="in0" id="port_inst_pulse_gen~BUS_RD">
      <text x="-3" y="-4" class="inputPortLabel cell_inst_pulse_gen">BUS_RD</text>
    </g>
    <g transform="translate(0,90)" s:x="0" s:y="10" s:pid="in0" id="port_inst_pulse_gen~BUS_RST">
      <text x="-3" y="-4" class="inputPortLabel cell_inst_pulse_gen">BUS_RST</text>
    </g>
    <g transform="translate(0,110)" s:x="0" s:y="10" s:pid="in0" id="port_inst_pulse_gen~BUS_WR">
      <text x="-3" y="-4" class="inputPortLabel cell_inst_pulse_gen">BUS_WR</text>
    </g>
    <g transform="translate(0,130)" s:x="0" s:y="10" s:pid="in0" id="port_inst_pulse_gen~EXT_START">
      <text x="-3" y="-4" class="inputPortLabel cell_inst_pulse_gen">EXT_START</text>
    </g>
    <g transform="translate(0,150)" s:x="0" s:y="10" s:pid="in0" id="port_inst_pulse_gen~PULSE_CLK">
      <text x="-3" y="-4" class="inputPortLabel cell_inst_pulse_gen">PULSE_CLK</text>
    </g>
    <g transform="translate(30,10)" s:x="30" s:y="10" s:pid="out0" id="port_inst_pulse_gen~PULSE">
      <text x="5" y="-4" style="fill:#000; stroke:none" class="cell_inst_pulse_gen">PULSE</text>
    </g>
  </g>
  <g s:type="generic" transform="translate(543,156.5)" s:width="30" s:height="40" id="cell_inst_seq_gen">
    <text x="15" y="-4" class="nodelabel cell_inst_seq_gen" s:attribute="ref">seq_gen</text>
    <rect width="30" height="160" s:generic="body" class="cell_inst_seq_gen"/>
    <g transform="translate(0,10)" s:x="0" s:y="10" s:pid="in0" id="port_inst_seq_gen~BUS_ADD">
      <text x="-3" y="-4" class="inputPortLabel cell_inst_seq_gen">BUS_ADD</text>
    </g>
    <g transform="translate(0,30)" s:x="0" s:y="10" s:pid="in0" id="port_inst_seq_gen~BUS_CLK">
      <text x="-3" y="-4" class="inputPortLabel cell_inst_seq_gen">BUS_CLK</text>
    </g>
    <g transform="translate(0,50)" s:x="0" s:y="10" s:pid="in0" id="port_inst_seq_gen~BUS_DATA">
      <text x="-3" y="-4" class="inputPortLabel cell_inst_seq_gen">BUS_DATA</text>
    </g>
    <g transform="translate(0,70)" s:x="0" s:y="10" s:pid="in0" id="port_inst_seq_gen~BUS_RD">
      <text x="-3" y="-4" class="inputPortLabel cell_inst_seq_gen">BUS_RD</text>
    </g>
    <g transform="translate(0,90)" s:x="0" s:y="10" s:pid="in0" id="port_inst_seq_gen~BUS_RST">
      <text x="-3" y="-4" class="inputPortLabel cell_inst_seq_gen">BUS_RST</text>
    </g>
    <g transform="translate(0,110)" s:x="0" s:y="10" s:pid="in0" id="port_inst_seq_gen~BUS_WR">
      <text x="-3" y="-4" class="inputPortLabel cell_inst_seq_gen">BUS_WR</text>
    </g>
    <g transform="translate(0,130)" s:x="0" s:y="10" s:pid="in0" id="port_inst_seq_gen~SEQ_CLK">
      <text x="-3" y="-4" class="inputPortLabel cell_inst_seq_gen">SEQ_CLK</text>
    </g>
    <g transform="translate(0,150)" s:x="0" s:y="10" s:pid="in0" id="port_inst_seq_gen~SEQ_EXT_START">
      <text x="-3" y="-4" class="inputPortLabel cell_inst_seq_gen">SEQ_EXT_START</text>
    </g>
    <g transform="translate(30,10)" s:x="30" s:y="10" s:pid="out0" id="port_inst_seq_gen~SEQ_OUT">
      <text x="5" y="-4" style="fill:#000; stroke:none" class="cell_inst_seq_gen">SEQ_OUT</text>
    </g>
  </g>
  <g s:type="generic" transform="translate(534.25,780.5)" s:width="30" s:height="40" id="cell_inst_spi">
    <text x="15" y="-4" class="nodelabel cell_inst_spi" s:attribute="ref">spi</text>
    <rect width="30" height="180" s:generic="body" class="cell_inst_spi"/>
    <g transform="translate(0,10)" s:x="0" s:y="10" s:pid="in0" id="port_inst_spi~BUS_ADD">
      <text x="-3" y="-4" class="inputPortLabel cell_inst_spi">BUS_ADD</text>
    </g>
    <g transform="translate(0,30)" s:x="0" s:y="10" s:pid="in0" id="port_inst_spi~BUS_CLK">
      <text x="-3" y="-4" class="inputPortLabel cell_inst_spi">BUS_CLK</text>
    </g>
    <g transform="translate(0,50)" s:x="0" s:y="10" s:pid="in0" id="port_inst_spi~BUS_DATA">
      <text x="-3" y="-4" class="inputPortLabel cell_inst_spi">BUS_DATA</text>
    </g>
    <g transform="translate(0,70)" s:x="0" s:y="10" s:pid="in0" id="port_inst_spi~BUS_RD">
      <text x="-3" y="-4" class="inputPortLabel cell_inst_spi">BUS_RD</text>
    </g>
    <g transform="translate(0,90)" s:x="0" s:y="10" s:pid="in0" id="port_inst_spi~BUS_RST">
      <text x="-3" y="-4" class="inputPortLabel cell_inst_spi">BUS_RST</text>
    </g>
    <g transform="translate(0,110)" s:x="0" s:y="10" s:pid="in0" id="port_inst_spi~BUS_WR">
      <text x="-3" y="-4" class="inputPortLabel cell_inst_spi">BUS_WR</text>
    </g>
    <g transform="translate(0,130)" s:x="0" s:y="10" s:pid="in0" id="port_inst_spi~EXT_START">
      <text x="-3" y="-4" class="inputPortLabel cell_inst_spi">EXT_START</text>
    </g>
    <g transform="translate(0,150)" s:x="0" s:y="10" s:pid="in0" id="port_inst_spi~SDO">
      <text x="-3" y="-4" class="inputPortLabel cell_inst_spi">SDO</text>
    </g>
    <g transform="translate(0,170)" s:x="0" s:y="10" s:pid="in0" id="port_inst_spi~SPI_CLK">
      <text x="-3" y="-4" class="inputPortLabel cell_inst_spi">SPI_CLK</text>
    </g>
    <g transform="translate(30,10)" s:x="30" s:y="10" s:pid="out0" id="port_inst_spi~SCLK">
      <text x="5" y="-4" style="fill:#000; stroke:none" class="cell_inst_spi">SCLK</text>
    </g>
    <g transform="translate(30,30)" s:x="30" s:y="10" s:pid="out0" id="port_inst_spi~SDI">
      <text x="5" y="-4" style="fill:#000; stroke:none" class="cell_inst_spi">SDI</text>
    </g>
    <g transform="translate(30,50)" s:x="30" s:y="10" s:pid="out0" id="port_inst_spi~SEN">
      <text x="5" y="-4" style="fill:#000; stroke:none" class="cell_inst_spi">SEN</text>
    </g>
    <g transform="translate(30,70)" s:x="30" s:y="10" s:pid="out0" id="port_inst_spi~SLD">
      <text x="5" y="-4" style="fill:#000; stroke:none" class="cell_inst_spi">SLD</text>
    </g>
  </g>
  <g s:type="inputExt" transform="translate(137,87)" s:width="30" s:height="20" id="cell_BUS_CLK">
    <text x="15" y="-4" class="nodelabel cell_BUS_CLK" s:attribute="ref">BUS_CLK</text>
    <s:alias val="$_inputExt_"/>
    <path d="M0,0 L0,20 L15,20 L30,10 L15,0 Z" class="cell_BUS_CLK"/>
    <g s:x="28" s:y="10" s:pid="Y"/>
  </g>
  <g s:type="inputExt" transform="translate(60,332)" s:width="30" s:height="20" id="cell_BUS_RST">
    <text x="15" y="-4" class="nodelabel cell_BUS_RST" s:attribute="ref">BUS_RST</text>
    <s:alias val="$_inputExt_"/>
    <path d="M0,0 L0,20 L15,20 L30,10 L15,0 Z" class="cell_BUS_RST"/>
    <g s:x="28" s:y="10" s:pid="Y"/>
  </g>
  <g s:type="inputExt" transform="translate(137,22)" s:width="30" s:height="20" id="cell_BUS_ADD">
    <text x="15" y="-4" class="nodelabel cell_BUS_ADD" s:attribute="ref">BUS_ADD</text>
    <s:alias val="$_inputExt_"/>
    <path d="M0,0 L0,20 L15,20 L30,10 L15,0 Z" class="cell_BUS_ADD"/>
    <g s:x="28" s:y="10" s:pid="Y"/>
  </g>
  <g s:type="inputExt" transform="translate(137,152)" s:width="30" s:height="20" id="cell_BUS_DATA">
    <text x="15" y="-4" class="nodelabel cell_BUS_DATA" s:attribute="ref">BUS_DATA</text>
    <s:alias val="$_inputExt_"/>
    <path d="M0,0 L0,20 L15,20 L30,10 L15,0 Z" class="cell_BUS_DATA"/>
    <g s:x="28" s:y="10" s:pid="Y"/>
  </g>
  <g s:type="inputExt" transform="translate(137,217)" s:width="30" s:height="20" id="cell_BUS_RD">
    <text x="15" y="-4" class="nodelabel cell_BUS_RD" s:attribute="ref">BUS_RD</text>
    <s:alias val="$_inputExt_"/>
    <path d="M0,0 L0,20 L15,20 L30,10 L15,0 Z" class="cell_BUS_RD"/>
    <g s:x="28" s:y="10" s:pid="Y"/>
  </g>
  <g s:type="inputExt" transform="translate(137,282)" s:width="30" s:height="20" id="cell_BUS_WR">
    <text x="15" y="-4" class="nodelabel cell_BUS_WR" s:attribute="ref">BUS_WR</text>
    <s:alias val="$_inputExt_"/>
    <path d="M0,0 L0,20 L15,20 L30,10 L15,0 Z" class="cell_BUS_WR"/>
    <g s:x="28" s:y="10" s:pid="Y"/>
  </g>
  <g s:type="inputExt" transform="translate(137,544.5)" s:width="30" s:height="20" id="cell_SEQ_CLK">
    <text x="15" y="-4" class="nodelabel cell_SEQ_CLK" s:attribute="ref">SEQ_CLK</text>
    <s:alias val="$_inputExt_"/>
    <path d="M0,0 L0,20 L15,20 L30,10 L15,0 Z" class="cell_SEQ_CLK"/>
    <g s:x="28" s:y="10" s:pid="Y"/>
  </g>
  <g s:type="inputExt" transform="translate(330,986)" s:width="30" s:height="20" id="cell_SPI_CLK">
    <text x="15" y="-4" class="nodelabel cell_SPI_CLK" s:attribute="ref">SPI_CLK</text>
    <s:alias val="$_inputExt_"/>
    <path d="M0,0 L0,20 L15,20 L30,10 L15,0 Z" class="cell_SPI_CLK"/>
    <g s:x="28" s:y="10" s:pid="Y"/>
  </g>
  <g s:type="outputExt" transform="translate(941,147)" s:width="30" s:height="20" id="cell_CLK_INIT">
    <text x="15" y="-4" class="nodelabel cell_CLK_INIT" s:attribute="ref">CLK_INIT</text>
    <s:alias val="$_outputExt_"/>
    <path d="M30,0 L30,20 L15,20 L0,10 L15,0 Z" class="cell_CLK_INIT"/>
    <g s:x="0" s:y="10" s:pid="A"/>
  </g>
  <g s:type="outputExt" transform="translate(941,212)" s:width="30" s:height="20" id="cell_CLK_SAMP">
    <text x="15" y="-4" class="nodelabel cell_CLK_SAMP" s:attribute="ref">CLK_SAMP</text>
    <s:alias val="$_outputExt_"/>
    <path d="M30,0 L30,20 L15,20 L0,10 L15,0 Z" class="cell_CLK_SAMP"/>
    <g s:x="0" s:y="10" s:pid="A"/>
  </g>
  <g s:type="outputExt" transform="translate(941,277)" s:width="30" s:height="20" id="cell_CLK_COMP">
    <text x="15" y="-4" class="nodelabel cell_CLK_COMP" s:attribute="ref">CLK_COMP</text>
    <s:alias val="$_outputExt_"/>
    <path d="M30,0 L30,20 L15,20 L0,10 L15,0 Z" class="cell_CLK_COMP"/>
    <g s:x="0" s:y="10" s:pid="A"/>
  </g>
  <g s:type="outputExt" transform="translate(941,342)" s:width="30" s:height="20" id="cell_CLK_LOGIC">
    <text x="15" y="-4" class="nodelabel cell_CLK_LOGIC" s:attribute="ref">CLK_LOGIC</text>
    <s:alias val="$_outputExt_"/>
    <path d="M30,0 L30,20 L15,20 L0,10 L15,0 Z" class="cell_CLK_LOGIC"/>
    <g s:x="0" s:y="10" s:pid="A"/>
  </g>
  <g s:type="outputExt" transform="translate(941,781)" s:width="30" s:height="20" id="cell_SPI_SCLK">
    <text x="15" y="-4" class="nodelabel cell_SPI_SCLK" s:attribute="ref">SPI_SCLK</text>
    <s:alias val="$_outputExt_"/>
    <path d="M30,0 L30,20 L15,20 L0,10 L15,0 Z" class="cell_SPI_SCLK"/>
    <g s:x="0" s:y="10" s:pid="A"/>
  </g>
  <g s:type="outputExt" transform="translate(941,846)" s:width="30" s:height="20" id="cell_SPI_SDI">
    <text x="15" y="-4" class="nodelabel cell_SPI_SDI" s:attribute="ref">SPI_SDI</text>
    <s:alias val="$_outputExt_"/>
    <path d="M30,0 L30,20 L15,20 L0,10 L15,0 Z" class="cell_SPI_SDI"/>
    <g s:x="0" s:y="10" s:pid="A"/>
  </g>
  <g s:type="inputExt" transform="translate(330,921)" s:width="30" s:height="20" id="cell_SPI_SDO">
    <text x="15" y="-4" class="nodelabel cell_SPI_SDO" s:attribute="ref">SPI_SDO</text>
    <s:alias val="$_inputExt_"/>
    <path d="M0,0 L0,20 L15,20 L30,10 L15,0 Z" class="cell_SPI_SDO"/>
    <g s:x="28" s:y="10" s:pid="Y"/>
  </g>
  <g s:type="outputExt" transform="translate(941,911)" s:width="30" s:height="20" id="cell_SPI_CS_B">
    <text x="15" y="-4" class="nodelabel cell_SPI_CS_B" s:attribute="ref">SPI_CS_B</text>
    <s:alias val="$_outputExt_"/>
    <path d="M30,0 L30,20 L15,20 L0,10 L15,0 Z" class="cell_SPI_CS_B"/>
    <g s:x="0" s:y="10" s:pid="A"/>
  </g>
  <g s:type="outputExt" transform="translate(941,716)" s:width="30" s:height="20" id="cell_RST_B">
    <text x="15" y="-4" class="nodelabel cell_RST_B" s:attribute="ref">RST_B</text>
    <s:alias val="$_outputExt_"/>
    <path d="M30,0 L30,20 L15,20 L0,10 L15,0 Z" class="cell_RST_B"/>
    <g s:x="0" s:y="10" s:pid="A"/>
  </g>
  <g s:type="outputExt" transform="translate(12,22)" s:width="30" s:height="20" id="cell_AMP_EN">
    <text x="15" y="-4" class="nodelabel cell_AMP_EN" s:attribute="ref">AMP_EN</text>
    <s:alias val="$_outputExt_"/>
    <path d="M30,0 L30,20 L15,20 L0,10 L15,0 Z" class="cell_AMP_EN"/>
    <g s:x="0" s:y="10" s:pid="A"/>
  </g>
  <g s:type="outputExt" transform="translate(917,1033.5)" s:width="30" s:height="20" id="cell_FIFO_DATA_OUT">
    <text x="15" y="-4" class="nodelabel cell_FIFO_DATA_OUT" s:attribute="ref">FIFO_DATA_OUT</text>
    <s:alias val="$_outputExt_"/>
    <path d="M30,0 L30,20 L15,20 L0,10 L15,0 Z" class="cell_FIFO_DATA_OUT"/>
    <g s:x="0" s:y="10" s:pid="A"/>
  </g>
  <g s:type="inputExt" transform="translate(533,1073.5)" s:width="30" s:height="20" id="cell_FIFO_READ_NEXT">
    <text x="15" y="-4" class="nodelabel cell_FIFO_READ_NEXT" s:attribute="ref">FIFO_READ_NEXT</text>
    <s:alias val="$_inputExt_"/>
    <path d="M0,0 L0,20 L15,20 L30,10 L15,0 Z" class="cell_FIFO_READ_NEXT"/>
    <g s:x="28" s:y="10" s:pid="Y"/>
  </g>
  <g s:type="outputExt" transform="translate(935,1098.5)" s:width="30" s:height="20" id="cell_FIFO_EMPTY">
    <text x="15" y="-4" class="nodelabel cell_FIFO_EMPTY" s:attribute="ref">FIFO_EMPTY</text>
    <s:alias val="$_outputExt_"/>
    <path d="M30,0 L30,20 L15,20 L0,10 L15,0 Z" class="cell_FIFO_EMPTY"/>
    <g s:x="0" s:y="10" s:pid="A"/>
  </g>
  <g s:type="inputExt" transform="translate(533,1008.5)" s:width="30" s:height="20" id="cell_COMP_OUT">
    <text x="15" y="-4" class="nodelabel cell_COMP_OUT" s:attribute="ref">COMP_OUT</text>
    <s:alias val="$_inputExt_"/>
    <path d="M0,0 L0,20 L15,20 L30,10 L15,0 Z" class="cell_COMP_OUT"/>
    <g s:x="28" s:y="10" s:pid="Y"/>
  </g>
  <g s:type="inputExt" transform="translate(60,397)" s:width="30" s:height="20" id="cell_RESET">
    <text x="15" y="-4" class="nodelabel cell_RESET" s:attribute="ref">RESET</text>
    <s:alias val="$_inputExt_"/>
    <path d="M0,0 L0,20 L15,20 L30,10 L15,0 Z" class="cell_RESET"/>
    <g s:x="28" s:y="10" s:pid="Y"/>
  </g>
  <g s:type="constant" transform="translate(137,407)" s:width="30" s:height="20" id="cell_0">
    <text x="15" y="-4" class="nodelabel cell_0" s:attribute="ref">0</text>
    <s:alias val="$_constant_"/>
    <rect width="30" height="20" class="cell_0"/>
    <g s:x="30" s:y="10" s:pid="Y"/>
  </g>
  <g s:type="join" transform="translate(752.5,638)" s:width="4" s:height="40" id="cell_$join$,56,57,96,97,98,99,100,101,">
    <rect width="5" height="40" class="splitjoinBody" s:generic="body"/>
    <s:alias val="$_join_"/>
    <g s:x="5" s:y="20" s:pid="out"/>
    <g transform="translate(0,10)" s:x="0" s:y="10" s:pid="in0">
      <text x="-3" y="-4" class="inputPortLabel">0</text>
    </g>
  </g>
  <g s:type="split" transform="translate(761,146.5)" s:width="5" s:height="40" id="cell_$split$,48,49,50,51,103,104,105,106,">
    <rect width="5" height="80" class="splitjoinBody" s:generic="body"/>
    <s:alias val="$_split_"/>
    <g s:x="0" s:y="20" s:pid="in"/>
    <g transform="translate(4,10)" s:x="4" s:y="10" s:pid="out0">
      <text x="5" y="-4">0</text>
    </g>
    <g transform="translate(4,30)" s:x="4" s:y="10" s:pid="out0">
      <text x="5" y="-4">1</text>
    </g>
    <g transform="translate(4,50)" s:x="4" s:y="10" s:pid="out0">
      <text x="5" y="-4">2</text>
    </g>
    <g transform="translate(4,70)" s:x="4" s:y="10" s:pid="out0">
      <text x="5" y="-4">3</text>
    </g>
  </g>
  <line x1="565.25" x2="627" y1="831" y2="831" class="net_94"/>
  <line x1="627" x2="627" y1="831" y2="921" class="net_94"/>
  <line x1="627" x2="739.5" y1="921" y2="921" class="net_94"/>
  <line x1="88" x2="146" y1="342" y2="342" class="net_3"/>
  <line x1="88" x2="112" y1="407" y2="407" class="net_93"/>
  <line x1="112" x2="112" y1="407" y2="357" class="net_93"/>
  <line x1="112" x2="146" y1="357" y2="357" class="net_93"/>
  <line x1="165" x2="255" y1="97" y2="97" class="net_2"/>
  <line x1="255" x2="255" y1="97" y2="658.5" class="net_2"/>
  <line x1="255" x2="637" y1="658.5" y2="658.5" class="net_2"/>
  <line x1="637" x2="637" y1="658.5" y2="1043.5" class="net_2"/>
  <circle cx="255" cy="97" r="2" style="fill:#000" class="net_2"/>
  <circle cx="255" cy="658.5" r="2" style="fill:#000" class="net_2"/>
  <line x1="637" x2="742" y1="1043.5" y2="1043.5" class="net_2"/>
  <line x1="165" x2="255" y1="97" y2="97" class="net_2"/>
  <line x1="255" x2="255" y1="97" y2="576.5" class="net_2"/>
  <line x1="255" x2="872" y1="576.5" y2="576.5" class="net_2"/>
  <line x1="872" x2="872" y1="576.5" y2="558.5" class="net_2"/>
  <circle cx="255" cy="576.5" r="2" style="fill:#000" class="net_2"/>
  <line x1="872" x2="941" y1="558.5" y2="558.5" class="net_2"/>
  <line x1="165" x2="255" y1="97" y2="97" class="net_2"/>
  <line x1="255" x2="255" y1="97" y2="412" class="net_2"/>
  <circle cx="255" cy="412" r="2" style="fill:#000" class="net_2"/>
  <line x1="255" x2="330" y1="412" y2="412" class="net_2"/>
  <line x1="165" x2="434" y1="97" y2="97" class="net_2"/>
  <line x1="434" x2="434" y1="97" y2="187" class="net_2"/>
  <line x1="434" x2="543" y1="187" y2="187" class="net_2"/>
  <line x1="165" x2="255" y1="97" y2="97" class="net_2"/>
  <line x1="255" x2="255" y1="97" y2="680.5" class="net_2"/>
  <line x1="255" x2="444" y1="680.5" y2="680.5" class="net_2"/>
  <line x1="444" x2="444" y1="680.5" y2="811" class="net_2"/>
  <line x1="444" x2="534.25" y1="811" y2="811" class="net_2"/>
  <line x1="561" x2="627" y1="1018.5" y2="1018.5" class="net_92"/>
  <line x1="627" x2="627" y1="1018.5" y2="1063.5" class="net_92"/>
  <line x1="627" x2="742" y1="1063.5" y2="1063.5" class="net_92"/>
  <line x1="561" x2="742" y1="1083.5" y2="1083.5" class="net_90"/>
  <line x1="173" x2="215" y1="349.5" y2="349.5" class="net_95"/>
  <line x1="215" x2="215" y1="349.5" y2="1103.5" class="net_95"/>
  <circle cx="215" cy="349.5" r="2" style="fill:#000" class="net_95"/>
  <line x1="215" x2="742" y1="1103.5" y2="1103.5" class="net_95"/>
  <line x1="173" x2="215" y1="349.5" y2="349.5" class="net_95"/>
  <line x1="215" x2="215" y1="349.5" y2="609.5" class="net_95"/>
  <line x1="215" x2="862" y1="609.5" y2="609.5" class="net_95"/>
  <line x1="862" x2="862" y1="609.5" y2="618.5" class="net_95"/>
  <circle cx="215" cy="609.5" r="2" style="fill:#000" class="net_95"/>
  <line x1="862" x2="941" y1="618.5" y2="618.5" class="net_95"/>
  <line x1="173" x2="215" y1="349.5" y2="349.5" class="net_95"/>
  <line x1="215" x2="215" y1="349.5" y2="472" class="net_95"/>
  <circle cx="215" cy="472" r="2" style="fill:#000" class="net_95"/>
  <line x1="215" x2="330" y1="472" y2="472" class="net_95"/>
  <line x1="173" x2="424" y1="349.5" y2="349.5" class="net_95"/>
  <line x1="424" x2="424" y1="349.5" y2="247" class="net_95"/>
  <line x1="424" x2="543" y1="247" y2="247" class="net_95"/>
  <line x1="173" x2="215" y1="349.5" y2="349.5" class="net_95"/>
  <line x1="215" x2="215" y1="349.5" y2="871" class="net_95"/>
  <circle cx="215" cy="871" r="2" style="fill:#000" class="net_95"/>
  <line x1="215" x2="534.25" y1="871" y2="871" class="net_95"/>
  <line x1="165" x2="205" y1="554.5" y2="554.5" class="net_46"/>
  <line x1="205" x2="205" y1="554.5" y2="1114.5" class="net_46"/>
  <line x1="205" x2="627" y1="1114.5" y2="1114.5" class="net_46"/>
  <line x1="627" x2="627" y1="1114.5" y2="1123.5" class="net_46"/>
  <circle cx="205" cy="554.5" r="2" style="fill:#000" class="net_46"/>
  <line x1="627" x2="742" y1="1123.5" y2="1123.5" class="net_46"/>
  <line x1="165" x2="205" y1="554.5" y2="554.5" class="net_46"/>
  <line x1="205" x2="205" y1="554.5" y2="532" class="net_46"/>
  <line x1="205" x2="330" y1="532" y2="532" class="net_46"/>
  <line x1="165" x2="444" y1="554.5" y2="554.5" class="net_46"/>
  <line x1="444" x2="444" y1="554.5" y2="287" class="net_46"/>
  <line x1="444" x2="543" y1="287" y2="287" class="net_46"/>
  <line x1="165" x2="265" y1="32" y2="32" class="net_4,5,6,7,8,9,10,11,12,13,14,15,16,17,18,19,20,21,22,23,24,25,26,27,28,29,30,31,32,33,34,35"/>
  <line x1="265" x2="265" y1="32" y2="565.5" class="net_4,5,6,7,8,9,10,11,12,13,14,15,16,17,18,19,20,21,22,23,24,25,26,27,28,29,30,31,32,33,34,35"/>
  <line x1="265" x2="862" y1="565.5" y2="565.5" class="net_4,5,6,7,8,9,10,11,12,13,14,15,16,17,18,19,20,21,22,23,24,25,26,27,28,29,30,31,32,33,34,35"/>
  <line x1="862" x2="862" y1="565.5" y2="538.5" class="net_4,5,6,7,8,9,10,11,12,13,14,15,16,17,18,19,20,21,22,23,24,25,26,27,28,29,30,31,32,33,34,35"/>
  <circle cx="265" cy="32" r="2" style="fill:#000" class="net_4,5,6,7,8,9,10,11,12,13,14,15,16,17,18,19,20,21,22,23,24,25,26,27,28,29,30,31,32,33,34,35"/>
  <circle cx="265" cy="565.5" r="2" style="fill:#000" class="net_4,5,6,7,8,9,10,11,12,13,14,15,16,17,18,19,20,21,22,23,24,25,26,27,28,29,30,31,32,33,34,35"/>
  <line x1="862" x2="941" y1="538.5" y2="538.5" class="net_4,5,6,7,8,9,10,11,12,13,14,15,16,17,18,19,20,21,22,23,24,25,26,27,28,29,30,31,32,33,34,35"/>
  <line x1="165" x2="265" y1="32" y2="32" class="net_4,5,6,7,8,9,10,11,12,13,14,15,16,17,18,19,20,21,22,23,24,25,26,27,28,29,30,31,32,33,34,35"/>
  <line x1="265" x2="265" y1="32" y2="392" class="net_4,5,6,7,8,9,10,11,12,13,14,15,16,17,18,19,20,21,22,23,24,25,26,27,28,29,30,31,32,33,34,35"/>
  <circle cx="265" cy="392" r="2" style="fill:#000" class="net_4,5,6,7,8,9,10,11,12,13,14,15,16,17,18,19,20,21,22,23,24,25,26,27,28,29,30,31,32,33,34,35"/>
  <line x1="265" x2="330" y1="392" y2="392" class="net_4,5,6,7,8,9,10,11,12,13,14,15,16,17,18,19,20,21,22,23,24,25,26,27,28,29,30,31,32,33,34,35"/>
  <line x1="165" x2="444" y1="32" y2="32" class="net_4,5,6,7,8,9,10,11,12,13,14,15,16,17,18,19,20,21,22,23,24,25,26,27,28,29,30,31,32,33,34,35"/>
  <line x1="444" x2="444" y1="32" y2="167" class="net_4,5,6,7,8,9,10,11,12,13,14,15,16,17,18,19,20,21,22,23,24,25,26,27,28,29,30,31,32,33,34,35"/>
  <line x1="444" x2="543" y1="167" y2="167" class="net_4,5,6,7,8,9,10,11,12,13,14,15,16,17,18,19,20,21,22,23,24,25,26,27,28,29,30,31,32,33,34,35"/>
  <line x1="165" x2="265" y1="32" y2="32" class="net_4,5,6,7,8,9,10,11,12,13,14,15,16,17,18,19,20,21,22,23,24,25,26,27,28,29,30,31,32,33,34,35"/>
  <line x1="265" x2="265" y1="32" y2="669.5" class="net_4,5,6,7,8,9,10,11,12,13,14,15,16,17,18,19,20,21,22,23,24,25,26,27,28,29,30,31,32,33,34,35"/>
  <line x1="265" x2="454" y1="669.5" y2="669.5" class="net_4,5,6,7,8,9,10,11,12,13,14,15,16,17,18,19,20,21,22,23,24,25,26,27,28,29,30,31,32,33,34,35"/>
  <line x1="454" x2="454" y1="669.5" y2="791" class="net_4,5,6,7,8,9,10,11,12,13,14,15,16,17,18,19,20,21,22,23,24,25,26,27,28,29,30,31,32,33,34,35"/>
  <line x1="454" x2="534.25" y1="791" y2="791" class="net_4,5,6,7,8,9,10,11,12,13,14,15,16,17,18,19,20,21,22,23,24,25,26,27,28,29,30,31,32,33,34,35"/>
  <line x1="165" x2="245" y1="162" y2="162" class="net_36,37,38,39,40,41,42,43"/>
  <line x1="245" x2="245" y1="162" y2="587.5" class="net_36,37,38,39,40,41,42,43"/>
  <line x1="245" x2="862" y1="587.5" y2="587.5" class="net_36,37,38,39,40,41,42,43"/>
  <line x1="862" x2="862" y1="587.5" y2="578.5" class="net_36,37,38,39,40,41,42,43"/>
  <circle cx="245" cy="162" r="2" style="fill:#000" class="net_36,37,38,39,40,41,42,43"/>
  <circle cx="245" cy="587.5" r="2" style="fill:#000" class="net_36,37,38,39,40,41,42,43"/>
  <line x1="862" x2="941" y1="578.5" y2="578.5" class="net_36,37,38,39,40,41,42,43"/>
  <line x1="165" x2="245" y1="162" y2="162" class="net_36,37,38,39,40,41,42,43"/>
  <line x1="245" x2="245" y1="162" y2="432" class="net_36,37,38,39,40,41,42,43"/>
  <circle cx="245" cy="432" r="2" style="fill:#000" class="net_36,37,38,39,40,41,42,43"/>
  <line x1="245" x2="330" y1="432" y2="432" class="net_36,37,38,39,40,41,42,43"/>
  <line x1="165" x2="424" y1="162" y2="162" class="net_36,37,38,39,40,41,42,43"/>
  <line x1="424" x2="424" y1="162" y2="207" class="net_36,37,38,39,40,41,42,43"/>
  <line x1="424" x2="543" y1="207" y2="207" class="net_36,37,38,39,40,41,42,43"/>
  <line x1="165" x2="245" y1="162" y2="162" class="net_36,37,38,39,40,41,42,43"/>
  <line x1="245" x2="245" y1="162" y2="691.5" class="net_36,37,38,39,40,41,42,43"/>
  <line x1="245" x2="434" y1="691.5" y2="691.5" class="net_36,37,38,39,40,41,42,43"/>
  <line x1="434" x2="434" y1="691.5" y2="831" class="net_36,37,38,39,40,41,42,43"/>
  <line x1="434" x2="534.25" y1="831" y2="831" class="net_36,37,38,39,40,41,42,43"/>
  <line x1="165" x2="235" y1="227" y2="227" class="net_44"/>
  <line x1="235" x2="235" y1="227" y2="598.5" class="net_44"/>
  <circle cx="235" cy="227" r="2" style="fill:#000" class="net_44"/>
  <circle cx="235" cy="598.5" r="2" style="fill:#000" class="net_44"/>
  <line x1="235" x2="941" y1="598.5" y2="598.5" class="net_44"/>
  <line x1="165" x2="235" y1="227" y2="227" class="net_44"/>
  <line x1="235" x2="235" y1="227" y2="452" class="net_44"/>
  <circle cx="235" cy="452" r="2" style="fill:#000" class="net_44"/>
  <line x1="235" x2="330" y1="452" y2="452" class="net_44"/>
  <line x1="165" x2="543" y1="227" y2="227" class="net_44"/>
  <line x1="165" x2="235" y1="227" y2="227" class="net_44"/>
  <line x1="235" x2="235" y1="227" y2="702.5" class="net_44"/>
  <line x1="235" x2="424" y1="702.5" y2="702.5" class="net_44"/>
  <line x1="424" x2="424" y1="702.5" y2="851" class="net_44"/>
  <line x1="424" x2="534.25" y1="851" y2="851" class="net_44"/>
  <line x1="165" x2="225" y1="292" y2="292" class="net_45"/>
  <line x1="225" x2="225" y1="292" y2="620.5" class="net_45"/>
  <line x1="225" x2="862" y1="620.5" y2="620.5" class="net_45"/>
  <line x1="862" x2="862" y1="620.5" y2="638.5" class="net_45"/>
  <circle cx="225" cy="620.5" r="2" style="fill:#000" class="net_45"/>
  <line x1="862" x2="941" y1="638.5" y2="638.5" class="net_45"/>
  <line x1="165" x2="225" y1="292" y2="292" class="net_45"/>
  <line x1="225" x2="225" y1="292" y2="492" class="net_45"/>
  <circle cx="225" cy="492" r="2" style="fill:#000" class="net_45"/>
  <line x1="225" x2="330" y1="492" y2="492" class="net_45"/>
  <line x1="165" x2="225" y1="292" y2="292" class="net_45"/>
  <line x1="225" x2="225" y1="292" y2="360.5" class="net_45"/>
  <line x1="225" x2="434" y1="360.5" y2="360.5" class="net_45"/>
  <line x1="434" x2="434" y1="360.5" y2="267" class="net_45"/>
  <circle cx="225" cy="360.5" r="2" style="fill:#000" class="net_45"/>
  <line x1="434" x2="543" y1="267" y2="267" class="net_45"/>
  <line x1="165" x2="225" y1="292" y2="292" class="net_45"/>
  <line x1="225" x2="225" y1="292" y2="882" class="net_45"/>
  <line x1="225" x2="424" y1="882" y2="882" class="net_45"/>
  <line x1="424" x2="424" y1="882" y2="891" class="net_45"/>
  <line x1="424" x2="534.25" y1="891" y2="891" class="net_45"/>
  <line x1="758.5" x2="941" y1="658.5" y2="658.5" class="net_56,57,96,97,98,99,100,101"/>
  <line x1="167" x2="195" y1="417" y2="417" class="net_107"/>
  <line x1="195" x2="195" y1="417" y2="512" class="net_107"/>
  <circle cx="195" cy="512" r="2" style="fill:#000" class="net_107"/>
  <line x1="195" x2="330" y1="512" y2="512" class="net_107"/>
  <line x1="167" x2="195" y1="417" y2="417" class="net_107"/>
  <line x1="195" x2="195" y1="417" y2="893" class="net_107"/>
  <line x1="195" x2="424" y1="893" y2="893" class="net_107"/>
  <line x1="424" x2="424" y1="893" y2="911" class="net_107"/>
  <line x1="424" x2="534.25" y1="911" y2="911" class="net_107"/>
  <line x1="361" x2="454" y1="392" y2="392" class="net_102"/>
  <line x1="454" x2="454" y1="392" y2="307" class="net_102"/>
  <line x1="454" x2="543" y1="307" y2="307" class="net_102"/>
  <line x1="358" x2="534.25" y1="931" y2="931" class="net_54"/>
  <line x1="358" x2="424" y1="996" y2="996" class="net_47"/>
  <line x1="424" x2="424" y1="996" y2="951" class="net_47"/>
  <line x1="424" x2="534.25" y1="951" y2="951" class="net_47"/>
  <line x1="766" x2="941" y1="157" y2="157" class="net_48"/>
  <line x1="766" x2="882" y1="177" y2="177" class="net_49"/>
  <line x1="882" x2="882" y1="177" y2="222" class="net_49"/>
  <line x1="882" x2="941" y1="222" y2="222" class="net_49"/>
  <line x1="766" x2="872" y1="197" y2="197" class="net_50"/>
  <line x1="872" x2="872" y1="197" y2="287" class="net_50"/>
  <line x1="872" x2="941" y1="287" y2="287" class="net_50"/>
  <line x1="766" x2="862" y1="217" y2="217" class="net_51"/>
  <line x1="862" x2="862" y1="217" y2="352" class="net_51"/>
  <line x1="862" x2="941" y1="352" y2="352" class="net_51"/>
  <line x1="565.25" x2="941" y1="791" y2="791" class="net_52"/>
  <line x1="565.25" x2="647" y1="811" y2="811" class="net_53"/>
  <line x1="647" x2="647" y1="811" y2="856" class="net_53"/>
  <line x1="647" x2="941" y1="856" y2="856" class="net_53"/>
  <line x1="764.5" x2="941" y1="921" y2="921" class="net_55"/>
  <line x1="647" x2="647" y1="648.5" y2="726" class="net_56"/>
  <line x1="647" x2="941" y1="726" y2="726" class="net_56"/>
  <line x1="647" x2="752.5" y1="648.5" y2="648.5" class="net_56"/>
  <line x1="773" x2="917" y1="1043.5" y2="1043.5" class="net_58,59,60,61,62,63,64,65,66,67,68,69,70,71,72,73,74,75,76,77,78,79,80,81,82,83,84,85,86,87,88,89"/>
  <line x1="773" x2="862" y1="1063.5" y2="1063.5" class="net_91"/>
  <line x1="862" x2="862" y1="1063.5" y2="1108.5" class="net_91"/>
  <line x1="862" x2="935" y1="1108.5" y2="1108.5" class="net_91"/>
  <line x1="574" x2="761" y1="167" y2="167" class="net_48,49,50,51,103,104,105,106"/>
</svg>
