<svg xmlns="http://www.w3.org/2000/svg" xmlns:xlink="http://www.w3.org/1999/xlink" xmlns:s="https://github.com/nturley/netlistsvg" width="1490" height="972.5">
  <style>svg {
    stroke:#000;
    fill:none;
  }
  text {
    fill:#000;
    stroke:none;
    font-size:10px;
    font-weight: bold;
    font-family: "Courier New", monospace;
  }
  line {
      stroke-linecap: round;
  }
  .nodelabel {
    text-anchor: middle;
  }
  .inputPortLabel {
    text-anchor: end;
  }
  .splitjoinBody {
    fill:#000;
  }</style>
  <g s:type="generic" transform="translate(573,527.5)" s:width="30" s:height="40" id="cell__1_">
    <s:alias val="generic-bus">TIEHLVT</s:alias>
    <text x="15" y="-4" class="nodelabel cell__1_" s:attribute="ref">_1_</text>
    <rect width="30" height="20" s:generic="body" class="cell__1_"/>
    <g transform="translate(30,10)" s:x="30" s:y="10" s:pid="out0" id="port__1_~Z">
      <text x="5" y="-4" style="fill:#000; stroke:none" class="cell__1_">Z</text>
    </g>
  </g>
  <g s:type="generic" transform="translate(1133,388)" s:width="30" s:height="40" id="cell_caparray_n">
    <s:alias val="generic-bus">caparray</s:alias>
    <text x="15" y="-4" class="nodelabel cell_caparray_n" s:attribute="ref">caparray_n</text>
    <rect width="30" height="60" s:generic="body" class="cell_caparray_n"/>
    <g transform="translate(0,10)" s:x="0" s:y="10" s:pid="in0" id="port_caparray_n~cap_botplate_diff">
      <text x="-3" y="-4" class="inputPortLabel cell_caparray_n">cap_botplate_diff</text>
    </g>
    <g transform="translate(0,30)" s:x="0" s:y="10" s:pid="in0" id="port_caparray_n~cap_botplate_main">
      <text x="-3" y="-4" class="inputPortLabel cell_caparray_n">cap_botplate_main</text>
    </g>
    <g transform="translate(0,50)" s:x="0" s:y="10" s:pid="in0" id="port_caparray_n~cap_topplate_in">
      <text x="-3" y="-4" class="inputPortLabel cell_caparray_n">cap_topplate_in</text>
    </g>
    <g transform="translate(30,10)" s:x="30" s:y="10" s:pid="out0" id="port_caparray_n~cap_topplate_out">
      <text x="5" y="-4" style="fill:#000; stroke:none" class="cell_caparray_n">cap_topplate_out</text>
    </g>
  </g>
  <g s:type="generic" transform="translate(1133,717)" s:width="30" s:height="40" id="cell_caparray_p">
    <s:alias val="generic-bus">caparray</s:alias>
    <text x="15" y="-4" class="nodelabel cell_caparray_p" s:attribute="ref">caparray_p</text>
    <rect width="30" height="60" s:generic="body" class="cell_caparray_p"/>
    <g transform="translate(0,10)" s:x="0" s:y="10" s:pid="in0" id="port_caparray_p~cap_botplate_diff">
      <text x="-3" y="-4" class="inputPortLabel cell_caparray_p">cap_botplate_diff</text>
    </g>
    <g transform="translate(0,30)" s:x="0" s:y="10" s:pid="in0" id="port_caparray_p~cap_botplate_main">
      <text x="-3" y="-4" class="inputPortLabel cell_caparray_p">cap_botplate_main</text>
    </g>
    <g transform="translate(0,50)" s:x="0" s:y="10" s:pid="in0" id="port_caparray_p~cap_topplate_in">
      <text x="-3" y="-4" class="inputPortLabel cell_caparray_p">cap_topplate_in</text>
    </g>
    <g transform="translate(30,10)" s:x="30" s:y="10" s:pid="out0" id="port_caparray_p~cap_topplate_out">
      <text x="5" y="-4" style="fill:#000; stroke:none" class="cell_caparray_p">cap_topplate_out</text>
    </g>
  </g>
  <g s:type="generic" transform="translate(777,298)" s:width="30" s:height="40" id="cell_capdriver_n_diff">
    <s:alias val="generic-bus">capdriver</s:alias>
    <text x="15" y="-4" class="nodelabel cell_capdriver_n_diff" s:attribute="ref">capdriver_n_diff</text>
    <rect width="30" height="40" s:generic="body" class="cell_capdriver_n_diff"/>
    <g transform="translate(0,10)" s:x="0" s:y="10" s:pid="in0" id="port_capdriver_n_diff~dac_drive_invert">
      <text x="-3" y="-4" class="inputPortLabel cell_capdriver_n_diff">dac_drive_invert</text>
    </g>
    <g transform="translate(0,30)" s:x="0" s:y="10" s:pid="in0" id="port_capdriver_n_diff~dac_state">
      <text x="-3" y="-4" class="inputPortLabel cell_capdriver_n_diff">dac_state</text>
    </g>
    <g transform="translate(30,10)" s:x="30" s:y="10" s:pid="out0" id="port_capdriver_n_diff~dac_drive">
      <text x="5" y="-4" style="fill:#000; stroke:none" class="cell_capdriver_n_diff">dac_drive</text>
    </g>
  </g>
  <g s:type="generic" transform="translate(777,408)" s:width="30" s:height="40" id="cell_capdriver_n_main">
    <s:alias val="generic-bus">capdriver</s:alias>
    <text x="15" y="-4" class="nodelabel cell_capdriver_n_main" s:attribute="ref">capdriver_n_main</text>
    <rect width="30" height="40" s:generic="body" class="cell_capdriver_n_main"/>
    <g transform="translate(0,10)" s:x="0" s:y="10" s:pid="in0" id="port_capdriver_n_main~dac_drive_invert">
      <text x="-3" y="-4" class="inputPortLabel cell_capdriver_n_main">dac_drive_invert</text>
    </g>
    <g transform="translate(0,30)" s:x="0" s:y="10" s:pid="in0" id="port_capdriver_n_main~dac_state">
      <text x="-3" y="-4" class="inputPortLabel cell_capdriver_n_main">dac_state</text>
    </g>
    <g transform="translate(30,10)" s:x="30" s:y="10" s:pid="out0" id="port_capdriver_n_main~dac_drive">
      <text x="5" y="-4" style="fill:#000; stroke:none" class="cell_capdriver_n_main">dac_drive</text>
    </g>
  </g>
  <g s:type="generic" transform="translate(777,649)" s:width="30" s:height="40" id="cell_capdriver_p_diff">
    <s:alias val="generic-bus">capdriver</s:alias>
    <text x="15" y="-4" class="nodelabel cell_capdriver_p_diff" s:attribute="ref">capdriver_p_diff</text>
    <rect width="30" height="40" s:generic="body" class="cell_capdriver_p_diff"/>
    <g transform="translate(0,10)" s:x="0" s:y="10" s:pid="in0" id="port_capdriver_p_diff~dac_drive_invert">
      <text x="-3" y="-4" class="inputPortLabel cell_capdriver_p_diff">dac_drive_invert</text>
    </g>
    <g transform="translate(0,30)" s:x="0" s:y="10" s:pid="in0" id="port_capdriver_p_diff~dac_state">
      <text x="-3" y="-4" class="inputPortLabel cell_capdriver_p_diff">dac_state</text>
    </g>
    <g transform="translate(30,10)" s:x="30" s:y="10" s:pid="out0" id="port_capdriver_p_diff~dac_drive">
      <text x="5" y="-4" style="fill:#000; stroke:none" class="cell_capdriver_p_diff">dac_drive</text>
    </g>
  </g>
  <g s:type="generic" transform="translate(777,737)" s:width="30" s:height="40" id="cell_capdriver_p_main">
    <s:alias val="generic-bus">capdriver</s:alias>
    <text x="15" y="-4" class="nodelabel cell_capdriver_p_main" s:attribute="ref">capdriver_p_main</text>
    <rect width="30" height="40" s:generic="body" class="cell_capdriver_p_main"/>
    <g transform="translate(0,10)" s:x="0" s:y="10" s:pid="in0" id="port_capdriver_p_main~dac_drive_invert">
      <text x="-3" y="-4" class="inputPortLabel cell_capdriver_p_main">dac_drive_invert</text>
    </g>
    <g transform="translate(0,30)" s:x="0" s:y="10" s:pid="in0" id="port_capdriver_p_main~dac_state">
      <text x="-3" y="-4" class="inputPortLabel cell_capdriver_p_main">dac_state</text>
    </g>
    <g transform="translate(30,10)" s:x="30" s:y="10" s:pid="out0" id="port_capdriver_p_main~dac_drive">
      <text x="5" y="-4" style="fill:#000; stroke:none" class="cell_capdriver_p_main">dac_drive</text>
    </g>
  </g>
  <g s:type="generic" transform="translate(195,266.5)" s:width="30" s:height="40" id="cell_clkgate">
    <s:alias val="generic-bus">clkgate</s:alias>
    <text x="15" y="-4" class="nodelabel cell_clkgate" s:attribute="ref">clkgate</text>
    <rect width="30" height="180" s:generic="body" class="cell_clkgate"/>
    <g transform="translate(0,10)" s:x="0" s:y="10" s:pid="in0" id="port_clkgate~en_comp">
      <text x="-3" y="-4" class="inputPortLabel cell_clkgate">en_comp</text>
    </g>
    <g transform="translate(0,30)" s:x="0" s:y="10" s:pid="in0" id="port_clkgate~en_init">
      <text x="-3" y="-4" class="inputPortLabel cell_clkgate">en_init</text>
    </g>
    <g transform="translate(0,50)" s:x="0" s:y="10" s:pid="in0" id="port_clkgate~en_samp_n">
      <text x="-3" y="-4" class="inputPortLabel cell_clkgate">en_samp_n</text>
    </g>
    <g transform="translate(0,70)" s:x="0" s:y="10" s:pid="in0" id="port_clkgate~en_samp_p">
      <text x="-3" y="-4" class="inputPortLabel cell_clkgate">en_samp_p</text>
    </g>
    <g transform="translate(0,90)" s:x="0" s:y="10" s:pid="in0" id="port_clkgate~en_update">
      <text x="-3" y="-4" class="inputPortLabel cell_clkgate">en_update</text>
    </g>
    <g transform="translate(0,110)" s:x="0" s:y="10" s:pid="in0" id="port_clkgate~seq_comp">
      <text x="-3" y="-4" class="inputPortLabel cell_clkgate">seq_comp</text>
    </g>
    <g transform="translate(0,130)" s:x="0" s:y="10" s:pid="in0" id="port_clkgate~seq_init">
      <text x="-3" y="-4" class="inputPortLabel cell_clkgate">seq_init</text>
    </g>
    <g transform="translate(0,150)" s:x="0" s:y="10" s:pid="in0" id="port_clkgate~seq_samp">
      <text x="-3" y="-4" class="inputPortLabel cell_clkgate">seq_samp</text>
    </g>
    <g transform="translate(0,170)" s:x="0" s:y="10" s:pid="in0" id="port_clkgate~seq_update">
      <text x="-3" y="-4" class="inputPortLabel cell_clkgate">seq_update</text>
    </g>
    <g transform="translate(30,10)" s:x="30" s:y="10" s:pid="out0" id="port_clkgate~clk_comp">
      <text x="5" y="-4" style="fill:#000; stroke:none" class="cell_clkgate">clk_comp</text>
    </g>
    <g transform="translate(30,30)" s:x="30" s:y="10" s:pid="out0" id="port_clkgate~clk_init">
      <text x="5" y="-4" style="fill:#000; stroke:none" class="cell_clkgate">clk_init</text>
    </g>
    <g transform="translate(30,50)" s:x="30" s:y="10" s:pid="out0" id="port_clkgate~clk_samp_n">
      <text x="5" y="-4" style="fill:#000; stroke:none" class="cell_clkgate">clk_samp_n</text>
    </g>
    <g transform="translate(30,70)" s:x="30" s:y="10" s:pid="out0" id="port_clkgate~clk_samp_p">
      <text x="5" y="-4" style="fill:#000; stroke:none" class="cell_clkgate">clk_samp_p</text>
    </g>
    <g transform="translate(30,90)" s:x="30" s:y="10" s:pid="out0" id="port_clkgate~clk_update">
      <text x="5" y="-4" style="fill:#000; stroke:none" class="cell_clkgate">clk_update</text>
    </g>
  </g>
  <g s:type="generic" transform="translate(1327,368)" s:width="30" s:height="40" id="cell_comp">
    <s:alias val="generic-bus">comp</s:alias>
    <text x="15" y="-4" class="nodelabel cell_comp" s:attribute="ref">comp</text>
    <rect width="30" height="60" s:generic="body" class="cell_comp"/>
    <g transform="translate(0,10)" s:x="0" s:y="10" s:pid="in0" id="port_comp~clk">
      <text x="-3" y="-4" class="inputPortLabel cell_comp">clk</text>
    </g>
    <g transform="translate(0,30)" s:x="0" s:y="10" s:pid="in0" id="port_comp~vin_n">
      <text x="-3" y="-4" class="inputPortLabel cell_comp">vin_n</text>
    </g>
    <g transform="translate(0,50)" s:x="0" s:y="10" s:pid="in0" id="port_comp~vin_p">
      <text x="-3" y="-4" class="inputPortLabel cell_comp">vin_p</text>
    </g>
    <g transform="translate(30,10)" s:x="30" s:y="10" s:pid="out0" id="port_comp~dout_n">
      <text x="5" y="-4" style="fill:#000; stroke:none" class="cell_comp">dout_n</text>
    </g>
    <g transform="translate(30,30)" s:x="30" s:y="10" s:pid="out0" id="port_comp~dout_p">
      <text x="5" y="-4" style="fill:#000; stroke:none" class="cell_comp">dout_p</text>
    </g>
  </g>
  <g s:type="generic" transform="translate(440,649)" s:width="30" s:height="40" id="cell_salogic_dual">
    <s:alias val="generic-bus">salogic</s:alias>
    <text x="15" y="-4" class="nodelabel cell_salogic_dual" s:attribute="ref">salogic_dual</text>
    <rect width="30" height="180" s:generic="body" class="cell_salogic_dual"/>
    <g transform="translate(0,10)" s:x="0" s:y="10" s:pid="in0" id="port_salogic_dual~clk_init">
      <text x="-3" y="-4" class="inputPortLabel cell_salogic_dual">clk_init</text>
    </g>
    <g transform="translate(0,30)" s:x="0" s:y="10" s:pid="in0" id="port_salogic_dual~clk_update">
      <text x="-3" y="-4" class="inputPortLabel cell_salogic_dual">clk_update</text>
    </g>
    <g transform="translate(0,50)" s:x="0" s:y="10" s:pid="in0" id="port_salogic_dual~comp_n">
      <text x="-3" y="-4" class="inputPortLabel cell_salogic_dual">comp_n</text>
    </g>
    <g transform="translate(0,70)" s:x="0" s:y="10" s:pid="in0" id="port_salogic_dual~comp_p">
      <text x="-3" y="-4" class="inputPortLabel cell_salogic_dual">comp_p</text>
    </g>
    <g transform="translate(0,90)" s:x="0" s:y="10" s:pid="in0" id="port_salogic_dual~dac_astate_n">
      <text x="-3" y="-4" class="inputPortLabel cell_salogic_dual">dac_astate_n</text>
    </g>
    <g transform="translate(0,110)" s:x="0" s:y="10" s:pid="in0" id="port_salogic_dual~dac_astate_p">
      <text x="-3" y="-4" class="inputPortLabel cell_salogic_dual">dac_astate_p</text>
    </g>
    <g transform="translate(0,130)" s:x="0" s:y="10" s:pid="in0" id="port_salogic_dual~dac_bstate_n">
      <text x="-3" y="-4" class="inputPortLabel cell_salogic_dual">dac_bstate_n</text>
    </g>
    <g transform="translate(0,150)" s:x="0" s:y="10" s:pid="in0" id="port_salogic_dual~dac_bstate_p">
      <text x="-3" y="-4" class="inputPortLabel cell_salogic_dual">dac_bstate_p</text>
    </g>
    <g transform="translate(0,170)" s:x="0" s:y="10" s:pid="in0" id="port_salogic_dual~dac_mode">
      <text x="-3" y="-4" class="inputPortLabel cell_salogic_dual">dac_mode</text>
    </g>
    <g transform="translate(30,10)" s:x="30" s:y="10" s:pid="out0" id="port_salogic_dual~dac_state_n">
      <text x="5" y="-4" style="fill:#000; stroke:none" class="cell_salogic_dual">dac_state_n</text>
    </g>
    <g transform="translate(30,30)" s:x="30" s:y="10" s:pid="out0" id="port_salogic_dual~dac_state_p">
      <text x="5" y="-4" style="fill:#000; stroke:none" class="cell_salogic_dual">dac_state_p</text>
    </g>
  </g>
  <g s:type="generic" transform="translate(939,496)" s:width="30" s:height="40" id="cell_samp_n">
    <s:alias val="generic-bus">sampswitch</s:alias>
    <text x="15" y="-4" class="nodelabel cell_samp_n" s:attribute="ref">samp_n</text>
    <rect width="30" height="60" s:generic="body" class="cell_samp_n"/>
    <g transform="translate(0,10)" s:x="0" s:y="10" s:pid="in0" id="port_samp_n~clk">
      <text x="-3" y="-4" class="inputPortLabel cell_samp_n">clk</text>
    </g>
    <g transform="translate(0,30)" s:x="0" s:y="10" s:pid="in0" id="port_samp_n~clk_b">
      <text x="-3" y="-4" class="inputPortLabel cell_samp_n">clk_b</text>
    </g>
    <g transform="translate(0,50)" s:x="0" s:y="10" s:pid="in0" id="port_samp_n~vin">
      <text x="-3" y="-4" class="inputPortLabel cell_samp_n">vin</text>
    </g>
    <g transform="translate(30,10)" s:x="30" s:y="10" s:pid="out0" id="port_samp_n~vout">
      <text x="5" y="-4" style="fill:#000; stroke:none" class="cell_samp_n">vout</text>
    </g>
  </g>
  <g s:type="generic" transform="translate(939,831.5)" s:width="30" s:height="40" id="cell_samp_p">
    <s:alias val="generic-bus">sampswitch</s:alias>
    <text x="15" y="-4" class="nodelabel cell_samp_p" s:attribute="ref">samp_p</text>
    <rect width="30" height="60" s:generic="body" class="cell_samp_p"/>
    <g transform="translate(0,10)" s:x="0" s:y="10" s:pid="in0" id="port_samp_p~clk">
      <text x="-3" y="-4" class="inputPortLabel cell_samp_p">clk</text>
    </g>
    <g transform="translate(0,30)" s:x="0" s:y="10" s:pid="in0" id="port_samp_p~clk_b">
      <text x="-3" y="-4" class="inputPortLabel cell_samp_p">clk_b</text>
    </g>
    <g transform="translate(0,50)" s:x="0" s:y="10" s:pid="in0" id="port_samp_p~vin">
      <text x="-3" y="-4" class="inputPortLabel cell_samp_p">vin</text>
    </g>
    <g transform="translate(30,10)" s:x="30" s:y="10" s:pid="out0" id="port_samp_p~vout">
      <text x="5" y="-4" style="fill:#000; stroke:none" class="cell_samp_p">vout</text>
    </g>
  </g>
  <g s:type="generic" transform="translate(766.6666666666666,496)" s:width="30" s:height="40" id="cell_sampdriver_n">
    <s:alias val="generic-bus">sampdriver</s:alias>
    <text x="15" y="-4" class="nodelabel cell_sampdriver_n" s:attribute="ref">sampdriver_n</text>
    <rect width="30" height="40" s:generic="body" class="cell_sampdriver_n"/>
    <g transform="translate(0,10)" s:x="0" s:y="10" s:pid="in0" id="port_sampdriver_n~clk_in">
      <text x="-3" y="-4" class="inputPortLabel cell_sampdriver_n">clk_in</text>
    </g>
    <g transform="translate(30,10)" s:x="30" s:y="10" s:pid="out0" id="port_sampdriver_n~clk_out">
      <text x="5" y="-4" style="fill:#000; stroke:none" class="cell_sampdriver_n">clk_out</text>
    </g>
    <g transform="translate(30,30)" s:x="30" s:y="10" s:pid="out0" id="port_sampdriver_n~clk_out_b">
      <text x="5" y="-4" style="fill:#000; stroke:none" class="cell_sampdriver_n">clk_out_b</text>
    </g>
  </g>
  <g s:type="generic" transform="translate(766.6666666666666,831.5)" s:width="30" s:height="40" id="cell_sampdriver_p">
    <s:alias val="generic-bus">sampdriver</s:alias>
    <text x="15" y="-4" class="nodelabel cell_sampdriver_p" s:attribute="ref">sampdriver_p</text>
    <rect width="30" height="40" s:generic="body" class="cell_sampdriver_p"/>
    <g transform="translate(0,10)" s:x="0" s:y="10" s:pid="in0" id="port_sampdriver_p~clk_in">
      <text x="-3" y="-4" class="inputPortLabel cell_sampdriver_p">clk_in</text>
    </g>
    <g transform="translate(30,10)" s:x="30" s:y="10" s:pid="out0" id="port_sampdriver_p~clk_out">
      <text x="5" y="-4" style="fill:#000; stroke:none" class="cell_sampdriver_p">clk_out</text>
    </g>
    <g transform="translate(30,30)" s:x="30" s:y="10" s:pid="out0" id="port_sampdriver_p~clk_out_b">
      <text x="5" y="-4" style="fill:#000; stroke:none" class="cell_sampdriver_p">clk_out_b</text>
    </g>
  </g>
  <g s:type="inputExt" transform="translate(12,477)" s:width="30" s:height="20" id="cell_seq_init">
    <text x="15" y="-4" class="nodelabel cell_seq_init" s:attribute="ref">seq_init</text>
    <s:alias val="$_inputExt_"/>
    <path d="M0,0 L0,20 L15,20 L30,10 L15,0 Z" class="cell_seq_init"/>
    <g s:x="30" s:y="10" s:pid="Y"/>
  </g>
  <g s:type="inputExt" transform="translate(12,542)" s:width="30" s:height="20" id="cell_seq_samp">
    <text x="15" y="-4" class="nodelabel cell_seq_samp" s:attribute="ref">seq_samp</text>
    <s:alias val="$_inputExt_"/>
    <path d="M0,0 L0,20 L15,20 L30,10 L15,0 Z" class="cell_seq_samp"/>
    <g s:x="30" s:y="10" s:pid="Y"/>
  </g>
  <g s:type="inputExt" transform="translate(12,412)" s:width="30" s:height="20" id="cell_seq_comp">
    <text x="15" y="-4" class="nodelabel cell_seq_comp" s:attribute="ref">seq_comp</text>
    <s:alias val="$_inputExt_"/>
    <path d="M0,0 L0,20 L15,20 L30,10 L15,0 Z" class="cell_seq_comp"/>
    <g s:x="30" s:y="10" s:pid="Y"/>
  </g>
  <g s:type="inputExt" transform="translate(12,607)" s:width="30" s:height="20" id="cell_seq_update">
    <text x="15" y="-4" class="nodelabel cell_seq_update" s:attribute="ref">seq_update</text>
    <s:alias val="$_inputExt_"/>
    <path d="M0,0 L0,20 L15,20 L30,10 L15,0 Z" class="cell_seq_update"/>
    <g s:x="30" s:y="10" s:pid="Y"/>
  </g>
  <g s:type="inputExt" transform="translate(12,152)" s:width="30" s:height="20" id="cell_en_init">
    <text x="15" y="-4" class="nodelabel cell_en_init" s:attribute="ref">en_init</text>
    <s:alias val="$_inputExt_"/>
    <path d="M0,0 L0,20 L15,20 L30,10 L15,0 Z" class="cell_en_init"/>
    <g s:x="30" s:y="10" s:pid="Y"/>
  </g>
  <g s:type="inputExt" transform="translate(12,282)" s:width="30" s:height="20" id="cell_en_samp_p">
    <text x="15" y="-4" class="nodelabel cell_en_samp_p" s:attribute="ref">en_samp_p</text>
    <s:alias val="$_inputExt_"/>
    <path d="M0,0 L0,20 L15,20 L30,10 L15,0 Z" class="cell_en_samp_p"/>
    <g s:x="30" s:y="10" s:pid="Y"/>
  </g>
  <g s:type="inputExt" transform="translate(12,217)" s:width="30" s:height="20" id="cell_en_samp_n">
    <text x="15" y="-4" class="nodelabel cell_en_samp_n" s:attribute="ref">en_samp_n</text>
    <s:alias val="$_inputExt_"/>
    <path d="M0,0 L0,20 L15,20 L30,10 L15,0 Z" class="cell_en_samp_n"/>
    <g s:x="30" s:y="10" s:pid="Y"/>
  </g>
  <g s:type="inputExt" transform="translate(12,87)" s:width="30" s:height="20" id="cell_en_comp">
    <text x="15" y="-4" class="nodelabel cell_en_comp" s:attribute="ref">en_comp</text>
    <s:alias val="$_inputExt_"/>
    <path d="M0,0 L0,20 L15,20 L30,10 L15,0 Z" class="cell_en_comp"/>
    <g s:x="30" s:y="10" s:pid="Y"/>
  </g>
  <g s:type="inputExt" transform="translate(12,347)" s:width="30" s:height="20" id="cell_en_update">
    <text x="15" y="-4" class="nodelabel cell_en_update" s:attribute="ref">en_update</text>
    <s:alias val="$_inputExt_"/>
    <path d="M0,0 L0,20 L15,20 L30,10 L15,0 Z" class="cell_en_update"/>
    <g s:x="30" s:y="10" s:pid="Y"/>
  </g>
  <g s:type="inputExt" transform="translate(195,940.5)" s:width="30" s:height="20" id="cell_dac_mode">
    <text x="15" y="-4" class="nodelabel cell_dac_mode" s:attribute="ref">dac_mode</text>
    <s:alias val="$_inputExt_"/>
    <path d="M0,0 L0,20 L15,20 L30,10 L15,0 Z" class="cell_dac_mode"/>
    <g s:x="30" s:y="10" s:pid="Y"/>
  </g>
  <g s:type="inputExt" transform="translate(12,749.5)" s:width="30" s:height="20" id="cell_dac_astate_p">
    <text x="15" y="-4" class="nodelabel cell_dac_astate_p" s:attribute="ref">dac_astate_p</text>
    <s:alias val="$_inputExt_"/>
    <path d="M0,0 L0,20 L15,20 L30,10 L15,0 Z" class="cell_dac_astate_p"/>
    <g s:x="30" s:y="10" s:pid="Y"/>
  </g>
  <g s:type="inputExt" transform="translate(12,879.5)" s:width="30" s:height="20" id="cell_dac_bstate_p">
    <text x="15" y="-4" class="nodelabel cell_dac_bstate_p" s:attribute="ref">dac_bstate_p</text>
    <s:alias val="$_inputExt_"/>
    <path d="M0,0 L0,20 L15,20 L30,10 L15,0 Z" class="cell_dac_bstate_p"/>
    <g s:x="30" s:y="10" s:pid="Y"/>
  </g>
  <g s:type="inputExt" transform="translate(12,22)" s:width="30" s:height="20" id="cell_dac_astate_n">
    <text x="15" y="-4" class="nodelabel cell_dac_astate_n" s:attribute="ref">dac_astate_n</text>
    <s:alias val="$_inputExt_"/>
    <path d="M0,0 L0,20 L15,20 L30,10 L15,0 Z" class="cell_dac_astate_n"/>
    <g s:x="30" s:y="10" s:pid="Y"/>
  </g>
  <g s:type="inputExt" transform="translate(12,814.5)" s:width="30" s:height="20" id="cell_dac_bstate_n">
    <text x="15" y="-4" class="nodelabel cell_dac_bstate_n" s:attribute="ref">dac_bstate_n</text>
    <s:alias val="$_inputExt_"/>
    <path d="M0,0 L0,20 L15,20 L30,10 L15,0 Z" class="cell_dac_bstate_n"/>
    <g s:x="30" s:y="10" s:pid="Y"/>
  </g>
  <g s:type="inputExt" transform="translate(573,379.5)" s:width="30" s:height="20" id="cell_dac_diffcaps">
    <text x="15" y="-4" class="nodelabel cell_dac_diffcaps" s:attribute="ref">dac_diffcaps</text>
    <s:alias val="$_inputExt_"/>
    <path d="M0,0 L0,20 L15,20 L30,10 L15,0 Z" class="cell_dac_diffcaps"/>
    <g s:x="30" s:y="10" s:pid="Y"/>
  </g>
  <g s:type="inputExt" transform="translate(777,919.5)" s:width="30" s:height="20" id="cell_vin_p">
    <text x="15" y="-4" class="nodelabel cell_vin_p" s:attribute="ref">vin_p</text>
    <s:alias val="$_inputExt_"/>
    <path d="M0,0 L0,20 L15,20 L30,10 L15,0 Z" class="cell_vin_p"/>
    <g s:x="30" s:y="10" s:pid="Y"/>
  </g>
  <g s:type="inputExt" transform="translate(777,584)" s:width="30" s:height="20" id="cell_vin_n">
    <text x="15" y="-4" class="nodelabel cell_vin_n" s:attribute="ref">vin_n</text>
    <s:alias val="$_inputExt_"/>
    <path d="M0,0 L0,20 L15,20 L30,10 L15,0 Z" class="cell_vin_n"/>
    <g s:x="30" s:y="10" s:pid="Y"/>
  </g>
  <g s:type="outputExt" transform="translate(1430,388.5)" s:width="30" s:height="20" id="cell_comp_out">
    <text x="15" y="-4" class="nodelabel cell_comp_out" s:attribute="ref">comp_out</text>
    <s:alias val="$_outputExt_"/>
    <path d="M30,0 L30,20 L15,20 L0,10 L15,0 Z" class="cell_comp_out"/>
    <g s:x="0" s:y="10" s:pid="A"/>
  </g>
  <line x1="808" x2="1005" y1="308.5" y2="308.5" class="net_88,89,90,91,92,93,94,95,96,97,98,99,100,101,102,103 width_16" style="stroke-width: 2"/>
  <line x1="1005" x2="1005" y1="308.5" y2="398.5" class="net_88,89,90,91,92,93,94,95,96,97,98,99,100,101,102,103 width_16" style="stroke-width: 2"/>
  <line x1="1005" x2="1133" y1="398.5" y2="398.5" class="net_88,89,90,91,92,93,94,95,96,97,98,99,100,101,102,103 width_16" style="stroke-width: 2"/>
  <line x1="808" x2="1133" y1="418.5" y2="418.5" class="net_104,105,106,107,108,109,110,111,112,113,114,115,116,117,118,119 width_16" style="stroke-width: 2"/>
  <line x1="970" x2="1005" y1="506.5" y2="506.5" class="net_120 width_1" style="stroke-width: 1"/>
  <line x1="1005" x2="1005" y1="506.5" y2="438.5" class="net_120 width_1" style="stroke-width: 1"/>
  <line x1="1005" x2="1133" y1="438.5" y2="438.5" class="net_120 width_1" style="stroke-width: 1"/>
  <line x1="808" x2="1005" y1="659.5" y2="659.5" class="net_122,123,124,125,126,127,128,129,130,131,132,133,134,135,136,137 width_16" style="stroke-width: 2"/>
  <line x1="1005" x2="1005" y1="659.5" y2="727.5" class="net_122,123,124,125,126,127,128,129,130,131,132,133,134,135,136,137 width_16" style="stroke-width: 2"/>
  <line x1="1005" x2="1133" y1="727.5" y2="727.5" class="net_122,123,124,125,126,127,128,129,130,131,132,133,134,135,136,137 width_16" style="stroke-width: 2"/>
  <line x1="808" x2="1133" y1="747.5" y2="747.5" class="net_138,139,140,141,142,143,144,145,146,147,148,149,150,151,152,153 width_16" style="stroke-width: 2"/>
  <line x1="970" x2="1005" y1="842" y2="842" class="net_154 width_1" style="stroke-width: 1"/>
  <line x1="1005" x2="1005" y1="842" y2="767.5" class="net_154 width_1" style="stroke-width: 1"/>
  <line x1="1005" x2="1133" y1="767.5" y2="767.5" class="net_154 width_1" style="stroke-width: 1"/>
  <line x1="603" x2="665" y1="389.5" y2="389.5" class="net_76 width_1" style="stroke-width: 1"/>
  <line x1="665" x2="665" y1="389.5" y2="308.5" class="net_76 width_1" style="stroke-width: 1"/>
  <circle cx="665" cy="389.5" r="2" style="fill:#000" class="net_76 width_1"/>
  <line x1="665" x2="777" y1="308.5" y2="308.5" class="net_76 width_1" style="stroke-width: 1"/>
  <line x1="603" x2="665" y1="389.5" y2="389.5" class="net_76 width_1" style="stroke-width: 1"/>
  <line x1="665" x2="665" y1="389.5" y2="659.5" class="net_76 width_1" style="stroke-width: 1"/>
  <line x1="665" x2="777" y1="659.5" y2="659.5" class="net_76 width_1" style="stroke-width: 1"/>
  <line x1="471" x2="548" y1="659.5" y2="659.5" class="net_156,157,158,159,160,161,162,163,164,165,166,167,168,169,170,171 width_16" style="stroke-width: 2"/>
  <line x1="548" x2="548" y1="659.5" y2="328.5" class="net_156,157,158,159,160,161,162,163,164,165,166,167,168,169,170,171 width_16" style="stroke-width: 2"/>
  <line x1="548" x2="777" y1="328.5" y2="328.5" class="net_156,157,158,159,160,161,162,163,164,165,166,167,168,169,170,171 width_16" style="stroke-width: 2"/>
  <line x1="471" x2="548" y1="659.5" y2="659.5" class="net_156,157,158,159,160,161,162,163,164,165,166,167,168,169,170,171 width_16" style="stroke-width: 2"/>
  <line x1="548" x2="548" y1="659.5" y2="438.5" class="net_156,157,158,159,160,161,162,163,164,165,166,167,168,169,170,171 width_16" style="stroke-width: 2"/>
  <circle cx="548" cy="438.5" r="3" style="fill:#000" class="net_156,157,158,159,160,161,162,163,164,165,166,167,168,169,170,171 width_16"/>
  <line x1="548" x2="777" y1="438.5" y2="438.5" class="net_156,157,158,159,160,161,162,163,164,165,166,167,168,169,170,171 width_16" style="stroke-width: 2"/>
  <line x1="604" x2="655" y1="538" y2="538" class="net_87 width_1" style="stroke-width: 1"/>
  <line x1="655" x2="655" y1="538" y2="418.5" class="net_87 width_1" style="stroke-width: 1"/>
  <circle cx="655" cy="538" r="2" style="fill:#000" class="net_87 width_1"/>
  <line x1="655" x2="777" y1="418.5" y2="418.5" class="net_87 width_1" style="stroke-width: 1"/>
  <line x1="604" x2="655" y1="538" y2="538" class="net_87 width_1" style="stroke-width: 1"/>
  <line x1="655" x2="655" y1="538" y2="747.5" class="net_87 width_1" style="stroke-width: 1"/>
  <line x1="655" x2="777" y1="747.5" y2="747.5" class="net_87 width_1" style="stroke-width: 1"/>
  <line x1="471" x2="777" y1="679.5" y2="679.5" class="net_172,173,174,175,176,177,178,179,180,181,182,183,184,185,186,187 width_16" style="stroke-width: 2"/>
  <line x1="471" x2="548" y1="679.5" y2="679.5" class="net_172,173,174,175,176,177,178,179,180,181,182,183,184,185,186,187 width_16" style="stroke-width: 2"/>
  <line x1="548" x2="548" y1="679.5" y2="767.5" class="net_172,173,174,175,176,177,178,179,180,181,182,183,184,185,186,187 width_16" style="stroke-width: 2"/>
  <circle cx="548" cy="679.5" r="3" style="fill:#000" class="net_172,173,174,175,176,177,178,179,180,181,182,183,184,185,186,187 width_16"/>
  <line x1="548" x2="777" y1="767.5" y2="767.5" class="net_172,173,174,175,176,177,178,179,180,181,182,183,184,185,186,187 width_16" style="stroke-width: 2"/>
  <line x1="42" x2="124" y1="97" y2="97" class="net_9 width_1" style="stroke-width: 1"/>
  <line x1="124" x2="124" y1="97" y2="277" class="net_9 width_1" style="stroke-width: 1"/>
  <line x1="124" x2="195" y1="277" y2="277" class="net_9 width_1" style="stroke-width: 1"/>
  <line x1="42" x2="114" y1="162" y2="162" class="net_6 width_1" style="stroke-width: 1"/>
  <line x1="114" x2="114" y1="162" y2="297" class="net_6 width_1" style="stroke-width: 1"/>
  <line x1="114" x2="195" y1="297" y2="297" class="net_6 width_1" style="stroke-width: 1"/>
  <line x1="42" x2="104" y1="227" y2="227" class="net_8 width_1" style="stroke-width: 1"/>
  <line x1="104" x2="104" y1="227" y2="317" class="net_8 width_1" style="stroke-width: 1"/>
  <line x1="104" x2="195" y1="317" y2="317" class="net_8 width_1" style="stroke-width: 1"/>
  <line x1="42" x2="94" y1="292" y2="292" class="net_7 width_1" style="stroke-width: 1"/>
  <line x1="94" x2="94" y1="292" y2="337" class="net_7 width_1" style="stroke-width: 1"/>
  <line x1="94" x2="195" y1="337" y2="337" class="net_7 width_1" style="stroke-width: 1"/>
  <line x1="42" x2="195" y1="357" y2="357" class="net_10 width_1" style="stroke-width: 1"/>
  <line x1="42" x2="94" y1="422" y2="422" class="net_4 width_1" style="stroke-width: 1"/>
  <line x1="94" x2="94" y1="422" y2="377" class="net_4 width_1" style="stroke-width: 1"/>
  <line x1="94" x2="195" y1="377" y2="377" class="net_4 width_1" style="stroke-width: 1"/>
  <line x1="42" x2="104" y1="487" y2="487" class="net_2 width_1" style="stroke-width: 1"/>
  <line x1="104" x2="104" y1="487" y2="397" class="net_2 width_1" style="stroke-width: 1"/>
  <line x1="104" x2="195" y1="397" y2="397" class="net_2 width_1" style="stroke-width: 1"/>
  <line x1="42" x2="114" y1="552" y2="552" class="net_3 width_1" style="stroke-width: 1"/>
  <line x1="114" x2="114" y1="552" y2="417" class="net_3 width_1" style="stroke-width: 1"/>
  <line x1="114" x2="195" y1="417" y2="417" class="net_3 width_1" style="stroke-width: 1"/>
  <line x1="42" x2="124" y1="617" y2="617" class="net_5 width_1" style="stroke-width: 1"/>
  <line x1="124" x2="124" y1="617" y2="437" class="net_5 width_1" style="stroke-width: 1"/>
  <line x1="124" x2="195" y1="437" y2="437" class="net_5 width_1" style="stroke-width: 1"/>
  <line x1="226" x2="1271" y1="277" y2="277" class="net_188 width_1" style="stroke-width: 1"/>
  <line x1="1271" x2="1271" y1="277" y2="378.5" class="net_188 width_1" style="stroke-width: 1"/>
  <line x1="1271" x2="1327" y1="378.5" y2="378.5" class="net_188 width_1" style="stroke-width: 1"/>
  <line x1="1164" x2="1327" y1="398.5" y2="398.5" class="net_121 width_1" style="stroke-width: 1"/>
  <line x1="1164" x2="1271" y1="727.5" y2="727.5" class="net_155 width_1" style="stroke-width: 1"/>
  <line x1="1271" x2="1271" y1="727.5" y2="418.5" class="net_155 width_1" style="stroke-width: 1"/>
  <line x1="1271" x2="1327" y1="418.5" y2="418.5" class="net_155 width_1" style="stroke-width: 1"/>
  <line x1="226" x2="357" y1="297" y2="297" class="net_189 width_1" style="stroke-width: 1"/>
  <line x1="357" x2="357" y1="297" y2="659.5" class="net_189 width_1" style="stroke-width: 1"/>
  <line x1="357" x2="440" y1="659.5" y2="659.5" class="net_189 width_1" style="stroke-width: 1"/>
  <line x1="226" x2="307" y1="357" y2="357" class="net_192 width_1" style="stroke-width: 1"/>
  <line x1="307" x2="307" y1="357" y2="679.5" class="net_192 width_1" style="stroke-width: 1"/>
  <line x1="307" x2="440" y1="679.5" y2="679.5" class="net_192 width_1" style="stroke-width: 1"/>
  <line x1="1358" x2="1405" y1="398.5" y2="398.5" class="net_80 width_1" style="stroke-width: 1"/>
  <line x1="1405" x2="1405" y1="398.5" y2="266" class="net_80 width_1" style="stroke-width: 1"/>
  <line x1="1405" x2="337" y1="266" y2="266" class="net_80 width_1" style="stroke-width: 1"/>
  <line x1="337" x2="337" y1="266" y2="699.5" class="net_80 width_1" style="stroke-width: 1"/>
  <circle cx="1405" cy="398.5" r="2" style="fill:#000" class="net_80 width_1"/>
  <line x1="337" x2="440" y1="699.5" y2="699.5" class="net_80 width_1" style="stroke-width: 1"/>
  <line x1="1358" x2="1430" y1="398.5" y2="398.5" class="net_80 width_1" style="stroke-width: 1"/>
  <line x1="1358" x2="1415" y1="378.5" y2="378.5" class="net_193 width_1" style="stroke-width: 1"/>
  <line x1="1415" x2="1415" y1="378.5" y2="255" class="net_193 width_1" style="stroke-width: 1"/>
  <line x1="1415" x2="327" y1="255" y2="255" class="net_193 width_1" style="stroke-width: 1"/>
  <line x1="327" x2="327" y1="255" y2="719.5" class="net_193 width_1" style="stroke-width: 1"/>
  <line x1="327" x2="440" y1="719.5" y2="719.5" class="net_193 width_1" style="stroke-width: 1"/>
  <line x1="42" x2="317" y1="32" y2="32" class="net_44,45,46,47,48,49,50,51,52,53,54,55,56,57,58,59 width_16" style="stroke-width: 2"/>
  <line x1="317" x2="317" y1="32" y2="739.5" class="net_44,45,46,47,48,49,50,51,52,53,54,55,56,57,58,59 width_16" style="stroke-width: 2"/>
  <line x1="317" x2="440" y1="739.5" y2="739.5" class="net_44,45,46,47,48,49,50,51,52,53,54,55,56,57,58,59 width_16" style="stroke-width: 2"/>
  <line x1="42" x2="440" y1="759.5" y2="759.5" class="net_12,13,14,15,16,17,18,19,20,21,22,23,24,25,26,27 width_16" style="stroke-width: 2"/>
  <line x1="42" x2="307" y1="824.5" y2="824.5" class="net_60,61,62,63,64,65,66,67,68,69,70,71,72,73,74,75 width_16" style="stroke-width: 2"/>
  <line x1="307" x2="307" y1="824.5" y2="779.5" class="net_60,61,62,63,64,65,66,67,68,69,70,71,72,73,74,75 width_16" style="stroke-width: 2"/>
  <line x1="307" x2="440" y1="779.5" y2="779.5" class="net_60,61,62,63,64,65,66,67,68,69,70,71,72,73,74,75 width_16" style="stroke-width: 2"/>
  <line x1="42" x2="317" y1="889.5" y2="889.5" class="net_28,29,30,31,32,33,34,35,36,37,38,39,40,41,42,43 width_16" style="stroke-width: 2"/>
  <line x1="317" x2="317" y1="889.5" y2="799.5" class="net_28,29,30,31,32,33,34,35,36,37,38,39,40,41,42,43 width_16" style="stroke-width: 2"/>
  <line x1="317" x2="440" y1="799.5" y2="799.5" class="net_28,29,30,31,32,33,34,35,36,37,38,39,40,41,42,43 width_16" style="stroke-width: 2"/>
  <line x1="225" x2="327" y1="950.5" y2="950.5" class="net_11 width_1" style="stroke-width: 1"/>
  <line x1="327" x2="327" y1="950.5" y2="819.5" class="net_11 width_1" style="stroke-width: 1"/>
  <line x1="327" x2="440" y1="819.5" y2="819.5" class="net_11 width_1" style="stroke-width: 1"/>
  <line x1="797.6666666666666" x2="939" y1="506.5" y2="506.5" class="net_194 width_1" style="stroke-width: 1"/>
  <line x1="797.6666666666666" x2="939" y1="526.5" y2="526.5" class="net_195 width_1" style="stroke-width: 1"/>
  <line x1="807" x2="883" y1="594" y2="594" class="net_78 width_1" style="stroke-width: 1"/>
  <line x1="883" x2="883" y1="594" y2="546.5" class="net_78 width_1" style="stroke-width: 1"/>
  <line x1="883" x2="939" y1="546.5" y2="546.5" class="net_78 width_1" style="stroke-width: 1"/>
  <line x1="797.6666666666666" x2="939" y1="842" y2="842" class="net_196 width_1" style="stroke-width: 1"/>
  <line x1="797.6666666666666" x2="939" y1="862" y2="862" class="net_197 width_1" style="stroke-width: 1"/>
  <line x1="807" x2="883" y1="929.5" y2="929.5" class="net_77 width_1" style="stroke-width: 1"/>
  <line x1="883" x2="883" y1="929.5" y2="882" class="net_77 width_1" style="stroke-width: 1"/>
  <line x1="883" x2="939" y1="882" y2="882" class="net_77 width_1" style="stroke-width: 1"/>
  <line x1="226" x2="347" y1="317" y2="317" class="net_190 width_1" style="stroke-width: 1"/>
  <line x1="347" x2="347" y1="317" y2="506.5" class="net_190 width_1" style="stroke-width: 1"/>
  <line x1="347" x2="766.6666666666666" y1="506.5" y2="506.5" class="net_190 width_1" style="stroke-width: 1"/>
  <line x1="226" x2="297" y1="337" y2="337" class="net_191 width_1" style="stroke-width: 1"/>
  <line x1="297" x2="297" y1="337" y2="842" class="net_191 width_1" style="stroke-width: 1"/>
  <line x1="297" x2="766.6666666666666" y1="842" y2="842" class="net_191 width_1" style="stroke-width: 1"/>
  <rect x="950.5" y="303.5" width="22" height="9" class="net_88,89,90,91,92,93,94,95,96,97,98,99,100,101,102,103 width_16 busLabel_16" style="fill: white; stroke: none"/>
  <text x="949.5" y="311.5" class="net_88,89,90,91,92,93,94,95,96,97,98,99,100,101,102,103 width_16 busLabel_16">/16/</text>
  <rect x="950.5" y="413.5" width="22" height="9" class="net_104,105,106,107,108,109,110,111,112,113,114,115,116,117,118,119 width_16 busLabel_16" style="fill: white; stroke: none"/>
  <text x="949.5" y="421.5" class="net_104,105,106,107,108,109,110,111,112,113,114,115,116,117,118,119 width_16 busLabel_16">/16/</text>
  <rect x="950.5" y="654.5" width="22" height="9" class="net_122,123,124,125,126,127,128,129,130,131,132,133,134,135,136,137 width_16 busLabel_16" style="fill: white; stroke: none"/>
  <text x="949.5" y="662.5" class="net_122,123,124,125,126,127,128,129,130,131,132,133,134,135,136,137 width_16 busLabel_16">/16/</text>
  <rect x="950.5" y="742.5" width="22" height="9" class="net_138,139,140,141,142,143,144,145,146,147,148,149,150,151,152,153 width_16 busLabel_16" style="fill: white; stroke: none"/>
  <text x="949.5" y="750.5" class="net_138,139,140,141,142,143,144,145,146,147,148,149,150,151,152,153 width_16 busLabel_16">/16/</text>
  <rect x="608" y="433.5" width="22" height="9" class="net_156,157,158,159,160,161,162,163,164,165,166,167,168,169,170,171 width_16 busLabel_16" style="fill: white; stroke: none"/>
  <text x="607" y="441.5" class="net_156,157,158,159,160,161,162,163,164,165,166,167,168,169,170,171 width_16 busLabel_16">/16/</text>
  <rect x="608" y="433.5" width="22" height="9" class="net_156,157,158,159,160,161,162,163,164,165,166,167,168,169,170,171 width_16 busLabel_16" style="fill: white; stroke: none"/>
  <text x="607" y="441.5" class="net_156,157,158,159,160,161,162,163,164,165,166,167,168,169,170,171 width_16 busLabel_16">/16/</text>
  <rect x="608" y="762.5" width="22" height="9" class="net_172,173,174,175,176,177,178,179,180,181,182,183,184,185,186,187 width_16 busLabel_16" style="fill: white; stroke: none"/>
  <text x="607" y="770.5" class="net_172,173,174,175,176,177,178,179,180,181,182,183,184,185,186,187 width_16 busLabel_16">/16/</text>
  <rect x="608" y="762.5" width="22" height="9" class="net_172,173,174,175,176,177,178,179,180,181,182,183,184,185,186,187 width_16 busLabel_16" style="fill: white; stroke: none"/>
  <text x="607" y="770.5" class="net_172,173,174,175,176,177,178,179,180,181,182,183,184,185,186,187 width_16 busLabel_16">/16/</text>
  <rect x="209.5" y="27" width="22" height="9" class="net_44,45,46,47,48,49,50,51,52,53,54,55,56,57,58,59 width_16 busLabel_16" style="fill: white; stroke: none"/>
  <text x="208.5" y="35" class="net_44,45,46,47,48,49,50,51,52,53,54,55,56,57,58,59 width_16 busLabel_16">/16/</text>
  <rect x="209.5" y="754.5" width="22" height="9" class="net_12,13,14,15,16,17,18,19,20,21,22,23,24,25,26,27 width_16 busLabel_16" style="fill: white; stroke: none"/>
  <text x="208.5" y="762.5" class="net_12,13,14,15,16,17,18,19,20,21,22,23,24,25,26,27 width_16 busLabel_16">/16/</text>
  <rect x="209.5" y="819.5" width="22" height="9" class="net_60,61,62,63,64,65,66,67,68,69,70,71,72,73,74,75 width_16 busLabel_16" style="fill: white; stroke: none"/>
  <text x="208.5" y="827.5" class="net_60,61,62,63,64,65,66,67,68,69,70,71,72,73,74,75 width_16 busLabel_16">/16/</text>
  <rect x="209.5" y="884.5" width="22" height="9" class="net_28,29,30,31,32,33,34,35,36,37,38,39,40,41,42,43 width_16 busLabel_16" style="fill: white; stroke: none"/>
  <text x="208.5" y="892.5" class="net_28,29,30,31,32,33,34,35,36,37,38,39,40,41,42,43 width_16 busLabel_16">/16/</text>
</svg>
