<svg xmlns="http://www.w3.org/2000/svg" xmlns:xlink="http://www.w3.org/1999/xlink" xmlns:s="https://github.com/nturley/netlistsvg" width="829" height="960">
  <style>svg {
    stroke:#000;
    fill:none;
  }
  text {
    fill:#000;
    stroke:none;
    font-size:10px;
    font-weight: bold;
    font-family: "Courier New", monospace;
  }
  line {
      stroke-linecap: round;
  }
  .nodelabel {
    text-anchor: middle;
  }
  .inputPortLabel {
    text-anchor: end;
  }
  .splitjoinBody {
    fill:#000;
  }</style>
  <g s:type="generic" transform="translate(195,201.5)" s:width="30" s:height="40" id="cell_clkgate">
    <s:alias val="generic-bus">clkgate</s:alias>
    <text x="15" y="-4" class="nodelabel cell_clkgate" s:attribute="ref">clkgate</text>
    <rect width="30" height="180" s:generic="body" class="cell_clkgate"/>
    <g transform="translate(0,10)" s:x="0" s:y="10" s:pid="in0" id="port_clkgate~en_comp">
      <text x="-3" y="-4" class="inputPortLabel cell_clkgate">en_comp</text>
    </g>
    <g transform="translate(0,30)" s:x="0" s:y="10" s:pid="in0" id="port_clkgate~en_init">
      <text x="-3" y="-4" class="inputPortLabel cell_clkgate">en_init</text>
    </g>
    <g transform="translate(0,50)" s:x="0" s:y="10" s:pid="in0" id="port_clkgate~en_samp_n">
      <text x="-3" y="-4" class="inputPortLabel cell_clkgate">en_samp_n</text>
    </g>
    <g transform="translate(0,70)" s:x="0" s:y="10" s:pid="in0" id="port_clkgate~en_samp_p">
      <text x="-3" y="-4" class="inputPortLabel cell_clkgate">en_samp_p</text>
    </g>
    <g transform="translate(0,90)" s:x="0" s:y="10" s:pid="in0" id="port_clkgate~en_update">
      <text x="-3" y="-4" class="inputPortLabel cell_clkgate">en_update</text>
    </g>
    <g transform="translate(0,110)" s:x="0" s:y="10" s:pid="in0" id="port_clkgate~seq_comp">
      <text x="-3" y="-4" class="inputPortLabel cell_clkgate">seq_comp</text>
    </g>
    <g transform="translate(0,130)" s:x="0" s:y="10" s:pid="in0" id="port_clkgate~seq_init">
      <text x="-3" y="-4" class="inputPortLabel cell_clkgate">seq_init</text>
    </g>
    <g transform="translate(0,150)" s:x="0" s:y="10" s:pid="in0" id="port_clkgate~seq_samp">
      <text x="-3" y="-4" class="inputPortLabel cell_clkgate">seq_samp</text>
    </g>
    <g transform="translate(0,170)" s:x="0" s:y="10" s:pid="in0" id="port_clkgate~seq_update">
      <text x="-3" y="-4" class="inputPortLabel cell_clkgate">seq_update</text>
    </g>
    <g transform="translate(30,10)" s:x="30" s:y="10" s:pid="out0" id="port_clkgate~clk_comp">
      <text x="5" y="-4" style="fill:#000; stroke:none" class="cell_clkgate">clk_comp</text>
    </g>
    <g transform="translate(30,30)" s:x="30" s:y="10" s:pid="out0" id="port_clkgate~clk_init">
      <text x="5" y="-4" style="fill:#000; stroke:none" class="cell_clkgate">clk_init</text>
    </g>
    <g transform="translate(30,50)" s:x="30" s:y="10" s:pid="out0" id="port_clkgate~clk_samp_n">
      <text x="5" y="-4" style="fill:#000; stroke:none" class="cell_clkgate">clk_samp_n</text>
    </g>
    <g transform="translate(30,70)" s:x="30" s:y="10" s:pid="out0" id="port_clkgate~clk_samp_p">
      <text x="5" y="-4" style="fill:#000; stroke:none" class="cell_clkgate">clk_samp_p</text>
    </g>
    <g transform="translate(30,90)" s:x="30" s:y="10" s:pid="out0" id="port_clkgate~clk_update">
      <text x="5" y="-4" style="fill:#000; stroke:none" class="cell_clkgate">clk_update</text>
    </g>
  </g>
  <g s:type="generic" transform="translate(430,591.5)" s:width="30" s:height="40" id="cell_salogic_dual">
    <s:alias val="generic-bus">salogic</s:alias>
    <text x="15" y="-4" class="nodelabel cell_salogic_dual" s:attribute="ref">salogic_dual</text>
    <rect width="30" height="180" s:generic="body" class="cell_salogic_dual"/>
    <g transform="translate(0,10)" s:x="0" s:y="10" s:pid="in0" id="port_salogic_dual~clk_init">
      <text x="-3" y="-4" class="inputPortLabel cell_salogic_dual">clk_init</text>
    </g>
    <g transform="translate(0,30)" s:x="0" s:y="10" s:pid="in0" id="port_salogic_dual~clk_update">
      <text x="-3" y="-4" class="inputPortLabel cell_salogic_dual">clk_update</text>
    </g>
    <g transform="translate(0,50)" s:x="0" s:y="10" s:pid="in0" id="port_salogic_dual~comp_n">
      <text x="-3" y="-4" class="inputPortLabel cell_salogic_dual">comp_n</text>
    </g>
    <g transform="translate(0,70)" s:x="0" s:y="10" s:pid="in0" id="port_salogic_dual~comp_p">
      <text x="-3" y="-4" class="inputPortLabel cell_salogic_dual">comp_p</text>
    </g>
    <g transform="translate(0,90)" s:x="0" s:y="10" s:pid="in0" id="port_salogic_dual~dac_astate_n">
      <text x="-3" y="-4" class="inputPortLabel cell_salogic_dual">dac_astate_n</text>
    </g>
    <g transform="translate(0,110)" s:x="0" s:y="10" s:pid="in0" id="port_salogic_dual~dac_astate_p">
      <text x="-3" y="-4" class="inputPortLabel cell_salogic_dual">dac_astate_p</text>
    </g>
    <g transform="translate(0,130)" s:x="0" s:y="10" s:pid="in0" id="port_salogic_dual~dac_bstate_n">
      <text x="-3" y="-4" class="inputPortLabel cell_salogic_dual">dac_bstate_n</text>
    </g>
    <g transform="translate(0,150)" s:x="0" s:y="10" s:pid="in0" id="port_salogic_dual~dac_bstate_p">
      <text x="-3" y="-4" class="inputPortLabel cell_salogic_dual">dac_bstate_p</text>
    </g>
    <g transform="translate(0,170)" s:x="0" s:y="10" s:pid="in0" id="port_salogic_dual~dac_mode">
      <text x="-3" y="-4" class="inputPortLabel cell_salogic_dual">dac_mode</text>
    </g>
    <g transform="translate(30,10)" s:x="30" s:y="10" s:pid="out0" id="port_salogic_dual~dac_state_n">
      <text x="5" y="-4" style="fill:#000; stroke:none" class="cell_salogic_dual">dac_state_n</text>
    </g>
    <g transform="translate(30,30)" s:x="30" s:y="10" s:pid="out0" id="port_salogic_dual~dac_state_p">
      <text x="5" y="-4" style="fill:#000; stroke:none" class="cell_salogic_dual">dac_state_p</text>
    </g>
  </g>
  <g s:type="generic" transform="translate(600,266.5)" s:width="30" s:height="40" id="cell_sampdriver_n">
    <s:alias val="generic-bus">sampdriver</s:alias>
    <text x="15" y="-4" class="nodelabel cell_sampdriver_n" s:attribute="ref">sampdriver_n</text>
    <rect width="30" height="40" s:generic="body" class="cell_sampdriver_n"/>
    <g transform="translate(0,10)" s:x="0" s:y="10" s:pid="in0" id="port_sampdriver_n~clk_in">
      <text x="-3" y="-4" class="inputPortLabel cell_sampdriver_n">clk_in</text>
    </g>
    <g transform="translate(30,10)" s:x="30" s:y="10" s:pid="out0" id="port_sampdriver_n~clk_out">
      <text x="5" y="-4" style="fill:#000; stroke:none" class="cell_sampdriver_n">clk_out</text>
    </g>
    <g transform="translate(30,30)" s:x="30" s:y="10" s:pid="out0" id="port_sampdriver_n~clk_out_b">
      <text x="5" y="-4" style="fill:#000; stroke:none" class="cell_sampdriver_n">clk_out_b</text>
    </g>
  </g>
  <g s:type="generic" transform="translate(600,396.5)" s:width="30" s:height="40" id="cell_sampdriver_p">
    <s:alias val="generic-bus">sampdriver</s:alias>
    <text x="15" y="-4" class="nodelabel cell_sampdriver_p" s:attribute="ref">sampdriver_p</text>
    <rect width="30" height="40" s:generic="body" class="cell_sampdriver_p"/>
    <g transform="translate(0,10)" s:x="0" s:y="10" s:pid="in0" id="port_sampdriver_p~clk_in">
      <text x="-3" y="-4" class="inputPortLabel cell_sampdriver_p">clk_in</text>
    </g>
    <g transform="translate(30,10)" s:x="30" s:y="10" s:pid="out0" id="port_sampdriver_p~clk_out">
      <text x="5" y="-4" style="fill:#000; stroke:none" class="cell_sampdriver_p">clk_out</text>
    </g>
    <g transform="translate(30,30)" s:x="30" s:y="10" s:pid="out0" id="port_sampdriver_p~clk_out_b">
      <text x="5" y="-4" style="fill:#000; stroke:none" class="cell_sampdriver_p">clk_out_b</text>
    </g>
  </g>
  <g s:type="inputExt" transform="translate(12,412)" s:width="30" s:height="20" id="cell_seq_init">
    <text x="15" y="-4" class="nodelabel cell_seq_init" s:attribute="ref">seq_init</text>
    <s:alias val="$_inputExt_"/>
    <path d="M0,0 L0,20 L15,20 L30,10 L15,0 Z" class="cell_seq_init"/>
    <g s:x="30" s:y="10" s:pid="Y"/>
  </g>
  <g s:type="inputExt" transform="translate(12,477)" s:width="30" s:height="20" id="cell_seq_samp">
    <text x="15" y="-4" class="nodelabel cell_seq_samp" s:attribute="ref">seq_samp</text>
    <s:alias val="$_inputExt_"/>
    <path d="M0,0 L0,20 L15,20 L30,10 L15,0 Z" class="cell_seq_samp"/>
    <g s:x="30" s:y="10" s:pid="Y"/>
  </g>
  <g s:type="inputExt" transform="translate(12,347)" s:width="30" s:height="20" id="cell_seq_comp">
    <text x="15" y="-4" class="nodelabel cell_seq_comp" s:attribute="ref">seq_comp</text>
    <s:alias val="$_inputExt_"/>
    <path d="M0,0 L0,20 L15,20 L30,10 L15,0 Z" class="cell_seq_comp"/>
    <g s:x="30" s:y="10" s:pid="Y"/>
  </g>
  <g s:type="inputExt" transform="translate(12,542)" s:width="30" s:height="20" id="cell_seq_update">
    <text x="15" y="-4" class="nodelabel cell_seq_update" s:attribute="ref">seq_update</text>
    <s:alias val="$_inputExt_"/>
    <path d="M0,0 L0,20 L15,20 L30,10 L15,0 Z" class="cell_seq_update"/>
    <g s:x="30" s:y="10" s:pid="Y"/>
  </g>
  <g s:type="inputExt" transform="translate(12,87)" s:width="30" s:height="20" id="cell_en_init">
    <text x="15" y="-4" class="nodelabel cell_en_init" s:attribute="ref">en_init</text>
    <s:alias val="$_inputExt_"/>
    <path d="M0,0 L0,20 L15,20 L30,10 L15,0 Z" class="cell_en_init"/>
    <g s:x="30" s:y="10" s:pid="Y"/>
  </g>
  <g s:type="inputExt" transform="translate(12,217)" s:width="30" s:height="20" id="cell_en_samp_p">
    <text x="15" y="-4" class="nodelabel cell_en_samp_p" s:attribute="ref">en_samp_p</text>
    <s:alias val="$_inputExt_"/>
    <path d="M0,0 L0,20 L15,20 L30,10 L15,0 Z" class="cell_en_samp_p"/>
    <g s:x="30" s:y="10" s:pid="Y"/>
  </g>
  <g s:type="inputExt" transform="translate(12,152)" s:width="30" s:height="20" id="cell_en_samp_n">
    <text x="15" y="-4" class="nodelabel cell_en_samp_n" s:attribute="ref">en_samp_n</text>
    <s:alias val="$_inputExt_"/>
    <path d="M0,0 L0,20 L15,20 L30,10 L15,0 Z" class="cell_en_samp_n"/>
    <g s:x="30" s:y="10" s:pid="Y"/>
  </g>
  <g s:type="inputExt" transform="translate(12,22)" s:width="30" s:height="20" id="cell_en_comp">
    <text x="15" y="-4" class="nodelabel cell_en_comp" s:attribute="ref">en_comp</text>
    <s:alias val="$_inputExt_"/>
    <path d="M0,0 L0,20 L15,20 L30,10 L15,0 Z" class="cell_en_comp"/>
    <g s:x="30" s:y="10" s:pid="Y"/>
  </g>
  <g s:type="inputExt" transform="translate(12,282)" s:width="30" s:height="20" id="cell_en_update">
    <text x="15" y="-4" class="nodelabel cell_en_update" s:attribute="ref">en_update</text>
    <s:alias val="$_inputExt_"/>
    <path d="M0,0 L0,20 L15,20 L30,10 L15,0 Z" class="cell_en_update"/>
    <g s:x="30" s:y="10" s:pid="Y"/>
  </g>
  <g s:type="inputExt" transform="translate(195,928)" s:width="30" s:height="20" id="cell_dac_mode">
    <text x="15" y="-4" class="nodelabel cell_dac_mode" s:attribute="ref">dac_mode</text>
    <s:alias val="$_inputExt_"/>
    <path d="M0,0 L0,20 L15,20 L30,10 L15,0 Z" class="cell_dac_mode"/>
    <g s:x="30" s:y="10" s:pid="Y"/>
  </g>
  <g s:type="inputExt" transform="translate(12,737)" s:width="30" s:height="20" id="cell_dac_astate_p">
    <text x="15" y="-4" class="nodelabel cell_dac_astate_p" s:attribute="ref">dac_astate_p</text>
    <s:alias val="$_inputExt_"/>
    <path d="M0,0 L0,20 L15,20 L30,10 L15,0 Z" class="cell_dac_astate_p"/>
    <g s:x="30" s:y="10" s:pid="Y"/>
  </g>
  <g s:type="inputExt" transform="translate(12,867)" s:width="30" s:height="20" id="cell_dac_bstate_p">
    <text x="15" y="-4" class="nodelabel cell_dac_bstate_p" s:attribute="ref">dac_bstate_p</text>
    <s:alias val="$_inputExt_"/>
    <path d="M0,0 L0,20 L15,20 L30,10 L15,0 Z" class="cell_dac_bstate_p"/>
    <g s:x="30" s:y="10" s:pid="Y"/>
  </g>
  <g s:type="inputExt" transform="translate(12,672)" s:width="30" s:height="20" id="cell_dac_astate_n">
    <text x="15" y="-4" class="nodelabel cell_dac_astate_n" s:attribute="ref">dac_astate_n</text>
    <s:alias val="$_inputExt_"/>
    <path d="M0,0 L0,20 L15,20 L30,10 L15,0 Z" class="cell_dac_astate_n"/>
    <g s:x="30" s:y="10" s:pid="Y"/>
  </g>
  <g s:type="inputExt" transform="translate(12,802)" s:width="30" s:height="20" id="cell_dac_bstate_n">
    <text x="15" y="-4" class="nodelabel cell_dac_bstate_n" s:attribute="ref">dac_bstate_n</text>
    <s:alias val="$_inputExt_"/>
    <path d="M0,0 L0,20 L15,20 L30,10 L15,0 Z" class="cell_dac_bstate_n"/>
    <g s:x="30" s:y="10" s:pid="Y"/>
  </g>
  <g s:type="inputExt" transform="translate(195,527)" s:width="30" s:height="20" id="cell_comp_out_p">
    <text x="15" y="-4" class="nodelabel cell_comp_out_p" s:attribute="ref">comp_out_p</text>
    <s:alias val="$_inputExt_"/>
    <path d="M0,0 L0,20 L15,20 L30,10 L15,0 Z" class="cell_comp_out_p"/>
    <g s:x="30" s:y="10" s:pid="Y"/>
  </g>
  <g s:type="inputExt" transform="translate(195,623)" s:width="30" s:height="20" id="cell_comp_out_n">
    <text x="15" y="-4" class="nodelabel cell_comp_out_n" s:attribute="ref">comp_out_n</text>
    <s:alias val="$_inputExt_"/>
    <path d="M0,0 L0,20 L15,20 L30,10 L15,0 Z" class="cell_comp_out_n"/>
    <g s:x="30" s:y="10" s:pid="Y"/>
  </g>
  <g s:type="outputExt" transform="translate(721,397)" s:width="30" s:height="20" id="cell_clk_samp_p">
    <text x="15" y="-4" class="nodelabel cell_clk_samp_p" s:attribute="ref">clk_samp_p</text>
    <s:alias val="$_outputExt_"/>
    <path d="M30,0 L30,20 L15,20 L0,10 L15,0 Z" class="cell_clk_samp_p"/>
    <g s:x="0" s:y="10" s:pid="A"/>
  </g>
  <g s:type="outputExt" transform="translate(721,462)" s:width="30" s:height="20" id="cell_clk_samp_p_b">
    <text x="15" y="-4" class="nodelabel cell_clk_samp_p_b" s:attribute="ref">clk_samp_p_b</text>
    <s:alias val="$_outputExt_"/>
    <path d="M30,0 L30,20 L15,20 L0,10 L15,0 Z" class="cell_clk_samp_p_b"/>
    <g s:x="0" s:y="10" s:pid="A"/>
  </g>
  <g s:type="outputExt" transform="translate(721,267)" s:width="30" s:height="20" id="cell_clk_samp_n">
    <text x="15" y="-4" class="nodelabel cell_clk_samp_n" s:attribute="ref">clk_samp_n</text>
    <s:alias val="$_outputExt_"/>
    <path d="M30,0 L30,20 L15,20 L0,10 L15,0 Z" class="cell_clk_samp_n"/>
    <g s:x="0" s:y="10" s:pid="A"/>
  </g>
  <g s:type="outputExt" transform="translate(721,332)" s:width="30" s:height="20" id="cell_clk_samp_n_b">
    <text x="15" y="-4" class="nodelabel cell_clk_samp_n_b" s:attribute="ref">clk_samp_n_b</text>
    <s:alias val="$_outputExt_"/>
    <path d="M30,0 L30,20 L15,20 L0,10 L15,0 Z" class="cell_clk_samp_n_b"/>
    <g s:x="0" s:y="10" s:pid="A"/>
  </g>
  <g s:type="outputExt" transform="translate(721,202)" s:width="30" s:height="20" id="cell_clk_comp">
    <text x="15" y="-4" class="nodelabel cell_clk_comp" s:attribute="ref">clk_comp</text>
    <s:alias val="$_outputExt_"/>
    <path d="M30,0 L30,20 L15,20 L0,10 L15,0 Z" class="cell_clk_comp"/>
    <g s:x="0" s:y="10" s:pid="A"/>
  </g>
  <g s:type="outputExt" transform="translate(721,787)" s:width="30" s:height="20" id="cell_dac_state_p_main">
    <text x="15" y="-4" class="nodelabel cell_dac_state_p_main" s:attribute="ref">dac_state_p_main</text>
    <s:alias val="$_outputExt_"/>
    <path d="M30,0 L30,20 L15,20 L0,10 L15,0 Z" class="cell_dac_state_p_main"/>
    <g s:x="0" s:y="10" s:pid="A"/>
  </g>
  <g s:type="outputExt" transform="translate(721,722)" s:width="30" s:height="20" id="cell_dac_state_p_diff">
    <text x="15" y="-4" class="nodelabel cell_dac_state_p_diff" s:attribute="ref">dac_state_p_diff</text>
    <s:alias val="$_outputExt_"/>
    <path d="M30,0 L30,20 L15,20 L0,10 L15,0 Z" class="cell_dac_state_p_diff"/>
    <g s:x="0" s:y="10" s:pid="A"/>
  </g>
  <g s:type="outputExt" transform="translate(721,657)" s:width="30" s:height="20" id="cell_dac_state_n_main">
    <text x="15" y="-4" class="nodelabel cell_dac_state_n_main" s:attribute="ref">dac_state_n_main</text>
    <s:alias val="$_outputExt_"/>
    <path d="M30,0 L30,20 L15,20 L0,10 L15,0 Z" class="cell_dac_state_n_main"/>
    <g s:x="0" s:y="10" s:pid="A"/>
  </g>
  <g s:type="outputExt" transform="translate(721,592)" s:width="30" s:height="20" id="cell_dac_state_n_diff">
    <text x="15" y="-4" class="nodelabel cell_dac_state_n_diff" s:attribute="ref">dac_state_n_diff</text>
    <s:alias val="$_outputExt_"/>
    <path d="M30,0 L30,20 L15,20 L0,10 L15,0 Z" class="cell_dac_state_n_diff"/>
    <g s:x="0" s:y="10" s:pid="A"/>
  </g>
  <g s:type="outputExt" transform="translate(721,527)" s:width="30" s:height="20" id="cell_comp_out">
    <text x="15" y="-4" class="nodelabel cell_comp_out" s:attribute="ref">comp_out</text>
    <s:alias val="$_outputExt_"/>
    <path d="M30,0 L30,20 L15,20 L0,10 L15,0 Z" class="cell_comp_out"/>
    <g s:x="0" s:y="10" s:pid="A"/>
  </g>
  <line x1="42" x2="124" y1="32" y2="32" class="net_9 width_1" style="stroke-width: 1"/>
  <line x1="124" x2="124" y1="32" y2="212" class="net_9 width_1" style="stroke-width: 1"/>
  <line x1="124" x2="195" y1="212" y2="212" class="net_9 width_1" style="stroke-width: 1"/>
  <line x1="42" x2="114" y1="97" y2="97" class="net_6 width_1" style="stroke-width: 1"/>
  <line x1="114" x2="114" y1="97" y2="232" class="net_6 width_1" style="stroke-width: 1"/>
  <line x1="114" x2="195" y1="232" y2="232" class="net_6 width_1" style="stroke-width: 1"/>
  <line x1="42" x2="104" y1="162" y2="162" class="net_8 width_1" style="stroke-width: 1"/>
  <line x1="104" x2="104" y1="162" y2="252" class="net_8 width_1" style="stroke-width: 1"/>
  <line x1="104" x2="195" y1="252" y2="252" class="net_8 width_1" style="stroke-width: 1"/>
  <line x1="42" x2="94" y1="227" y2="227" class="net_7 width_1" style="stroke-width: 1"/>
  <line x1="94" x2="94" y1="227" y2="272" class="net_7 width_1" style="stroke-width: 1"/>
  <line x1="94" x2="195" y1="272" y2="272" class="net_7 width_1" style="stroke-width: 1"/>
  <line x1="42" x2="195" y1="292" y2="292" class="net_10 width_1" style="stroke-width: 1"/>
  <line x1="42" x2="94" y1="357" y2="357" class="net_4 width_1" style="stroke-width: 1"/>
  <line x1="94" x2="94" y1="357" y2="312" class="net_4 width_1" style="stroke-width: 1"/>
  <line x1="94" x2="195" y1="312" y2="312" class="net_4 width_1" style="stroke-width: 1"/>
  <line x1="42" x2="104" y1="422" y2="422" class="net_2 width_1" style="stroke-width: 1"/>
  <line x1="104" x2="104" y1="422" y2="332" class="net_2 width_1" style="stroke-width: 1"/>
  <line x1="104" x2="195" y1="332" y2="332" class="net_2 width_1" style="stroke-width: 1"/>
  <line x1="42" x2="114" y1="487" y2="487" class="net_3 width_1" style="stroke-width: 1"/>
  <line x1="114" x2="114" y1="487" y2="352" class="net_3 width_1" style="stroke-width: 1"/>
  <line x1="114" x2="195" y1="352" y2="352" class="net_3 width_1" style="stroke-width: 1"/>
  <line x1="42" x2="124" y1="552" y2="552" class="net_5 width_1" style="stroke-width: 1"/>
  <line x1="124" x2="124" y1="552" y2="372" class="net_5 width_1" style="stroke-width: 1"/>
  <line x1="124" x2="195" y1="372" y2="372" class="net_5 width_1" style="stroke-width: 1"/>
  <line x1="226" x2="347" y1="232" y2="232" class="net_116 width_1" style="stroke-width: 1"/>
  <line x1="347" x2="347" y1="232" y2="602" class="net_116 width_1" style="stroke-width: 1"/>
  <line x1="347" x2="430" y1="602" y2="602" class="net_116 width_1" style="stroke-width: 1"/>
  <line x1="226" x2="317" y1="292" y2="292" class="net_119 width_1" style="stroke-width: 1"/>
  <line x1="317" x2="317" y1="292" y2="622" class="net_119 width_1" style="stroke-width: 1"/>
  <line x1="317" x2="430" y1="622" y2="622" class="net_119 width_1" style="stroke-width: 1"/>
  <line x1="225" x2="307" y1="537" y2="537" class="net_77 width_1" style="stroke-width: 1"/>
  <line x1="307" x2="307" y1="537" y2="642" class="net_77 width_1" style="stroke-width: 1"/>
  <circle cx="307" cy="537" r="2" style="fill:#000" class="net_77 width_1"/>
  <line x1="307" x2="430" y1="642" y2="642" class="net_77 width_1" style="stroke-width: 1"/>
  <line x1="225" x2="721" y1="537" y2="537" class="net_77 width_1" style="stroke-width: 1"/>
  <line x1="225" x2="297" y1="633" y2="633" class="net_78 width_1" style="stroke-width: 1"/>
  <line x1="297" x2="297" y1="633" y2="662" class="net_78 width_1" style="stroke-width: 1"/>
  <line x1="297" x2="430" y1="662" y2="662" class="net_78 width_1" style="stroke-width: 1"/>
  <line x1="42" x2="430" y1="682" y2="682" class="net_45,46,47,48,49,50,51,52,53,54,55,56,57,58,59,60 width_16" style="stroke-width: 2"/>
  <line x1="42" x2="297" y1="747" y2="747" class="net_13,14,15,16,17,18,19,20,21,22,23,24,25,26,27,28 width_16" style="stroke-width: 2"/>
  <line x1="297" x2="297" y1="747" y2="702" class="net_13,14,15,16,17,18,19,20,21,22,23,24,25,26,27,28 width_16" style="stroke-width: 2"/>
  <line x1="297" x2="430" y1="702" y2="702" class="net_13,14,15,16,17,18,19,20,21,22,23,24,25,26,27,28 width_16" style="stroke-width: 2"/>
  <line x1="42" x2="307" y1="812" y2="812" class="net_61,62,63,64,65,66,67,68,69,70,71,72,73,74,75,76 width_16" style="stroke-width: 2"/>
  <line x1="307" x2="307" y1="812" y2="722" class="net_61,62,63,64,65,66,67,68,69,70,71,72,73,74,75,76 width_16" style="stroke-width: 2"/>
  <line x1="307" x2="430" y1="722" y2="722" class="net_61,62,63,64,65,66,67,68,69,70,71,72,73,74,75,76 width_16" style="stroke-width: 2"/>
  <line x1="42" x2="317" y1="877" y2="877" class="net_29,30,31,32,33,34,35,36,37,38,39,40,41,42,43,44 width_16" style="stroke-width: 2"/>
  <line x1="317" x2="317" y1="877" y2="742" class="net_29,30,31,32,33,34,35,36,37,38,39,40,41,42,43,44 width_16" style="stroke-width: 2"/>
  <line x1="317" x2="430" y1="742" y2="742" class="net_29,30,31,32,33,34,35,36,37,38,39,40,41,42,43,44 width_16" style="stroke-width: 2"/>
  <line x1="225" x2="327" y1="938" y2="938" class="net_11 width_1" style="stroke-width: 1"/>
  <line x1="327" x2="327" y1="938" y2="762" class="net_11 width_1" style="stroke-width: 1"/>
  <line x1="327" x2="430" y1="762" y2="762" class="net_11 width_1" style="stroke-width: 1"/>
  <line x1="226" x2="337" y1="252" y2="252" class="net_117 width_1" style="stroke-width: 1"/>
  <line x1="337" x2="337" y1="252" y2="277" class="net_117 width_1" style="stroke-width: 1"/>
  <line x1="337" x2="600" y1="277" y2="277" class="net_117 width_1" style="stroke-width: 1"/>
  <line x1="226" x2="327" y1="272" y2="272" class="net_118 width_1" style="stroke-width: 1"/>
  <line x1="327" x2="327" y1="272" y2="407" class="net_118 width_1" style="stroke-width: 1"/>
  <line x1="327" x2="600" y1="407" y2="407" class="net_118 width_1" style="stroke-width: 1"/>
  <line x1="631" x2="721" y1="407" y2="407" class="net_79 width_1" style="stroke-width: 1"/>
  <line x1="631" x2="696" y1="427" y2="427" class="net_80 width_1" style="stroke-width: 1"/>
  <line x1="696" x2="696" y1="427" y2="472" class="net_80 width_1" style="stroke-width: 1"/>
  <line x1="696" x2="721" y1="472" y2="472" class="net_80 width_1" style="stroke-width: 1"/>
  <line x1="631" x2="721" y1="277" y2="277" class="net_81 width_1" style="stroke-width: 1"/>
  <line x1="631" x2="696" y1="297" y2="297" class="net_82 width_1" style="stroke-width: 1"/>
  <line x1="696" x2="696" y1="297" y2="342" class="net_82 width_1" style="stroke-width: 1"/>
  <line x1="696" x2="721" y1="342" y2="342" class="net_82 width_1" style="stroke-width: 1"/>
  <line x1="226" x2="721" y1="212" y2="212" class="net_83 width_1" style="stroke-width: 1"/>
  <line x1="461" x2="538" y1="622" y2="622" class="net_84,85,86,87,88,89,90,91,92,93,94,95,96,97,98,99 width_16" style="stroke-width: 2"/>
  <line x1="538" x2="538" y1="622" y2="797" class="net_84,85,86,87,88,89,90,91,92,93,94,95,96,97,98,99 width_16" style="stroke-width: 2"/>
  <line x1="538" x2="721" y1="797" y2="797" class="net_84,85,86,87,88,89,90,91,92,93,94,95,96,97,98,99 width_16" style="stroke-width: 2"/>
  <line x1="461" x2="538" y1="622" y2="622" class="net_84,85,86,87,88,89,90,91,92,93,94,95,96,97,98,99 width_16" style="stroke-width: 2"/>
  <line x1="538" x2="538" y1="622" y2="732" class="net_84,85,86,87,88,89,90,91,92,93,94,95,96,97,98,99 width_16" style="stroke-width: 2"/>
  <circle cx="538" cy="732" r="3" style="fill:#000" class="net_84,85,86,87,88,89,90,91,92,93,94,95,96,97,98,99 width_16"/>
  <line x1="538" x2="721" y1="732" y2="732" class="net_84,85,86,87,88,89,90,91,92,93,94,95,96,97,98,99 width_16" style="stroke-width: 2"/>
  <line x1="461" x2="548" y1="602" y2="602" class="net_100,101,102,103,104,105,106,107,108,109,110,111,112,113,114,115 width_16" style="stroke-width: 2"/>
  <line x1="548" x2="548" y1="602" y2="667" class="net_100,101,102,103,104,105,106,107,108,109,110,111,112,113,114,115 width_16" style="stroke-width: 2"/>
  <circle cx="548" cy="602" r="3" style="fill:#000" class="net_100,101,102,103,104,105,106,107,108,109,110,111,112,113,114,115 width_16"/>
  <line x1="548" x2="721" y1="667" y2="667" class="net_100,101,102,103,104,105,106,107,108,109,110,111,112,113,114,115 width_16" style="stroke-width: 2"/>
  <line x1="461" x2="721" y1="602" y2="602" class="net_100,101,102,103,104,105,106,107,108,109,110,111,112,113,114,115 width_16" style="stroke-width: 2"/>
  <rect x="209.5" y="677" width="22" height="9" class="net_45,46,47,48,49,50,51,52,53,54,55,56,57,58,59,60 width_16 busLabel_16" style="fill: white; stroke: none"/>
  <text x="208.5" y="685" class="net_45,46,47,48,49,50,51,52,53,54,55,56,57,58,59,60 width_16 busLabel_16">/16/</text>
  <rect x="209.5" y="742" width="22" height="9" class="net_13,14,15,16,17,18,19,20,21,22,23,24,25,26,27,28 width_16 busLabel_16" style="fill: white; stroke: none"/>
  <text x="208.5" y="750" class="net_13,14,15,16,17,18,19,20,21,22,23,24,25,26,27,28 width_16 busLabel_16">/16/</text>
  <rect x="209.5" y="807" width="22" height="9" class="net_61,62,63,64,65,66,67,68,69,70,71,72,73,74,75,76 width_16 busLabel_16" style="fill: white; stroke: none"/>
  <text x="208.5" y="815" class="net_61,62,63,64,65,66,67,68,69,70,71,72,73,74,75,76 width_16 busLabel_16">/16/</text>
  <rect x="209.5" y="872" width="22" height="9" class="net_29,30,31,32,33,34,35,36,37,38,39,40,41,42,43,44 width_16 busLabel_16" style="fill: white; stroke: none"/>
  <text x="208.5" y="880" class="net_29,30,31,32,33,34,35,36,37,38,39,40,41,42,43,44 width_16 busLabel_16">/16/</text>
  <rect x="623.5" y="727" width="22" height="9" class="net_84,85,86,87,88,89,90,91,92,93,94,95,96,97,98,99 width_16 busLabel_16" style="fill: white; stroke: none"/>
  <text x="622.5" y="735" class="net_84,85,86,87,88,89,90,91,92,93,94,95,96,97,98,99 width_16 busLabel_16">/16/</text>
  <rect x="623.5" y="727" width="22" height="9" class="net_84,85,86,87,88,89,90,91,92,93,94,95,96,97,98,99 width_16 busLabel_16" style="fill: white; stroke: none"/>
  <text x="622.5" y="735" class="net_84,85,86,87,88,89,90,91,92,93,94,95,96,97,98,99 width_16 busLabel_16">/16/</text>
  <rect x="623.5" y="597" width="22" height="9" class="net_100,101,102,103,104,105,106,107,108,109,110,111,112,113,114,115 width_16 busLabel_16" style="fill: white; stroke: none"/>
  <text x="622.5" y="605" class="net_100,101,102,103,104,105,106,107,108,109,110,111,112,113,114,115 width_16 busLabel_16">/16/</text>
  <rect x="623.5" y="597" width="22" height="9" class="net_100,101,102,103,104,105,106,107,108,109,110,111,112,113,114,115 width_16 busLabel_16" style="fill: white; stroke: none"/>
  <text x="622.5" y="605" class="net_100,101,102,103,104,105,106,107,108,109,110,111,112,113,114,115 width_16 busLabel_16">/16/</text>
</svg>
