<?xml version="1.0" encoding="UTF-8" standalone="no"?>
<!-- Created with Inkscape (http://www.inkscape.org/) -->

<svg
   width="1920"
   height="1080"
   viewBox="0 0 507.99999 285.75001"
   version="1.1"
   id="svg5"
   sodipodi:docname="drawing.svg"
   inkscape:version="1.1.1 (3bf5ae0d25, 2021-09-20)"
   xmlns:inkscape="http://www.inkscape.org/namespaces/inkscape"
   xmlns:sodipodi="http://sodipodi.sourceforge.net/DTD/sodipodi-0.dtd"
   xmlns="http://www.w3.org/2000/svg"
   xmlns:svg="http://www.w3.org/2000/svg"
   xmlns:ns6="http://www.iki.fi/pav/software/textext/">
  <sodipodi:namedview
     id="namedview7"
     pagecolor="#ffffff"
     bordercolor="#666666"
     borderopacity="1.0"
     inkscape:pageshadow="2"
     inkscape:pageopacity="0.0"
     inkscape:pagecheckerboard="0"
     inkscape:document-units="mm"
     showgrid="true"
     inkscape:zoom="0.62010376"
     inkscape:cx="974.83686"
     inkscape:cy="532.16901"
     inkscape:window-width="1920"
     inkscape:window-height="1027"
     inkscape:window-x="0"
     inkscape:window-y="0"
     inkscape:window-maximized="1"
     inkscape:current-layer="svg5"
     units="px">
    <inkscape:grid
       type="xygrid"
       id="grid824"
       units="mm"
       spacingx="1"
       spacingy="1" />
  </sodipodi:namedview>
  <defs
     id="defs2" />
  <g
     inkscape:label="Layer 1"
     inkscape:groupmode="layer"
     id="layer1" />
  <g
     inkscape:label="Capacitor"
     transform="rotate(-90,252.49485,151.16151)"
     id="g8196">
    <g
       id="g8171">
      <path
         inkscape:label="none"
         style="fill:none;fill-opacity:1;stroke:#000000;stroke-width:1;stroke-linecap:round;stroke-linejoin:round;stroke-dasharray:none;stroke-opacity:1"
         d="m 262,150 h 23"
         id="path8163" />
      <path
         inkscape:label="none"
         style="fill:none;fill-opacity:1;stroke:#000000;stroke-width:1;stroke-linecap:round;stroke-linejoin:round;stroke-dasharray:none;stroke-opacity:1"
         d="M 262,157 V 143"
         id="path8165" />
      <path
         inkscape:label="none"
         style="fill:none;fill-opacity:1;stroke:#000000;stroke-width:1;stroke-linecap:round;stroke-linejoin:round;stroke-dasharray:none;stroke-opacity:1"
         d="M 258,150 H 235"
         id="path8167" />
      <path
         inkscape:label="none"
         style="fill:none;fill-opacity:1;stroke:#000000;stroke-width:1;stroke-linecap:round;stroke-linejoin:round;stroke-dasharray:none;stroke-opacity:1"
         d="M 258,157 V 143"
         id="path8169" />
    </g>
    <g
       inkscape:label="Layer 1"
       inkscape:groupmode="layer"
       id="g8194"
       transform="matrix(0.552997,0,0,0.552997,38.801255,-174.15469)">
      <g
         transform="matrix(1.33333,0,0,1.33333,393.388,554.317)"
         ns6:version="1.8.2"
         ns6:texconverter="pdflatex"
         ns6:pdfconverter="inkscape"
         ns6:text=" $C_1$"
         ns6:preamble="/users/kcaisley/.config/inkscape/extensions/circuitSymbols/circuitSymbolsPreamble.tex"
         ns6:scale="1.0"
         ns6:alignment="middle center"
         ns6:stroke-to-path="0"
         ns6:inkscapeversion="1.0.1"
         ns6:jacobian_sqrt="1.33333"
         id="g8192">
        <defs
           id="id-05f37742-26a0-4cdf-9e86-753bdf9ef807">
          <g
             id="id-a5ef5d4e-ad0f-4f27-b1ec-fb1ebdaba717">
            <symbol
               overflow="visible"
               id="id-6ad8abfc-1c92-46ee-a63f-5c550b8fb0ea">
              <path
                 style="stroke:none;stroke-width:0"
                 d=""
                 id="id-4c3e655c-b225-4dfe-98ab-4ae8e8e1346a" />
            </symbol>
            <symbol
               overflow="visible"
               id="id-d733d408-8e35-4b8b-bc8b-e66f900da8b7">
              <path
                 style="stroke:none;stroke-width:0"
                 d="m 7.578125,-6.921875 c 0,-0.03125 -0.015625,-0.109375 -0.109375,-0.109375 -0.03125,0 -0.046875,0.015625 -0.15625,0.125 L 6.625,-6.140625 C 6.53125,-6.28125 6.078125,-7.03125 4.96875,-7.03125 2.734375,-7.03125 0.5,-4.828125 0.5,-2.515625 0.5,-0.875 1.671875,0.21875 3.203125,0.21875 c 0.859375,0 1.625,-0.390625 2.15625,-0.859375 0.921875,-0.8125 1.09375,-1.71875 1.09375,-1.75 C 6.453125,-2.5 6.34375,-2.5 6.328125,-2.5 c -0.0625,0 -0.109375,0.03125 -0.125,0.109375 -0.09375,0.28125 -0.328125,1 -1.015625,1.578125 -0.6875,0.546875 -1.3125,0.71875 -1.828125,0.71875 -0.890625,0 -1.953125,-0.515625 -1.953125,-2.0625 0,-0.578125 0.203125,-2.1875 1.203125,-3.359375 0.609375,-0.703125 1.546875,-1.203125 2.4375,-1.203125 1.015625,0 1.609375,0.765625 1.609375,1.921875 0,0.40625 -0.03125,0.40625 -0.03125,0.515625 0,0.09375 0.109375,0.09375 0.140625,0.09375 0.125,0 0.125,-0.015625 0.1875,-0.203125 z m 0,0"
                 id="id-129c16cd-6f10-4a7f-a65c-7d728877a7bb" />
            </symbol>
            <symbol
               overflow="visible"
               id="id-0fd96bc3-02a0-4e23-bb4b-0ce7c6ada69a">
              <path
                 style="stroke:none;stroke-width:0"
                 d=""
                 id="id-bcb76ee5-fa6e-4262-9487-3724bbde9ab7" />
            </symbol>
            <symbol
               overflow="visible"
               id="id-a9e3859c-0e52-4b03-82e6-05af1fcd52a1">
              <path
                 style="stroke:none;stroke-width:0"
                 d="m 2.328125,-4.4375 c 0,-0.1875 0,-0.1875 -0.203125,-0.1875 -0.453125,0.4375 -1.078125,0.4375 -1.359375,0.4375 v 0.25 c 0.15625,0 0.625,0 1,-0.1875 v 3.546875 c 0,0.234375 0,0.328125 -0.6875,0.328125 H 0.8125 V 0 c 0.125,0 0.984375,-0.03125 1.234375,-0.03125 0.21875,0 1.09375,0.03125 1.25,0.03125 V -0.25 H 3.03125 c -0.703125,0 -0.703125,-0.09375 -0.703125,-0.328125 z m 0,0"
                 id="id-3a292fa8-adb2-4375-8a8c-f40d9580eced" />
            </symbol>
          </g>
        </defs>
        <g
           id="id-ead9fd8c-3321-4c00-a1cd-440960cad5db"
           transform="translate(-149.212,-127.734)">
          <g
             style="fill:#000000;fill-opacity:1"
             id="id-83a43194-c595-496c-b3a2-03c732e5d4f0">
            <g
               transform="translate(148.712,134.765)"
               id="g8184">
              <path
                 style="stroke:none;stroke-width:0"
                 d="m 7.578125,-6.921875 c 0,-0.03125 -0.015625,-0.109375 -0.109375,-0.109375 -0.03125,0 -0.046875,0.015625 -0.15625,0.125 L 6.625,-6.140625 C 6.53125,-6.28125 6.078125,-7.03125 4.96875,-7.03125 2.734375,-7.03125 0.5,-4.828125 0.5,-2.515625 0.5,-0.875 1.671875,0.21875 3.203125,0.21875 c 0.859375,0 1.625,-0.390625 2.15625,-0.859375 0.921875,-0.8125 1.09375,-1.71875 1.09375,-1.75 C 6.453125,-2.5 6.34375,-2.5 6.328125,-2.5 c -0.0625,0 -0.109375,0.03125 -0.125,0.109375 -0.09375,0.28125 -0.328125,1 -1.015625,1.578125 -0.6875,0.546875 -1.3125,0.71875 -1.828125,0.71875 -0.890625,0 -1.953125,-0.515625 -1.953125,-2.0625 0,-0.578125 0.203125,-2.1875 1.203125,-3.359375 0.609375,-0.703125 1.546875,-1.203125 2.4375,-1.203125 1.015625,0 1.609375,0.765625 1.609375,1.921875 0,0.40625 -0.03125,0.40625 -0.03125,0.515625 0,0.09375 0.109375,0.09375 0.140625,0.09375 0.125,0 0.125,-0.015625 0.1875,-0.203125 z m 0,0"
                 id="id-a94e4b00-3051-4b32-bf81-df4292c26b00" />
            </g>
          </g>
          <g
             style="fill:#000000;fill-opacity:1"
             id="id-b19615d6-4f69-476c-a0ee-68118435be5a">
            <g
               transform="translate(155.833,136.259)"
               id="g8188">
              <path
                 style="stroke:none;stroke-width:0"
                 d="m 2.328125,-4.4375 c 0,-0.1875 0,-0.1875 -0.203125,-0.1875 -0.453125,0.4375 -1.078125,0.4375 -1.359375,0.4375 v 0.25 c 0.15625,0 0.625,0 1,-0.1875 v 3.546875 c 0,0.234375 0,0.328125 -0.6875,0.328125 H 0.8125 V 0 c 0.125,0 0.984375,-0.03125 1.234375,-0.03125 0.21875,0 1.09375,0.03125 1.25,0.03125 V -0.25 H 3.03125 c -0.703125,0 -0.703125,-0.09375 -0.703125,-0.328125 z m 0,0"
                 id="id-aa8a7f58-eced-4f2f-bcb8-17991c116444" />
            </g>
          </g>
        </g>
      </g>
    </g>
  </g>
</svg>
