<?xml version="1.0" encoding="utf-8" standalone="no"?>
<!DOCTYPE svg PUBLIC "-//W3C//DTD SVG 1.1//EN"
  "http://www.w3.org/Graphics/SVG/1.1/DTD/svg11.dtd">
<svg xmlns:xlink="http://www.w3.org/1999/xlink" width="460.8pt" height="345.6pt" viewBox="0 0 460.8 345.6" xmlns="http://www.w3.org/2000/svg" version="1.1">
 <metadata>
  <rdf:RDF xmlns:dc="http://purl.org/dc/elements/1.1/" xmlns:cc="http://creativecommons.org/ns#" xmlns:rdf="http://www.w3.org/1999/02/22-rdf-syntax-ns#">
   <cc:Work>
    <dc:type rdf:resource="http://purl.org/dc/dcmitype/StillImage"/>
    <dc:date>2025-08-08T13:31:56.066892</dc:date>
    <dc:format>image/svg+xml</dc:format>
    <dc:creator>
     <cc:Agent>
      <dc:title>Matplotlib v3.10.3, https://matplotlib.org/</dc:title>
     </cc:Agent>
    </dc:creator>
   </cc:Work>
  </rdf:RDF>
 </metadata>
 <defs>
  <style type="text/css">*{stroke-linejoin: round; stroke-linecap: butt}</style>
 </defs>
 <g id="figure_1">
  <g id="patch_1">
   <path d="M 0 345.6 
L 460.8 345.6 
L 460.8 0 
L 0 0 
z
" style="fill: #ffffff"/>
  </g>
  <g id="axes_1">
   <g id="patch_2">
    <path d="M 55.82 295.648 
L 448.639046 295.648 
L 448.639046 29.4 
L 55.82 29.4 
z
" style="fill: #ffffff"/>
   </g>
   <g id="matplotlib.axis_1">
    <g id="xtick_1">
     <g id="line2d_1">
      <path d="M 73.675411 295.648 
L 73.675411 29.4 
" clip-path="url(#pbb621c9af8)" style="fill: none; stroke-dasharray: 2.96,1.28; stroke-dashoffset: 0; stroke: #b0b0b0; stroke-opacity: 0.5; stroke-width: 0.8"/>
     </g>
     <g id="line2d_2">
      <defs>
       <path id="m0b626d2d04" d="M 0 0 
L 0 3.5 
" style="stroke: #000000; stroke-width: 0.8"/>
      </defs>
      <g>
       <use xlink:href="#m0b626d2d04" x="73.675411" y="295.648" style="stroke: #000000; stroke-width: 0.8"/>
      </g>
     </g>
     <g id="text_1">
      <!-- $\mathdefault{10^{2}}$ -->
      <g transform="translate(64.875411 310.246437) scale(0.1 -0.1)">
       <defs>
        <path id="DejaVuSans-31" d="M 794 531 
L 1825 531 
L 1825 4091 
L 703 3866 
L 703 4441 
L 1819 4666 
L 2450 4666 
L 2450 531 
L 3481 531 
L 3481 0 
L 794 0 
L 794 531 
z
" transform="scale(0.015625)"/>
        <path id="DejaVuSans-30" d="M 2034 4250 
Q 1547 4250 1301 3770 
Q 1056 3291 1056 2328 
Q 1056 1369 1301 889 
Q 1547 409 2034 409 
Q 2525 409 2770 889 
Q 3016 1369 3016 2328 
Q 3016 3291 2770 3770 
Q 2525 4250 2034 4250 
z
M 2034 4750 
Q 2819 4750 3233 4129 
Q 3647 3509 3647 2328 
Q 3647 1150 3233 529 
Q 2819 -91 2034 -91 
Q 1250 -91 836 529 
Q 422 1150 422 2328 
Q 422 3509 836 4129 
Q 1250 4750 2034 4750 
z
" transform="scale(0.015625)"/>
        <path id="DejaVuSans-32" d="M 1228 531 
L 3431 531 
L 3431 0 
L 469 0 
L 469 531 
Q 828 903 1448 1529 
Q 2069 2156 2228 2338 
Q 2531 2678 2651 2914 
Q 2772 3150 2772 3378 
Q 2772 3750 2511 3984 
Q 2250 4219 1831 4219 
Q 1534 4219 1204 4116 
Q 875 4013 500 3803 
L 500 4441 
Q 881 4594 1212 4672 
Q 1544 4750 1819 4750 
Q 2544 4750 2975 4387 
Q 3406 4025 3406 3419 
Q 3406 3131 3298 2873 
Q 3191 2616 2906 2266 
Q 2828 2175 2409 1742 
Q 1991 1309 1228 531 
z
" transform="scale(0.015625)"/>
       </defs>
       <use xlink:href="#DejaVuSans-31" transform="translate(0 0.765625)"/>
       <use xlink:href="#DejaVuSans-30" transform="translate(63.623047 0.765625)"/>
       <use xlink:href="#DejaVuSans-32" transform="translate(128.203125 39.046875) scale(0.7)"/>
      </g>
     </g>
    </g>
    <g id="xtick_2">
     <g id="line2d_3">
      <path d="M 192.711486 295.648 
L 192.711486 29.4 
" clip-path="url(#pbb621c9af8)" style="fill: none; stroke-dasharray: 2.96,1.28; stroke-dashoffset: 0; stroke: #b0b0b0; stroke-opacity: 0.5; stroke-width: 0.8"/>
     </g>
     <g id="line2d_4">
      <g>
       <use xlink:href="#m0b626d2d04" x="192.711486" y="295.648" style="stroke: #000000; stroke-width: 0.8"/>
      </g>
     </g>
     <g id="text_2">
      <!-- $\mathdefault{10^{3}}$ -->
      <g transform="translate(183.911486 310.246437) scale(0.1 -0.1)">
       <defs>
        <path id="DejaVuSans-33" d="M 2597 2516 
Q 3050 2419 3304 2112 
Q 3559 1806 3559 1356 
Q 3559 666 3084 287 
Q 2609 -91 1734 -91 
Q 1441 -91 1130 -33 
Q 819 25 488 141 
L 488 750 
Q 750 597 1062 519 
Q 1375 441 1716 441 
Q 2309 441 2620 675 
Q 2931 909 2931 1356 
Q 2931 1769 2642 2001 
Q 2353 2234 1838 2234 
L 1294 2234 
L 1294 2753 
L 1863 2753 
Q 2328 2753 2575 2939 
Q 2822 3125 2822 3475 
Q 2822 3834 2567 4026 
Q 2313 4219 1838 4219 
Q 1578 4219 1281 4162 
Q 984 4106 628 3988 
L 628 4550 
Q 988 4650 1302 4700 
Q 1616 4750 1894 4750 
Q 2613 4750 3031 4423 
Q 3450 4097 3450 3541 
Q 3450 3153 3228 2886 
Q 3006 2619 2597 2516 
z
" transform="scale(0.015625)"/>
       </defs>
       <use xlink:href="#DejaVuSans-31" transform="translate(0 0.765625)"/>
       <use xlink:href="#DejaVuSans-30" transform="translate(63.623047 0.765625)"/>
       <use xlink:href="#DejaVuSans-33" transform="translate(128.203125 39.046875) scale(0.7)"/>
      </g>
     </g>
    </g>
    <g id="xtick_3">
     <g id="line2d_5">
      <path d="M 311.74756 295.648 
L 311.74756 29.4 
" clip-path="url(#pbb621c9af8)" style="fill: none; stroke-dasharray: 2.96,1.28; stroke-dashoffset: 0; stroke: #b0b0b0; stroke-opacity: 0.5; stroke-width: 0.8"/>
     </g>
     <g id="line2d_6">
      <g>
       <use xlink:href="#m0b626d2d04" x="311.74756" y="295.648" style="stroke: #000000; stroke-width: 0.8"/>
      </g>
     </g>
     <g id="text_3">
      <!-- $\mathdefault{10^{4}}$ -->
      <g transform="translate(302.94756 310.246437) scale(0.1 -0.1)">
       <defs>
        <path id="DejaVuSans-34" d="M 2419 4116 
L 825 1625 
L 2419 1625 
L 2419 4116 
z
M 2253 4666 
L 3047 4666 
L 3047 1625 
L 3713 1625 
L 3713 1100 
L 3047 1100 
L 3047 0 
L 2419 0 
L 2419 1100 
L 313 1100 
L 313 1709 
L 2253 4666 
z
" transform="scale(0.015625)"/>
       </defs>
       <use xlink:href="#DejaVuSans-31" transform="translate(0 0.684375)"/>
       <use xlink:href="#DejaVuSans-30" transform="translate(63.623047 0.684375)"/>
       <use xlink:href="#DejaVuSans-34" transform="translate(128.203125 38.965625) scale(0.7)"/>
      </g>
     </g>
    </g>
    <g id="xtick_4">
     <g id="line2d_7">
      <path d="M 430.783635 295.648 
L 430.783635 29.4 
" clip-path="url(#pbb621c9af8)" style="fill: none; stroke-dasharray: 2.96,1.28; stroke-dashoffset: 0; stroke: #b0b0b0; stroke-opacity: 0.5; stroke-width: 0.8"/>
     </g>
     <g id="line2d_8">
      <g>
       <use xlink:href="#m0b626d2d04" x="430.783635" y="295.648" style="stroke: #000000; stroke-width: 0.8"/>
      </g>
     </g>
     <g id="text_4">
      <!-- $\mathdefault{10^{5}}$ -->
      <g transform="translate(421.983635 310.246437) scale(0.1 -0.1)">
       <defs>
        <path id="DejaVuSans-35" d="M 691 4666 
L 3169 4666 
L 3169 4134 
L 1269 4134 
L 1269 2991 
Q 1406 3038 1543 3061 
Q 1681 3084 1819 3084 
Q 2600 3084 3056 2656 
Q 3513 2228 3513 1497 
Q 3513 744 3044 326 
Q 2575 -91 1722 -91 
Q 1428 -91 1123 -41 
Q 819 9 494 109 
L 494 744 
Q 775 591 1075 516 
Q 1375 441 1709 441 
Q 2250 441 2565 725 
Q 2881 1009 2881 1497 
Q 2881 1984 2565 2268 
Q 2250 2553 1709 2553 
Q 1456 2553 1204 2497 
Q 953 2441 691 2322 
L 691 4666 
z
" transform="scale(0.015625)"/>
       </defs>
       <use xlink:href="#DejaVuSans-31" transform="translate(0 0.684375)"/>
       <use xlink:href="#DejaVuSans-30" transform="translate(63.623047 0.684375)"/>
       <use xlink:href="#DejaVuSans-35" transform="translate(128.203125 38.965625) scale(0.7)"/>
      </g>
     </g>
    </g>
    <g id="xtick_5">
     <g id="line2d_9">
      <path d="M 62.139624 295.648 
L 62.139624 29.4 
" clip-path="url(#pbb621c9af8)" style="fill: none; stroke-dasharray: 2.96,1.28; stroke-dashoffset: 0; stroke: #b0b0b0; stroke-opacity: 0.5; stroke-width: 0.8"/>
     </g>
     <g id="line2d_10">
      <defs>
       <path id="m3b4793dbea" d="M 0 0 
L 0 2 
" style="stroke: #000000; stroke-width: 0.6"/>
      </defs>
      <g>
       <use xlink:href="#m3b4793dbea" x="62.139624" y="295.648" style="stroke: #000000; stroke-width: 0.6"/>
      </g>
     </g>
    </g>
    <g id="xtick_6">
     <g id="line2d_11">
      <path d="M 68.228619 295.648 
L 68.228619 29.4 
" clip-path="url(#pbb621c9af8)" style="fill: none; stroke-dasharray: 2.96,1.28; stroke-dashoffset: 0; stroke: #b0b0b0; stroke-opacity: 0.5; stroke-width: 0.8"/>
     </g>
     <g id="line2d_12">
      <g>
       <use xlink:href="#m3b4793dbea" x="68.228619" y="295.648" style="stroke: #000000; stroke-width: 0.6"/>
      </g>
     </g>
    </g>
    <g id="xtick_7">
     <g id="line2d_13">
      <path d="M 109.50884 295.648 
L 109.50884 29.4 
" clip-path="url(#pbb621c9af8)" style="fill: none; stroke-dasharray: 2.96,1.28; stroke-dashoffset: 0; stroke: #b0b0b0; stroke-opacity: 0.5; stroke-width: 0.8"/>
     </g>
     <g id="line2d_14">
      <g>
       <use xlink:href="#m3b4793dbea" x="109.50884" y="295.648" style="stroke: #000000; stroke-width: 0.6"/>
      </g>
     </g>
    </g>
    <g id="xtick_8">
     <g id="line2d_15">
      <path d="M 130.470052 295.648 
L 130.470052 29.4 
" clip-path="url(#pbb621c9af8)" style="fill: none; stroke-dasharray: 2.96,1.28; stroke-dashoffset: 0; stroke: #b0b0b0; stroke-opacity: 0.5; stroke-width: 0.8"/>
     </g>
     <g id="line2d_16">
      <g>
       <use xlink:href="#m3b4793dbea" x="130.470052" y="295.648" style="stroke: #000000; stroke-width: 0.6"/>
      </g>
     </g>
    </g>
    <g id="xtick_9">
     <g id="line2d_17">
      <path d="M 145.342269 295.648 
L 145.342269 29.4 
" clip-path="url(#pbb621c9af8)" style="fill: none; stroke-dasharray: 2.96,1.28; stroke-dashoffset: 0; stroke: #b0b0b0; stroke-opacity: 0.5; stroke-width: 0.8"/>
     </g>
     <g id="line2d_18">
      <g>
       <use xlink:href="#m3b4793dbea" x="145.342269" y="295.648" style="stroke: #000000; stroke-width: 0.6"/>
      </g>
     </g>
    </g>
    <g id="xtick_10">
     <g id="line2d_19">
      <path d="M 156.878057 295.648 
L 156.878057 29.4 
" clip-path="url(#pbb621c9af8)" style="fill: none; stroke-dasharray: 2.96,1.28; stroke-dashoffset: 0; stroke: #b0b0b0; stroke-opacity: 0.5; stroke-width: 0.8"/>
     </g>
     <g id="line2d_20">
      <g>
       <use xlink:href="#m3b4793dbea" x="156.878057" y="295.648" style="stroke: #000000; stroke-width: 0.6"/>
      </g>
     </g>
    </g>
    <g id="xtick_11">
     <g id="line2d_21">
      <path d="M 166.303481 295.648 
L 166.303481 29.4 
" clip-path="url(#pbb621c9af8)" style="fill: none; stroke-dasharray: 2.96,1.28; stroke-dashoffset: 0; stroke: #b0b0b0; stroke-opacity: 0.5; stroke-width: 0.8"/>
     </g>
     <g id="line2d_22">
      <g>
       <use xlink:href="#m3b4793dbea" x="166.303481" y="295.648" style="stroke: #000000; stroke-width: 0.6"/>
      </g>
     </g>
    </g>
    <g id="xtick_12">
     <g id="line2d_23">
      <path d="M 174.272564 295.648 
L 174.272564 29.4 
" clip-path="url(#pbb621c9af8)" style="fill: none; stroke-dasharray: 2.96,1.28; stroke-dashoffset: 0; stroke: #b0b0b0; stroke-opacity: 0.5; stroke-width: 0.8"/>
     </g>
     <g id="line2d_24">
      <g>
       <use xlink:href="#m3b4793dbea" x="174.272564" y="295.648" style="stroke: #000000; stroke-width: 0.6"/>
      </g>
     </g>
    </g>
    <g id="xtick_13">
     <g id="line2d_25">
      <path d="M 181.175698 295.648 
L 181.175698 29.4 
" clip-path="url(#pbb621c9af8)" style="fill: none; stroke-dasharray: 2.96,1.28; stroke-dashoffset: 0; stroke: #b0b0b0; stroke-opacity: 0.5; stroke-width: 0.8"/>
     </g>
     <g id="line2d_26">
      <g>
       <use xlink:href="#m3b4793dbea" x="181.175698" y="295.648" style="stroke: #000000; stroke-width: 0.6"/>
      </g>
     </g>
    </g>
    <g id="xtick_14">
     <g id="line2d_27">
      <path d="M 187.264694 295.648 
L 187.264694 29.4 
" clip-path="url(#pbb621c9af8)" style="fill: none; stroke-dasharray: 2.96,1.28; stroke-dashoffset: 0; stroke: #b0b0b0; stroke-opacity: 0.5; stroke-width: 0.8"/>
     </g>
     <g id="line2d_28">
      <g>
       <use xlink:href="#m3b4793dbea" x="187.264694" y="295.648" style="stroke: #000000; stroke-width: 0.6"/>
      </g>
     </g>
    </g>
    <g id="xtick_15">
     <g id="line2d_29">
      <path d="M 228.544915 295.648 
L 228.544915 29.4 
" clip-path="url(#pbb621c9af8)" style="fill: none; stroke-dasharray: 2.96,1.28; stroke-dashoffset: 0; stroke: #b0b0b0; stroke-opacity: 0.5; stroke-width: 0.8"/>
     </g>
     <g id="line2d_30">
      <g>
       <use xlink:href="#m3b4793dbea" x="228.544915" y="295.648" style="stroke: #000000; stroke-width: 0.6"/>
      </g>
     </g>
    </g>
    <g id="xtick_16">
     <g id="line2d_31">
      <path d="M 249.506127 295.648 
L 249.506127 29.4 
" clip-path="url(#pbb621c9af8)" style="fill: none; stroke-dasharray: 2.96,1.28; stroke-dashoffset: 0; stroke: #b0b0b0; stroke-opacity: 0.5; stroke-width: 0.8"/>
     </g>
     <g id="line2d_32">
      <g>
       <use xlink:href="#m3b4793dbea" x="249.506127" y="295.648" style="stroke: #000000; stroke-width: 0.6"/>
      </g>
     </g>
    </g>
    <g id="xtick_17">
     <g id="line2d_33">
      <path d="M 264.378344 295.648 
L 264.378344 29.4 
" clip-path="url(#pbb621c9af8)" style="fill: none; stroke-dasharray: 2.96,1.28; stroke-dashoffset: 0; stroke: #b0b0b0; stroke-opacity: 0.5; stroke-width: 0.8"/>
     </g>
     <g id="line2d_34">
      <g>
       <use xlink:href="#m3b4793dbea" x="264.378344" y="295.648" style="stroke: #000000; stroke-width: 0.6"/>
      </g>
     </g>
    </g>
    <g id="xtick_18">
     <g id="line2d_35">
      <path d="M 275.914131 295.648 
L 275.914131 29.4 
" clip-path="url(#pbb621c9af8)" style="fill: none; stroke-dasharray: 2.96,1.28; stroke-dashoffset: 0; stroke: #b0b0b0; stroke-opacity: 0.5; stroke-width: 0.8"/>
     </g>
     <g id="line2d_36">
      <g>
       <use xlink:href="#m3b4793dbea" x="275.914131" y="295.648" style="stroke: #000000; stroke-width: 0.6"/>
      </g>
     </g>
    </g>
    <g id="xtick_19">
     <g id="line2d_37">
      <path d="M 285.339556 295.648 
L 285.339556 29.4 
" clip-path="url(#pbb621c9af8)" style="fill: none; stroke-dasharray: 2.96,1.28; stroke-dashoffset: 0; stroke: #b0b0b0; stroke-opacity: 0.5; stroke-width: 0.8"/>
     </g>
     <g id="line2d_38">
      <g>
       <use xlink:href="#m3b4793dbea" x="285.339556" y="295.648" style="stroke: #000000; stroke-width: 0.6"/>
      </g>
     </g>
    </g>
    <g id="xtick_20">
     <g id="line2d_39">
      <path d="M 293.308639 295.648 
L 293.308639 29.4 
" clip-path="url(#pbb621c9af8)" style="fill: none; stroke-dasharray: 2.96,1.28; stroke-dashoffset: 0; stroke: #b0b0b0; stroke-opacity: 0.5; stroke-width: 0.8"/>
     </g>
     <g id="line2d_40">
      <g>
       <use xlink:href="#m3b4793dbea" x="293.308639" y="295.648" style="stroke: #000000; stroke-width: 0.6"/>
      </g>
     </g>
    </g>
    <g id="xtick_21">
     <g id="line2d_41">
      <path d="M 300.211773 295.648 
L 300.211773 29.4 
" clip-path="url(#pbb621c9af8)" style="fill: none; stroke-dasharray: 2.96,1.28; stroke-dashoffset: 0; stroke: #b0b0b0; stroke-opacity: 0.5; stroke-width: 0.8"/>
     </g>
     <g id="line2d_42">
      <g>
       <use xlink:href="#m3b4793dbea" x="300.211773" y="295.648" style="stroke: #000000; stroke-width: 0.6"/>
      </g>
     </g>
    </g>
    <g id="xtick_22">
     <g id="line2d_43">
      <path d="M 306.300768 295.648 
L 306.300768 29.4 
" clip-path="url(#pbb621c9af8)" style="fill: none; stroke-dasharray: 2.96,1.28; stroke-dashoffset: 0; stroke: #b0b0b0; stroke-opacity: 0.5; stroke-width: 0.8"/>
     </g>
     <g id="line2d_44">
      <g>
       <use xlink:href="#m3b4793dbea" x="306.300768" y="295.648" style="stroke: #000000; stroke-width: 0.6"/>
      </g>
     </g>
    </g>
    <g id="xtick_23">
     <g id="line2d_45">
      <path d="M 347.580989 295.648 
L 347.580989 29.4 
" clip-path="url(#pbb621c9af8)" style="fill: none; stroke-dasharray: 2.96,1.28; stroke-dashoffset: 0; stroke: #b0b0b0; stroke-opacity: 0.5; stroke-width: 0.8"/>
     </g>
     <g id="line2d_46">
      <g>
       <use xlink:href="#m3b4793dbea" x="347.580989" y="295.648" style="stroke: #000000; stroke-width: 0.6"/>
      </g>
     </g>
    </g>
    <g id="xtick_24">
     <g id="line2d_47">
      <path d="M 368.542201 295.648 
L 368.542201 29.4 
" clip-path="url(#pbb621c9af8)" style="fill: none; stroke-dasharray: 2.96,1.28; stroke-dashoffset: 0; stroke: #b0b0b0; stroke-opacity: 0.5; stroke-width: 0.8"/>
     </g>
     <g id="line2d_48">
      <g>
       <use xlink:href="#m3b4793dbea" x="368.542201" y="295.648" style="stroke: #000000; stroke-width: 0.6"/>
      </g>
     </g>
    </g>
    <g id="xtick_25">
     <g id="line2d_49">
      <path d="M 383.414418 295.648 
L 383.414418 29.4 
" clip-path="url(#pbb621c9af8)" style="fill: none; stroke-dasharray: 2.96,1.28; stroke-dashoffset: 0; stroke: #b0b0b0; stroke-opacity: 0.5; stroke-width: 0.8"/>
     </g>
     <g id="line2d_50">
      <g>
       <use xlink:href="#m3b4793dbea" x="383.414418" y="295.648" style="stroke: #000000; stroke-width: 0.6"/>
      </g>
     </g>
    </g>
    <g id="xtick_26">
     <g id="line2d_51">
      <path d="M 394.950206 295.648 
L 394.950206 29.4 
" clip-path="url(#pbb621c9af8)" style="fill: none; stroke-dasharray: 2.96,1.28; stroke-dashoffset: 0; stroke: #b0b0b0; stroke-opacity: 0.5; stroke-width: 0.8"/>
     </g>
     <g id="line2d_52">
      <g>
       <use xlink:href="#m3b4793dbea" x="394.950206" y="295.648" style="stroke: #000000; stroke-width: 0.6"/>
      </g>
     </g>
    </g>
    <g id="xtick_27">
     <g id="line2d_53">
      <path d="M 404.37563 295.648 
L 404.37563 29.4 
" clip-path="url(#pbb621c9af8)" style="fill: none; stroke-dasharray: 2.96,1.28; stroke-dashoffset: 0; stroke: #b0b0b0; stroke-opacity: 0.5; stroke-width: 0.8"/>
     </g>
     <g id="line2d_54">
      <g>
       <use xlink:href="#m3b4793dbea" x="404.37563" y="295.648" style="stroke: #000000; stroke-width: 0.6"/>
      </g>
     </g>
    </g>
    <g id="xtick_28">
     <g id="line2d_55">
      <path d="M 412.344713 295.648 
L 412.344713 29.4 
" clip-path="url(#pbb621c9af8)" style="fill: none; stroke-dasharray: 2.96,1.28; stroke-dashoffset: 0; stroke: #b0b0b0; stroke-opacity: 0.5; stroke-width: 0.8"/>
     </g>
     <g id="line2d_56">
      <g>
       <use xlink:href="#m3b4793dbea" x="412.344713" y="295.648" style="stroke: #000000; stroke-width: 0.6"/>
      </g>
     </g>
    </g>
    <g id="xtick_29">
     <g id="line2d_57">
      <path d="M 419.247847 295.648 
L 419.247847 29.4 
" clip-path="url(#pbb621c9af8)" style="fill: none; stroke-dasharray: 2.96,1.28; stroke-dashoffset: 0; stroke: #b0b0b0; stroke-opacity: 0.5; stroke-width: 0.8"/>
     </g>
     <g id="line2d_58">
      <g>
       <use xlink:href="#m3b4793dbea" x="419.247847" y="295.648" style="stroke: #000000; stroke-width: 0.6"/>
      </g>
     </g>
    </g>
    <g id="xtick_30">
     <g id="line2d_59">
      <path d="M 425.336843 295.648 
L 425.336843 29.4 
" clip-path="url(#pbb621c9af8)" style="fill: none; stroke-dasharray: 2.96,1.28; stroke-dashoffset: 0; stroke: #b0b0b0; stroke-opacity: 0.5; stroke-width: 0.8"/>
     </g>
     <g id="line2d_60">
      <g>
       <use xlink:href="#m3b4793dbea" x="425.336843" y="295.648" style="stroke: #000000; stroke-width: 0.6"/>
      </g>
     </g>
    </g>
    <g id="text_5">
     <!-- Total Capacitance ($C_{\mathrm{tot}}$) [fF] -->
     <g transform="translate(176.109523 324.686125) scale(0.11 -0.11)">
      <defs>
       <path id="DejaVuSans-54" d="M -19 4666 
L 3928 4666 
L 3928 4134 
L 2272 4134 
L 2272 0 
L 1638 0 
L 1638 4134 
L -19 4134 
L -19 4666 
z
" transform="scale(0.015625)"/>
       <path id="DejaVuSans-6f" d="M 1959 3097 
Q 1497 3097 1228 2736 
Q 959 2375 959 1747 
Q 959 1119 1226 758 
Q 1494 397 1959 397 
Q 2419 397 2687 759 
Q 2956 1122 2956 1747 
Q 2956 2369 2687 2733 
Q 2419 3097 1959 3097 
z
M 1959 3584 
Q 2709 3584 3137 3096 
Q 3566 2609 3566 1747 
Q 3566 888 3137 398 
Q 2709 -91 1959 -91 
Q 1206 -91 779 398 
Q 353 888 353 1747 
Q 353 2609 779 3096 
Q 1206 3584 1959 3584 
z
" transform="scale(0.015625)"/>
       <path id="DejaVuSans-74" d="M 1172 4494 
L 1172 3500 
L 2356 3500 
L 2356 3053 
L 1172 3053 
L 1172 1153 
Q 1172 725 1289 603 
Q 1406 481 1766 481 
L 2356 481 
L 2356 0 
L 1766 0 
Q 1100 0 847 248 
Q 594 497 594 1153 
L 594 3053 
L 172 3053 
L 172 3500 
L 594 3500 
L 594 4494 
L 1172 4494 
z
" transform="scale(0.015625)"/>
       <path id="DejaVuSans-61" d="M 2194 1759 
Q 1497 1759 1228 1600 
Q 959 1441 959 1056 
Q 959 750 1161 570 
Q 1363 391 1709 391 
Q 2188 391 2477 730 
Q 2766 1069 2766 1631 
L 2766 1759 
L 2194 1759 
z
M 3341 1997 
L 3341 0 
L 2766 0 
L 2766 531 
Q 2569 213 2275 61 
Q 1981 -91 1556 -91 
Q 1019 -91 701 211 
Q 384 513 384 1019 
Q 384 1609 779 1909 
Q 1175 2209 1959 2209 
L 2766 2209 
L 2766 2266 
Q 2766 2663 2505 2880 
Q 2244 3097 1772 3097 
Q 1472 3097 1187 3025 
Q 903 2953 641 2809 
L 641 3341 
Q 956 3463 1253 3523 
Q 1550 3584 1831 3584 
Q 2591 3584 2966 3190 
Q 3341 2797 3341 1997 
z
" transform="scale(0.015625)"/>
       <path id="DejaVuSans-6c" d="M 603 4863 
L 1178 4863 
L 1178 0 
L 603 0 
L 603 4863 
z
" transform="scale(0.015625)"/>
       <path id="DejaVuSans-20" transform="scale(0.015625)"/>
       <path id="DejaVuSans-43" d="M 4122 4306 
L 4122 3641 
Q 3803 3938 3442 4084 
Q 3081 4231 2675 4231 
Q 1875 4231 1450 3742 
Q 1025 3253 1025 2328 
Q 1025 1406 1450 917 
Q 1875 428 2675 428 
Q 3081 428 3442 575 
Q 3803 722 4122 1019 
L 4122 359 
Q 3791 134 3420 21 
Q 3050 -91 2638 -91 
Q 1578 -91 968 557 
Q 359 1206 359 2328 
Q 359 3453 968 4101 
Q 1578 4750 2638 4750 
Q 3056 4750 3426 4639 
Q 3797 4528 4122 4306 
z
" transform="scale(0.015625)"/>
       <path id="DejaVuSans-70" d="M 1159 525 
L 1159 -1331 
L 581 -1331 
L 581 3500 
L 1159 3500 
L 1159 2969 
Q 1341 3281 1617 3432 
Q 1894 3584 2278 3584 
Q 2916 3584 3314 3078 
Q 3713 2572 3713 1747 
Q 3713 922 3314 415 
Q 2916 -91 2278 -91 
Q 1894 -91 1617 61 
Q 1341 213 1159 525 
z
M 3116 1747 
Q 3116 2381 2855 2742 
Q 2594 3103 2138 3103 
Q 1681 3103 1420 2742 
Q 1159 2381 1159 1747 
Q 1159 1113 1420 752 
Q 1681 391 2138 391 
Q 2594 391 2855 752 
Q 3116 1113 3116 1747 
z
" transform="scale(0.015625)"/>
       <path id="DejaVuSans-63" d="M 3122 3366 
L 3122 2828 
Q 2878 2963 2633 3030 
Q 2388 3097 2138 3097 
Q 1578 3097 1268 2742 
Q 959 2388 959 1747 
Q 959 1106 1268 751 
Q 1578 397 2138 397 
Q 2388 397 2633 464 
Q 2878 531 3122 666 
L 3122 134 
Q 2881 22 2623 -34 
Q 2366 -91 2075 -91 
Q 1284 -91 818 406 
Q 353 903 353 1747 
Q 353 2603 823 3093 
Q 1294 3584 2113 3584 
Q 2378 3584 2631 3529 
Q 2884 3475 3122 3366 
z
" transform="scale(0.015625)"/>
       <path id="DejaVuSans-69" d="M 603 3500 
L 1178 3500 
L 1178 0 
L 603 0 
L 603 3500 
z
M 603 4863 
L 1178 4863 
L 1178 4134 
L 603 4134 
L 603 4863 
z
" transform="scale(0.015625)"/>
       <path id="DejaVuSans-6e" d="M 3513 2113 
L 3513 0 
L 2938 0 
L 2938 2094 
Q 2938 2591 2744 2837 
Q 2550 3084 2163 3084 
Q 1697 3084 1428 2787 
Q 1159 2491 1159 1978 
L 1159 0 
L 581 0 
L 581 3500 
L 1159 3500 
L 1159 2956 
Q 1366 3272 1645 3428 
Q 1925 3584 2291 3584 
Q 2894 3584 3203 3211 
Q 3513 2838 3513 2113 
z
" transform="scale(0.015625)"/>
       <path id="DejaVuSans-65" d="M 3597 1894 
L 3597 1613 
L 953 1613 
Q 991 1019 1311 708 
Q 1631 397 2203 397 
Q 2534 397 2845 478 
Q 3156 559 3463 722 
L 3463 178 
Q 3153 47 2828 -22 
Q 2503 -91 2169 -91 
Q 1331 -91 842 396 
Q 353 884 353 1716 
Q 353 2575 817 3079 
Q 1281 3584 2069 3584 
Q 2775 3584 3186 3129 
Q 3597 2675 3597 1894 
z
M 3022 2063 
Q 3016 2534 2758 2815 
Q 2500 3097 2075 3097 
Q 1594 3097 1305 2825 
Q 1016 2553 972 2059 
L 3022 2063 
z
" transform="scale(0.015625)"/>
       <path id="DejaVuSans-28" d="M 1984 4856 
Q 1566 4138 1362 3434 
Q 1159 2731 1159 2009 
Q 1159 1288 1364 580 
Q 1569 -128 1984 -844 
L 1484 -844 
Q 1016 -109 783 600 
Q 550 1309 550 2009 
Q 550 2706 781 3412 
Q 1013 4119 1484 4856 
L 1984 4856 
z
" transform="scale(0.015625)"/>
       <path id="DejaVuSans-Oblique-43" d="M 4447 4306 
L 4319 3641 
Q 4019 3944 3683 4091 
Q 3347 4238 2956 4238 
Q 2422 4238 2017 3981 
Q 1613 3725 1319 3200 
Q 1131 2863 1032 2486 
Q 934 2109 934 1728 
Q 934 1091 1264 756 
Q 1594 422 2222 422 
Q 2656 422 3056 561 
Q 3456 700 3834 978 
L 3688 231 
Q 3316 72 2936 -9 
Q 2556 -91 2175 -91 
Q 1278 -91 773 396 
Q 269 884 269 1753 
Q 269 2309 461 2846 
Q 653 3384 1013 3828 
Q 1394 4300 1883 4525 
Q 2372 4750 3022 4750 
Q 3422 4750 3780 4639 
Q 4138 4528 4447 4306 
z
" transform="scale(0.015625)"/>
       <path id="DejaVuSans-29" d="M 513 4856 
L 1013 4856 
Q 1481 4119 1714 3412 
Q 1947 2706 1947 2009 
Q 1947 1309 1714 600 
Q 1481 -109 1013 -844 
L 513 -844 
Q 928 -128 1133 580 
Q 1338 1288 1338 2009 
Q 1338 2731 1133 3434 
Q 928 4138 513 4856 
z
" transform="scale(0.015625)"/>
       <path id="DejaVuSans-5b" d="M 550 4863 
L 1875 4863 
L 1875 4416 
L 1125 4416 
L 1125 -397 
L 1875 -397 
L 1875 -844 
L 550 -844 
L 550 4863 
z
" transform="scale(0.015625)"/>
       <path id="DejaVuSans-66" d="M 2375 4863 
L 2375 4384 
L 1825 4384 
Q 1516 4384 1395 4259 
Q 1275 4134 1275 3809 
L 1275 3500 
L 2222 3500 
L 2222 3053 
L 1275 3053 
L 1275 0 
L 697 0 
L 697 3053 
L 147 3053 
L 147 3500 
L 697 3500 
L 697 3744 
Q 697 4328 969 4595 
Q 1241 4863 1831 4863 
L 2375 4863 
z
" transform="scale(0.015625)"/>
       <path id="DejaVuSans-46" d="M 628 4666 
L 3309 4666 
L 3309 4134 
L 1259 4134 
L 1259 2759 
L 3109 2759 
L 3109 2228 
L 1259 2228 
L 1259 0 
L 628 0 
L 628 4666 
z
" transform="scale(0.015625)"/>
       <path id="DejaVuSans-5d" d="M 1947 4863 
L 1947 -844 
L 622 -844 
L 622 -397 
L 1369 -397 
L 1369 4416 
L 622 4416 
L 622 4863 
L 1947 4863 
z
" transform="scale(0.015625)"/>
      </defs>
      <use xlink:href="#DejaVuSans-54" transform="translate(0 0.015625)"/>
      <use xlink:href="#DejaVuSans-6f" transform="translate(61.083984 0.015625)"/>
      <use xlink:href="#DejaVuSans-74" transform="translate(122.265625 0.015625)"/>
      <use xlink:href="#DejaVuSans-61" transform="translate(161.474609 0.015625)"/>
      <use xlink:href="#DejaVuSans-6c" transform="translate(222.753906 0.015625)"/>
      <use xlink:href="#DejaVuSans-20" transform="translate(250.537109 0.015625)"/>
      <use xlink:href="#DejaVuSans-43" transform="translate(282.324219 0.015625)"/>
      <use xlink:href="#DejaVuSans-61" transform="translate(352.148438 0.015625)"/>
      <use xlink:href="#DejaVuSans-70" transform="translate(413.427734 0.015625)"/>
      <use xlink:href="#DejaVuSans-61" transform="translate(476.904297 0.015625)"/>
      <use xlink:href="#DejaVuSans-63" transform="translate(538.183594 0.015625)"/>
      <use xlink:href="#DejaVuSans-69" transform="translate(593.164062 0.015625)"/>
      <use xlink:href="#DejaVuSans-74" transform="translate(620.947266 0.015625)"/>
      <use xlink:href="#DejaVuSans-61" transform="translate(660.15625 0.015625)"/>
      <use xlink:href="#DejaVuSans-6e" transform="translate(721.435547 0.015625)"/>
      <use xlink:href="#DejaVuSans-63" transform="translate(784.814453 0.015625)"/>
      <use xlink:href="#DejaVuSans-65" transform="translate(839.794922 0.015625)"/>
      <use xlink:href="#DejaVuSans-20" transform="translate(901.318359 0.015625)"/>
      <use xlink:href="#DejaVuSans-28" transform="translate(933.105469 0.015625)"/>
      <use xlink:href="#DejaVuSans-Oblique-43" transform="translate(972.119141 0.015625)"/>
      <use xlink:href="#DejaVuSans-74" transform="translate(1041.943359 -16.390625) scale(0.7)"/>
      <use xlink:href="#DejaVuSans-6f" transform="translate(1069.389648 -16.390625) scale(0.7)"/>
      <use xlink:href="#DejaVuSans-74" transform="translate(1112.216797 -16.390625) scale(0.7)"/>
      <use xlink:href="#DejaVuSans-29" transform="translate(1142.397461 0.015625)"/>
      <use xlink:href="#DejaVuSans-20" transform="translate(1181.411133 0.015625)"/>
      <use xlink:href="#DejaVuSans-5b" transform="translate(1213.198242 0.015625)"/>
      <use xlink:href="#DejaVuSans-66" transform="translate(1252.211914 0.015625)"/>
      <use xlink:href="#DejaVuSans-46" transform="translate(1287.416992 0.015625)"/>
      <use xlink:href="#DejaVuSans-5d" transform="translate(1344.936523 0.015625)"/>
     </g>
    </g>
   </g>
   <g id="matplotlib.axis_2">
    <g id="ytick_1">
     <g id="line2d_61">
      <path d="M 55.82 266.20226 
L 448.639046 266.20226 
" clip-path="url(#pbb621c9af8)" style="fill: none; stroke-dasharray: 2.96,1.28; stroke-dashoffset: 0; stroke: #b0b0b0; stroke-opacity: 0.5; stroke-width: 0.8"/>
     </g>
     <g id="line2d_62">
      <defs>
       <path id="m12842a4064" d="M 0 0 
L -3.5 0 
" style="stroke: #000000; stroke-width: 0.8"/>
      </defs>
      <g>
       <use xlink:href="#m12842a4064" x="55.82" y="266.20226" style="stroke: #000000; stroke-width: 0.8"/>
      </g>
     </g>
     <g id="text_6">
      <!-- 7.5 -->
      <g transform="translate(32.916875 270.001479) scale(0.1 -0.1)">
       <defs>
        <path id="DejaVuSans-37" d="M 525 4666 
L 3525 4666 
L 3525 4397 
L 1831 0 
L 1172 0 
L 2766 4134 
L 525 4134 
L 525 4666 
z
" transform="scale(0.015625)"/>
        <path id="DejaVuSans-2e" d="M 684 794 
L 1344 794 
L 1344 0 
L 684 0 
L 684 794 
z
" transform="scale(0.015625)"/>
       </defs>
       <use xlink:href="#DejaVuSans-37"/>
       <use xlink:href="#DejaVuSans-2e" transform="translate(63.623047 0)"/>
       <use xlink:href="#DejaVuSans-35" transform="translate(95.410156 0)"/>
      </g>
     </g>
    </g>
    <g id="ytick_2">
     <g id="line2d_63">
      <path d="M 55.82 221.281702 
L 448.639046 221.281702 
" clip-path="url(#pbb621c9af8)" style="fill: none; stroke-dasharray: 2.96,1.28; stroke-dashoffset: 0; stroke: #b0b0b0; stroke-opacity: 0.5; stroke-width: 0.8"/>
     </g>
     <g id="line2d_64">
      <g>
       <use xlink:href="#m12842a4064" x="55.82" y="221.281702" style="stroke: #000000; stroke-width: 0.8"/>
      </g>
     </g>
     <g id="text_7">
      <!-- 8.0 -->
      <g transform="translate(32.916875 225.08092) scale(0.1 -0.1)">
       <defs>
        <path id="DejaVuSans-38" d="M 2034 2216 
Q 1584 2216 1326 1975 
Q 1069 1734 1069 1313 
Q 1069 891 1326 650 
Q 1584 409 2034 409 
Q 2484 409 2743 651 
Q 3003 894 3003 1313 
Q 3003 1734 2745 1975 
Q 2488 2216 2034 2216 
z
M 1403 2484 
Q 997 2584 770 2862 
Q 544 3141 544 3541 
Q 544 4100 942 4425 
Q 1341 4750 2034 4750 
Q 2731 4750 3128 4425 
Q 3525 4100 3525 3541 
Q 3525 3141 3298 2862 
Q 3072 2584 2669 2484 
Q 3125 2378 3379 2068 
Q 3634 1759 3634 1313 
Q 3634 634 3220 271 
Q 2806 -91 2034 -91 
Q 1263 -91 848 271 
Q 434 634 434 1313 
Q 434 1759 690 2068 
Q 947 2378 1403 2484 
z
M 1172 3481 
Q 1172 3119 1398 2916 
Q 1625 2713 2034 2713 
Q 2441 2713 2670 2916 
Q 2900 3119 2900 3481 
Q 2900 3844 2670 4047 
Q 2441 4250 2034 4250 
Q 1625 4250 1398 4047 
Q 1172 3844 1172 3481 
z
" transform="scale(0.015625)"/>
       </defs>
       <use xlink:href="#DejaVuSans-38"/>
       <use xlink:href="#DejaVuSans-2e" transform="translate(63.623047 0)"/>
       <use xlink:href="#DejaVuSans-30" transform="translate(95.410156 0)"/>
      </g>
     </g>
    </g>
    <g id="ytick_3">
     <g id="line2d_65">
      <path d="M 55.82 176.361143 
L 448.639046 176.361143 
" clip-path="url(#pbb621c9af8)" style="fill: none; stroke-dasharray: 2.96,1.28; stroke-dashoffset: 0; stroke: #b0b0b0; stroke-opacity: 0.5; stroke-width: 0.8"/>
     </g>
     <g id="line2d_66">
      <g>
       <use xlink:href="#m12842a4064" x="55.82" y="176.361143" style="stroke: #000000; stroke-width: 0.8"/>
      </g>
     </g>
     <g id="text_8">
      <!-- 8.5 -->
      <g transform="translate(32.916875 180.160362) scale(0.1 -0.1)">
       <use xlink:href="#DejaVuSans-38"/>
       <use xlink:href="#DejaVuSans-2e" transform="translate(63.623047 0)"/>
       <use xlink:href="#DejaVuSans-35" transform="translate(95.410156 0)"/>
      </g>
     </g>
    </g>
    <g id="ytick_4">
     <g id="line2d_67">
      <path d="M 55.82 131.440584 
L 448.639046 131.440584 
" clip-path="url(#pbb621c9af8)" style="fill: none; stroke-dasharray: 2.96,1.28; stroke-dashoffset: 0; stroke: #b0b0b0; stroke-opacity: 0.5; stroke-width: 0.8"/>
     </g>
     <g id="line2d_68">
      <g>
       <use xlink:href="#m12842a4064" x="55.82" y="131.440584" style="stroke: #000000; stroke-width: 0.8"/>
      </g>
     </g>
     <g id="text_9">
      <!-- 9.0 -->
      <g transform="translate(32.916875 135.239803) scale(0.1 -0.1)">
       <defs>
        <path id="DejaVuSans-39" d="M 703 97 
L 703 672 
Q 941 559 1184 500 
Q 1428 441 1663 441 
Q 2288 441 2617 861 
Q 2947 1281 2994 2138 
Q 2813 1869 2534 1725 
Q 2256 1581 1919 1581 
Q 1219 1581 811 2004 
Q 403 2428 403 3163 
Q 403 3881 828 4315 
Q 1253 4750 1959 4750 
Q 2769 4750 3195 4129 
Q 3622 3509 3622 2328 
Q 3622 1225 3098 567 
Q 2575 -91 1691 -91 
Q 1453 -91 1209 -44 
Q 966 3 703 97 
z
M 1959 2075 
Q 2384 2075 2632 2365 
Q 2881 2656 2881 3163 
Q 2881 3666 2632 3958 
Q 2384 4250 1959 4250 
Q 1534 4250 1286 3958 
Q 1038 3666 1038 3163 
Q 1038 2656 1286 2365 
Q 1534 2075 1959 2075 
z
" transform="scale(0.015625)"/>
       </defs>
       <use xlink:href="#DejaVuSans-39"/>
       <use xlink:href="#DejaVuSans-2e" transform="translate(63.623047 0)"/>
       <use xlink:href="#DejaVuSans-30" transform="translate(95.410156 0)"/>
      </g>
     </g>
    </g>
    <g id="ytick_5">
     <g id="line2d_69">
      <path d="M 55.82 86.520025 
L 448.639046 86.520025 
" clip-path="url(#pbb621c9af8)" style="fill: none; stroke-dasharray: 2.96,1.28; stroke-dashoffset: 0; stroke: #b0b0b0; stroke-opacity: 0.5; stroke-width: 0.8"/>
     </g>
     <g id="line2d_70">
      <g>
       <use xlink:href="#m12842a4064" x="55.82" y="86.520025" style="stroke: #000000; stroke-width: 0.8"/>
      </g>
     </g>
     <g id="text_10">
      <!-- 9.5 -->
      <g transform="translate(32.916875 90.319244) scale(0.1 -0.1)">
       <use xlink:href="#DejaVuSans-39"/>
       <use xlink:href="#DejaVuSans-2e" transform="translate(63.623047 0)"/>
       <use xlink:href="#DejaVuSans-35" transform="translate(95.410156 0)"/>
      </g>
     </g>
    </g>
    <g id="ytick_6">
     <g id="line2d_71">
      <path d="M 55.82 41.599467 
L 448.639046 41.599467 
" clip-path="url(#pbb621c9af8)" style="fill: none; stroke-dasharray: 2.96,1.28; stroke-dashoffset: 0; stroke: #b0b0b0; stroke-opacity: 0.5; stroke-width: 0.8"/>
     </g>
     <g id="line2d_72">
      <g>
       <use xlink:href="#m12842a4064" x="55.82" y="41.599467" style="stroke: #000000; stroke-width: 0.8"/>
      </g>
     </g>
     <g id="text_11">
      <!-- 10.0 -->
      <g transform="translate(26.554375 45.398685) scale(0.1 -0.1)">
       <use xlink:href="#DejaVuSans-31"/>
       <use xlink:href="#DejaVuSans-30" transform="translate(63.623047 0)"/>
       <use xlink:href="#DejaVuSans-2e" transform="translate(127.246094 0)"/>
       <use xlink:href="#DejaVuSans-30" transform="translate(159.033203 0)"/>
      </g>
     </g>
    </g>
    <g id="text_12">
     <!-- ENOB -->
     <g transform="translate(20.266719 178.217047) rotate(-90) scale(0.11 -0.11)">
      <defs>
       <path id="DejaVuSans-45" d="M 628 4666 
L 3578 4666 
L 3578 4134 
L 1259 4134 
L 1259 2753 
L 3481 2753 
L 3481 2222 
L 1259 2222 
L 1259 531 
L 3634 531 
L 3634 0 
L 628 0 
L 628 4666 
z
" transform="scale(0.015625)"/>
       <path id="DejaVuSans-4e" d="M 628 4666 
L 1478 4666 
L 3547 763 
L 3547 4666 
L 4159 4666 
L 4159 0 
L 3309 0 
L 1241 3903 
L 1241 0 
L 628 0 
L 628 4666 
z
" transform="scale(0.015625)"/>
       <path id="DejaVuSans-4f" d="M 2522 4238 
Q 1834 4238 1429 3725 
Q 1025 3213 1025 2328 
Q 1025 1447 1429 934 
Q 1834 422 2522 422 
Q 3209 422 3611 934 
Q 4013 1447 4013 2328 
Q 4013 3213 3611 3725 
Q 3209 4238 2522 4238 
z
M 2522 4750 
Q 3503 4750 4090 4092 
Q 4678 3434 4678 2328 
Q 4678 1225 4090 567 
Q 3503 -91 2522 -91 
Q 1538 -91 948 565 
Q 359 1222 359 2328 
Q 359 3434 948 4092 
Q 1538 4750 2522 4750 
z
" transform="scale(0.015625)"/>
       <path id="DejaVuSans-42" d="M 1259 2228 
L 1259 519 
L 2272 519 
Q 2781 519 3026 730 
Q 3272 941 3272 1375 
Q 3272 1813 3026 2020 
Q 2781 2228 2272 2228 
L 1259 2228 
z
M 1259 4147 
L 1259 2741 
L 2194 2741 
Q 2656 2741 2882 2914 
Q 3109 3088 3109 3444 
Q 3109 3797 2882 3972 
Q 2656 4147 2194 4147 
L 1259 4147 
z
M 628 4666 
L 2241 4666 
Q 2963 4666 3353 4366 
Q 3744 4066 3744 3513 
Q 3744 3084 3544 2831 
Q 3344 2578 2956 2516 
Q 3422 2416 3680 2098 
Q 3938 1781 3938 1306 
Q 3938 681 3513 340 
Q 3088 0 2303 0 
L 628 0 
L 628 4666 
z
" transform="scale(0.015625)"/>
      </defs>
      <use xlink:href="#DejaVuSans-45"/>
      <use xlink:href="#DejaVuSans-4e" transform="translate(63.183594 0)"/>
      <use xlink:href="#DejaVuSans-4f" transform="translate(137.988281 0)"/>
      <use xlink:href="#DejaVuSans-42" transform="translate(216.699219 0)"/>
     </g>
    </g>
   </g>
   <g id="line2d_73">
    <path d="M 73.675411 47.110434 
L 77.282565 46.746969 
L 80.889719 46.406152 
L 84.496872 46.086683 
L 88.104026 45.787319 
L 91.71118 45.50688 
L 95.318334 45.244243 
L 98.925488 44.998344 
L 102.532641 44.768174 
L 106.139795 44.552778 
L 109.746949 44.351251 
L 113.354103 44.162741 
L 116.961256 43.98644 
L 120.56841 43.821587 
L 124.175564 43.667467 
L 127.782718 43.523402 
L 131.389872 43.388758 
L 134.997025 43.262936 
L 138.604179 43.145373 
L 142.211333 43.035541 
L 145.818487 42.932944 
L 149.42564 42.837114 
L 153.032794 42.747616 
L 156.639948 42.664037 
L 160.247102 42.585995 
L 163.854256 42.513127 
L 167.461409 42.445097 
L 171.068563 42.381587 
L 174.675717 42.322301 
L 178.282871 42.266962 
L 181.890024 42.21531 
L 185.497178 42.167102 
L 189.104332 42.122111 
L 192.711486 42.080124 
L 196.318639 42.040943 
L 199.925793 42.00438 
L 203.532947 41.970263 
L 207.140101 41.93843 
L 210.747255 41.908727 
L 214.354408 41.881015 
L 217.961562 41.855159 
L 221.568716 41.831037 
L 225.17587 41.808532 
L 228.783023 41.787537 
L 232.390177 41.767951 
L 235.997331 41.749679 
L 239.604485 41.732635 
L 243.211639 41.716735 
L 246.818792 41.701903 
L 250.425946 41.688068 
L 254.0331 41.675162 
L 257.640254 41.663124 
L 261.247407 41.651895 
L 264.854561 41.641422 
L 268.461715 41.631652 
L 272.068869 41.62254 
L 275.676022 41.614041 
L 279.283176 41.606113 
L 282.89033 41.598719 
L 286.497484 41.591823 
L 290.104638 41.585391 
L 293.711791 41.579391 
L 297.318945 41.573796 
L 300.926099 41.568577 
L 304.533253 41.563709 
L 308.140406 41.55917 
L 311.74756 41.554936 
L 315.354714 41.550987 
L 318.961868 41.547303 
L 322.569022 41.543868 
L 326.176175 41.540665 
L 329.783329 41.537677 
L 333.390483 41.53489 
L 336.997637 41.532291 
L 340.60479 41.529867 
L 344.211944 41.527607 
L 347.819098 41.525499 
L 351.426252 41.523532 
L 355.033405 41.521698 
L 358.640559 41.519988 
L 362.247713 41.518393 
L 365.854867 41.516906 
L 369.462021 41.515518 
L 373.069174 41.514224 
L 376.676328 41.513018 
L 380.283482 41.511892 
L 383.890636 41.510843 
L 387.497789 41.509864 
L 391.104943 41.508951 
L 394.712097 41.5081 
L 398.319251 41.507306 
L 401.926405 41.506565 
L 405.533558 41.505875 
L 409.140712 41.50523 
L 412.747866 41.50463 
L 416.35502 41.50407 
L 419.962173 41.503547 
L 423.569327 41.50306 
L 427.176481 41.502606 
L 430.783635 41.502182 
" clip-path="url(#pbb621c9af8)" style="fill: none; stroke: #1f77b4; stroke-width: 1.5; stroke-linecap: square"/>
   </g>
   <g id="line2d_74">
    <path d="M 73.675411 283.545818 
L 77.282565 279.135232 
L 80.889719 274.73251 
L 84.496872 270.338188 
L 88.104026 265.952839 
L 91.71118 261.577069 
L 95.318334 257.211526 
L 98.925488 252.856894 
L 102.532641 248.513903 
L 106.139795 244.183324 
L 109.746949 239.865975 
L 113.354103 235.562724 
L 116.961256 231.274486 
L 120.56841 227.002232 
L 124.175564 222.746984 
L 127.782718 218.509821 
L 131.389872 214.291881 
L 134.997025 210.094359 
L 138.604179 205.918513 
L 142.211333 201.765661 
L 145.818487 197.637186 
L 149.42564 193.534533 
L 153.032794 189.459211 
L 156.639948 185.412794 
L 160.247102 181.396919 
L 163.854256 177.413284 
L 167.461409 173.463649 
L 171.068563 169.549832 
L 174.675717 165.673706 
L 178.282871 161.837196 
L 181.890024 158.042276 
L 185.497178 154.290961 
L 189.104332 150.5853 
L 192.711486 146.927376 
L 196.318639 143.319289 
L 199.925793 139.763153 
L 203.532947 136.261086 
L 207.140101 132.815198 
L 210.747255 129.427579 
L 214.354408 126.100288 
L 217.961562 122.835344 
L 221.568716 119.634706 
L 225.17587 116.500265 
L 228.783023 113.433828 
L 232.390177 110.437104 
L 235.997331 107.511695 
L 239.604485 104.659075 
L 243.211639 101.880584 
L 246.818792 99.177414 
L 250.425946 96.5506 
L 254.0331 94.001008 
L 257.640254 91.529326 
L 261.247407 89.136062 
L 264.854561 86.821538 
L 268.461715 84.585881 
L 272.068869 82.429031 
L 275.676022 80.350733 
L 279.283176 78.350547 
L 282.89033 76.427846 
L 286.497484 74.581825 
L 290.104638 72.811509 
L 293.711791 71.115761 
L 297.318945 69.493291 
L 300.926099 67.942671 
L 304.533253 66.462342 
L 308.140406 65.050632 
L 311.74756 63.705767 
L 315.354714 62.425884 
L 318.961868 61.209046 
L 322.569022 60.053254 
L 326.176175 58.956463 
L 329.783329 57.91659 
L 333.390483 56.931532 
L 336.997637 55.999173 
L 340.60479 55.117396 
L 344.211944 54.284095 
L 347.819098 53.49718 
L 351.426252 52.754589 
L 355.033405 52.054295 
L 358.640559 51.394308 
L 362.247713 50.772685 
L 365.854867 50.187536 
L 369.462021 49.637022 
L 373.069174 49.119362 
L 376.676328 48.632835 
L 380.283482 48.175785 
L 383.890636 47.746613 
L 387.497789 47.343789 
L 391.104943 46.965845 
L 394.712097 46.611375 
L 398.319251 46.279039 
L 401.926405 45.967558 
L 405.533558 45.675715 
L 409.140712 45.402352 
L 412.747866 45.146369 
L 416.35502 44.906724 
L 419.962173 44.682429 
L 423.569327 44.472549 
L 427.176481 44.276199 
L 430.783635 44.092546 
" clip-path="url(#pbb621c9af8)" style="fill: none; stroke: #ff7f0e; stroke-width: 1.5; stroke-linecap: square"/>
   </g>
   <g id="patch_3">
    <path d="M 55.82 295.648 
L 55.82 29.4 
" style="fill: none; stroke: #000000; stroke-width: 0.8; stroke-linejoin: miter; stroke-linecap: square"/>
   </g>
   <g id="patch_4">
    <path d="M 448.639046 295.648 
L 448.639046 29.4 
" style="fill: none; stroke: #000000; stroke-width: 0.8; stroke-linejoin: miter; stroke-linecap: square"/>
   </g>
   <g id="patch_5">
    <path d="M 55.82 295.648 
L 448.639046 295.648 
" style="fill: none; stroke: #000000; stroke-width: 0.8; stroke-linejoin: miter; stroke-linecap: square"/>
   </g>
   <g id="patch_6">
    <path d="M 55.82 29.4 
L 448.639046 29.4 
" style="fill: none; stroke: #000000; stroke-width: 0.8; stroke-linejoin: miter; stroke-linecap: square"/>
   </g>
   <g id="text_13">
    <g id="patch_7">
     <path d="M 388.639046 255.72175 
L 447.939046 255.72175 
Q 450.939046 255.72175 450.939046 252.72175 
L 450.939046 220.648 
Q 450.939046 217.648 447.939046 217.648 
L 388.639046 217.648 
Q 385.639046 217.648 385.639046 220.648 
L 385.639046 252.72175 
Q 385.639046 255.72175 388.639046 255.72175 
z
" style="fill: #ffffff; opacity: 0.7; stroke: #808080; stroke-linejoin: miter"/>
    </g>
    <!-- $N_{\mathrm{bits}}=10$ -->
    <g transform="translate(388.639046 228.246437) scale(0.1 -0.1)">
     <defs>
      <path id="DejaVuSans-Oblique-4e" d="M 1081 4666 
L 1931 4666 
L 3219 666 
L 4000 4666 
L 4616 4666 
L 3706 0 
L 2853 0 
L 1569 4025 
L 788 0 
L 172 0 
L 1081 4666 
z
" transform="scale(0.015625)"/>
      <path id="DejaVuSans-62" d="M 3116 1747 
Q 3116 2381 2855 2742 
Q 2594 3103 2138 3103 
Q 1681 3103 1420 2742 
Q 1159 2381 1159 1747 
Q 1159 1113 1420 752 
Q 1681 391 2138 391 
Q 2594 391 2855 752 
Q 3116 1113 3116 1747 
z
M 1159 2969 
Q 1341 3281 1617 3432 
Q 1894 3584 2278 3584 
Q 2916 3584 3314 3078 
Q 3713 2572 3713 1747 
Q 3713 922 3314 415 
Q 2916 -91 2278 -91 
Q 1894 -91 1617 61 
Q 1341 213 1159 525 
L 1159 0 
L 581 0 
L 581 4863 
L 1159 4863 
L 1159 2969 
z
" transform="scale(0.015625)"/>
      <path id="DejaVuSans-73" d="M 2834 3397 
L 2834 2853 
Q 2591 2978 2328 3040 
Q 2066 3103 1784 3103 
Q 1356 3103 1142 2972 
Q 928 2841 928 2578 
Q 928 2378 1081 2264 
Q 1234 2150 1697 2047 
L 1894 2003 
Q 2506 1872 2764 1633 
Q 3022 1394 3022 966 
Q 3022 478 2636 193 
Q 2250 -91 1575 -91 
Q 1294 -91 989 -36 
Q 684 19 347 128 
L 347 722 
Q 666 556 975 473 
Q 1284 391 1588 391 
Q 1994 391 2212 530 
Q 2431 669 2431 922 
Q 2431 1156 2273 1281 
Q 2116 1406 1581 1522 
L 1381 1569 
Q 847 1681 609 1914 
Q 372 2147 372 2553 
Q 372 3047 722 3315 
Q 1072 3584 1716 3584 
Q 2034 3584 2315 3537 
Q 2597 3491 2834 3397 
z
" transform="scale(0.015625)"/>
      <path id="DejaVuSans-3d" d="M 678 2906 
L 4684 2906 
L 4684 2381 
L 678 2381 
L 678 2906 
z
M 678 1631 
L 4684 1631 
L 4684 1100 
L 678 1100 
L 678 1631 
z
" transform="scale(0.015625)"/>
     </defs>
     <use xlink:href="#DejaVuSans-Oblique-4e" transform="translate(0 0.78125)"/>
     <use xlink:href="#DejaVuSans-62" transform="translate(74.804688 -15.625) scale(0.7)"/>
     <use xlink:href="#DejaVuSans-69" transform="translate(119.238281 -15.625) scale(0.7)"/>
     <use xlink:href="#DejaVuSans-74" transform="translate(138.686523 -15.625) scale(0.7)"/>
     <use xlink:href="#DejaVuSans-73" transform="translate(166.132812 -15.625) scale(0.7)"/>
     <use xlink:href="#DejaVuSans-3d" transform="translate(224.819336 0.78125)"/>
     <use xlink:href="#DejaVuSans-31" transform="translate(328.09082 0.78125)"/>
     <use xlink:href="#DejaVuSans-30" transform="translate(391.713867 0.78125)"/>
    </g>
    <!-- $V_{\mathrm{ref}}=1.2$ V -->
    <g transform="translate(388.639046 239.44425) scale(0.1 -0.1)">
     <defs>
      <path id="DejaVuSans-Oblique-56" d="M 1319 0 
L 500 4666 
L 1119 4666 
L 1797 653 
L 4063 4666 
L 4750 4666 
L 2053 0 
L 1319 0 
z
" transform="scale(0.015625)"/>
      <path id="DejaVuSans-72" d="M 2631 2963 
Q 2534 3019 2420 3045 
Q 2306 3072 2169 3072 
Q 1681 3072 1420 2755 
Q 1159 2438 1159 1844 
L 1159 0 
L 581 0 
L 581 3500 
L 1159 3500 
L 1159 2956 
Q 1341 3275 1631 3429 
Q 1922 3584 2338 3584 
Q 2397 3584 2469 3576 
Q 2541 3569 2628 3553 
L 2631 2963 
z
" transform="scale(0.015625)"/>
      <path id="DejaVuSans-56" d="M 1831 0 
L 50 4666 
L 709 4666 
L 2188 738 
L 3669 4666 
L 4325 4666 
L 2547 0 
L 1831 0 
z
" transform="scale(0.015625)"/>
     </defs>
     <use xlink:href="#DejaVuSans-Oblique-56" transform="translate(0 0.78125)"/>
     <use xlink:href="#DejaVuSans-72" transform="translate(68.408203 -15.625) scale(0.7)"/>
     <use xlink:href="#DejaVuSans-65" transform="translate(97.1875 -15.625) scale(0.7)"/>
     <use xlink:href="#DejaVuSans-66" transform="translate(140.253906 -15.625) scale(0.7)"/>
     <use xlink:href="#DejaVuSans-3d" transform="translate(187.114258 0.78125)"/>
     <use xlink:href="#DejaVuSans-31" transform="translate(290.385742 0.78125)"/>
     <use xlink:href="#DejaVuSans-2e" transform="translate(354.008789 0.78125)"/>
     <use xlink:href="#DejaVuSans-32" transform="translate(380.295898 0.78125)"/>
     <use xlink:href="#DejaVuSans-20" transform="translate(443.918945 0.78125)"/>
     <use xlink:href="#DejaVuSans-56" transform="translate(475.706055 0.78125)"/>
    </g>
    <!-- $A_{C}=0.0085$ -->
    <g transform="translate(388.639046 250.642062) scale(0.1 -0.1)">
     <defs>
      <path id="DejaVuSans-Oblique-41" d="M 2356 4666 
L 3072 4666 
L 3938 0 
L 3278 0 
L 3084 1197 
L 984 1197 
L 325 0 
L -341 0 
L 2356 4666 
z
M 2584 4044 
L 1275 1722 
L 2988 1722 
L 2584 4044 
z
" transform="scale(0.015625)"/>
     </defs>
     <use xlink:href="#DejaVuSans-Oblique-41" transform="translate(0 0.78125)"/>
     <use xlink:href="#DejaVuSans-Oblique-43" transform="translate(68.408203 -15.625) scale(0.7)"/>
     <use xlink:href="#DejaVuSans-3d" transform="translate(139.501953 0.78125)"/>
     <use xlink:href="#DejaVuSans-30" transform="translate(242.773438 0.78125)"/>
     <use xlink:href="#DejaVuSans-2e" transform="translate(306.396484 0.78125)"/>
     <use xlink:href="#DejaVuSans-30" transform="translate(338.183594 0.78125)"/>
     <use xlink:href="#DejaVuSans-30" transform="translate(401.806641 0.78125)"/>
     <use xlink:href="#DejaVuSans-38" transform="translate(465.429688 0.78125)"/>
     <use xlink:href="#DejaVuSans-35" transform="translate(529.052734 0.78125)"/>
    </g>
   </g>
   <g id="text_14">
    <!-- ENOB vs. $C_{\mathrm{tot}}$: from Sampling or Mismatch DNL Noise -->
    <g transform="translate(92.629523 23.4) scale(0.12 -0.12)">
     <defs>
      <path id="DejaVuSans-76" d="M 191 3500 
L 800 3500 
L 1894 563 
L 2988 3500 
L 3597 3500 
L 2284 0 
L 1503 0 
L 191 3500 
z
" transform="scale(0.015625)"/>
      <path id="DejaVuSans-3a" d="M 750 794 
L 1409 794 
L 1409 0 
L 750 0 
L 750 794 
z
M 750 3309 
L 1409 3309 
L 1409 2516 
L 750 2516 
L 750 3309 
z
" transform="scale(0.015625)"/>
      <path id="DejaVuSans-6d" d="M 3328 2828 
Q 3544 3216 3844 3400 
Q 4144 3584 4550 3584 
Q 5097 3584 5394 3201 
Q 5691 2819 5691 2113 
L 5691 0 
L 5113 0 
L 5113 2094 
Q 5113 2597 4934 2840 
Q 4756 3084 4391 3084 
Q 3944 3084 3684 2787 
Q 3425 2491 3425 1978 
L 3425 0 
L 2847 0 
L 2847 2094 
Q 2847 2600 2669 2842 
Q 2491 3084 2119 3084 
Q 1678 3084 1418 2786 
Q 1159 2488 1159 1978 
L 1159 0 
L 581 0 
L 581 3500 
L 1159 3500 
L 1159 2956 
Q 1356 3278 1631 3431 
Q 1906 3584 2284 3584 
Q 2666 3584 2933 3390 
Q 3200 3197 3328 2828 
z
" transform="scale(0.015625)"/>
      <path id="DejaVuSans-53" d="M 3425 4513 
L 3425 3897 
Q 3066 4069 2747 4153 
Q 2428 4238 2131 4238 
Q 1616 4238 1336 4038 
Q 1056 3838 1056 3469 
Q 1056 3159 1242 3001 
Q 1428 2844 1947 2747 
L 2328 2669 
Q 3034 2534 3370 2195 
Q 3706 1856 3706 1288 
Q 3706 609 3251 259 
Q 2797 -91 1919 -91 
Q 1588 -91 1214 -16 
Q 841 59 441 206 
L 441 856 
Q 825 641 1194 531 
Q 1563 422 1919 422 
Q 2459 422 2753 634 
Q 3047 847 3047 1241 
Q 3047 1584 2836 1778 
Q 2625 1972 2144 2069 
L 1759 2144 
Q 1053 2284 737 2584 
Q 422 2884 422 3419 
Q 422 4038 858 4394 
Q 1294 4750 2059 4750 
Q 2388 4750 2728 4690 
Q 3069 4631 3425 4513 
z
" transform="scale(0.015625)"/>
      <path id="DejaVuSans-67" d="M 2906 1791 
Q 2906 2416 2648 2759 
Q 2391 3103 1925 3103 
Q 1463 3103 1205 2759 
Q 947 2416 947 1791 
Q 947 1169 1205 825 
Q 1463 481 1925 481 
Q 2391 481 2648 825 
Q 2906 1169 2906 1791 
z
M 3481 434 
Q 3481 -459 3084 -895 
Q 2688 -1331 1869 -1331 
Q 1566 -1331 1297 -1286 
Q 1028 -1241 775 -1147 
L 775 -588 
Q 1028 -725 1275 -790 
Q 1522 -856 1778 -856 
Q 2344 -856 2625 -561 
Q 2906 -266 2906 331 
L 2906 616 
Q 2728 306 2450 153 
Q 2172 0 1784 0 
Q 1141 0 747 490 
Q 353 981 353 1791 
Q 353 2603 747 3093 
Q 1141 3584 1784 3584 
Q 2172 3584 2450 3431 
Q 2728 3278 2906 2969 
L 2906 3500 
L 3481 3500 
L 3481 434 
z
" transform="scale(0.015625)"/>
      <path id="DejaVuSans-4d" d="M 628 4666 
L 1569 4666 
L 2759 1491 
L 3956 4666 
L 4897 4666 
L 4897 0 
L 4281 0 
L 4281 4097 
L 3078 897 
L 2444 897 
L 1241 4097 
L 1241 0 
L 628 0 
L 628 4666 
z
" transform="scale(0.015625)"/>
      <path id="DejaVuSans-68" d="M 3513 2113 
L 3513 0 
L 2938 0 
L 2938 2094 
Q 2938 2591 2744 2837 
Q 2550 3084 2163 3084 
Q 1697 3084 1428 2787 
Q 1159 2491 1159 1978 
L 1159 0 
L 581 0 
L 581 4863 
L 1159 4863 
L 1159 2956 
Q 1366 3272 1645 3428 
Q 1925 3584 2291 3584 
Q 2894 3584 3203 3211 
Q 3513 2838 3513 2113 
z
" transform="scale(0.015625)"/>
      <path id="DejaVuSans-44" d="M 1259 4147 
L 1259 519 
L 2022 519 
Q 2988 519 3436 956 
Q 3884 1394 3884 2338 
Q 3884 3275 3436 3711 
Q 2988 4147 2022 4147 
L 1259 4147 
z
M 628 4666 
L 1925 4666 
Q 3281 4666 3915 4102 
Q 4550 3538 4550 2338 
Q 4550 1131 3912 565 
Q 3275 0 1925 0 
L 628 0 
L 628 4666 
z
" transform="scale(0.015625)"/>
      <path id="DejaVuSans-4c" d="M 628 4666 
L 1259 4666 
L 1259 531 
L 3531 531 
L 3531 0 
L 628 0 
L 628 4666 
z
" transform="scale(0.015625)"/>
     </defs>
     <use xlink:href="#DejaVuSans-45" transform="translate(0 0.015625)"/>
     <use xlink:href="#DejaVuSans-4e" transform="translate(63.183594 0.015625)"/>
     <use xlink:href="#DejaVuSans-4f" transform="translate(137.988281 0.015625)"/>
     <use xlink:href="#DejaVuSans-42" transform="translate(216.699219 0.015625)"/>
     <use xlink:href="#DejaVuSans-20" transform="translate(285.302734 0.015625)"/>
     <use xlink:href="#DejaVuSans-76" transform="translate(317.089844 0.015625)"/>
     <use xlink:href="#DejaVuSans-73" transform="translate(376.269531 0.015625)"/>
     <use xlink:href="#DejaVuSans-2e" transform="translate(428.369141 0.015625)"/>
     <use xlink:href="#DejaVuSans-20" transform="translate(460.15625 0.015625)"/>
     <use xlink:href="#DejaVuSans-Oblique-43" transform="translate(491.943359 0.015625)"/>
     <use xlink:href="#DejaVuSans-74" transform="translate(561.767578 -16.390625) scale(0.7)"/>
     <use xlink:href="#DejaVuSans-6f" transform="translate(589.213867 -16.390625) scale(0.7)"/>
     <use xlink:href="#DejaVuSans-74" transform="translate(632.041016 -16.390625) scale(0.7)"/>
     <use xlink:href="#DejaVuSans-3a" transform="translate(662.22168 0.015625)"/>
     <use xlink:href="#DejaVuSans-20" transform="translate(695.913086 0.015625)"/>
     <use xlink:href="#DejaVuSans-66" transform="translate(727.700195 0.015625)"/>
     <use xlink:href="#DejaVuSans-72" transform="translate(762.905273 0.015625)"/>
     <use xlink:href="#DejaVuSans-6f" transform="translate(804.018555 0.015625)"/>
     <use xlink:href="#DejaVuSans-6d" transform="translate(865.200195 0.015625)"/>
     <use xlink:href="#DejaVuSans-20" transform="translate(962.612305 0.015625)"/>
     <use xlink:href="#DejaVuSans-53" transform="translate(994.399414 0.015625)"/>
     <use xlink:href="#DejaVuSans-61" transform="translate(1057.875977 0.015625)"/>
     <use xlink:href="#DejaVuSans-6d" transform="translate(1119.155273 0.015625)"/>
     <use xlink:href="#DejaVuSans-70" transform="translate(1216.567383 0.015625)"/>
     <use xlink:href="#DejaVuSans-6c" transform="translate(1280.043945 0.015625)"/>
     <use xlink:href="#DejaVuSans-69" transform="translate(1307.827148 0.015625)"/>
     <use xlink:href="#DejaVuSans-6e" transform="translate(1335.610352 0.015625)"/>
     <use xlink:href="#DejaVuSans-67" transform="translate(1398.989258 0.015625)"/>
     <use xlink:href="#DejaVuSans-20" transform="translate(1462.46582 0.015625)"/>
     <use xlink:href="#DejaVuSans-6f" transform="translate(1494.25293 0.015625)"/>
     <use xlink:href="#DejaVuSans-72" transform="translate(1555.43457 0.015625)"/>
     <use xlink:href="#DejaVuSans-20" transform="translate(1596.547852 0.015625)"/>
     <use xlink:href="#DejaVuSans-4d" transform="translate(1628.334961 0.015625)"/>
     <use xlink:href="#DejaVuSans-69" transform="translate(1714.614258 0.015625)"/>
     <use xlink:href="#DejaVuSans-73" transform="translate(1742.397461 0.015625)"/>
     <use xlink:href="#DejaVuSans-6d" transform="translate(1794.49707 0.015625)"/>
     <use xlink:href="#DejaVuSans-61" transform="translate(1891.90918 0.015625)"/>
     <use xlink:href="#DejaVuSans-74" transform="translate(1953.188477 0.015625)"/>
     <use xlink:href="#DejaVuSans-63" transform="translate(1992.397461 0.015625)"/>
     <use xlink:href="#DejaVuSans-68" transform="translate(2047.37793 0.015625)"/>
     <use xlink:href="#DejaVuSans-20" transform="translate(2110.756836 0.015625)"/>
     <use xlink:href="#DejaVuSans-44" transform="translate(2142.543945 0.015625)"/>
     <use xlink:href="#DejaVuSans-4e" transform="translate(2219.545898 0.015625)"/>
     <use xlink:href="#DejaVuSans-4c" transform="translate(2294.350586 0.015625)"/>
     <use xlink:href="#DejaVuSans-20" transform="translate(2350.063477 0.015625)"/>
     <use xlink:href="#DejaVuSans-4e" transform="translate(2381.850586 0.015625)"/>
     <use xlink:href="#DejaVuSans-6f" transform="translate(2456.655273 0.015625)"/>
     <use xlink:href="#DejaVuSans-69" transform="translate(2517.836914 0.015625)"/>
     <use xlink:href="#DejaVuSans-73" transform="translate(2545.620117 0.015625)"/>
     <use xlink:href="#DejaVuSans-65" transform="translate(2597.719727 0.015625)"/>
    </g>
   </g>
   <g id="legend_1">
    <g id="patch_8">
     <path d="M 240.746858 290.648 
L 441.639046 290.648 
Q 443.639046 290.648 443.639046 288.648 
L 443.639046 260.29175 
Q 443.639046 258.29175 441.639046 258.29175 
L 240.746858 258.29175 
Q 238.746858 258.29175 238.746858 260.29175 
L 238.746858 288.648 
Q 238.746858 290.648 240.746858 290.648 
z
" style="fill: #ffffff; opacity: 0.8; stroke: #cccccc; stroke-linejoin: miter"/>
    </g>
    <g id="line2d_75">
     <path d="M 242.746858 266.390187 
L 252.746858 266.390187 
L 262.746858 266.390187 
" style="fill: none; stroke: #1f77b4; stroke-width: 1.5; stroke-linecap: square"/>
    </g>
    <g id="text_15">
     <!-- ENOB due to Sampling noise -->
     <g transform="translate(270.746858 269.890187) scale(0.1 -0.1)">
      <defs>
       <path id="DejaVuSans-64" d="M 2906 2969 
L 2906 4863 
L 3481 4863 
L 3481 0 
L 2906 0 
L 2906 525 
Q 2725 213 2448 61 
Q 2172 -91 1784 -91 
Q 1150 -91 751 415 
Q 353 922 353 1747 
Q 353 2572 751 3078 
Q 1150 3584 1784 3584 
Q 2172 3584 2448 3432 
Q 2725 3281 2906 2969 
z
M 947 1747 
Q 947 1113 1208 752 
Q 1469 391 1925 391 
Q 2381 391 2643 752 
Q 2906 1113 2906 1747 
Q 2906 2381 2643 2742 
Q 2381 3103 1925 3103 
Q 1469 3103 1208 2742 
Q 947 2381 947 1747 
z
" transform="scale(0.015625)"/>
       <path id="DejaVuSans-75" d="M 544 1381 
L 544 3500 
L 1119 3500 
L 1119 1403 
Q 1119 906 1312 657 
Q 1506 409 1894 409 
Q 2359 409 2629 706 
Q 2900 1003 2900 1516 
L 2900 3500 
L 3475 3500 
L 3475 0 
L 2900 0 
L 2900 538 
Q 2691 219 2414 64 
Q 2138 -91 1772 -91 
Q 1169 -91 856 284 
Q 544 659 544 1381 
z
M 1991 3584 
L 1991 3584 
z
" transform="scale(0.015625)"/>
      </defs>
      <use xlink:href="#DejaVuSans-45"/>
      <use xlink:href="#DejaVuSans-4e" transform="translate(63.183594 0)"/>
      <use xlink:href="#DejaVuSans-4f" transform="translate(137.988281 0)"/>
      <use xlink:href="#DejaVuSans-42" transform="translate(216.699219 0)"/>
      <use xlink:href="#DejaVuSans-20" transform="translate(285.302734 0)"/>
      <use xlink:href="#DejaVuSans-64" transform="translate(317.089844 0)"/>
      <use xlink:href="#DejaVuSans-75" transform="translate(380.566406 0)"/>
      <use xlink:href="#DejaVuSans-65" transform="translate(443.945312 0)"/>
      <use xlink:href="#DejaVuSans-20" transform="translate(505.46875 0)"/>
      <use xlink:href="#DejaVuSans-74" transform="translate(537.255859 0)"/>
      <use xlink:href="#DejaVuSans-6f" transform="translate(576.464844 0)"/>
      <use xlink:href="#DejaVuSans-20" transform="translate(637.646484 0)"/>
      <use xlink:href="#DejaVuSans-53" transform="translate(669.433594 0)"/>
      <use xlink:href="#DejaVuSans-61" transform="translate(732.910156 0)"/>
      <use xlink:href="#DejaVuSans-6d" transform="translate(794.189453 0)"/>
      <use xlink:href="#DejaVuSans-70" transform="translate(891.601562 0)"/>
      <use xlink:href="#DejaVuSans-6c" transform="translate(955.078125 0)"/>
      <use xlink:href="#DejaVuSans-69" transform="translate(982.861328 0)"/>
      <use xlink:href="#DejaVuSans-6e" transform="translate(1010.644531 0)"/>
      <use xlink:href="#DejaVuSans-67" transform="translate(1074.023438 0)"/>
      <use xlink:href="#DejaVuSans-20" transform="translate(1137.5 0)"/>
      <use xlink:href="#DejaVuSans-6e" transform="translate(1169.287109 0)"/>
      <use xlink:href="#DejaVuSans-6f" transform="translate(1232.666016 0)"/>
      <use xlink:href="#DejaVuSans-69" transform="translate(1293.847656 0)"/>
      <use xlink:href="#DejaVuSans-73" transform="translate(1321.630859 0)"/>
      <use xlink:href="#DejaVuSans-65" transform="translate(1373.730469 0)"/>
     </g>
    </g>
    <g id="line2d_76">
     <path d="M 242.746858 281.068312 
L 252.746858 281.068312 
L 262.746858 281.068312 
" style="fill: none; stroke: #ff7f0e; stroke-width: 1.5; stroke-linecap: square"/>
    </g>
    <g id="text_16">
     <!-- ENOB due to Mismatch DNL noise -->
     <g transform="translate(270.746858 284.568312) scale(0.1 -0.1)">
      <use xlink:href="#DejaVuSans-45"/>
      <use xlink:href="#DejaVuSans-4e" transform="translate(63.183594 0)"/>
      <use xlink:href="#DejaVuSans-4f" transform="translate(137.988281 0)"/>
      <use xlink:href="#DejaVuSans-42" transform="translate(216.699219 0)"/>
      <use xlink:href="#DejaVuSans-20" transform="translate(285.302734 0)"/>
      <use xlink:href="#DejaVuSans-64" transform="translate(317.089844 0)"/>
      <use xlink:href="#DejaVuSans-75" transform="translate(380.566406 0)"/>
      <use xlink:href="#DejaVuSans-65" transform="translate(443.945312 0)"/>
      <use xlink:href="#DejaVuSans-20" transform="translate(505.46875 0)"/>
      <use xlink:href="#DejaVuSans-74" transform="translate(537.255859 0)"/>
      <use xlink:href="#DejaVuSans-6f" transform="translate(576.464844 0)"/>
      <use xlink:href="#DejaVuSans-20" transform="translate(637.646484 0)"/>
      <use xlink:href="#DejaVuSans-4d" transform="translate(669.433594 0)"/>
      <use xlink:href="#DejaVuSans-69" transform="translate(755.712891 0)"/>
      <use xlink:href="#DejaVuSans-73" transform="translate(783.496094 0)"/>
      <use xlink:href="#DejaVuSans-6d" transform="translate(835.595703 0)"/>
      <use xlink:href="#DejaVuSans-61" transform="translate(933.007812 0)"/>
      <use xlink:href="#DejaVuSans-74" transform="translate(994.287109 0)"/>
      <use xlink:href="#DejaVuSans-63" transform="translate(1033.496094 0)"/>
      <use xlink:href="#DejaVuSans-68" transform="translate(1088.476562 0)"/>
      <use xlink:href="#DejaVuSans-20" transform="translate(1151.855469 0)"/>
      <use xlink:href="#DejaVuSans-44" transform="translate(1183.642578 0)"/>
      <use xlink:href="#DejaVuSans-4e" transform="translate(1260.644531 0)"/>
      <use xlink:href="#DejaVuSans-4c" transform="translate(1335.449219 0)"/>
      <use xlink:href="#DejaVuSans-20" transform="translate(1391.162109 0)"/>
      <use xlink:href="#DejaVuSans-6e" transform="translate(1422.949219 0)"/>
      <use xlink:href="#DejaVuSans-6f" transform="translate(1486.328125 0)"/>
      <use xlink:href="#DejaVuSans-69" transform="translate(1547.509766 0)"/>
      <use xlink:href="#DejaVuSans-73" transform="translate(1575.292969 0)"/>
      <use xlink:href="#DejaVuSans-65" transform="translate(1627.392578 0)"/>
     </g>
    </g>
   </g>
  </g>
 </g>
 <defs>
  <clipPath id="pbb621c9af8">
   <rect x="55.82" y="29.4" width="392.819046" height="266.248"/>
  </clipPath>
 </defs>
</svg>
