<?xml version="1.0" encoding="utf-8" standalone="no"?>
<!DOCTYPE svg PUBLIC "-//W3C//DTD SVG 1.1//EN"
  "http://www.w3.org/Graphics/SVG/1.1/DTD/svg11.dtd">
<svg xmlns:xlink="http://www.w3.org/1999/xlink" width="460.8pt" height="345.6pt" viewBox="0 0 460.8 345.6" xmlns="http://www.w3.org/2000/svg" version="1.1">
 <metadata>
  <rdf:RDF xmlns:dc="http://purl.org/dc/elements/1.1/" xmlns:cc="http://creativecommons.org/ns#" xmlns:rdf="http://www.w3.org/1999/02/22-rdf-syntax-ns#">
   <cc:Work>
    <dc:type rdf:resource="http://purl.org/dc/dcmitype/StillImage"/>
    <dc:date>2025-08-08T13:31:55.005638</dc:date>
    <dc:format>image/svg+xml</dc:format>
    <dc:creator>
     <cc:Agent>
      <dc:title>Matplotlib v3.10.3, https://matplotlib.org/</dc:title>
     </cc:Agent>
    </dc:creator>
   </cc:Work>
  </rdf:RDF>
 </metadata>
 <defs>
  <style type="text/css">*{stroke-linejoin: round; stroke-linecap: butt}</style>
 </defs>
 <g id="figure_1">
  <g id="patch_1">
   <path d="M 0 345.6 
L 460.8 345.6 
L 460.8 0 
L 0 0 
z
" style="fill: #ffffff"/>
  </g>
  <g id="axes_1">
   <g id="patch_2">
    <path d="M 62.12 295.648 
L 448.92 295.648 
L 448.92 29.4 
L 62.12 29.4 
z
" style="fill: #ffffff"/>
   </g>
   <g id="matplotlib.axis_1">
    <g id="xtick_1">
     <g id="line2d_1">
      <path d="M 79.701818 295.648 
L 79.701818 29.4 
" clip-path="url(#p9e8a23184f)" style="fill: none; stroke-dasharray: 2.96,1.28; stroke-dashoffset: 0; stroke: #b0b0b0; stroke-opacity: 0.5; stroke-width: 0.8"/>
     </g>
     <g id="line2d_2">
      <defs>
       <path id="m53049eded4" d="M 0 0 
L 0 3.5 
" style="stroke: #000000; stroke-width: 0.8"/>
      </defs>
      <g>
       <use xlink:href="#m53049eded4" x="79.701818" y="295.648" style="stroke: #000000; stroke-width: 0.8"/>
      </g>
     </g>
     <g id="text_1">
      <!-- $\mathdefault{10^{2}}$ -->
      <g transform="translate(70.901818 310.246437) scale(0.1 -0.1)">
       <defs>
        <path id="DejaVuSans-31" d="M 794 531 
L 1825 531 
L 1825 4091 
L 703 3866 
L 703 4441 
L 1819 4666 
L 2450 4666 
L 2450 531 
L 3481 531 
L 3481 0 
L 794 0 
L 794 531 
z
" transform="scale(0.015625)"/>
        <path id="DejaVuSans-30" d="M 2034 4250 
Q 1547 4250 1301 3770 
Q 1056 3291 1056 2328 
Q 1056 1369 1301 889 
Q 1547 409 2034 409 
Q 2525 409 2770 889 
Q 3016 1369 3016 2328 
Q 3016 3291 2770 3770 
Q 2525 4250 2034 4250 
z
M 2034 4750 
Q 2819 4750 3233 4129 
Q 3647 3509 3647 2328 
Q 3647 1150 3233 529 
Q 2819 -91 2034 -91 
Q 1250 -91 836 529 
Q 422 1150 422 2328 
Q 422 3509 836 4129 
Q 1250 4750 2034 4750 
z
" transform="scale(0.015625)"/>
        <path id="DejaVuSans-32" d="M 1228 531 
L 3431 531 
L 3431 0 
L 469 0 
L 469 531 
Q 828 903 1448 1529 
Q 2069 2156 2228 2338 
Q 2531 2678 2651 2914 
Q 2772 3150 2772 3378 
Q 2772 3750 2511 3984 
Q 2250 4219 1831 4219 
Q 1534 4219 1204 4116 
Q 875 4013 500 3803 
L 500 4441 
Q 881 4594 1212 4672 
Q 1544 4750 1819 4750 
Q 2544 4750 2975 4387 
Q 3406 4025 3406 3419 
Q 3406 3131 3298 2873 
Q 3191 2616 2906 2266 
Q 2828 2175 2409 1742 
Q 1991 1309 1228 531 
z
" transform="scale(0.015625)"/>
       </defs>
       <use xlink:href="#DejaVuSans-31" transform="translate(0 0.765625)"/>
       <use xlink:href="#DejaVuSans-30" transform="translate(63.623047 0.765625)"/>
       <use xlink:href="#DejaVuSans-32" transform="translate(128.203125 39.046875) scale(0.7)"/>
      </g>
     </g>
    </g>
    <g id="xtick_2">
     <g id="line2d_3">
      <path d="M 255.52 295.648 
L 255.52 29.4 
" clip-path="url(#p9e8a23184f)" style="fill: none; stroke-dasharray: 2.96,1.28; stroke-dashoffset: 0; stroke: #b0b0b0; stroke-opacity: 0.5; stroke-width: 0.8"/>
     </g>
     <g id="line2d_4">
      <g>
       <use xlink:href="#m53049eded4" x="255.52" y="295.648" style="stroke: #000000; stroke-width: 0.8"/>
      </g>
     </g>
     <g id="text_2">
      <!-- $\mathdefault{10^{3}}$ -->
      <g transform="translate(246.72 310.246437) scale(0.1 -0.1)">
       <defs>
        <path id="DejaVuSans-33" d="M 2597 2516 
Q 3050 2419 3304 2112 
Q 3559 1806 3559 1356 
Q 3559 666 3084 287 
Q 2609 -91 1734 -91 
Q 1441 -91 1130 -33 
Q 819 25 488 141 
L 488 750 
Q 750 597 1062 519 
Q 1375 441 1716 441 
Q 2309 441 2620 675 
Q 2931 909 2931 1356 
Q 2931 1769 2642 2001 
Q 2353 2234 1838 2234 
L 1294 2234 
L 1294 2753 
L 1863 2753 
Q 2328 2753 2575 2939 
Q 2822 3125 2822 3475 
Q 2822 3834 2567 4026 
Q 2313 4219 1838 4219 
Q 1578 4219 1281 4162 
Q 984 4106 628 3988 
L 628 4550 
Q 988 4650 1302 4700 
Q 1616 4750 1894 4750 
Q 2613 4750 3031 4423 
Q 3450 4097 3450 3541 
Q 3450 3153 3228 2886 
Q 3006 2619 2597 2516 
z
" transform="scale(0.015625)"/>
       </defs>
       <use xlink:href="#DejaVuSans-31" transform="translate(0 0.765625)"/>
       <use xlink:href="#DejaVuSans-30" transform="translate(63.623047 0.765625)"/>
       <use xlink:href="#DejaVuSans-33" transform="translate(128.203125 39.046875) scale(0.7)"/>
      </g>
     </g>
    </g>
    <g id="xtick_3">
     <g id="line2d_5">
      <path d="M 431.338182 295.648 
L 431.338182 29.4 
" clip-path="url(#p9e8a23184f)" style="fill: none; stroke-dasharray: 2.96,1.28; stroke-dashoffset: 0; stroke: #b0b0b0; stroke-opacity: 0.5; stroke-width: 0.8"/>
     </g>
     <g id="line2d_6">
      <g>
       <use xlink:href="#m53049eded4" x="431.338182" y="295.648" style="stroke: #000000; stroke-width: 0.8"/>
      </g>
     </g>
     <g id="text_3">
      <!-- $\mathdefault{10^{4}}$ -->
      <g transform="translate(422.538182 310.246437) scale(0.1 -0.1)">
       <defs>
        <path id="DejaVuSans-34" d="M 2419 4116 
L 825 1625 
L 2419 1625 
L 2419 4116 
z
M 2253 4666 
L 3047 4666 
L 3047 1625 
L 3713 1625 
L 3713 1100 
L 3047 1100 
L 3047 0 
L 2419 0 
L 2419 1100 
L 313 1100 
L 313 1709 
L 2253 4666 
z
" transform="scale(0.015625)"/>
       </defs>
       <use xlink:href="#DejaVuSans-31" transform="translate(0 0.684375)"/>
       <use xlink:href="#DejaVuSans-30" transform="translate(63.623047 0.684375)"/>
       <use xlink:href="#DejaVuSans-34" transform="translate(128.203125 38.965625) scale(0.7)"/>
      </g>
     </g>
    </g>
    <g id="xtick_4">
     <g id="line2d_7">
      <path d="M 62.663276 295.648 
L 62.663276 29.4 
" clip-path="url(#p9e8a23184f)" style="fill: none; stroke-dasharray: 2.96,1.28; stroke-dashoffset: 0; stroke: #b0b0b0; stroke-opacity: 0.5; stroke-width: 0.8"/>
     </g>
     <g id="line2d_8">
      <defs>
       <path id="m169ccb439e" d="M 0 0 
L 0 2 
" style="stroke: #000000; stroke-width: 0.6"/>
      </defs>
      <g>
       <use xlink:href="#m169ccb439e" x="62.663276" y="295.648" style="stroke: #000000; stroke-width: 0.6"/>
      </g>
     </g>
    </g>
    <g id="xtick_5">
     <g id="line2d_9">
      <path d="M 71.656819 295.648 
L 71.656819 29.4 
" clip-path="url(#p9e8a23184f)" style="fill: none; stroke-dasharray: 2.96,1.28; stroke-dashoffset: 0; stroke: #b0b0b0; stroke-opacity: 0.5; stroke-width: 0.8"/>
     </g>
     <g id="line2d_10">
      <g>
       <use xlink:href="#m169ccb439e" x="71.656819" y="295.648" style="stroke: #000000; stroke-width: 0.6"/>
      </g>
     </g>
    </g>
    <g id="xtick_6">
     <g id="line2d_11">
      <path d="M 132.628365 295.648 
L 132.628365 29.4 
" clip-path="url(#p9e8a23184f)" style="fill: none; stroke-dasharray: 2.96,1.28; stroke-dashoffset: 0; stroke: #b0b0b0; stroke-opacity: 0.5; stroke-width: 0.8"/>
     </g>
     <g id="line2d_12">
      <g>
       <use xlink:href="#m169ccb439e" x="132.628365" y="295.648" style="stroke: #000000; stroke-width: 0.6"/>
      </g>
     </g>
    </g>
    <g id="xtick_7">
     <g id="line2d_13">
      <path d="M 163.58841 295.648 
L 163.58841 29.4 
" clip-path="url(#p9e8a23184f)" style="fill: none; stroke-dasharray: 2.96,1.28; stroke-dashoffset: 0; stroke: #b0b0b0; stroke-opacity: 0.5; stroke-width: 0.8"/>
     </g>
     <g id="line2d_14">
      <g>
       <use xlink:href="#m169ccb439e" x="163.58841" y="295.648" style="stroke: #000000; stroke-width: 0.6"/>
      </g>
     </g>
    </g>
    <g id="xtick_8">
     <g id="line2d_15">
      <path d="M 185.554911 295.648 
L 185.554911 29.4 
" clip-path="url(#p9e8a23184f)" style="fill: none; stroke-dasharray: 2.96,1.28; stroke-dashoffset: 0; stroke: #b0b0b0; stroke-opacity: 0.5; stroke-width: 0.8"/>
     </g>
     <g id="line2d_16">
      <g>
       <use xlink:href="#m169ccb439e" x="185.554911" y="295.648" style="stroke: #000000; stroke-width: 0.6"/>
      </g>
     </g>
    </g>
    <g id="xtick_9">
     <g id="line2d_17">
      <path d="M 202.593453 295.648 
L 202.593453 29.4 
" clip-path="url(#p9e8a23184f)" style="fill: none; stroke-dasharray: 2.96,1.28; stroke-dashoffset: 0; stroke: #b0b0b0; stroke-opacity: 0.5; stroke-width: 0.8"/>
     </g>
     <g id="line2d_18">
      <g>
       <use xlink:href="#m169ccb439e" x="202.593453" y="295.648" style="stroke: #000000; stroke-width: 0.6"/>
      </g>
     </g>
    </g>
    <g id="xtick_10">
     <g id="line2d_19">
      <path d="M 216.514956 295.648 
L 216.514956 29.4 
" clip-path="url(#p9e8a23184f)" style="fill: none; stroke-dasharray: 2.96,1.28; stroke-dashoffset: 0; stroke: #b0b0b0; stroke-opacity: 0.5; stroke-width: 0.8"/>
     </g>
     <g id="line2d_20">
      <g>
       <use xlink:href="#m169ccb439e" x="216.514956" y="295.648" style="stroke: #000000; stroke-width: 0.6"/>
      </g>
     </g>
    </g>
    <g id="xtick_11">
     <g id="line2d_21">
      <path d="M 228.285419 295.648 
L 228.285419 29.4 
" clip-path="url(#p9e8a23184f)" style="fill: none; stroke-dasharray: 2.96,1.28; stroke-dashoffset: 0; stroke: #b0b0b0; stroke-opacity: 0.5; stroke-width: 0.8"/>
     </g>
     <g id="line2d_22">
      <g>
       <use xlink:href="#m169ccb439e" x="228.285419" y="295.648" style="stroke: #000000; stroke-width: 0.6"/>
      </g>
     </g>
    </g>
    <g id="xtick_12">
     <g id="line2d_23">
      <path d="M 238.481458 295.648 
L 238.481458 29.4 
" clip-path="url(#p9e8a23184f)" style="fill: none; stroke-dasharray: 2.96,1.28; stroke-dashoffset: 0; stroke: #b0b0b0; stroke-opacity: 0.5; stroke-width: 0.8"/>
     </g>
     <g id="line2d_24">
      <g>
       <use xlink:href="#m169ccb439e" x="238.481458" y="295.648" style="stroke: #000000; stroke-width: 0.6"/>
      </g>
     </g>
    </g>
    <g id="xtick_13">
     <g id="line2d_25">
      <path d="M 247.475001 295.648 
L 247.475001 29.4 
" clip-path="url(#p9e8a23184f)" style="fill: none; stroke-dasharray: 2.96,1.28; stroke-dashoffset: 0; stroke: #b0b0b0; stroke-opacity: 0.5; stroke-width: 0.8"/>
     </g>
     <g id="line2d_26">
      <g>
       <use xlink:href="#m169ccb439e" x="247.475001" y="295.648" style="stroke: #000000; stroke-width: 0.6"/>
      </g>
     </g>
    </g>
    <g id="xtick_14">
     <g id="line2d_27">
      <path d="M 308.446547 295.648 
L 308.446547 29.4 
" clip-path="url(#p9e8a23184f)" style="fill: none; stroke-dasharray: 2.96,1.28; stroke-dashoffset: 0; stroke: #b0b0b0; stroke-opacity: 0.5; stroke-width: 0.8"/>
     </g>
     <g id="line2d_28">
      <g>
       <use xlink:href="#m169ccb439e" x="308.446547" y="295.648" style="stroke: #000000; stroke-width: 0.6"/>
      </g>
     </g>
    </g>
    <g id="xtick_15">
     <g id="line2d_29">
      <path d="M 339.406592 295.648 
L 339.406592 29.4 
" clip-path="url(#p9e8a23184f)" style="fill: none; stroke-dasharray: 2.96,1.28; stroke-dashoffset: 0; stroke: #b0b0b0; stroke-opacity: 0.5; stroke-width: 0.8"/>
     </g>
     <g id="line2d_30">
      <g>
       <use xlink:href="#m169ccb439e" x="339.406592" y="295.648" style="stroke: #000000; stroke-width: 0.6"/>
      </g>
     </g>
    </g>
    <g id="xtick_16">
     <g id="line2d_31">
      <path d="M 361.373093 295.648 
L 361.373093 29.4 
" clip-path="url(#p9e8a23184f)" style="fill: none; stroke-dasharray: 2.96,1.28; stroke-dashoffset: 0; stroke: #b0b0b0; stroke-opacity: 0.5; stroke-width: 0.8"/>
     </g>
     <g id="line2d_32">
      <g>
       <use xlink:href="#m169ccb439e" x="361.373093" y="295.648" style="stroke: #000000; stroke-width: 0.6"/>
      </g>
     </g>
    </g>
    <g id="xtick_17">
     <g id="line2d_33">
      <path d="M 378.411635 295.648 
L 378.411635 29.4 
" clip-path="url(#p9e8a23184f)" style="fill: none; stroke-dasharray: 2.96,1.28; stroke-dashoffset: 0; stroke: #b0b0b0; stroke-opacity: 0.5; stroke-width: 0.8"/>
     </g>
     <g id="line2d_34">
      <g>
       <use xlink:href="#m169ccb439e" x="378.411635" y="295.648" style="stroke: #000000; stroke-width: 0.6"/>
      </g>
     </g>
    </g>
    <g id="xtick_18">
     <g id="line2d_35">
      <path d="M 392.333138 295.648 
L 392.333138 29.4 
" clip-path="url(#p9e8a23184f)" style="fill: none; stroke-dasharray: 2.96,1.28; stroke-dashoffset: 0; stroke: #b0b0b0; stroke-opacity: 0.5; stroke-width: 0.8"/>
     </g>
     <g id="line2d_36">
      <g>
       <use xlink:href="#m169ccb439e" x="392.333138" y="295.648" style="stroke: #000000; stroke-width: 0.6"/>
      </g>
     </g>
    </g>
    <g id="xtick_19">
     <g id="line2d_37">
      <path d="M 404.103601 295.648 
L 404.103601 29.4 
" clip-path="url(#p9e8a23184f)" style="fill: none; stroke-dasharray: 2.96,1.28; stroke-dashoffset: 0; stroke: #b0b0b0; stroke-opacity: 0.5; stroke-width: 0.8"/>
     </g>
     <g id="line2d_38">
      <g>
       <use xlink:href="#m169ccb439e" x="404.103601" y="295.648" style="stroke: #000000; stroke-width: 0.6"/>
      </g>
     </g>
    </g>
    <g id="xtick_20">
     <g id="line2d_39">
      <path d="M 414.29964 295.648 
L 414.29964 29.4 
" clip-path="url(#p9e8a23184f)" style="fill: none; stroke-dasharray: 2.96,1.28; stroke-dashoffset: 0; stroke: #b0b0b0; stroke-opacity: 0.5; stroke-width: 0.8"/>
     </g>
     <g id="line2d_40">
      <g>
       <use xlink:href="#m169ccb439e" x="414.29964" y="295.648" style="stroke: #000000; stroke-width: 0.6"/>
      </g>
     </g>
    </g>
    <g id="xtick_21">
     <g id="line2d_41">
      <path d="M 423.293183 295.648 
L 423.293183 29.4 
" clip-path="url(#p9e8a23184f)" style="fill: none; stroke-dasharray: 2.96,1.28; stroke-dashoffset: 0; stroke: #b0b0b0; stroke-opacity: 0.5; stroke-width: 0.8"/>
     </g>
     <g id="line2d_42">
      <g>
       <use xlink:href="#m169ccb439e" x="423.293183" y="295.648" style="stroke: #000000; stroke-width: 0.6"/>
      </g>
     </g>
    </g>
    <g id="text_4">
     <!-- Total Capacitance ($C_{\mathrm{tot}}$) [fF] -->
     <g transform="translate(179.4 324.686125) scale(0.11 -0.11)">
      <defs>
       <path id="DejaVuSans-54" d="M -19 4666 
L 3928 4666 
L 3928 4134 
L 2272 4134 
L 2272 0 
L 1638 0 
L 1638 4134 
L -19 4134 
L -19 4666 
z
" transform="scale(0.015625)"/>
       <path id="DejaVuSans-6f" d="M 1959 3097 
Q 1497 3097 1228 2736 
Q 959 2375 959 1747 
Q 959 1119 1226 758 
Q 1494 397 1959 397 
Q 2419 397 2687 759 
Q 2956 1122 2956 1747 
Q 2956 2369 2687 2733 
Q 2419 3097 1959 3097 
z
M 1959 3584 
Q 2709 3584 3137 3096 
Q 3566 2609 3566 1747 
Q 3566 888 3137 398 
Q 2709 -91 1959 -91 
Q 1206 -91 779 398 
Q 353 888 353 1747 
Q 353 2609 779 3096 
Q 1206 3584 1959 3584 
z
" transform="scale(0.015625)"/>
       <path id="DejaVuSans-74" d="M 1172 4494 
L 1172 3500 
L 2356 3500 
L 2356 3053 
L 1172 3053 
L 1172 1153 
Q 1172 725 1289 603 
Q 1406 481 1766 481 
L 2356 481 
L 2356 0 
L 1766 0 
Q 1100 0 847 248 
Q 594 497 594 1153 
L 594 3053 
L 172 3053 
L 172 3500 
L 594 3500 
L 594 4494 
L 1172 4494 
z
" transform="scale(0.015625)"/>
       <path id="DejaVuSans-61" d="M 2194 1759 
Q 1497 1759 1228 1600 
Q 959 1441 959 1056 
Q 959 750 1161 570 
Q 1363 391 1709 391 
Q 2188 391 2477 730 
Q 2766 1069 2766 1631 
L 2766 1759 
L 2194 1759 
z
M 3341 1997 
L 3341 0 
L 2766 0 
L 2766 531 
Q 2569 213 2275 61 
Q 1981 -91 1556 -91 
Q 1019 -91 701 211 
Q 384 513 384 1019 
Q 384 1609 779 1909 
Q 1175 2209 1959 2209 
L 2766 2209 
L 2766 2266 
Q 2766 2663 2505 2880 
Q 2244 3097 1772 3097 
Q 1472 3097 1187 3025 
Q 903 2953 641 2809 
L 641 3341 
Q 956 3463 1253 3523 
Q 1550 3584 1831 3584 
Q 2591 3584 2966 3190 
Q 3341 2797 3341 1997 
z
" transform="scale(0.015625)"/>
       <path id="DejaVuSans-6c" d="M 603 4863 
L 1178 4863 
L 1178 0 
L 603 0 
L 603 4863 
z
" transform="scale(0.015625)"/>
       <path id="DejaVuSans-20" transform="scale(0.015625)"/>
       <path id="DejaVuSans-43" d="M 4122 4306 
L 4122 3641 
Q 3803 3938 3442 4084 
Q 3081 4231 2675 4231 
Q 1875 4231 1450 3742 
Q 1025 3253 1025 2328 
Q 1025 1406 1450 917 
Q 1875 428 2675 428 
Q 3081 428 3442 575 
Q 3803 722 4122 1019 
L 4122 359 
Q 3791 134 3420 21 
Q 3050 -91 2638 -91 
Q 1578 -91 968 557 
Q 359 1206 359 2328 
Q 359 3453 968 4101 
Q 1578 4750 2638 4750 
Q 3056 4750 3426 4639 
Q 3797 4528 4122 4306 
z
" transform="scale(0.015625)"/>
       <path id="DejaVuSans-70" d="M 1159 525 
L 1159 -1331 
L 581 -1331 
L 581 3500 
L 1159 3500 
L 1159 2969 
Q 1341 3281 1617 3432 
Q 1894 3584 2278 3584 
Q 2916 3584 3314 3078 
Q 3713 2572 3713 1747 
Q 3713 922 3314 415 
Q 2916 -91 2278 -91 
Q 1894 -91 1617 61 
Q 1341 213 1159 525 
z
M 3116 1747 
Q 3116 2381 2855 2742 
Q 2594 3103 2138 3103 
Q 1681 3103 1420 2742 
Q 1159 2381 1159 1747 
Q 1159 1113 1420 752 
Q 1681 391 2138 391 
Q 2594 391 2855 752 
Q 3116 1113 3116 1747 
z
" transform="scale(0.015625)"/>
       <path id="DejaVuSans-63" d="M 3122 3366 
L 3122 2828 
Q 2878 2963 2633 3030 
Q 2388 3097 2138 3097 
Q 1578 3097 1268 2742 
Q 959 2388 959 1747 
Q 959 1106 1268 751 
Q 1578 397 2138 397 
Q 2388 397 2633 464 
Q 2878 531 3122 666 
L 3122 134 
Q 2881 22 2623 -34 
Q 2366 -91 2075 -91 
Q 1284 -91 818 406 
Q 353 903 353 1747 
Q 353 2603 823 3093 
Q 1294 3584 2113 3584 
Q 2378 3584 2631 3529 
Q 2884 3475 3122 3366 
z
" transform="scale(0.015625)"/>
       <path id="DejaVuSans-69" d="M 603 3500 
L 1178 3500 
L 1178 0 
L 603 0 
L 603 3500 
z
M 603 4863 
L 1178 4863 
L 1178 4134 
L 603 4134 
L 603 4863 
z
" transform="scale(0.015625)"/>
       <path id="DejaVuSans-6e" d="M 3513 2113 
L 3513 0 
L 2938 0 
L 2938 2094 
Q 2938 2591 2744 2837 
Q 2550 3084 2163 3084 
Q 1697 3084 1428 2787 
Q 1159 2491 1159 1978 
L 1159 0 
L 581 0 
L 581 3500 
L 1159 3500 
L 1159 2956 
Q 1366 3272 1645 3428 
Q 1925 3584 2291 3584 
Q 2894 3584 3203 3211 
Q 3513 2838 3513 2113 
z
" transform="scale(0.015625)"/>
       <path id="DejaVuSans-65" d="M 3597 1894 
L 3597 1613 
L 953 1613 
Q 991 1019 1311 708 
Q 1631 397 2203 397 
Q 2534 397 2845 478 
Q 3156 559 3463 722 
L 3463 178 
Q 3153 47 2828 -22 
Q 2503 -91 2169 -91 
Q 1331 -91 842 396 
Q 353 884 353 1716 
Q 353 2575 817 3079 
Q 1281 3584 2069 3584 
Q 2775 3584 3186 3129 
Q 3597 2675 3597 1894 
z
M 3022 2063 
Q 3016 2534 2758 2815 
Q 2500 3097 2075 3097 
Q 1594 3097 1305 2825 
Q 1016 2553 972 2059 
L 3022 2063 
z
" transform="scale(0.015625)"/>
       <path id="DejaVuSans-28" d="M 1984 4856 
Q 1566 4138 1362 3434 
Q 1159 2731 1159 2009 
Q 1159 1288 1364 580 
Q 1569 -128 1984 -844 
L 1484 -844 
Q 1016 -109 783 600 
Q 550 1309 550 2009 
Q 550 2706 781 3412 
Q 1013 4119 1484 4856 
L 1984 4856 
z
" transform="scale(0.015625)"/>
       <path id="DejaVuSans-Oblique-43" d="M 4447 4306 
L 4319 3641 
Q 4019 3944 3683 4091 
Q 3347 4238 2956 4238 
Q 2422 4238 2017 3981 
Q 1613 3725 1319 3200 
Q 1131 2863 1032 2486 
Q 934 2109 934 1728 
Q 934 1091 1264 756 
Q 1594 422 2222 422 
Q 2656 422 3056 561 
Q 3456 700 3834 978 
L 3688 231 
Q 3316 72 2936 -9 
Q 2556 -91 2175 -91 
Q 1278 -91 773 396 
Q 269 884 269 1753 
Q 269 2309 461 2846 
Q 653 3384 1013 3828 
Q 1394 4300 1883 4525 
Q 2372 4750 3022 4750 
Q 3422 4750 3780 4639 
Q 4138 4528 4447 4306 
z
" transform="scale(0.015625)"/>
       <path id="DejaVuSans-29" d="M 513 4856 
L 1013 4856 
Q 1481 4119 1714 3412 
Q 1947 2706 1947 2009 
Q 1947 1309 1714 600 
Q 1481 -109 1013 -844 
L 513 -844 
Q 928 -128 1133 580 
Q 1338 1288 1338 2009 
Q 1338 2731 1133 3434 
Q 928 4138 513 4856 
z
" transform="scale(0.015625)"/>
       <path id="DejaVuSans-5b" d="M 550 4863 
L 1875 4863 
L 1875 4416 
L 1125 4416 
L 1125 -397 
L 1875 -397 
L 1875 -844 
L 550 -844 
L 550 4863 
z
" transform="scale(0.015625)"/>
       <path id="DejaVuSans-66" d="M 2375 4863 
L 2375 4384 
L 1825 4384 
Q 1516 4384 1395 4259 
Q 1275 4134 1275 3809 
L 1275 3500 
L 2222 3500 
L 2222 3053 
L 1275 3053 
L 1275 0 
L 697 0 
L 697 3053 
L 147 3053 
L 147 3500 
L 697 3500 
L 697 3744 
Q 697 4328 969 4595 
Q 1241 4863 1831 4863 
L 2375 4863 
z
" transform="scale(0.015625)"/>
       <path id="DejaVuSans-46" d="M 628 4666 
L 3309 4666 
L 3309 4134 
L 1259 4134 
L 1259 2759 
L 3109 2759 
L 3109 2228 
L 1259 2228 
L 1259 0 
L 628 0 
L 628 4666 
z
" transform="scale(0.015625)"/>
       <path id="DejaVuSans-5d" d="M 1947 4863 
L 1947 -844 
L 622 -844 
L 622 -397 
L 1369 -397 
L 1369 4416 
L 622 4416 
L 622 4863 
L 1947 4863 
z
" transform="scale(0.015625)"/>
      </defs>
      <use xlink:href="#DejaVuSans-54" transform="translate(0 0.015625)"/>
      <use xlink:href="#DejaVuSans-6f" transform="translate(61.083984 0.015625)"/>
      <use xlink:href="#DejaVuSans-74" transform="translate(122.265625 0.015625)"/>
      <use xlink:href="#DejaVuSans-61" transform="translate(161.474609 0.015625)"/>
      <use xlink:href="#DejaVuSans-6c" transform="translate(222.753906 0.015625)"/>
      <use xlink:href="#DejaVuSans-20" transform="translate(250.537109 0.015625)"/>
      <use xlink:href="#DejaVuSans-43" transform="translate(282.324219 0.015625)"/>
      <use xlink:href="#DejaVuSans-61" transform="translate(352.148438 0.015625)"/>
      <use xlink:href="#DejaVuSans-70" transform="translate(413.427734 0.015625)"/>
      <use xlink:href="#DejaVuSans-61" transform="translate(476.904297 0.015625)"/>
      <use xlink:href="#DejaVuSans-63" transform="translate(538.183594 0.015625)"/>
      <use xlink:href="#DejaVuSans-69" transform="translate(593.164062 0.015625)"/>
      <use xlink:href="#DejaVuSans-74" transform="translate(620.947266 0.015625)"/>
      <use xlink:href="#DejaVuSans-61" transform="translate(660.15625 0.015625)"/>
      <use xlink:href="#DejaVuSans-6e" transform="translate(721.435547 0.015625)"/>
      <use xlink:href="#DejaVuSans-63" transform="translate(784.814453 0.015625)"/>
      <use xlink:href="#DejaVuSans-65" transform="translate(839.794922 0.015625)"/>
      <use xlink:href="#DejaVuSans-20" transform="translate(901.318359 0.015625)"/>
      <use xlink:href="#DejaVuSans-28" transform="translate(933.105469 0.015625)"/>
      <use xlink:href="#DejaVuSans-Oblique-43" transform="translate(972.119141 0.015625)"/>
      <use xlink:href="#DejaVuSans-74" transform="translate(1041.943359 -16.390625) scale(0.7)"/>
      <use xlink:href="#DejaVuSans-6f" transform="translate(1069.389648 -16.390625) scale(0.7)"/>
      <use xlink:href="#DejaVuSans-74" transform="translate(1112.216797 -16.390625) scale(0.7)"/>
      <use xlink:href="#DejaVuSans-29" transform="translate(1142.397461 0.015625)"/>
      <use xlink:href="#DejaVuSans-20" transform="translate(1181.411133 0.015625)"/>
      <use xlink:href="#DejaVuSans-5b" transform="translate(1213.198242 0.015625)"/>
      <use xlink:href="#DejaVuSans-66" transform="translate(1252.211914 0.015625)"/>
      <use xlink:href="#DejaVuSans-46" transform="translate(1287.416992 0.015625)"/>
      <use xlink:href="#DejaVuSans-5d" transform="translate(1344.936523 0.015625)"/>
     </g>
    </g>
   </g>
   <g id="matplotlib.axis_2">
    <g id="ytick_1">
     <g id="line2d_43">
      <path d="M 62.12 268.980337 
L 448.92 268.980337 
" clip-path="url(#p9e8a23184f)" style="fill: none; stroke-dasharray: 2.96,1.28; stroke-dashoffset: 0; stroke: #b0b0b0; stroke-opacity: 0.5; stroke-width: 0.8"/>
     </g>
     <g id="line2d_44">
      <defs>
       <path id="m260b6a8b8f" d="M 0 0 
L -3.5 0 
" style="stroke: #000000; stroke-width: 0.8"/>
      </defs>
      <g>
       <use xlink:href="#m260b6a8b8f" x="62.12" y="268.980337" style="stroke: #000000; stroke-width: 0.8"/>
      </g>
     </g>
     <g id="text_5">
      <!-- 9.90 -->
      <g transform="translate(32.854375 272.779556) scale(0.1 -0.1)">
       <defs>
        <path id="DejaVuSans-39" d="M 703 97 
L 703 672 
Q 941 559 1184 500 
Q 1428 441 1663 441 
Q 2288 441 2617 861 
Q 2947 1281 2994 2138 
Q 2813 1869 2534 1725 
Q 2256 1581 1919 1581 
Q 1219 1581 811 2004 
Q 403 2428 403 3163 
Q 403 3881 828 4315 
Q 1253 4750 1959 4750 
Q 2769 4750 3195 4129 
Q 3622 3509 3622 2328 
Q 3622 1225 3098 567 
Q 2575 -91 1691 -91 
Q 1453 -91 1209 -44 
Q 966 3 703 97 
z
M 1959 2075 
Q 2384 2075 2632 2365 
Q 2881 2656 2881 3163 
Q 2881 3666 2632 3958 
Q 2384 4250 1959 4250 
Q 1534 4250 1286 3958 
Q 1038 3666 1038 3163 
Q 1038 2656 1286 2365 
Q 1534 2075 1959 2075 
z
" transform="scale(0.015625)"/>
        <path id="DejaVuSans-2e" d="M 684 794 
L 1344 794 
L 1344 0 
L 684 0 
L 684 794 
z
" transform="scale(0.015625)"/>
       </defs>
       <use xlink:href="#DejaVuSans-39"/>
       <use xlink:href="#DejaVuSans-2e" transform="translate(63.623047 0)"/>
       <use xlink:href="#DejaVuSans-39" transform="translate(95.410156 0)"/>
       <use xlink:href="#DejaVuSans-30" transform="translate(159.033203 0)"/>
      </g>
     </g>
    </g>
    <g id="ytick_2">
     <g id="line2d_45">
      <path d="M 62.12 223.87177 
L 448.92 223.87177 
" clip-path="url(#p9e8a23184f)" style="fill: none; stroke-dasharray: 2.96,1.28; stroke-dashoffset: 0; stroke: #b0b0b0; stroke-opacity: 0.5; stroke-width: 0.8"/>
     </g>
     <g id="line2d_46">
      <g>
       <use xlink:href="#m260b6a8b8f" x="62.12" y="223.87177" style="stroke: #000000; stroke-width: 0.8"/>
      </g>
     </g>
     <g id="text_6">
      <!-- 9.92 -->
      <g transform="translate(32.854375 227.670989) scale(0.1 -0.1)">
       <use xlink:href="#DejaVuSans-39"/>
       <use xlink:href="#DejaVuSans-2e" transform="translate(63.623047 0)"/>
       <use xlink:href="#DejaVuSans-39" transform="translate(95.410156 0)"/>
       <use xlink:href="#DejaVuSans-32" transform="translate(159.033203 0)"/>
      </g>
     </g>
    </g>
    <g id="ytick_3">
     <g id="line2d_47">
      <path d="M 62.12 178.763202 
L 448.92 178.763202 
" clip-path="url(#p9e8a23184f)" style="fill: none; stroke-dasharray: 2.96,1.28; stroke-dashoffset: 0; stroke: #b0b0b0; stroke-opacity: 0.5; stroke-width: 0.8"/>
     </g>
     <g id="line2d_48">
      <g>
       <use xlink:href="#m260b6a8b8f" x="62.12" y="178.763202" style="stroke: #000000; stroke-width: 0.8"/>
      </g>
     </g>
     <g id="text_7">
      <!-- 9.94 -->
      <g transform="translate(32.854375 182.562421) scale(0.1 -0.1)">
       <use xlink:href="#DejaVuSans-39"/>
       <use xlink:href="#DejaVuSans-2e" transform="translate(63.623047 0)"/>
       <use xlink:href="#DejaVuSans-39" transform="translate(95.410156 0)"/>
       <use xlink:href="#DejaVuSans-34" transform="translate(159.033203 0)"/>
      </g>
     </g>
    </g>
    <g id="ytick_4">
     <g id="line2d_49">
      <path d="M 62.12 133.654635 
L 448.92 133.654635 
" clip-path="url(#p9e8a23184f)" style="fill: none; stroke-dasharray: 2.96,1.28; stroke-dashoffset: 0; stroke: #b0b0b0; stroke-opacity: 0.5; stroke-width: 0.8"/>
     </g>
     <g id="line2d_50">
      <g>
       <use xlink:href="#m260b6a8b8f" x="62.12" y="133.654635" style="stroke: #000000; stroke-width: 0.8"/>
      </g>
     </g>
     <g id="text_8">
      <!-- 9.96 -->
      <g transform="translate(32.854375 137.453853) scale(0.1 -0.1)">
       <defs>
        <path id="DejaVuSans-36" d="M 2113 2584 
Q 1688 2584 1439 2293 
Q 1191 2003 1191 1497 
Q 1191 994 1439 701 
Q 1688 409 2113 409 
Q 2538 409 2786 701 
Q 3034 994 3034 1497 
Q 3034 2003 2786 2293 
Q 2538 2584 2113 2584 
z
M 3366 4563 
L 3366 3988 
Q 3128 4100 2886 4159 
Q 2644 4219 2406 4219 
Q 1781 4219 1451 3797 
Q 1122 3375 1075 2522 
Q 1259 2794 1537 2939 
Q 1816 3084 2150 3084 
Q 2853 3084 3261 2657 
Q 3669 2231 3669 1497 
Q 3669 778 3244 343 
Q 2819 -91 2113 -91 
Q 1303 -91 875 529 
Q 447 1150 447 2328 
Q 447 3434 972 4092 
Q 1497 4750 2381 4750 
Q 2619 4750 2861 4703 
Q 3103 4656 3366 4563 
z
" transform="scale(0.015625)"/>
       </defs>
       <use xlink:href="#DejaVuSans-39"/>
       <use xlink:href="#DejaVuSans-2e" transform="translate(63.623047 0)"/>
       <use xlink:href="#DejaVuSans-39" transform="translate(95.410156 0)"/>
       <use xlink:href="#DejaVuSans-36" transform="translate(159.033203 0)"/>
      </g>
     </g>
    </g>
    <g id="ytick_5">
     <g id="line2d_51">
      <path d="M 62.12 88.546067 
L 448.92 88.546067 
" clip-path="url(#p9e8a23184f)" style="fill: none; stroke-dasharray: 2.96,1.28; stroke-dashoffset: 0; stroke: #b0b0b0; stroke-opacity: 0.5; stroke-width: 0.8"/>
     </g>
     <g id="line2d_52">
      <g>
       <use xlink:href="#m260b6a8b8f" x="62.12" y="88.546067" style="stroke: #000000; stroke-width: 0.8"/>
      </g>
     </g>
     <g id="text_9">
      <!-- 9.98 -->
      <g transform="translate(32.854375 92.345286) scale(0.1 -0.1)">
       <defs>
        <path id="DejaVuSans-38" d="M 2034 2216 
Q 1584 2216 1326 1975 
Q 1069 1734 1069 1313 
Q 1069 891 1326 650 
Q 1584 409 2034 409 
Q 2484 409 2743 651 
Q 3003 894 3003 1313 
Q 3003 1734 2745 1975 
Q 2488 2216 2034 2216 
z
M 1403 2484 
Q 997 2584 770 2862 
Q 544 3141 544 3541 
Q 544 4100 942 4425 
Q 1341 4750 2034 4750 
Q 2731 4750 3128 4425 
Q 3525 4100 3525 3541 
Q 3525 3141 3298 2862 
Q 3072 2584 2669 2484 
Q 3125 2378 3379 2068 
Q 3634 1759 3634 1313 
Q 3634 634 3220 271 
Q 2806 -91 2034 -91 
Q 1263 -91 848 271 
Q 434 634 434 1313 
Q 434 1759 690 2068 
Q 947 2378 1403 2484 
z
M 1172 3481 
Q 1172 3119 1398 2916 
Q 1625 2713 2034 2713 
Q 2441 2713 2670 2916 
Q 2900 3119 2900 3481 
Q 2900 3844 2670 4047 
Q 2441 4250 2034 4250 
Q 1625 4250 1398 4047 
Q 1172 3844 1172 3481 
z
" transform="scale(0.015625)"/>
       </defs>
       <use xlink:href="#DejaVuSans-39"/>
       <use xlink:href="#DejaVuSans-2e" transform="translate(63.623047 0)"/>
       <use xlink:href="#DejaVuSans-39" transform="translate(95.410156 0)"/>
       <use xlink:href="#DejaVuSans-38" transform="translate(159.033203 0)"/>
      </g>
     </g>
    </g>
    <g id="ytick_6">
     <g id="line2d_53">
      <path d="M 62.12 43.4375 
L 448.92 43.4375 
" clip-path="url(#p9e8a23184f)" style="fill: none; stroke-dasharray: 2.96,1.28; stroke-dashoffset: 0; stroke: #b0b0b0; stroke-opacity: 0.5; stroke-width: 0.8"/>
     </g>
     <g id="line2d_54">
      <g>
       <use xlink:href="#m260b6a8b8f" x="62.12" y="43.4375" style="stroke: #000000; stroke-width: 0.8"/>
      </g>
     </g>
     <g id="text_10">
      <!-- 10.00 -->
      <g transform="translate(26.491875 47.236718) scale(0.1 -0.1)">
       <use xlink:href="#DejaVuSans-31"/>
       <use xlink:href="#DejaVuSans-30" transform="translate(63.623047 0)"/>
       <use xlink:href="#DejaVuSans-2e" transform="translate(127.246094 0)"/>
       <use xlink:href="#DejaVuSans-30" transform="translate(159.033203 0)"/>
       <use xlink:href="#DejaVuSans-30" transform="translate(222.65625 0)"/>
      </g>
     </g>
    </g>
    <g id="text_11">
     <!-- ENOB (reduced by sampling noise) -->
     <g transform="translate(20.204219 258.392437) rotate(-90) scale(0.11 -0.11)">
      <defs>
       <path id="DejaVuSans-45" d="M 628 4666 
L 3578 4666 
L 3578 4134 
L 1259 4134 
L 1259 2753 
L 3481 2753 
L 3481 2222 
L 1259 2222 
L 1259 531 
L 3634 531 
L 3634 0 
L 628 0 
L 628 4666 
z
" transform="scale(0.015625)"/>
       <path id="DejaVuSans-4e" d="M 628 4666 
L 1478 4666 
L 3547 763 
L 3547 4666 
L 4159 4666 
L 4159 0 
L 3309 0 
L 1241 3903 
L 1241 0 
L 628 0 
L 628 4666 
z
" transform="scale(0.015625)"/>
       <path id="DejaVuSans-4f" d="M 2522 4238 
Q 1834 4238 1429 3725 
Q 1025 3213 1025 2328 
Q 1025 1447 1429 934 
Q 1834 422 2522 422 
Q 3209 422 3611 934 
Q 4013 1447 4013 2328 
Q 4013 3213 3611 3725 
Q 3209 4238 2522 4238 
z
M 2522 4750 
Q 3503 4750 4090 4092 
Q 4678 3434 4678 2328 
Q 4678 1225 4090 567 
Q 3503 -91 2522 -91 
Q 1538 -91 948 565 
Q 359 1222 359 2328 
Q 359 3434 948 4092 
Q 1538 4750 2522 4750 
z
" transform="scale(0.015625)"/>
       <path id="DejaVuSans-42" d="M 1259 2228 
L 1259 519 
L 2272 519 
Q 2781 519 3026 730 
Q 3272 941 3272 1375 
Q 3272 1813 3026 2020 
Q 2781 2228 2272 2228 
L 1259 2228 
z
M 1259 4147 
L 1259 2741 
L 2194 2741 
Q 2656 2741 2882 2914 
Q 3109 3088 3109 3444 
Q 3109 3797 2882 3972 
Q 2656 4147 2194 4147 
L 1259 4147 
z
M 628 4666 
L 2241 4666 
Q 2963 4666 3353 4366 
Q 3744 4066 3744 3513 
Q 3744 3084 3544 2831 
Q 3344 2578 2956 2516 
Q 3422 2416 3680 2098 
Q 3938 1781 3938 1306 
Q 3938 681 3513 340 
Q 3088 0 2303 0 
L 628 0 
L 628 4666 
z
" transform="scale(0.015625)"/>
       <path id="DejaVuSans-72" d="M 2631 2963 
Q 2534 3019 2420 3045 
Q 2306 3072 2169 3072 
Q 1681 3072 1420 2755 
Q 1159 2438 1159 1844 
L 1159 0 
L 581 0 
L 581 3500 
L 1159 3500 
L 1159 2956 
Q 1341 3275 1631 3429 
Q 1922 3584 2338 3584 
Q 2397 3584 2469 3576 
Q 2541 3569 2628 3553 
L 2631 2963 
z
" transform="scale(0.015625)"/>
       <path id="DejaVuSans-64" d="M 2906 2969 
L 2906 4863 
L 3481 4863 
L 3481 0 
L 2906 0 
L 2906 525 
Q 2725 213 2448 61 
Q 2172 -91 1784 -91 
Q 1150 -91 751 415 
Q 353 922 353 1747 
Q 353 2572 751 3078 
Q 1150 3584 1784 3584 
Q 2172 3584 2448 3432 
Q 2725 3281 2906 2969 
z
M 947 1747 
Q 947 1113 1208 752 
Q 1469 391 1925 391 
Q 2381 391 2643 752 
Q 2906 1113 2906 1747 
Q 2906 2381 2643 2742 
Q 2381 3103 1925 3103 
Q 1469 3103 1208 2742 
Q 947 2381 947 1747 
z
" transform="scale(0.015625)"/>
       <path id="DejaVuSans-75" d="M 544 1381 
L 544 3500 
L 1119 3500 
L 1119 1403 
Q 1119 906 1312 657 
Q 1506 409 1894 409 
Q 2359 409 2629 706 
Q 2900 1003 2900 1516 
L 2900 3500 
L 3475 3500 
L 3475 0 
L 2900 0 
L 2900 538 
Q 2691 219 2414 64 
Q 2138 -91 1772 -91 
Q 1169 -91 856 284 
Q 544 659 544 1381 
z
M 1991 3584 
L 1991 3584 
z
" transform="scale(0.015625)"/>
       <path id="DejaVuSans-62" d="M 3116 1747 
Q 3116 2381 2855 2742 
Q 2594 3103 2138 3103 
Q 1681 3103 1420 2742 
Q 1159 2381 1159 1747 
Q 1159 1113 1420 752 
Q 1681 391 2138 391 
Q 2594 391 2855 752 
Q 3116 1113 3116 1747 
z
M 1159 2969 
Q 1341 3281 1617 3432 
Q 1894 3584 2278 3584 
Q 2916 3584 3314 3078 
Q 3713 2572 3713 1747 
Q 3713 922 3314 415 
Q 2916 -91 2278 -91 
Q 1894 -91 1617 61 
Q 1341 213 1159 525 
L 1159 0 
L 581 0 
L 581 4863 
L 1159 4863 
L 1159 2969 
z
" transform="scale(0.015625)"/>
       <path id="DejaVuSans-79" d="M 2059 -325 
Q 1816 -950 1584 -1140 
Q 1353 -1331 966 -1331 
L 506 -1331 
L 506 -850 
L 844 -850 
Q 1081 -850 1212 -737 
Q 1344 -625 1503 -206 
L 1606 56 
L 191 3500 
L 800 3500 
L 1894 763 
L 2988 3500 
L 3597 3500 
L 2059 -325 
z
" transform="scale(0.015625)"/>
       <path id="DejaVuSans-73" d="M 2834 3397 
L 2834 2853 
Q 2591 2978 2328 3040 
Q 2066 3103 1784 3103 
Q 1356 3103 1142 2972 
Q 928 2841 928 2578 
Q 928 2378 1081 2264 
Q 1234 2150 1697 2047 
L 1894 2003 
Q 2506 1872 2764 1633 
Q 3022 1394 3022 966 
Q 3022 478 2636 193 
Q 2250 -91 1575 -91 
Q 1294 -91 989 -36 
Q 684 19 347 128 
L 347 722 
Q 666 556 975 473 
Q 1284 391 1588 391 
Q 1994 391 2212 530 
Q 2431 669 2431 922 
Q 2431 1156 2273 1281 
Q 2116 1406 1581 1522 
L 1381 1569 
Q 847 1681 609 1914 
Q 372 2147 372 2553 
Q 372 3047 722 3315 
Q 1072 3584 1716 3584 
Q 2034 3584 2315 3537 
Q 2597 3491 2834 3397 
z
" transform="scale(0.015625)"/>
       <path id="DejaVuSans-6d" d="M 3328 2828 
Q 3544 3216 3844 3400 
Q 4144 3584 4550 3584 
Q 5097 3584 5394 3201 
Q 5691 2819 5691 2113 
L 5691 0 
L 5113 0 
L 5113 2094 
Q 5113 2597 4934 2840 
Q 4756 3084 4391 3084 
Q 3944 3084 3684 2787 
Q 3425 2491 3425 1978 
L 3425 0 
L 2847 0 
L 2847 2094 
Q 2847 2600 2669 2842 
Q 2491 3084 2119 3084 
Q 1678 3084 1418 2786 
Q 1159 2488 1159 1978 
L 1159 0 
L 581 0 
L 581 3500 
L 1159 3500 
L 1159 2956 
Q 1356 3278 1631 3431 
Q 1906 3584 2284 3584 
Q 2666 3584 2933 3390 
Q 3200 3197 3328 2828 
z
" transform="scale(0.015625)"/>
       <path id="DejaVuSans-67" d="M 2906 1791 
Q 2906 2416 2648 2759 
Q 2391 3103 1925 3103 
Q 1463 3103 1205 2759 
Q 947 2416 947 1791 
Q 947 1169 1205 825 
Q 1463 481 1925 481 
Q 2391 481 2648 825 
Q 2906 1169 2906 1791 
z
M 3481 434 
Q 3481 -459 3084 -895 
Q 2688 -1331 1869 -1331 
Q 1566 -1331 1297 -1286 
Q 1028 -1241 775 -1147 
L 775 -588 
Q 1028 -725 1275 -790 
Q 1522 -856 1778 -856 
Q 2344 -856 2625 -561 
Q 2906 -266 2906 331 
L 2906 616 
Q 2728 306 2450 153 
Q 2172 0 1784 0 
Q 1141 0 747 490 
Q 353 981 353 1791 
Q 353 2603 747 3093 
Q 1141 3584 1784 3584 
Q 2172 3584 2450 3431 
Q 2728 3278 2906 2969 
L 2906 3500 
L 3481 3500 
L 3481 434 
z
" transform="scale(0.015625)"/>
      </defs>
      <use xlink:href="#DejaVuSans-45"/>
      <use xlink:href="#DejaVuSans-4e" transform="translate(63.183594 0)"/>
      <use xlink:href="#DejaVuSans-4f" transform="translate(137.988281 0)"/>
      <use xlink:href="#DejaVuSans-42" transform="translate(216.699219 0)"/>
      <use xlink:href="#DejaVuSans-20" transform="translate(285.302734 0)"/>
      <use xlink:href="#DejaVuSans-28" transform="translate(317.089844 0)"/>
      <use xlink:href="#DejaVuSans-72" transform="translate(356.103516 0)"/>
      <use xlink:href="#DejaVuSans-65" transform="translate(394.966797 0)"/>
      <use xlink:href="#DejaVuSans-64" transform="translate(456.490234 0)"/>
      <use xlink:href="#DejaVuSans-75" transform="translate(519.966797 0)"/>
      <use xlink:href="#DejaVuSans-63" transform="translate(583.345703 0)"/>
      <use xlink:href="#DejaVuSans-65" transform="translate(638.326172 0)"/>
      <use xlink:href="#DejaVuSans-64" transform="translate(699.849609 0)"/>
      <use xlink:href="#DejaVuSans-20" transform="translate(763.326172 0)"/>
      <use xlink:href="#DejaVuSans-62" transform="translate(795.113281 0)"/>
      <use xlink:href="#DejaVuSans-79" transform="translate(858.589844 0)"/>
      <use xlink:href="#DejaVuSans-20" transform="translate(917.769531 0)"/>
      <use xlink:href="#DejaVuSans-73" transform="translate(949.556641 0)"/>
      <use xlink:href="#DejaVuSans-61" transform="translate(1001.65625 0)"/>
      <use xlink:href="#DejaVuSans-6d" transform="translate(1062.935547 0)"/>
      <use xlink:href="#DejaVuSans-70" transform="translate(1160.347656 0)"/>
      <use xlink:href="#DejaVuSans-6c" transform="translate(1223.824219 0)"/>
      <use xlink:href="#DejaVuSans-69" transform="translate(1251.607422 0)"/>
      <use xlink:href="#DejaVuSans-6e" transform="translate(1279.390625 0)"/>
      <use xlink:href="#DejaVuSans-67" transform="translate(1342.769531 0)"/>
      <use xlink:href="#DejaVuSans-20" transform="translate(1406.246094 0)"/>
      <use xlink:href="#DejaVuSans-6e" transform="translate(1438.033203 0)"/>
      <use xlink:href="#DejaVuSans-6f" transform="translate(1501.412109 0)"/>
      <use xlink:href="#DejaVuSans-69" transform="translate(1562.59375 0)"/>
      <use xlink:href="#DejaVuSans-73" transform="translate(1590.376953 0)"/>
      <use xlink:href="#DejaVuSans-65" transform="translate(1642.476562 0)"/>
      <use xlink:href="#DejaVuSans-29" transform="translate(1704 0)"/>
     </g>
    </g>
   </g>
   <g id="line2d_55">
    <path d="M 79.701818 181.788323 
L 83.253701 175.640369 
L 86.805583 169.750099 
L 90.357466 164.107589 
L 93.909348 158.703225 
L 97.46123 153.527699 
L 101.013113 148.572003 
L 104.564995 143.82743 
L 108.116878 139.285563 
L 111.66876 134.938271 
L 115.220643 130.777707 
L 118.772525 126.796298 
L 122.324408 122.986741 
L 125.87629 119.341995 
L 129.428173 115.855275 
L 132.980055 112.520048 
L 136.531938 109.330021 
L 140.08382 106.279141 
L 143.635702 103.361582 
L 147.187585 100.571742 
L 150.739467 97.904235 
L 154.29135 95.353884 
L 157.843232 92.915715 
L 161.395115 90.584952 
L 164.946997 88.357007 
L 168.49888 86.227476 
L 172.050762 84.192132 
L 175.602645 82.24692 
L 179.154527 80.387948 
L 182.70641 78.611487 
L 186.258292 76.913957 
L 189.810174 75.291929 
L 193.362057 73.742114 
L 196.913939 72.261363 
L 200.465822 70.846655 
L 204.017704 69.495101 
L 207.569587 68.203928 
L 211.121469 66.970484 
L 214.673352 65.79223 
L 218.225234 64.666732 
L 221.777117 63.591663 
L 225.328999 62.564795 
L 228.880882 61.583995 
L 232.432764 60.647222 
L 235.984646 59.752523 
L 239.536529 58.89803 
L 243.088411 58.081957 
L 246.640294 57.302593 
L 250.192176 56.558304 
L 253.744059 55.847527 
L 257.295941 55.168765 
L 260.847824 54.520591 
L 264.399706 53.901635 
L 267.951589 53.310593 
L 271.503471 52.746214 
L 275.055354 52.207304 
L 278.607236 51.692722 
L 282.159118 51.201377 
L 285.711001 50.732225 
L 289.262883 50.284271 
L 292.814766 49.856563 
L 296.366648 49.448189 
L 299.918531 49.058281 
L 303.470413 48.686007 
L 307.022296 48.330575 
L 310.574178 47.991225 
L 314.126061 47.667233 
L 317.677943 47.357906 
L 321.229826 47.062585 
L 324.781708 46.780636 
L 328.33359 46.511456 
L 331.885473 46.25447 
L 335.437355 46.009126 
L 338.989238 45.774899 
L 342.54112 45.551286 
L 346.093003 45.337808 
L 349.644885 45.134007 
L 353.196768 44.939445 
L 356.74865 44.753705 
L 360.300533 44.576387 
L 363.852415 44.407111 
L 367.404298 44.245511 
L 370.95618 44.091242 
L 374.508062 43.943971 
L 378.059945 43.803381 
L 381.611827 43.66917 
L 385.16371 43.541049 
L 388.715592 43.418742 
L 392.267475 43.301985 
L 395.819357 43.190527 
L 399.37124 43.084128 
L 402.923122 42.982558 
L 406.475005 42.885599 
L 410.026887 42.793041 
L 413.57877 42.704686 
L 417.130652 42.620342 
L 420.682534 42.539827 
L 424.234417 42.462968 
L 427.786299 42.389599 
L 431.338182 42.319562 
" clip-path="url(#p9e8a23184f)" style="fill: none; stroke: #1f77b4; stroke-width: 1.5; stroke-linecap: square"/>
   </g>
   <g id="line2d_56">
    <defs>
     <path id="m46520facd2" d="M 0 3 
C 0.795609 3 1.55874 2.683901 2.12132 2.12132 
C 2.683901 1.55874 3 0.795609 3 0 
C 3 -0.795609 2.683901 -1.55874 2.12132 -2.12132 
C 1.55874 -2.683901 0.795609 -3 0 -3 
C -0.795609 -3 -1.55874 -2.683901 -2.12132 -2.12132 
C -2.683901 -1.55874 -3 -0.795609 -3 0 
C -3 0.795609 -2.683901 1.55874 -2.12132 2.12132 
C -1.55874 2.683901 -0.795609 3 0 3 
z
" style="stroke: #1f77b4"/>
    </defs>
    <g clip-path="url(#p9e8a23184f)">
     <use xlink:href="#m46520facd2" x="132.628365" y="112.843708" style="fill: #1f77b4; stroke: #1f77b4"/>
    </g>
   </g>
   <g id="line2d_57">
    <g clip-path="url(#p9e8a23184f)">
     <use xlink:href="#m46520facd2" x="202.593453" y="70.029649" style="fill: #1f77b4; stroke: #1f77b4"/>
    </g>
   </g>
   <g id="line2d_58">
    <g clip-path="url(#p9e8a23184f)">
     <use xlink:href="#m46520facd2" x="255.52" y="55.504235" style="fill: #1f77b4; stroke: #1f77b4"/>
    </g>
   </g>
   <g id="line2d_59">
    <g clip-path="url(#p9e8a23184f)">
     <use xlink:href="#m46520facd2" x="308.446547" y="48.19261" style="fill: #1f77b4; stroke: #1f77b4"/>
    </g>
   </g>
   <g id="line2d_60">
    <path d="M 79.701818 283.545818 
L 83.253701 273.265682 
L 86.805583 263.391832 
L 90.357466 253.910537 
L 93.909348 244.808351 
L 97.46123 236.072114 
L 101.013113 227.688966 
L 104.564995 219.646352 
L 108.116878 211.932024 
L 111.66876 204.534047 
L 115.220643 197.440803 
L 118.772525 190.640989 
L 122.324408 184.123621 
L 125.87629 177.87803 
L 129.428173 171.893863 
L 132.980055 166.161081 
L 136.531938 160.669957 
L 140.08382 155.411068 
L 143.635702 150.375299 
L 147.187585 145.553831 
L 150.739467 140.93814 
L 154.29135 136.519991 
L 157.843232 132.291432 
L 161.395115 128.244792 
L 164.946997 124.372666 
L 168.49888 120.667918 
L 172.050762 117.123671 
L 175.602645 113.733297 
L 179.154527 110.490419 
L 182.70641 107.388893 
L 186.258292 104.422811 
L 189.810174 101.586489 
L 193.362057 98.874462 
L 196.913939 96.281478 
L 200.465822 93.802488 
L 204.017704 91.432643 
L 207.569587 89.167287 
L 211.121469 87.001949 
L 214.673352 84.932337 
L 218.225234 82.954334 
L 221.777117 81.063988 
L 225.328999 79.25751 
L 228.880882 77.531267 
L 232.432764 75.881773 
L 235.984646 74.305691 
L 239.536529 72.799818 
L 243.088411 71.361088 
L 246.640294 69.986563 
L 250.192176 68.673428 
L 253.744059 67.418987 
L 257.295941 66.220661 
L 260.847824 65.075976 
L 264.399706 63.982567 
L 267.951589 62.938169 
L 271.503471 61.940615 
L 275.055354 60.98783 
L 278.607236 60.077831 
L 282.159118 59.208717 
L 285.711001 58.378672 
L 289.262883 57.585959 
L 292.814766 56.828916 
L 296.366648 56.105952 
L 299.918531 55.415549 
L 303.470413 54.756252 
L 307.022296 54.126672 
L 310.574178 53.52548 
L 314.126061 52.951406 
L 317.677943 52.403235 
L 321.229826 51.879808 
L 324.781708 51.380013 
L 328.33359 50.902792 
L 331.885473 50.447131 
L 335.437355 50.012061 
L 338.989238 49.596657 
L 342.54112 49.200035 
L 346.093003 48.82135 
L 349.644885 48.459794 
L 353.196768 48.114597 
L 356.74865 47.785021 
L 360.300533 47.470363 
L 363.852415 47.169949 
L 367.404298 46.883138 
L 370.95618 46.609316 
L 374.508062 46.347897 
L 378.059945 46.09832 
L 381.611827 45.860051 
L 385.16371 45.63258 
L 388.715592 45.415417 
L 392.267475 45.208098 
L 395.819357 45.010177 
L 399.37124 44.82123 
L 402.923122 44.64085 
L 406.475005 44.46865 
L 410.026887 44.30426 
L 413.57877 44.147326 
L 417.130652 43.99751 
L 420.682534 43.854492 
L 424.234417 43.717962 
L 427.786299 43.587626 
L 431.338182 43.463205 
" clip-path="url(#p9e8a23184f)" style="fill: none; stroke: #ff7f0e; stroke-width: 1.5; stroke-linecap: square"/>
   </g>
   <g id="line2d_61">
    <defs>
     <path id="m63f2f80cb1" d="M 0 3 
C 0.795609 3 1.55874 2.683901 2.12132 2.12132 
C 2.683901 1.55874 3 0.795609 3 0 
C 3 -0.795609 2.683901 -1.55874 2.12132 -2.12132 
C 1.55874 -2.683901 0.795609 -3 0 -3 
C -0.795609 -3 -1.55874 -2.683901 -2.12132 -2.12132 
C -2.683901 -1.55874 -3 -0.795609 -3 0 
C -3 0.795609 -2.683901 1.55874 -2.12132 2.12132 
C -1.55874 2.683901 -0.795609 3 0 3 
z
" style="stroke: #ff7f0e"/>
    </defs>
    <g clip-path="url(#p9e8a23184f)">
     <use xlink:href="#m63f2f80cb1" x="132.628365" y="166.717778" style="fill: #ff7f0e; stroke: #ff7f0e"/>
    </g>
   </g>
   <g id="line2d_62">
    <g clip-path="url(#p9e8a23184f)">
     <use xlink:href="#m63f2f80cb1" x="202.593453" y="92.370109" style="fill: #ff7f0e; stroke: #ff7f0e"/>
    </g>
   </g>
   <g id="line2d_63">
    <g clip-path="url(#p9e8a23184f)">
     <use xlink:href="#m63f2f80cb1" x="255.52" y="66.812967" style="fill: #ff7f0e; stroke: #ff7f0e"/>
    </g>
   </g>
   <g id="line2d_64">
    <g clip-path="url(#p9e8a23184f)">
     <use xlink:href="#m63f2f80cb1" x="308.446547" y="53.882267" style="fill: #ff7f0e; stroke: #ff7f0e"/>
    </g>
   </g>
   <g id="line2d_65">
    <path d="M 79.701818 104.999704 
L 83.253701 102.138127 
L 86.805583 99.40191 
L 90.357466 96.785759 
L 93.909348 94.284586 
L 97.46123 91.893503 
L 101.013113 89.607816 
L 104.564995 87.423017 
L 108.116878 85.334781 
L 111.66876 83.338955 
L 115.220643 81.431556 
L 118.772525 79.608764 
L 122.324408 77.866913 
L 125.87629 76.20249 
L 129.428173 74.612128 
L 132.980055 73.092599 
L 136.531938 71.64081 
L 140.08382 70.253798 
L 143.635702 68.928724 
L 147.187585 67.662869 
L 150.739467 66.453629 
L 154.29135 65.298513 
L 157.843232 64.195133 
L 161.395115 63.141204 
L 164.946997 62.134541 
L 168.49888 61.173051 
L 172.050762 60.254733 
L 175.602645 59.377669 
L 179.154527 58.540028 
L 182.70641 57.740056 
L 186.258292 56.976078 
L 189.810174 56.246488 
L 193.362057 55.549755 
L 196.913939 54.88441 
L 200.465822 54.249053 
L 204.017704 53.642342 
L 207.569587 53.062995 
L 211.121469 52.509789 
L 214.673352 51.981551 
L 218.225234 51.477162 
L 221.777117 50.995553 
L 225.328999 50.5357 
L 228.880882 50.096628 
L 232.432764 49.677401 
L 235.984646 49.277128 
L 239.536529 48.894956 
L 243.088411 48.530071 
L 246.640294 48.181693 
L 250.192176 47.849081 
L 253.744059 47.531523 
L 257.295941 47.22834 
L 260.847824 46.938885 
L 264.399706 46.662538 
L 267.951589 46.398708 
L 271.503471 46.146829 
L 275.055354 45.906363 
L 278.607236 45.676792 
L 282.159118 45.457626 
L 285.711001 45.248393 
L 289.262883 45.048646 
L 292.814766 44.857954 
L 296.366648 44.675909 
L 299.918531 44.502119 
L 303.470413 44.336211 
L 307.022296 44.177828 
L 310.574178 44.026629 
L 314.126061 43.882289 
L 317.677943 43.744498 
L 321.229826 43.612958 
L 324.781708 43.487388 
L 328.33359 43.367515 
L 331.885473 43.253083 
L 335.437355 43.143845 
L 338.989238 43.039565 
L 342.54112 42.940018 
L 346.093003 42.84499 
L 349.644885 42.754276 
L 353.196768 42.66768 
L 356.74865 42.585016 
L 360.300533 42.506106 
L 363.852415 42.430778 
L 367.404298 42.358871 
L 370.95618 42.290229 
L 374.508062 42.224704 
L 378.059945 42.162156 
L 381.611827 42.102447 
L 385.16371 42.045451 
L 388.715592 41.991043 
L 392.267475 41.939107 
L 395.819357 41.889529 
L 399.37124 41.842204 
L 402.923122 41.797028 
L 406.475005 41.753904 
L 410.026887 41.71274 
L 413.57877 41.673445 
L 417.130652 41.635936 
L 420.682534 41.60013 
L 424.234417 41.565951 
L 427.786299 41.533325 
L 431.338182 41.502182 
" clip-path="url(#p9e8a23184f)" style="fill: none; stroke: #2ca02c; stroke-width: 1.5; stroke-linecap: square"/>
   </g>
   <g id="line2d_66">
    <defs>
     <path id="m894bad0782" d="M 0 3 
C 0.795609 3 1.55874 2.683901 2.12132 2.12132 
C 2.683901 1.55874 3 0.795609 3 0 
C 3 -0.795609 2.683901 -1.55874 2.12132 -2.12132 
C 1.55874 -2.683901 0.795609 -3 0 -3 
C -0.795609 -3 -1.55874 -2.683901 -2.12132 -2.12132 
C -2.683901 -1.55874 -3 -0.795609 -3 0 
C -3 0.795609 -2.683901 1.55874 -2.12132 2.12132 
C -1.55874 2.683901 -0.795609 3 0 3 
z
" style="stroke: #2ca02c"/>
    </defs>
    <g clip-path="url(#p9e8a23184f)">
     <use xlink:href="#m894bad0782" x="132.628365" y="73.239985" style="fill: #2ca02c; stroke: #2ca02c"/>
    </g>
   </g>
   <g id="line2d_67">
    <g clip-path="url(#p9e8a23184f)">
     <use xlink:href="#m894bad0782" x="202.593453" y="53.882267" style="fill: #2ca02c; stroke: #2ca02c"/>
    </g>
   </g>
   <g id="line2d_68">
    <g clip-path="url(#p9e8a23184f)">
     <use xlink:href="#m894bad0782" x="255.52" y="47.378176" style="fill: #2ca02c; stroke: #2ca02c"/>
    </g>
   </g>
   <g id="line2d_69">
    <g clip-path="url(#p9e8a23184f)">
     <use xlink:href="#m894bad0782" x="308.446547" y="44.116355" style="fill: #2ca02c; stroke: #2ca02c"/>
    </g>
   </g>
   <g id="patch_3">
    <path d="M 62.12 295.648 
L 62.12 29.4 
" style="fill: none; stroke: #000000; stroke-width: 0.8; stroke-linejoin: miter; stroke-linecap: square"/>
   </g>
   <g id="patch_4">
    <path d="M 448.92 295.648 
L 448.92 29.4 
" style="fill: none; stroke: #000000; stroke-width: 0.8; stroke-linejoin: miter; stroke-linecap: square"/>
   </g>
   <g id="patch_5">
    <path d="M 62.12 295.648 
L 448.92 295.648 
" style="fill: none; stroke: #000000; stroke-width: 0.8; stroke-linejoin: miter; stroke-linecap: square"/>
   </g>
   <g id="patch_6">
    <path d="M 62.12 29.4 
L 448.92 29.4 
" style="fill: none; stroke: #000000; stroke-width: 0.8; stroke-linejoin: miter; stroke-linecap: square"/>
   </g>
   <g id="text_12">
    <!-- 9.97 -->
    <g transform="translate(137.628365 115.843708) scale(0.11 -0.11)">
     <defs>
      <path id="DejaVuSans-37" d="M 525 4666 
L 3525 4666 
L 3525 4397 
L 1831 0 
L 1172 0 
L 2766 4134 
L 525 4134 
L 525 4666 
z
" transform="scale(0.015625)"/>
     </defs>
     <use xlink:href="#DejaVuSans-39"/>
     <use xlink:href="#DejaVuSans-2e" transform="translate(63.623047 0)"/>
     <use xlink:href="#DejaVuSans-39" transform="translate(95.410156 0)"/>
     <use xlink:href="#DejaVuSans-37" transform="translate(159.033203 0)"/>
    </g>
   </g>
   <g id="text_13">
    <!-- 9.99 -->
    <g transform="translate(207.593453 73.029649) scale(0.11 -0.11)">
     <use xlink:href="#DejaVuSans-39"/>
     <use xlink:href="#DejaVuSans-2e" transform="translate(63.623047 0)"/>
     <use xlink:href="#DejaVuSans-39" transform="translate(95.410156 0)"/>
     <use xlink:href="#DejaVuSans-39" transform="translate(159.033203 0)"/>
    </g>
   </g>
   <g id="text_14">
    <!-- 9.99 -->
    <g transform="translate(260.52 58.504235) scale(0.11 -0.11)">
     <use xlink:href="#DejaVuSans-39"/>
     <use xlink:href="#DejaVuSans-2e" transform="translate(63.623047 0)"/>
     <use xlink:href="#DejaVuSans-39" transform="translate(95.410156 0)"/>
     <use xlink:href="#DejaVuSans-39" transform="translate(159.033203 0)"/>
    </g>
   </g>
   <g id="text_15">
    <!-- 10.00 -->
    <g transform="translate(313.446547 51.19261) scale(0.11 -0.11)">
     <use xlink:href="#DejaVuSans-31"/>
     <use xlink:href="#DejaVuSans-30" transform="translate(63.623047 0)"/>
     <use xlink:href="#DejaVuSans-2e" transform="translate(127.246094 0)"/>
     <use xlink:href="#DejaVuSans-30" transform="translate(159.033203 0)"/>
     <use xlink:href="#DejaVuSans-30" transform="translate(222.65625 0)"/>
    </g>
   </g>
   <g id="text_16">
    <!-- 9.95 -->
    <g transform="translate(137.628365 169.717778) scale(0.11 -0.11)">
     <defs>
      <path id="DejaVuSans-35" d="M 691 4666 
L 3169 4666 
L 3169 4134 
L 1269 4134 
L 1269 2991 
Q 1406 3038 1543 3061 
Q 1681 3084 1819 3084 
Q 2600 3084 3056 2656 
Q 3513 2228 3513 1497 
Q 3513 744 3044 326 
Q 2575 -91 1722 -91 
Q 1428 -91 1123 -41 
Q 819 9 494 109 
L 494 744 
Q 775 591 1075 516 
Q 1375 441 1709 441 
Q 2250 441 2565 725 
Q 2881 1009 2881 1497 
Q 2881 1984 2565 2268 
Q 2250 2553 1709 2553 
Q 1456 2553 1204 2497 
Q 953 2441 691 2322 
L 691 4666 
z
" transform="scale(0.015625)"/>
     </defs>
     <use xlink:href="#DejaVuSans-39"/>
     <use xlink:href="#DejaVuSans-2e" transform="translate(63.623047 0)"/>
     <use xlink:href="#DejaVuSans-39" transform="translate(95.410156 0)"/>
     <use xlink:href="#DejaVuSans-35" transform="translate(159.033203 0)"/>
    </g>
   </g>
   <g id="text_17">
    <!-- 9.98 -->
    <g transform="translate(207.593453 95.370109) scale(0.11 -0.11)">
     <use xlink:href="#DejaVuSans-39"/>
     <use xlink:href="#DejaVuSans-2e" transform="translate(63.623047 0)"/>
     <use xlink:href="#DejaVuSans-39" transform="translate(95.410156 0)"/>
     <use xlink:href="#DejaVuSans-38" transform="translate(159.033203 0)"/>
    </g>
   </g>
   <g id="text_18">
    <!-- 9.99 -->
    <g transform="translate(260.52 69.812967) scale(0.11 -0.11)">
     <use xlink:href="#DejaVuSans-39"/>
     <use xlink:href="#DejaVuSans-2e" transform="translate(63.623047 0)"/>
     <use xlink:href="#DejaVuSans-39" transform="translate(95.410156 0)"/>
     <use xlink:href="#DejaVuSans-39" transform="translate(159.033203 0)"/>
    </g>
   </g>
   <g id="text_19">
    <!-- 10.00 -->
    <g transform="translate(313.446547 56.882267) scale(0.11 -0.11)">
     <use xlink:href="#DejaVuSans-31"/>
     <use xlink:href="#DejaVuSans-30" transform="translate(63.623047 0)"/>
     <use xlink:href="#DejaVuSans-2e" transform="translate(127.246094 0)"/>
     <use xlink:href="#DejaVuSans-30" transform="translate(159.033203 0)"/>
     <use xlink:href="#DejaVuSans-30" transform="translate(222.65625 0)"/>
    </g>
   </g>
   <g id="text_20">
    <!-- 9.99 -->
    <g transform="translate(137.628365 76.239985) scale(0.11 -0.11)">
     <use xlink:href="#DejaVuSans-39"/>
     <use xlink:href="#DejaVuSans-2e" transform="translate(63.623047 0)"/>
     <use xlink:href="#DejaVuSans-39" transform="translate(95.410156 0)"/>
     <use xlink:href="#DejaVuSans-39" transform="translate(159.033203 0)"/>
    </g>
   </g>
   <g id="text_21">
    <!-- 10.00 -->
    <g transform="translate(207.593453 56.882267) scale(0.11 -0.11)">
     <use xlink:href="#DejaVuSans-31"/>
     <use xlink:href="#DejaVuSans-30" transform="translate(63.623047 0)"/>
     <use xlink:href="#DejaVuSans-2e" transform="translate(127.246094 0)"/>
     <use xlink:href="#DejaVuSans-30" transform="translate(159.033203 0)"/>
     <use xlink:href="#DejaVuSans-30" transform="translate(222.65625 0)"/>
    </g>
   </g>
   <g id="text_22">
    <!-- 10.00 -->
    <g transform="translate(260.52 50.378176) scale(0.11 -0.11)">
     <use xlink:href="#DejaVuSans-31"/>
     <use xlink:href="#DejaVuSans-30" transform="translate(63.623047 0)"/>
     <use xlink:href="#DejaVuSans-2e" transform="translate(127.246094 0)"/>
     <use xlink:href="#DejaVuSans-30" transform="translate(159.033203 0)"/>
     <use xlink:href="#DejaVuSans-30" transform="translate(222.65625 0)"/>
    </g>
   </g>
   <g id="text_23">
    <!-- 10.00 -->
    <g transform="translate(313.446547 47.116355) scale(0.11 -0.11)">
     <use xlink:href="#DejaVuSans-31"/>
     <use xlink:href="#DejaVuSans-30" transform="translate(63.623047 0)"/>
     <use xlink:href="#DejaVuSans-2e" transform="translate(127.246094 0)"/>
     <use xlink:href="#DejaVuSans-30" transform="translate(159.033203 0)"/>
     <use xlink:href="#DejaVuSans-30" transform="translate(222.65625 0)"/>
    </g>
   </g>
   <g id="text_24">
    <!-- Degradation of ENOB vs. Sampling Capacitance ($N_{\mathrm{bits}}=10$) -->
    <g transform="translate(78.1 23.4) scale(0.12 -0.12)">
     <defs>
      <path id="DejaVuSans-44" d="M 1259 4147 
L 1259 519 
L 2022 519 
Q 2988 519 3436 956 
Q 3884 1394 3884 2338 
Q 3884 3275 3436 3711 
Q 2988 4147 2022 4147 
L 1259 4147 
z
M 628 4666 
L 1925 4666 
Q 3281 4666 3915 4102 
Q 4550 3538 4550 2338 
Q 4550 1131 3912 565 
Q 3275 0 1925 0 
L 628 0 
L 628 4666 
z
" transform="scale(0.015625)"/>
      <path id="DejaVuSans-76" d="M 191 3500 
L 800 3500 
L 1894 563 
L 2988 3500 
L 3597 3500 
L 2284 0 
L 1503 0 
L 191 3500 
z
" transform="scale(0.015625)"/>
      <path id="DejaVuSans-53" d="M 3425 4513 
L 3425 3897 
Q 3066 4069 2747 4153 
Q 2428 4238 2131 4238 
Q 1616 4238 1336 4038 
Q 1056 3838 1056 3469 
Q 1056 3159 1242 3001 
Q 1428 2844 1947 2747 
L 2328 2669 
Q 3034 2534 3370 2195 
Q 3706 1856 3706 1288 
Q 3706 609 3251 259 
Q 2797 -91 1919 -91 
Q 1588 -91 1214 -16 
Q 841 59 441 206 
L 441 856 
Q 825 641 1194 531 
Q 1563 422 1919 422 
Q 2459 422 2753 634 
Q 3047 847 3047 1241 
Q 3047 1584 2836 1778 
Q 2625 1972 2144 2069 
L 1759 2144 
Q 1053 2284 737 2584 
Q 422 2884 422 3419 
Q 422 4038 858 4394 
Q 1294 4750 2059 4750 
Q 2388 4750 2728 4690 
Q 3069 4631 3425 4513 
z
" transform="scale(0.015625)"/>
      <path id="DejaVuSans-Oblique-4e" d="M 1081 4666 
L 1931 4666 
L 3219 666 
L 4000 4666 
L 4616 4666 
L 3706 0 
L 2853 0 
L 1569 4025 
L 788 0 
L 172 0 
L 1081 4666 
z
" transform="scale(0.015625)"/>
      <path id="DejaVuSans-3d" d="M 678 2906 
L 4684 2906 
L 4684 2381 
L 678 2381 
L 678 2906 
z
M 678 1631 
L 4684 1631 
L 4684 1100 
L 678 1100 
L 678 1631 
z
" transform="scale(0.015625)"/>
     </defs>
     <use xlink:href="#DejaVuSans-44" transform="translate(0 0.015625)"/>
     <use xlink:href="#DejaVuSans-65" transform="translate(77.001953 0.015625)"/>
     <use xlink:href="#DejaVuSans-67" transform="translate(138.525391 0.015625)"/>
     <use xlink:href="#DejaVuSans-72" transform="translate(202.001953 0.015625)"/>
     <use xlink:href="#DejaVuSans-61" transform="translate(243.115234 0.015625)"/>
     <use xlink:href="#DejaVuSans-64" transform="translate(304.394531 0.015625)"/>
     <use xlink:href="#DejaVuSans-61" transform="translate(367.871094 0.015625)"/>
     <use xlink:href="#DejaVuSans-74" transform="translate(429.150391 0.015625)"/>
     <use xlink:href="#DejaVuSans-69" transform="translate(468.359375 0.015625)"/>
     <use xlink:href="#DejaVuSans-6f" transform="translate(496.142578 0.015625)"/>
     <use xlink:href="#DejaVuSans-6e" transform="translate(557.324219 0.015625)"/>
     <use xlink:href="#DejaVuSans-20" transform="translate(620.703125 0.015625)"/>
     <use xlink:href="#DejaVuSans-6f" transform="translate(652.490234 0.015625)"/>
     <use xlink:href="#DejaVuSans-66" transform="translate(713.671875 0.015625)"/>
     <use xlink:href="#DejaVuSans-20" transform="translate(748.876953 0.015625)"/>
     <use xlink:href="#DejaVuSans-45" transform="translate(780.664062 0.015625)"/>
     <use xlink:href="#DejaVuSans-4e" transform="translate(843.847656 0.015625)"/>
     <use xlink:href="#DejaVuSans-4f" transform="translate(918.652344 0.015625)"/>
     <use xlink:href="#DejaVuSans-42" transform="translate(997.363281 0.015625)"/>
     <use xlink:href="#DejaVuSans-20" transform="translate(1065.966797 0.015625)"/>
     <use xlink:href="#DejaVuSans-76" transform="translate(1097.753906 0.015625)"/>
     <use xlink:href="#DejaVuSans-73" transform="translate(1156.933594 0.015625)"/>
     <use xlink:href="#DejaVuSans-2e" transform="translate(1209.033203 0.015625)"/>
     <use xlink:href="#DejaVuSans-20" transform="translate(1240.820312 0.015625)"/>
     <use xlink:href="#DejaVuSans-53" transform="translate(1272.607422 0.015625)"/>
     <use xlink:href="#DejaVuSans-61" transform="translate(1336.083984 0.015625)"/>
     <use xlink:href="#DejaVuSans-6d" transform="translate(1397.363281 0.015625)"/>
     <use xlink:href="#DejaVuSans-70" transform="translate(1494.775391 0.015625)"/>
     <use xlink:href="#DejaVuSans-6c" transform="translate(1558.251953 0.015625)"/>
     <use xlink:href="#DejaVuSans-69" transform="translate(1586.035156 0.015625)"/>
     <use xlink:href="#DejaVuSans-6e" transform="translate(1613.818359 0.015625)"/>
     <use xlink:href="#DejaVuSans-67" transform="translate(1677.197266 0.015625)"/>
     <use xlink:href="#DejaVuSans-20" transform="translate(1740.673828 0.015625)"/>
     <use xlink:href="#DejaVuSans-43" transform="translate(1772.460938 0.015625)"/>
     <use xlink:href="#DejaVuSans-61" transform="translate(1842.285156 0.015625)"/>
     <use xlink:href="#DejaVuSans-70" transform="translate(1903.564453 0.015625)"/>
     <use xlink:href="#DejaVuSans-61" transform="translate(1967.041016 0.015625)"/>
     <use xlink:href="#DejaVuSans-63" transform="translate(2028.320312 0.015625)"/>
     <use xlink:href="#DejaVuSans-69" transform="translate(2083.300781 0.015625)"/>
     <use xlink:href="#DejaVuSans-74" transform="translate(2111.083984 0.015625)"/>
     <use xlink:href="#DejaVuSans-61" transform="translate(2150.292969 0.015625)"/>
     <use xlink:href="#DejaVuSans-6e" transform="translate(2211.572266 0.015625)"/>
     <use xlink:href="#DejaVuSans-63" transform="translate(2274.951172 0.015625)"/>
     <use xlink:href="#DejaVuSans-65" transform="translate(2329.931641 0.015625)"/>
     <use xlink:href="#DejaVuSans-20" transform="translate(2391.455078 0.015625)"/>
     <use xlink:href="#DejaVuSans-28" transform="translate(2423.242188 0.015625)"/>
     <use xlink:href="#DejaVuSans-Oblique-4e" transform="translate(2462.255859 0.015625)"/>
     <use xlink:href="#DejaVuSans-62" transform="translate(2537.060547 -16.390625) scale(0.7)"/>
     <use xlink:href="#DejaVuSans-69" transform="translate(2581.494141 -16.390625) scale(0.7)"/>
     <use xlink:href="#DejaVuSans-74" transform="translate(2600.942383 -16.390625) scale(0.7)"/>
     <use xlink:href="#DejaVuSans-73" transform="translate(2628.388672 -16.390625) scale(0.7)"/>
     <use xlink:href="#DejaVuSans-3d" transform="translate(2687.075195 0.015625)"/>
     <use xlink:href="#DejaVuSans-31" transform="translate(2790.34668 0.015625)"/>
     <use xlink:href="#DejaVuSans-30" transform="translate(2853.969727 0.015625)"/>
     <use xlink:href="#DejaVuSans-29" transform="translate(2917.592773 0.015625)"/>
    </g>
   </g>
   <g id="legend_1">
    <g id="patch_7">
     <path d="M 348.862188 290.648 
L 441.92 290.648 
Q 443.92 290.648 443.92 288.648 
L 443.92 245.613625 
Q 443.92 243.613625 441.92 243.613625 
L 348.862188 243.613625 
Q 346.862188 243.613625 346.862188 245.613625 
L 346.862188 288.648 
Q 346.862188 290.648 348.862188 290.648 
z
" style="fill: #ffffff; opacity: 0.8; stroke: #cccccc; stroke-linejoin: miter"/>
    </g>
    <g id="line2d_70">
     <path d="M 350.862188 251.712062 
L 360.862188 251.712062 
L 370.862188 251.712062 
" style="fill: none; stroke: #1f77b4; stroke-width: 1.5; stroke-linecap: square"/>
    </g>
    <g id="text_25">
     <!-- Vref = 1.2 V -->
     <g transform="translate(378.862188 255.212062) scale(0.1 -0.1)">
      <defs>
       <path id="DejaVuSans-56" d="M 1831 0 
L 50 4666 
L 709 4666 
L 2188 738 
L 3669 4666 
L 4325 4666 
L 2547 0 
L 1831 0 
z
" transform="scale(0.015625)"/>
      </defs>
      <use xlink:href="#DejaVuSans-56"/>
      <use xlink:href="#DejaVuSans-72" transform="translate(68.408203 0)"/>
      <use xlink:href="#DejaVuSans-65" transform="translate(107.271484 0)"/>
      <use xlink:href="#DejaVuSans-66" transform="translate(168.794922 0)"/>
      <use xlink:href="#DejaVuSans-20" transform="translate(204 0)"/>
      <use xlink:href="#DejaVuSans-3d" transform="translate(235.787109 0)"/>
      <use xlink:href="#DejaVuSans-20" transform="translate(319.576172 0)"/>
      <use xlink:href="#DejaVuSans-31" transform="translate(351.363281 0)"/>
      <use xlink:href="#DejaVuSans-2e" transform="translate(414.986328 0)"/>
      <use xlink:href="#DejaVuSans-32" transform="translate(446.773438 0)"/>
      <use xlink:href="#DejaVuSans-20" transform="translate(510.396484 0)"/>
      <use xlink:href="#DejaVuSans-56" transform="translate(542.183594 0)"/>
     </g>
    </g>
    <g id="line2d_71">
     <path d="M 350.862188 266.390187 
L 360.862188 266.390187 
L 370.862188 266.390187 
" style="fill: none; stroke: #ff7f0e; stroke-width: 1.5; stroke-linecap: square"/>
    </g>
    <g id="text_26">
     <!-- Vref = 0.9 V -->
     <g transform="translate(378.862188 269.890187) scale(0.1 -0.1)">
      <use xlink:href="#DejaVuSans-56"/>
      <use xlink:href="#DejaVuSans-72" transform="translate(68.408203 0)"/>
      <use xlink:href="#DejaVuSans-65" transform="translate(107.271484 0)"/>
      <use xlink:href="#DejaVuSans-66" transform="translate(168.794922 0)"/>
      <use xlink:href="#DejaVuSans-20" transform="translate(204 0)"/>
      <use xlink:href="#DejaVuSans-3d" transform="translate(235.787109 0)"/>
      <use xlink:href="#DejaVuSans-20" transform="translate(319.576172 0)"/>
      <use xlink:href="#DejaVuSans-30" transform="translate(351.363281 0)"/>
      <use xlink:href="#DejaVuSans-2e" transform="translate(414.986328 0)"/>
      <use xlink:href="#DejaVuSans-39" transform="translate(446.773438 0)"/>
      <use xlink:href="#DejaVuSans-20" transform="translate(510.396484 0)"/>
      <use xlink:href="#DejaVuSans-56" transform="translate(542.183594 0)"/>
     </g>
    </g>
    <g id="line2d_72">
     <path d="M 350.862188 281.068312 
L 360.862188 281.068312 
L 370.862188 281.068312 
" style="fill: none; stroke: #2ca02c; stroke-width: 1.5; stroke-linecap: square"/>
    </g>
    <g id="text_27">
     <!-- Vref = 1.8 V -->
     <g transform="translate(378.862188 284.568312) scale(0.1 -0.1)">
      <use xlink:href="#DejaVuSans-56"/>
      <use xlink:href="#DejaVuSans-72" transform="translate(68.408203 0)"/>
      <use xlink:href="#DejaVuSans-65" transform="translate(107.271484 0)"/>
      <use xlink:href="#DejaVuSans-66" transform="translate(168.794922 0)"/>
      <use xlink:href="#DejaVuSans-20" transform="translate(204 0)"/>
      <use xlink:href="#DejaVuSans-3d" transform="translate(235.787109 0)"/>
      <use xlink:href="#DejaVuSans-20" transform="translate(319.576172 0)"/>
      <use xlink:href="#DejaVuSans-31" transform="translate(351.363281 0)"/>
      <use xlink:href="#DejaVuSans-2e" transform="translate(414.986328 0)"/>
      <use xlink:href="#DejaVuSans-38" transform="translate(446.773438 0)"/>
      <use xlink:href="#DejaVuSans-20" transform="translate(510.396484 0)"/>
      <use xlink:href="#DejaVuSans-56" transform="translate(542.183594 0)"/>
     </g>
    </g>
   </g>
  </g>
 </g>
 <defs>
  <clipPath id="p9e8a23184f">
   <rect x="62.12" y="29.4" width="386.8" height="266.248"/>
  </clipPath>
 </defs>
</svg>
