<?xml version="1.0" encoding="utf-8" standalone="no"?>
<!DOCTYPE svg PUBLIC "-//W3C//DTD SVG 1.1//EN"
  "http://www.w3.org/Graphics/SVG/1.1/DTD/svg11.dtd">
<svg xmlns:xlink="http://www.w3.org/1999/xlink" width="460.8pt" height="345.6pt" viewBox="0 0 460.8 345.6" xmlns="http://www.w3.org/2000/svg" version="1.1">
 <metadata>
  <rdf:RDF xmlns:dc="http://purl.org/dc/elements/1.1/" xmlns:cc="http://creativecommons.org/ns#" xmlns:rdf="http://www.w3.org/1999/02/22-rdf-syntax-ns#">
   <cc:Work>
    <dc:type rdf:resource="http://purl.org/dc/dcmitype/StillImage"/>
    <dc:date>2025-08-08T13:31:55.290532</dc:date>
    <dc:format>image/svg+xml</dc:format>
    <dc:creator>
     <cc:Agent>
      <dc:title>Matplotlib v3.10.3, https://matplotlib.org/</dc:title>
     </cc:Agent>
    </dc:creator>
   </cc:Work>
  </rdf:RDF>
 </metadata>
 <defs>
  <style type="text/css">*{stroke-linejoin: round; stroke-linecap: butt}</style>
 </defs>
 <g id="figure_1">
  <g id="patch_1">
   <path d="M 0 345.6 
L 460.8 345.6 
L 460.8 0 
L 0 0 
z
" style="fill: #ffffff"/>
  </g>
  <g id="axes_1">
   <g id="patch_2">
    <path d="M 56 295.648 
L 448.92 295.648 
L 448.92 29.4 
L 56 29.4 
z
" style="fill: #ffffff"/>
   </g>
   <g id="matplotlib.axis_1">
    <g id="xtick_1">
     <g id="line2d_1">
      <path d="M 73.86 295.648 
L 73.86 29.4 
" clip-path="url(#pa9af0fc1b7)" style="fill: none; stroke-dasharray: 2.96,1.28; stroke-dashoffset: 0; stroke: #b0b0b0; stroke-opacity: 0.5; stroke-width: 0.8"/>
     </g>
     <g id="line2d_2">
      <defs>
       <path id="m316c333d0f" d="M 0 0 
L 0 3.5 
" style="stroke: #000000; stroke-width: 0.8"/>
      </defs>
      <g>
       <use xlink:href="#m316c333d0f" x="73.86" y="295.648" style="stroke: #000000; stroke-width: 0.8"/>
      </g>
     </g>
     <g id="text_1">
      <!-- $\mathdefault{10^{2}}$ -->
      <g transform="translate(65.06 310.246437) scale(0.1 -0.1)">
       <defs>
        <path id="DejaVuSans-31" d="M 794 531 
L 1825 531 
L 1825 4091 
L 703 3866 
L 703 4441 
L 1819 4666 
L 2450 4666 
L 2450 531 
L 3481 531 
L 3481 0 
L 794 0 
L 794 531 
z
" transform="scale(0.015625)"/>
        <path id="DejaVuSans-30" d="M 2034 4250 
Q 1547 4250 1301 3770 
Q 1056 3291 1056 2328 
Q 1056 1369 1301 889 
Q 1547 409 2034 409 
Q 2525 409 2770 889 
Q 3016 1369 3016 2328 
Q 3016 3291 2770 3770 
Q 2525 4250 2034 4250 
z
M 2034 4750 
Q 2819 4750 3233 4129 
Q 3647 3509 3647 2328 
Q 3647 1150 3233 529 
Q 2819 -91 2034 -91 
Q 1250 -91 836 529 
Q 422 1150 422 2328 
Q 422 3509 836 4129 
Q 1250 4750 2034 4750 
z
" transform="scale(0.015625)"/>
        <path id="DejaVuSans-32" d="M 1228 531 
L 3431 531 
L 3431 0 
L 469 0 
L 469 531 
Q 828 903 1448 1529 
Q 2069 2156 2228 2338 
Q 2531 2678 2651 2914 
Q 2772 3150 2772 3378 
Q 2772 3750 2511 3984 
Q 2250 4219 1831 4219 
Q 1534 4219 1204 4116 
Q 875 4013 500 3803 
L 500 4441 
Q 881 4594 1212 4672 
Q 1544 4750 1819 4750 
Q 2544 4750 2975 4387 
Q 3406 4025 3406 3419 
Q 3406 3131 3298 2873 
Q 3191 2616 2906 2266 
Q 2828 2175 2409 1742 
Q 1991 1309 1228 531 
z
" transform="scale(0.015625)"/>
       </defs>
       <use xlink:href="#DejaVuSans-31" transform="translate(0 0.765625)"/>
       <use xlink:href="#DejaVuSans-30" transform="translate(63.623047 0.765625)"/>
       <use xlink:href="#DejaVuSans-32" transform="translate(128.203125 39.046875) scale(0.7)"/>
      </g>
     </g>
    </g>
    <g id="xtick_2">
     <g id="line2d_3">
      <path d="M 252.46 295.648 
L 252.46 29.4 
" clip-path="url(#pa9af0fc1b7)" style="fill: none; stroke-dasharray: 2.96,1.28; stroke-dashoffset: 0; stroke: #b0b0b0; stroke-opacity: 0.5; stroke-width: 0.8"/>
     </g>
     <g id="line2d_4">
      <g>
       <use xlink:href="#m316c333d0f" x="252.46" y="295.648" style="stroke: #000000; stroke-width: 0.8"/>
      </g>
     </g>
     <g id="text_2">
      <!-- $\mathdefault{10^{3}}$ -->
      <g transform="translate(243.66 310.246437) scale(0.1 -0.1)">
       <defs>
        <path id="DejaVuSans-33" d="M 2597 2516 
Q 3050 2419 3304 2112 
Q 3559 1806 3559 1356 
Q 3559 666 3084 287 
Q 2609 -91 1734 -91 
Q 1441 -91 1130 -33 
Q 819 25 488 141 
L 488 750 
Q 750 597 1062 519 
Q 1375 441 1716 441 
Q 2309 441 2620 675 
Q 2931 909 2931 1356 
Q 2931 1769 2642 2001 
Q 2353 2234 1838 2234 
L 1294 2234 
L 1294 2753 
L 1863 2753 
Q 2328 2753 2575 2939 
Q 2822 3125 2822 3475 
Q 2822 3834 2567 4026 
Q 2313 4219 1838 4219 
Q 1578 4219 1281 4162 
Q 984 4106 628 3988 
L 628 4550 
Q 988 4650 1302 4700 
Q 1616 4750 1894 4750 
Q 2613 4750 3031 4423 
Q 3450 4097 3450 3541 
Q 3450 3153 3228 2886 
Q 3006 2619 2597 2516 
z
" transform="scale(0.015625)"/>
       </defs>
       <use xlink:href="#DejaVuSans-31" transform="translate(0 0.765625)"/>
       <use xlink:href="#DejaVuSans-30" transform="translate(63.623047 0.765625)"/>
       <use xlink:href="#DejaVuSans-33" transform="translate(128.203125 39.046875) scale(0.7)"/>
      </g>
     </g>
    </g>
    <g id="xtick_3">
     <g id="line2d_5">
      <path d="M 431.06 295.648 
L 431.06 29.4 
" clip-path="url(#pa9af0fc1b7)" style="fill: none; stroke-dasharray: 2.96,1.28; stroke-dashoffset: 0; stroke: #b0b0b0; stroke-opacity: 0.5; stroke-width: 0.8"/>
     </g>
     <g id="line2d_6">
      <g>
       <use xlink:href="#m316c333d0f" x="431.06" y="295.648" style="stroke: #000000; stroke-width: 0.8"/>
      </g>
     </g>
     <g id="text_3">
      <!-- $\mathdefault{10^{4}}$ -->
      <g transform="translate(422.26 310.246437) scale(0.1 -0.1)">
       <defs>
        <path id="DejaVuSans-34" d="M 2419 4116 
L 825 1625 
L 2419 1625 
L 2419 4116 
z
M 2253 4666 
L 3047 4666 
L 3047 1625 
L 3713 1625 
L 3713 1100 
L 3047 1100 
L 3047 0 
L 2419 0 
L 2419 1100 
L 313 1100 
L 313 1709 
L 2253 4666 
z
" transform="scale(0.015625)"/>
       </defs>
       <use xlink:href="#DejaVuSans-31" transform="translate(0 0.684375)"/>
       <use xlink:href="#DejaVuSans-30" transform="translate(63.623047 0.684375)"/>
       <use xlink:href="#DejaVuSans-34" transform="translate(128.203125 38.965625) scale(0.7)"/>
      </g>
     </g>
    </g>
    <g id="xtick_4">
     <g id="line2d_7">
      <path d="M 56.551872 295.648 
L 56.551872 29.4 
" clip-path="url(#pa9af0fc1b7)" style="fill: none; stroke-dasharray: 2.96,1.28; stroke-dashoffset: 0; stroke: #b0b0b0; stroke-opacity: 0.5; stroke-width: 0.8"/>
     </g>
     <g id="line2d_8">
      <defs>
       <path id="m666a97e00e" d="M 0 0 
L 0 2 
" style="stroke: #000000; stroke-width: 0.6"/>
      </defs>
      <g>
       <use xlink:href="#m666a97e00e" x="56.551872" y="295.648" style="stroke: #000000; stroke-width: 0.6"/>
      </g>
     </g>
    </g>
    <g id="xtick_5">
     <g id="line2d_9">
      <path d="M 65.687712 295.648 
L 65.687712 29.4 
" clip-path="url(#pa9af0fc1b7)" style="fill: none; stroke-dasharray: 2.96,1.28; stroke-dashoffset: 0; stroke: #b0b0b0; stroke-opacity: 0.5; stroke-width: 0.8"/>
     </g>
     <g id="line2d_10">
      <g>
       <use xlink:href="#m666a97e00e" x="65.687712" y="295.648" style="stroke: #000000; stroke-width: 0.6"/>
      </g>
     </g>
    </g>
    <g id="xtick_6">
     <g id="line2d_11">
      <path d="M 127.623957 295.648 
L 127.623957 29.4 
" clip-path="url(#pa9af0fc1b7)" style="fill: none; stroke-dasharray: 2.96,1.28; stroke-dashoffset: 0; stroke: #b0b0b0; stroke-opacity: 0.5; stroke-width: 0.8"/>
     </g>
     <g id="line2d_12">
      <g>
       <use xlink:href="#m666a97e00e" x="127.623957" y="295.648" style="stroke: #000000; stroke-width: 0.6"/>
      </g>
     </g>
    </g>
    <g id="xtick_7">
     <g id="line2d_13">
      <path d="M 159.073856 295.648 
L 159.073856 29.4 
" clip-path="url(#pa9af0fc1b7)" style="fill: none; stroke-dasharray: 2.96,1.28; stroke-dashoffset: 0; stroke: #b0b0b0; stroke-opacity: 0.5; stroke-width: 0.8"/>
     </g>
     <g id="line2d_14">
      <g>
       <use xlink:href="#m666a97e00e" x="159.073856" y="295.648" style="stroke: #000000; stroke-width: 0.6"/>
      </g>
     </g>
    </g>
    <g id="xtick_8">
     <g id="line2d_15">
      <path d="M 181.387914 295.648 
L 181.387914 29.4 
" clip-path="url(#pa9af0fc1b7)" style="fill: none; stroke-dasharray: 2.96,1.28; stroke-dashoffset: 0; stroke: #b0b0b0; stroke-opacity: 0.5; stroke-width: 0.8"/>
     </g>
     <g id="line2d_16">
      <g>
       <use xlink:href="#m666a97e00e" x="181.387914" y="295.648" style="stroke: #000000; stroke-width: 0.6"/>
      </g>
     </g>
    </g>
    <g id="xtick_9">
     <g id="line2d_17">
      <path d="M 198.696043 295.648 
L 198.696043 29.4 
" clip-path="url(#pa9af0fc1b7)" style="fill: none; stroke-dasharray: 2.96,1.28; stroke-dashoffset: 0; stroke: #b0b0b0; stroke-opacity: 0.5; stroke-width: 0.8"/>
     </g>
     <g id="line2d_18">
      <g>
       <use xlink:href="#m666a97e00e" x="198.696043" y="295.648" style="stroke: #000000; stroke-width: 0.6"/>
      </g>
     </g>
    </g>
    <g id="xtick_10">
     <g id="line2d_19">
      <path d="M 212.837813 295.648 
L 212.837813 29.4 
" clip-path="url(#pa9af0fc1b7)" style="fill: none; stroke-dasharray: 2.96,1.28; stroke-dashoffset: 0; stroke: #b0b0b0; stroke-opacity: 0.5; stroke-width: 0.8"/>
     </g>
     <g id="line2d_20">
      <g>
       <use xlink:href="#m666a97e00e" x="212.837813" y="295.648" style="stroke: #000000; stroke-width: 0.6"/>
      </g>
     </g>
    </g>
    <g id="xtick_11">
     <g id="line2d_21">
      <path d="M 224.79451 295.648 
L 224.79451 29.4 
" clip-path="url(#pa9af0fc1b7)" style="fill: none; stroke-dasharray: 2.96,1.28; stroke-dashoffset: 0; stroke: #b0b0b0; stroke-opacity: 0.5; stroke-width: 0.8"/>
     </g>
     <g id="line2d_22">
      <g>
       <use xlink:href="#m666a97e00e" x="224.79451" y="295.648" style="stroke: #000000; stroke-width: 0.6"/>
      </g>
     </g>
    </g>
    <g id="xtick_12">
     <g id="line2d_23">
      <path d="M 235.151872 295.648 
L 235.151872 29.4 
" clip-path="url(#pa9af0fc1b7)" style="fill: none; stroke-dasharray: 2.96,1.28; stroke-dashoffset: 0; stroke: #b0b0b0; stroke-opacity: 0.5; stroke-width: 0.8"/>
     </g>
     <g id="line2d_24">
      <g>
       <use xlink:href="#m666a97e00e" x="235.151872" y="295.648" style="stroke: #000000; stroke-width: 0.6"/>
      </g>
     </g>
    </g>
    <g id="xtick_13">
     <g id="line2d_25">
      <path d="M 244.287712 295.648 
L 244.287712 29.4 
" clip-path="url(#pa9af0fc1b7)" style="fill: none; stroke-dasharray: 2.96,1.28; stroke-dashoffset: 0; stroke: #b0b0b0; stroke-opacity: 0.5; stroke-width: 0.8"/>
     </g>
     <g id="line2d_26">
      <g>
       <use xlink:href="#m666a97e00e" x="244.287712" y="295.648" style="stroke: #000000; stroke-width: 0.6"/>
      </g>
     </g>
    </g>
    <g id="xtick_14">
     <g id="line2d_27">
      <path d="M 306.223957 295.648 
L 306.223957 29.4 
" clip-path="url(#pa9af0fc1b7)" style="fill: none; stroke-dasharray: 2.96,1.28; stroke-dashoffset: 0; stroke: #b0b0b0; stroke-opacity: 0.5; stroke-width: 0.8"/>
     </g>
     <g id="line2d_28">
      <g>
       <use xlink:href="#m666a97e00e" x="306.223957" y="295.648" style="stroke: #000000; stroke-width: 0.6"/>
      </g>
     </g>
    </g>
    <g id="xtick_15">
     <g id="line2d_29">
      <path d="M 337.673856 295.648 
L 337.673856 29.4 
" clip-path="url(#pa9af0fc1b7)" style="fill: none; stroke-dasharray: 2.96,1.28; stroke-dashoffset: 0; stroke: #b0b0b0; stroke-opacity: 0.5; stroke-width: 0.8"/>
     </g>
     <g id="line2d_30">
      <g>
       <use xlink:href="#m666a97e00e" x="337.673856" y="295.648" style="stroke: #000000; stroke-width: 0.6"/>
      </g>
     </g>
    </g>
    <g id="xtick_16">
     <g id="line2d_31">
      <path d="M 359.987914 295.648 
L 359.987914 29.4 
" clip-path="url(#pa9af0fc1b7)" style="fill: none; stroke-dasharray: 2.96,1.28; stroke-dashoffset: 0; stroke: #b0b0b0; stroke-opacity: 0.5; stroke-width: 0.8"/>
     </g>
     <g id="line2d_32">
      <g>
       <use xlink:href="#m666a97e00e" x="359.987914" y="295.648" style="stroke: #000000; stroke-width: 0.6"/>
      </g>
     </g>
    </g>
    <g id="xtick_17">
     <g id="line2d_33">
      <path d="M 377.296043 295.648 
L 377.296043 29.4 
" clip-path="url(#pa9af0fc1b7)" style="fill: none; stroke-dasharray: 2.96,1.28; stroke-dashoffset: 0; stroke: #b0b0b0; stroke-opacity: 0.5; stroke-width: 0.8"/>
     </g>
     <g id="line2d_34">
      <g>
       <use xlink:href="#m666a97e00e" x="377.296043" y="295.648" style="stroke: #000000; stroke-width: 0.6"/>
      </g>
     </g>
    </g>
    <g id="xtick_18">
     <g id="line2d_35">
      <path d="M 391.437813 295.648 
L 391.437813 29.4 
" clip-path="url(#pa9af0fc1b7)" style="fill: none; stroke-dasharray: 2.96,1.28; stroke-dashoffset: 0; stroke: #b0b0b0; stroke-opacity: 0.5; stroke-width: 0.8"/>
     </g>
     <g id="line2d_36">
      <g>
       <use xlink:href="#m666a97e00e" x="391.437813" y="295.648" style="stroke: #000000; stroke-width: 0.6"/>
      </g>
     </g>
    </g>
    <g id="xtick_19">
     <g id="line2d_37">
      <path d="M 403.39451 295.648 
L 403.39451 29.4 
" clip-path="url(#pa9af0fc1b7)" style="fill: none; stroke-dasharray: 2.96,1.28; stroke-dashoffset: 0; stroke: #b0b0b0; stroke-opacity: 0.5; stroke-width: 0.8"/>
     </g>
     <g id="line2d_38">
      <g>
       <use xlink:href="#m666a97e00e" x="403.39451" y="295.648" style="stroke: #000000; stroke-width: 0.6"/>
      </g>
     </g>
    </g>
    <g id="xtick_20">
     <g id="line2d_39">
      <path d="M 413.751872 295.648 
L 413.751872 29.4 
" clip-path="url(#pa9af0fc1b7)" style="fill: none; stroke-dasharray: 2.96,1.28; stroke-dashoffset: 0; stroke: #b0b0b0; stroke-opacity: 0.5; stroke-width: 0.8"/>
     </g>
     <g id="line2d_40">
      <g>
       <use xlink:href="#m666a97e00e" x="413.751872" y="295.648" style="stroke: #000000; stroke-width: 0.6"/>
      </g>
     </g>
    </g>
    <g id="xtick_21">
     <g id="line2d_41">
      <path d="M 422.887712 295.648 
L 422.887712 29.4 
" clip-path="url(#pa9af0fc1b7)" style="fill: none; stroke-dasharray: 2.96,1.28; stroke-dashoffset: 0; stroke: #b0b0b0; stroke-opacity: 0.5; stroke-width: 0.8"/>
     </g>
     <g id="line2d_42">
      <g>
       <use xlink:href="#m666a97e00e" x="422.887712" y="295.648" style="stroke: #000000; stroke-width: 0.6"/>
      </g>
     </g>
    </g>
    <g id="text_4">
     <!-- Total Capacitance ($C_{\mathrm{tot}}$) [fF] -->
     <g transform="translate(176.34 324.686125) scale(0.11 -0.11)">
      <defs>
       <path id="DejaVuSans-54" d="M -19 4666 
L 3928 4666 
L 3928 4134 
L 2272 4134 
L 2272 0 
L 1638 0 
L 1638 4134 
L -19 4134 
L -19 4666 
z
" transform="scale(0.015625)"/>
       <path id="DejaVuSans-6f" d="M 1959 3097 
Q 1497 3097 1228 2736 
Q 959 2375 959 1747 
Q 959 1119 1226 758 
Q 1494 397 1959 397 
Q 2419 397 2687 759 
Q 2956 1122 2956 1747 
Q 2956 2369 2687 2733 
Q 2419 3097 1959 3097 
z
M 1959 3584 
Q 2709 3584 3137 3096 
Q 3566 2609 3566 1747 
Q 3566 888 3137 398 
Q 2709 -91 1959 -91 
Q 1206 -91 779 398 
Q 353 888 353 1747 
Q 353 2609 779 3096 
Q 1206 3584 1959 3584 
z
" transform="scale(0.015625)"/>
       <path id="DejaVuSans-74" d="M 1172 4494 
L 1172 3500 
L 2356 3500 
L 2356 3053 
L 1172 3053 
L 1172 1153 
Q 1172 725 1289 603 
Q 1406 481 1766 481 
L 2356 481 
L 2356 0 
L 1766 0 
Q 1100 0 847 248 
Q 594 497 594 1153 
L 594 3053 
L 172 3053 
L 172 3500 
L 594 3500 
L 594 4494 
L 1172 4494 
z
" transform="scale(0.015625)"/>
       <path id="DejaVuSans-61" d="M 2194 1759 
Q 1497 1759 1228 1600 
Q 959 1441 959 1056 
Q 959 750 1161 570 
Q 1363 391 1709 391 
Q 2188 391 2477 730 
Q 2766 1069 2766 1631 
L 2766 1759 
L 2194 1759 
z
M 3341 1997 
L 3341 0 
L 2766 0 
L 2766 531 
Q 2569 213 2275 61 
Q 1981 -91 1556 -91 
Q 1019 -91 701 211 
Q 384 513 384 1019 
Q 384 1609 779 1909 
Q 1175 2209 1959 2209 
L 2766 2209 
L 2766 2266 
Q 2766 2663 2505 2880 
Q 2244 3097 1772 3097 
Q 1472 3097 1187 3025 
Q 903 2953 641 2809 
L 641 3341 
Q 956 3463 1253 3523 
Q 1550 3584 1831 3584 
Q 2591 3584 2966 3190 
Q 3341 2797 3341 1997 
z
" transform="scale(0.015625)"/>
       <path id="DejaVuSans-6c" d="M 603 4863 
L 1178 4863 
L 1178 0 
L 603 0 
L 603 4863 
z
" transform="scale(0.015625)"/>
       <path id="DejaVuSans-20" transform="scale(0.015625)"/>
       <path id="DejaVuSans-43" d="M 4122 4306 
L 4122 3641 
Q 3803 3938 3442 4084 
Q 3081 4231 2675 4231 
Q 1875 4231 1450 3742 
Q 1025 3253 1025 2328 
Q 1025 1406 1450 917 
Q 1875 428 2675 428 
Q 3081 428 3442 575 
Q 3803 722 4122 1019 
L 4122 359 
Q 3791 134 3420 21 
Q 3050 -91 2638 -91 
Q 1578 -91 968 557 
Q 359 1206 359 2328 
Q 359 3453 968 4101 
Q 1578 4750 2638 4750 
Q 3056 4750 3426 4639 
Q 3797 4528 4122 4306 
z
" transform="scale(0.015625)"/>
       <path id="DejaVuSans-70" d="M 1159 525 
L 1159 -1331 
L 581 -1331 
L 581 3500 
L 1159 3500 
L 1159 2969 
Q 1341 3281 1617 3432 
Q 1894 3584 2278 3584 
Q 2916 3584 3314 3078 
Q 3713 2572 3713 1747 
Q 3713 922 3314 415 
Q 2916 -91 2278 -91 
Q 1894 -91 1617 61 
Q 1341 213 1159 525 
z
M 3116 1747 
Q 3116 2381 2855 2742 
Q 2594 3103 2138 3103 
Q 1681 3103 1420 2742 
Q 1159 2381 1159 1747 
Q 1159 1113 1420 752 
Q 1681 391 2138 391 
Q 2594 391 2855 752 
Q 3116 1113 3116 1747 
z
" transform="scale(0.015625)"/>
       <path id="DejaVuSans-63" d="M 3122 3366 
L 3122 2828 
Q 2878 2963 2633 3030 
Q 2388 3097 2138 3097 
Q 1578 3097 1268 2742 
Q 959 2388 959 1747 
Q 959 1106 1268 751 
Q 1578 397 2138 397 
Q 2388 397 2633 464 
Q 2878 531 3122 666 
L 3122 134 
Q 2881 22 2623 -34 
Q 2366 -91 2075 -91 
Q 1284 -91 818 406 
Q 353 903 353 1747 
Q 353 2603 823 3093 
Q 1294 3584 2113 3584 
Q 2378 3584 2631 3529 
Q 2884 3475 3122 3366 
z
" transform="scale(0.015625)"/>
       <path id="DejaVuSans-69" d="M 603 3500 
L 1178 3500 
L 1178 0 
L 603 0 
L 603 3500 
z
M 603 4863 
L 1178 4863 
L 1178 4134 
L 603 4134 
L 603 4863 
z
" transform="scale(0.015625)"/>
       <path id="DejaVuSans-6e" d="M 3513 2113 
L 3513 0 
L 2938 0 
L 2938 2094 
Q 2938 2591 2744 2837 
Q 2550 3084 2163 3084 
Q 1697 3084 1428 2787 
Q 1159 2491 1159 1978 
L 1159 0 
L 581 0 
L 581 3500 
L 1159 3500 
L 1159 2956 
Q 1366 3272 1645 3428 
Q 1925 3584 2291 3584 
Q 2894 3584 3203 3211 
Q 3513 2838 3513 2113 
z
" transform="scale(0.015625)"/>
       <path id="DejaVuSans-65" d="M 3597 1894 
L 3597 1613 
L 953 1613 
Q 991 1019 1311 708 
Q 1631 397 2203 397 
Q 2534 397 2845 478 
Q 3156 559 3463 722 
L 3463 178 
Q 3153 47 2828 -22 
Q 2503 -91 2169 -91 
Q 1331 -91 842 396 
Q 353 884 353 1716 
Q 353 2575 817 3079 
Q 1281 3584 2069 3584 
Q 2775 3584 3186 3129 
Q 3597 2675 3597 1894 
z
M 3022 2063 
Q 3016 2534 2758 2815 
Q 2500 3097 2075 3097 
Q 1594 3097 1305 2825 
Q 1016 2553 972 2059 
L 3022 2063 
z
" transform="scale(0.015625)"/>
       <path id="DejaVuSans-28" d="M 1984 4856 
Q 1566 4138 1362 3434 
Q 1159 2731 1159 2009 
Q 1159 1288 1364 580 
Q 1569 -128 1984 -844 
L 1484 -844 
Q 1016 -109 783 600 
Q 550 1309 550 2009 
Q 550 2706 781 3412 
Q 1013 4119 1484 4856 
L 1984 4856 
z
" transform="scale(0.015625)"/>
       <path id="DejaVuSans-Oblique-43" d="M 4447 4306 
L 4319 3641 
Q 4019 3944 3683 4091 
Q 3347 4238 2956 4238 
Q 2422 4238 2017 3981 
Q 1613 3725 1319 3200 
Q 1131 2863 1032 2486 
Q 934 2109 934 1728 
Q 934 1091 1264 756 
Q 1594 422 2222 422 
Q 2656 422 3056 561 
Q 3456 700 3834 978 
L 3688 231 
Q 3316 72 2936 -9 
Q 2556 -91 2175 -91 
Q 1278 -91 773 396 
Q 269 884 269 1753 
Q 269 2309 461 2846 
Q 653 3384 1013 3828 
Q 1394 4300 1883 4525 
Q 2372 4750 3022 4750 
Q 3422 4750 3780 4639 
Q 4138 4528 4447 4306 
z
" transform="scale(0.015625)"/>
       <path id="DejaVuSans-29" d="M 513 4856 
L 1013 4856 
Q 1481 4119 1714 3412 
Q 1947 2706 1947 2009 
Q 1947 1309 1714 600 
Q 1481 -109 1013 -844 
L 513 -844 
Q 928 -128 1133 580 
Q 1338 1288 1338 2009 
Q 1338 2731 1133 3434 
Q 928 4138 513 4856 
z
" transform="scale(0.015625)"/>
       <path id="DejaVuSans-5b" d="M 550 4863 
L 1875 4863 
L 1875 4416 
L 1125 4416 
L 1125 -397 
L 1875 -397 
L 1875 -844 
L 550 -844 
L 550 4863 
z
" transform="scale(0.015625)"/>
       <path id="DejaVuSans-66" d="M 2375 4863 
L 2375 4384 
L 1825 4384 
Q 1516 4384 1395 4259 
Q 1275 4134 1275 3809 
L 1275 3500 
L 2222 3500 
L 2222 3053 
L 1275 3053 
L 1275 0 
L 697 0 
L 697 3053 
L 147 3053 
L 147 3500 
L 697 3500 
L 697 3744 
Q 697 4328 969 4595 
Q 1241 4863 1831 4863 
L 2375 4863 
z
" transform="scale(0.015625)"/>
       <path id="DejaVuSans-46" d="M 628 4666 
L 3309 4666 
L 3309 4134 
L 1259 4134 
L 1259 2759 
L 3109 2759 
L 3109 2228 
L 1259 2228 
L 1259 0 
L 628 0 
L 628 4666 
z
" transform="scale(0.015625)"/>
       <path id="DejaVuSans-5d" d="M 1947 4863 
L 1947 -844 
L 622 -844 
L 622 -397 
L 1369 -397 
L 1369 4416 
L 622 4416 
L 622 4863 
L 1947 4863 
z
" transform="scale(0.015625)"/>
      </defs>
      <use xlink:href="#DejaVuSans-54" transform="translate(0 0.015625)"/>
      <use xlink:href="#DejaVuSans-6f" transform="translate(61.083984 0.015625)"/>
      <use xlink:href="#DejaVuSans-74" transform="translate(122.265625 0.015625)"/>
      <use xlink:href="#DejaVuSans-61" transform="translate(161.474609 0.015625)"/>
      <use xlink:href="#DejaVuSans-6c" transform="translate(222.753906 0.015625)"/>
      <use xlink:href="#DejaVuSans-20" transform="translate(250.537109 0.015625)"/>
      <use xlink:href="#DejaVuSans-43" transform="translate(282.324219 0.015625)"/>
      <use xlink:href="#DejaVuSans-61" transform="translate(352.148438 0.015625)"/>
      <use xlink:href="#DejaVuSans-70" transform="translate(413.427734 0.015625)"/>
      <use xlink:href="#DejaVuSans-61" transform="translate(476.904297 0.015625)"/>
      <use xlink:href="#DejaVuSans-63" transform="translate(538.183594 0.015625)"/>
      <use xlink:href="#DejaVuSans-69" transform="translate(593.164062 0.015625)"/>
      <use xlink:href="#DejaVuSans-74" transform="translate(620.947266 0.015625)"/>
      <use xlink:href="#DejaVuSans-61" transform="translate(660.15625 0.015625)"/>
      <use xlink:href="#DejaVuSans-6e" transform="translate(721.435547 0.015625)"/>
      <use xlink:href="#DejaVuSans-63" transform="translate(784.814453 0.015625)"/>
      <use xlink:href="#DejaVuSans-65" transform="translate(839.794922 0.015625)"/>
      <use xlink:href="#DejaVuSans-20" transform="translate(901.318359 0.015625)"/>
      <use xlink:href="#DejaVuSans-28" transform="translate(933.105469 0.015625)"/>
      <use xlink:href="#DejaVuSans-Oblique-43" transform="translate(972.119141 0.015625)"/>
      <use xlink:href="#DejaVuSans-74" transform="translate(1041.943359 -16.390625) scale(0.7)"/>
      <use xlink:href="#DejaVuSans-6f" transform="translate(1069.389648 -16.390625) scale(0.7)"/>
      <use xlink:href="#DejaVuSans-74" transform="translate(1112.216797 -16.390625) scale(0.7)"/>
      <use xlink:href="#DejaVuSans-29" transform="translate(1142.397461 0.015625)"/>
      <use xlink:href="#DejaVuSans-20" transform="translate(1181.411133 0.015625)"/>
      <use xlink:href="#DejaVuSans-5b" transform="translate(1213.198242 0.015625)"/>
      <use xlink:href="#DejaVuSans-66" transform="translate(1252.211914 0.015625)"/>
      <use xlink:href="#DejaVuSans-46" transform="translate(1287.416992 0.015625)"/>
      <use xlink:href="#DejaVuSans-5d" transform="translate(1344.936523 0.015625)"/>
     </g>
    </g>
   </g>
   <g id="matplotlib.axis_2">
    <g id="ytick_1">
     <g id="line2d_43">
      <path d="M 56 252.44712 
L 448.92 252.44712 
" clip-path="url(#pa9af0fc1b7)" style="fill: none; stroke-dasharray: 2.96,1.28; stroke-dashoffset: 0; stroke: #b0b0b0; stroke-opacity: 0.5; stroke-width: 0.8"/>
     </g>
     <g id="line2d_44">
      <defs>
       <path id="mf84fa69ce3" d="M 0 0 
L -3.5 0 
" style="stroke: #000000; stroke-width: 0.8"/>
      </defs>
      <g>
       <use xlink:href="#mf84fa69ce3" x="56" y="252.44712" style="stroke: #000000; stroke-width: 0.8"/>
      </g>
     </g>
     <g id="text_5">
      <!-- 11.2 -->
      <g transform="translate(26.734375 256.246339) scale(0.1 -0.1)">
       <defs>
        <path id="DejaVuSans-2e" d="M 684 794 
L 1344 794 
L 1344 0 
L 684 0 
L 684 794 
z
" transform="scale(0.015625)"/>
       </defs>
       <use xlink:href="#DejaVuSans-31"/>
       <use xlink:href="#DejaVuSans-31" transform="translate(63.623047 0)"/>
       <use xlink:href="#DejaVuSans-2e" transform="translate(127.246094 0)"/>
       <use xlink:href="#DejaVuSans-32" transform="translate(159.033203 0)"/>
      </g>
     </g>
    </g>
    <g id="ytick_2">
     <g id="line2d_45">
      <path d="M 56 199.493809 
L 448.92 199.493809 
" clip-path="url(#pa9af0fc1b7)" style="fill: none; stroke-dasharray: 2.96,1.28; stroke-dashoffset: 0; stroke: #b0b0b0; stroke-opacity: 0.5; stroke-width: 0.8"/>
     </g>
     <g id="line2d_46">
      <g>
       <use xlink:href="#mf84fa69ce3" x="56" y="199.493809" style="stroke: #000000; stroke-width: 0.8"/>
      </g>
     </g>
     <g id="text_6">
      <!-- 11.4 -->
      <g transform="translate(26.734375 203.293028) scale(0.1 -0.1)">
       <use xlink:href="#DejaVuSans-31"/>
       <use xlink:href="#DejaVuSans-31" transform="translate(63.623047 0)"/>
       <use xlink:href="#DejaVuSans-2e" transform="translate(127.246094 0)"/>
       <use xlink:href="#DejaVuSans-34" transform="translate(159.033203 0)"/>
      </g>
     </g>
    </g>
    <g id="ytick_3">
     <g id="line2d_47">
      <path d="M 56 146.540497 
L 448.92 146.540497 
" clip-path="url(#pa9af0fc1b7)" style="fill: none; stroke-dasharray: 2.96,1.28; stroke-dashoffset: 0; stroke: #b0b0b0; stroke-opacity: 0.5; stroke-width: 0.8"/>
     </g>
     <g id="line2d_48">
      <g>
       <use xlink:href="#mf84fa69ce3" x="56" y="146.540497" style="stroke: #000000; stroke-width: 0.8"/>
      </g>
     </g>
     <g id="text_7">
      <!-- 11.6 -->
      <g transform="translate(26.734375 150.339716) scale(0.1 -0.1)">
       <defs>
        <path id="DejaVuSans-36" d="M 2113 2584 
Q 1688 2584 1439 2293 
Q 1191 2003 1191 1497 
Q 1191 994 1439 701 
Q 1688 409 2113 409 
Q 2538 409 2786 701 
Q 3034 994 3034 1497 
Q 3034 2003 2786 2293 
Q 2538 2584 2113 2584 
z
M 3366 4563 
L 3366 3988 
Q 3128 4100 2886 4159 
Q 2644 4219 2406 4219 
Q 1781 4219 1451 3797 
Q 1122 3375 1075 2522 
Q 1259 2794 1537 2939 
Q 1816 3084 2150 3084 
Q 2853 3084 3261 2657 
Q 3669 2231 3669 1497 
Q 3669 778 3244 343 
Q 2819 -91 2113 -91 
Q 1303 -91 875 529 
Q 447 1150 447 2328 
Q 447 3434 972 4092 
Q 1497 4750 2381 4750 
Q 2619 4750 2861 4703 
Q 3103 4656 3366 4563 
z
" transform="scale(0.015625)"/>
       </defs>
       <use xlink:href="#DejaVuSans-31"/>
       <use xlink:href="#DejaVuSans-31" transform="translate(63.623047 0)"/>
       <use xlink:href="#DejaVuSans-2e" transform="translate(127.246094 0)"/>
       <use xlink:href="#DejaVuSans-36" transform="translate(159.033203 0)"/>
      </g>
     </g>
    </g>
    <g id="ytick_4">
     <g id="line2d_49">
      <path d="M 56 93.587186 
L 448.92 93.587186 
" clip-path="url(#pa9af0fc1b7)" style="fill: none; stroke-dasharray: 2.96,1.28; stroke-dashoffset: 0; stroke: #b0b0b0; stroke-opacity: 0.5; stroke-width: 0.8"/>
     </g>
     <g id="line2d_50">
      <g>
       <use xlink:href="#mf84fa69ce3" x="56" y="93.587186" style="stroke: #000000; stroke-width: 0.8"/>
      </g>
     </g>
     <g id="text_8">
      <!-- 11.8 -->
      <g transform="translate(26.734375 97.386404) scale(0.1 -0.1)">
       <defs>
        <path id="DejaVuSans-38" d="M 2034 2216 
Q 1584 2216 1326 1975 
Q 1069 1734 1069 1313 
Q 1069 891 1326 650 
Q 1584 409 2034 409 
Q 2484 409 2743 651 
Q 3003 894 3003 1313 
Q 3003 1734 2745 1975 
Q 2488 2216 2034 2216 
z
M 1403 2484 
Q 997 2584 770 2862 
Q 544 3141 544 3541 
Q 544 4100 942 4425 
Q 1341 4750 2034 4750 
Q 2731 4750 3128 4425 
Q 3525 4100 3525 3541 
Q 3525 3141 3298 2862 
Q 3072 2584 2669 2484 
Q 3125 2378 3379 2068 
Q 3634 1759 3634 1313 
Q 3634 634 3220 271 
Q 2806 -91 2034 -91 
Q 1263 -91 848 271 
Q 434 634 434 1313 
Q 434 1759 690 2068 
Q 947 2378 1403 2484 
z
M 1172 3481 
Q 1172 3119 1398 2916 
Q 1625 2713 2034 2713 
Q 2441 2713 2670 2916 
Q 2900 3119 2900 3481 
Q 2900 3844 2670 4047 
Q 2441 4250 2034 4250 
Q 1625 4250 1398 4047 
Q 1172 3844 1172 3481 
z
" transform="scale(0.015625)"/>
       </defs>
       <use xlink:href="#DejaVuSans-31"/>
       <use xlink:href="#DejaVuSans-31" transform="translate(63.623047 0)"/>
       <use xlink:href="#DejaVuSans-2e" transform="translate(127.246094 0)"/>
       <use xlink:href="#DejaVuSans-38" transform="translate(159.033203 0)"/>
      </g>
     </g>
    </g>
    <g id="ytick_5">
     <g id="line2d_51">
      <path d="M 56 40.633874 
L 448.92 40.633874 
" clip-path="url(#pa9af0fc1b7)" style="fill: none; stroke-dasharray: 2.96,1.28; stroke-dashoffset: 0; stroke: #b0b0b0; stroke-opacity: 0.5; stroke-width: 0.8"/>
     </g>
     <g id="line2d_52">
      <g>
       <use xlink:href="#mf84fa69ce3" x="56" y="40.633874" style="stroke: #000000; stroke-width: 0.8"/>
      </g>
     </g>
     <g id="text_9">
      <!-- 12.0 -->
      <g transform="translate(26.734375 44.433093) scale(0.1 -0.1)">
       <use xlink:href="#DejaVuSans-31"/>
       <use xlink:href="#DejaVuSans-32" transform="translate(63.623047 0)"/>
       <use xlink:href="#DejaVuSans-2e" transform="translate(127.246094 0)"/>
       <use xlink:href="#DejaVuSans-30" transform="translate(159.033203 0)"/>
      </g>
     </g>
    </g>
    <g id="text_10">
     <!-- ENOB (reduced by sampling noise) -->
     <g transform="translate(20.446719 258.392437) rotate(-90) scale(0.11 -0.11)">
      <defs>
       <path id="DejaVuSans-45" d="M 628 4666 
L 3578 4666 
L 3578 4134 
L 1259 4134 
L 1259 2753 
L 3481 2753 
L 3481 2222 
L 1259 2222 
L 1259 531 
L 3634 531 
L 3634 0 
L 628 0 
L 628 4666 
z
" transform="scale(0.015625)"/>
       <path id="DejaVuSans-4e" d="M 628 4666 
L 1478 4666 
L 3547 763 
L 3547 4666 
L 4159 4666 
L 4159 0 
L 3309 0 
L 1241 3903 
L 1241 0 
L 628 0 
L 628 4666 
z
" transform="scale(0.015625)"/>
       <path id="DejaVuSans-4f" d="M 2522 4238 
Q 1834 4238 1429 3725 
Q 1025 3213 1025 2328 
Q 1025 1447 1429 934 
Q 1834 422 2522 422 
Q 3209 422 3611 934 
Q 4013 1447 4013 2328 
Q 4013 3213 3611 3725 
Q 3209 4238 2522 4238 
z
M 2522 4750 
Q 3503 4750 4090 4092 
Q 4678 3434 4678 2328 
Q 4678 1225 4090 567 
Q 3503 -91 2522 -91 
Q 1538 -91 948 565 
Q 359 1222 359 2328 
Q 359 3434 948 4092 
Q 1538 4750 2522 4750 
z
" transform="scale(0.015625)"/>
       <path id="DejaVuSans-42" d="M 1259 2228 
L 1259 519 
L 2272 519 
Q 2781 519 3026 730 
Q 3272 941 3272 1375 
Q 3272 1813 3026 2020 
Q 2781 2228 2272 2228 
L 1259 2228 
z
M 1259 4147 
L 1259 2741 
L 2194 2741 
Q 2656 2741 2882 2914 
Q 3109 3088 3109 3444 
Q 3109 3797 2882 3972 
Q 2656 4147 2194 4147 
L 1259 4147 
z
M 628 4666 
L 2241 4666 
Q 2963 4666 3353 4366 
Q 3744 4066 3744 3513 
Q 3744 3084 3544 2831 
Q 3344 2578 2956 2516 
Q 3422 2416 3680 2098 
Q 3938 1781 3938 1306 
Q 3938 681 3513 340 
Q 3088 0 2303 0 
L 628 0 
L 628 4666 
z
" transform="scale(0.015625)"/>
       <path id="DejaVuSans-72" d="M 2631 2963 
Q 2534 3019 2420 3045 
Q 2306 3072 2169 3072 
Q 1681 3072 1420 2755 
Q 1159 2438 1159 1844 
L 1159 0 
L 581 0 
L 581 3500 
L 1159 3500 
L 1159 2956 
Q 1341 3275 1631 3429 
Q 1922 3584 2338 3584 
Q 2397 3584 2469 3576 
Q 2541 3569 2628 3553 
L 2631 2963 
z
" transform="scale(0.015625)"/>
       <path id="DejaVuSans-64" d="M 2906 2969 
L 2906 4863 
L 3481 4863 
L 3481 0 
L 2906 0 
L 2906 525 
Q 2725 213 2448 61 
Q 2172 -91 1784 -91 
Q 1150 -91 751 415 
Q 353 922 353 1747 
Q 353 2572 751 3078 
Q 1150 3584 1784 3584 
Q 2172 3584 2448 3432 
Q 2725 3281 2906 2969 
z
M 947 1747 
Q 947 1113 1208 752 
Q 1469 391 1925 391 
Q 2381 391 2643 752 
Q 2906 1113 2906 1747 
Q 2906 2381 2643 2742 
Q 2381 3103 1925 3103 
Q 1469 3103 1208 2742 
Q 947 2381 947 1747 
z
" transform="scale(0.015625)"/>
       <path id="DejaVuSans-75" d="M 544 1381 
L 544 3500 
L 1119 3500 
L 1119 1403 
Q 1119 906 1312 657 
Q 1506 409 1894 409 
Q 2359 409 2629 706 
Q 2900 1003 2900 1516 
L 2900 3500 
L 3475 3500 
L 3475 0 
L 2900 0 
L 2900 538 
Q 2691 219 2414 64 
Q 2138 -91 1772 -91 
Q 1169 -91 856 284 
Q 544 659 544 1381 
z
M 1991 3584 
L 1991 3584 
z
" transform="scale(0.015625)"/>
       <path id="DejaVuSans-62" d="M 3116 1747 
Q 3116 2381 2855 2742 
Q 2594 3103 2138 3103 
Q 1681 3103 1420 2742 
Q 1159 2381 1159 1747 
Q 1159 1113 1420 752 
Q 1681 391 2138 391 
Q 2594 391 2855 752 
Q 3116 1113 3116 1747 
z
M 1159 2969 
Q 1341 3281 1617 3432 
Q 1894 3584 2278 3584 
Q 2916 3584 3314 3078 
Q 3713 2572 3713 1747 
Q 3713 922 3314 415 
Q 2916 -91 2278 -91 
Q 1894 -91 1617 61 
Q 1341 213 1159 525 
L 1159 0 
L 581 0 
L 581 4863 
L 1159 4863 
L 1159 2969 
z
" transform="scale(0.015625)"/>
       <path id="DejaVuSans-79" d="M 2059 -325 
Q 1816 -950 1584 -1140 
Q 1353 -1331 966 -1331 
L 506 -1331 
L 506 -850 
L 844 -850 
Q 1081 -850 1212 -737 
Q 1344 -625 1503 -206 
L 1606 56 
L 191 3500 
L 800 3500 
L 1894 763 
L 2988 3500 
L 3597 3500 
L 2059 -325 
z
" transform="scale(0.015625)"/>
       <path id="DejaVuSans-73" d="M 2834 3397 
L 2834 2853 
Q 2591 2978 2328 3040 
Q 2066 3103 1784 3103 
Q 1356 3103 1142 2972 
Q 928 2841 928 2578 
Q 928 2378 1081 2264 
Q 1234 2150 1697 2047 
L 1894 2003 
Q 2506 1872 2764 1633 
Q 3022 1394 3022 966 
Q 3022 478 2636 193 
Q 2250 -91 1575 -91 
Q 1294 -91 989 -36 
Q 684 19 347 128 
L 347 722 
Q 666 556 975 473 
Q 1284 391 1588 391 
Q 1994 391 2212 530 
Q 2431 669 2431 922 
Q 2431 1156 2273 1281 
Q 2116 1406 1581 1522 
L 1381 1569 
Q 847 1681 609 1914 
Q 372 2147 372 2553 
Q 372 3047 722 3315 
Q 1072 3584 1716 3584 
Q 2034 3584 2315 3537 
Q 2597 3491 2834 3397 
z
" transform="scale(0.015625)"/>
       <path id="DejaVuSans-6d" d="M 3328 2828 
Q 3544 3216 3844 3400 
Q 4144 3584 4550 3584 
Q 5097 3584 5394 3201 
Q 5691 2819 5691 2113 
L 5691 0 
L 5113 0 
L 5113 2094 
Q 5113 2597 4934 2840 
Q 4756 3084 4391 3084 
Q 3944 3084 3684 2787 
Q 3425 2491 3425 1978 
L 3425 0 
L 2847 0 
L 2847 2094 
Q 2847 2600 2669 2842 
Q 2491 3084 2119 3084 
Q 1678 3084 1418 2786 
Q 1159 2488 1159 1978 
L 1159 0 
L 581 0 
L 581 3500 
L 1159 3500 
L 1159 2956 
Q 1356 3278 1631 3431 
Q 1906 3584 2284 3584 
Q 2666 3584 2933 3390 
Q 3200 3197 3328 2828 
z
" transform="scale(0.015625)"/>
       <path id="DejaVuSans-67" d="M 2906 1791 
Q 2906 2416 2648 2759 
Q 2391 3103 1925 3103 
Q 1463 3103 1205 2759 
Q 947 2416 947 1791 
Q 947 1169 1205 825 
Q 1463 481 1925 481 
Q 2391 481 2648 825 
Q 2906 1169 2906 1791 
z
M 3481 434 
Q 3481 -459 3084 -895 
Q 2688 -1331 1869 -1331 
Q 1566 -1331 1297 -1286 
Q 1028 -1241 775 -1147 
L 775 -588 
Q 1028 -725 1275 -790 
Q 1522 -856 1778 -856 
Q 2344 -856 2625 -561 
Q 2906 -266 2906 331 
L 2906 616 
Q 2728 306 2450 153 
Q 2172 0 1784 0 
Q 1141 0 747 490 
Q 353 981 353 1791 
Q 353 2603 747 3093 
Q 1141 3584 1784 3584 
Q 2172 3584 2450 3431 
Q 2728 3278 2906 2969 
L 2906 3500 
L 3481 3500 
L 3481 434 
z
" transform="scale(0.015625)"/>
      </defs>
      <use xlink:href="#DejaVuSans-45"/>
      <use xlink:href="#DejaVuSans-4e" transform="translate(63.183594 0)"/>
      <use xlink:href="#DejaVuSans-4f" transform="translate(137.988281 0)"/>
      <use xlink:href="#DejaVuSans-42" transform="translate(216.699219 0)"/>
      <use xlink:href="#DejaVuSans-20" transform="translate(285.302734 0)"/>
      <use xlink:href="#DejaVuSans-28" transform="translate(317.089844 0)"/>
      <use xlink:href="#DejaVuSans-72" transform="translate(356.103516 0)"/>
      <use xlink:href="#DejaVuSans-65" transform="translate(394.966797 0)"/>
      <use xlink:href="#DejaVuSans-64" transform="translate(456.490234 0)"/>
      <use xlink:href="#DejaVuSans-75" transform="translate(519.966797 0)"/>
      <use xlink:href="#DejaVuSans-63" transform="translate(583.345703 0)"/>
      <use xlink:href="#DejaVuSans-65" transform="translate(638.326172 0)"/>
      <use xlink:href="#DejaVuSans-64" transform="translate(699.849609 0)"/>
      <use xlink:href="#DejaVuSans-20" transform="translate(763.326172 0)"/>
      <use xlink:href="#DejaVuSans-62" transform="translate(795.113281 0)"/>
      <use xlink:href="#DejaVuSans-79" transform="translate(858.589844 0)"/>
      <use xlink:href="#DejaVuSans-20" transform="translate(917.769531 0)"/>
      <use xlink:href="#DejaVuSans-73" transform="translate(949.556641 0)"/>
      <use xlink:href="#DejaVuSans-61" transform="translate(1001.65625 0)"/>
      <use xlink:href="#DejaVuSans-6d" transform="translate(1062.935547 0)"/>
      <use xlink:href="#DejaVuSans-70" transform="translate(1160.347656 0)"/>
      <use xlink:href="#DejaVuSans-6c" transform="translate(1223.824219 0)"/>
      <use xlink:href="#DejaVuSans-69" transform="translate(1251.607422 0)"/>
      <use xlink:href="#DejaVuSans-6e" transform="translate(1279.390625 0)"/>
      <use xlink:href="#DejaVuSans-67" transform="translate(1342.769531 0)"/>
      <use xlink:href="#DejaVuSans-20" transform="translate(1406.246094 0)"/>
      <use xlink:href="#DejaVuSans-6e" transform="translate(1438.033203 0)"/>
      <use xlink:href="#DejaVuSans-6f" transform="translate(1501.412109 0)"/>
      <use xlink:href="#DejaVuSans-69" transform="translate(1562.59375 0)"/>
      <use xlink:href="#DejaVuSans-73" transform="translate(1590.376953 0)"/>
      <use xlink:href="#DejaVuSans-65" transform="translate(1642.476562 0)"/>
      <use xlink:href="#DejaVuSans-29" transform="translate(1704 0)"/>
     </g>
    </g>
   </g>
   <g id="line2d_53">
    <path d="M 73.86 211.258747 
L 77.468081 206.053685 
L 81.076162 200.949284 
L 84.684242 195.946245 
L 88.292323 191.045165 
L 91.900404 186.246533 
L 95.508485 181.550732 
L 99.116566 176.958035 
L 102.724646 172.468605 
L 106.332727 168.082492 
L 109.940808 163.799635 
L 113.548889 159.619861 
L 117.15697 155.542889 
L 120.765051 151.568324 
L 124.373131 147.695666 
L 127.981212 143.92431 
L 131.589293 140.253546 
L 135.197374 136.682564 
L 138.805455 133.210459 
L 142.413535 129.836231 
L 146.021616 126.558791 
L 149.629697 123.376967 
L 153.237778 120.289504 
L 156.845859 117.295074 
L 160.453939 114.392277 
L 164.06202 111.579647 
L 167.670101 108.85566 
L 171.278182 106.218735 
L 174.886263 103.667242 
L 178.494343 101.199505 
L 182.102424 98.813812 
L 185.710505 96.508415 
L 189.318586 94.281536 
L 192.926667 92.131377 
L 196.534747 90.056117 
L 200.142828 88.053924 
L 203.750909 86.122953 
L 207.35899 84.261358 
L 210.967071 82.467288 
L 214.575152 80.738897 
L 218.183232 79.074346 
L 221.791313 77.471803 
L 225.399394 75.929453 
L 229.007475 74.445496 
L 232.615556 73.01815 
L 236.223636 71.645657 
L 239.831717 70.326281 
L 243.439798 69.058313 
L 247.047879 67.840074 
L 250.65596 66.669913 
L 254.26404 65.546209 
L 257.872121 64.467378 
L 261.480202 63.431865 
L 265.088283 62.438154 
L 268.696364 61.484761 
L 272.304444 60.570241 
L 275.912525 59.693183 
L 279.520606 58.852215 
L 283.128687 58.046002 
L 286.736768 57.273245 
L 290.344848 56.532683 
L 293.952929 55.823092 
L 297.56101 55.143285 
L 301.169091 54.492112 
L 304.777172 53.868457 
L 308.385253 53.271243 
L 311.993333 52.699426 
L 315.601414 52.151998 
L 319.209495 51.627983 
L 322.817576 51.126441 
L 326.425657 50.646464 
L 330.033737 50.187174 
L 333.641818 49.747727 
L 337.249899 49.327308 
L 340.85798 48.925132 
L 344.466061 48.540445 
L 348.074141 48.172518 
L 351.682222 47.820652 
L 355.290303 47.484173 
L 358.898384 47.162433 
L 362.506465 46.854811 
L 366.114545 46.560707 
L 369.722626 46.279548 
L 373.330707 46.010782 
L 376.938788 45.753878 
L 380.546869 45.508328 
L 384.154949 45.273643 
L 387.76303 45.049357 
L 391.371111 44.835018 
L 394.979192 44.630197 
L 398.587273 44.43448 
L 402.195354 44.247472 
L 405.803434 44.068792 
L 409.411515 43.898077 
L 413.019596 43.73498 
L 416.627677 43.579165 
L 420.235758 43.430314 
L 423.843838 43.28812 
L 427.451919 43.15229 
L 431.06 43.022544 
" clip-path="url(#pa9af0fc1b7)" style="fill: none; stroke: #1f77b4; stroke-width: 1.5; stroke-linecap: square"/>
   </g>
   <g id="line2d_54">
    <defs>
     <path id="m8ebf973c61" d="M 0 3 
C 0.795609 3 1.55874 2.683901 2.12132 2.12132 
C 2.683901 1.55874 3 0.795609 3 0 
C 3 -0.795609 2.683901 -1.55874 2.12132 -2.12132 
C 1.55874 -2.683901 0.795609 -3 0 -3 
C -0.795609 -3 -1.55874 -2.683901 -2.12132 -2.12132 
C -2.683901 -1.55874 -3 -0.795609 -3 0 
C -3 0.795609 -2.683901 1.55874 -2.12132 2.12132 
C -1.55874 2.683901 -0.795609 3 0 3 
z
" style="stroke: #1f77b4"/>
    </defs>
    <g clip-path="url(#pa9af0fc1b7)">
     <use xlink:href="#m8ebf973c61" x="127.623957" y="144.293232" style="fill: #1f77b4; stroke: #1f77b4"/>
    </g>
   </g>
   <g id="line2d_55">
    <g clip-path="url(#pa9af0fc1b7)">
     <use xlink:href="#m8ebf973c61" x="198.696043" y="88.848115" style="fill: #1f77b4; stroke: #1f77b4"/>
    </g>
   </g>
   <g id="line2d_56">
    <g clip-path="url(#pa9af0fc1b7)">
     <use xlink:href="#m8ebf973c61" x="252.46" y="66.102354" style="fill: #1f77b4; stroke: #1f77b4"/>
    </g>
   </g>
   <g id="line2d_57">
    <g clip-path="url(#pa9af0fc1b7)">
     <use xlink:href="#m8ebf973c61" x="306.223957" y="53.625867" style="fill: #1f77b4; stroke: #1f77b4"/>
    </g>
   </g>
   <g id="line2d_58">
    <path d="M 73.86 283.545818 
L 77.468081 277.188893 
L 81.076162 270.91694 
L 84.684242 264.731604 
L 88.292323 258.634477 
L 91.900404 252.627103 
L 95.508485 246.710962 
L 99.116566 240.887474 
L 102.724646 235.157987 
L 106.332727 229.523776 
L 109.940808 223.986037 
L 113.548889 218.545884 
L 117.15697 213.204339 
L 120.765051 207.962336 
L 124.373131 202.820711 
L 127.981212 197.780202 
L 131.589293 192.841442 
L 135.197374 188.004963 
L 138.805455 183.271186 
L 142.413535 178.640426 
L 146.021616 174.112885 
L 149.629697 169.688656 
L 153.237778 165.367719 
L 156.845859 161.149941 
L 160.453939 157.035082 
L 164.06202 153.022787 
L 167.670101 149.112598 
L 171.278182 145.303945 
L 174.886263 141.596158 
L 178.494343 137.988463 
L 182.102424 134.479991 
L 185.710505 131.069774 
L 189.318586 127.756758 
L 192.926667 124.5398 
L 196.534747 121.417675 
L 200.142828 118.389081 
L 203.750909 115.452644 
L 207.35899 112.606923 
L 210.967071 109.850414 
L 214.575152 107.181556 
L 218.183232 104.598736 
L 221.791313 102.100297 
L 225.399394 99.684537 
L 229.007475 97.349721 
L 232.615556 95.094083 
L 236.223636 92.91583 
L 239.831717 90.81315 
L 243.439798 88.784214 
L 247.047879 86.827181 
L 250.65596 84.940207 
L 254.26404 83.121439 
L 257.872121 81.369032 
L 261.480202 79.681142 
L 265.088283 78.055934 
L 268.696364 76.491587 
L 272.304444 74.986295 
L 275.912525 73.538269 
L 279.520606 72.145742 
L 283.128687 70.80697 
L 286.736768 69.520233 
L 290.344848 68.283841 
L 293.952929 67.096133 
L 297.56101 65.955476 
L 301.169091 64.860272 
L 304.777172 63.808956 
L 308.385253 62.799997 
L 311.993333 61.8319 
L 315.601414 60.903204 
L 319.209495 60.012487 
L 322.817576 59.158362 
L 326.425657 58.339479 
L 330.033737 57.554528 
L 333.641818 56.802232 
L 337.249899 56.081355 
L 340.85798 55.390696 
L 344.466061 54.72909 
L 348.074141 54.095411 
L 351.682222 53.488565 
L 355.290303 52.907498 
L 358.898384 52.351187 
L 362.506465 51.818645 
L 366.114545 51.30892 
L 369.722626 50.82109 
L 373.330707 50.354268 
L 376.938788 49.907596 
L 380.546869 49.48025 
L 384.154949 49.071434 
L 387.76303 48.680381 
L 391.371111 48.306353 
L 394.979192 47.948641 
L 398.587273 47.606562 
L 402.195354 47.279458 
L 405.803434 46.966698 
L 409.411515 46.667675 
L 413.019596 46.381806 
L 416.627677 46.10853 
L 420.235758 45.84731 
L 423.843838 45.597629 
L 427.451919 45.358992 
L 431.06 45.130922 
" clip-path="url(#pa9af0fc1b7)" style="fill: none; stroke: #ff7f0e; stroke-width: 1.5; stroke-linecap: square"/>
   </g>
   <g id="line2d_59">
    <defs>
     <path id="m7704575d2d" d="M 0 3 
C 0.795609 3 1.55874 2.683901 2.12132 2.12132 
C 2.683901 1.55874 3 0.795609 3 0 
C 3 -0.795609 2.683901 -1.55874 2.12132 -2.12132 
C 1.55874 -2.683901 0.795609 -3 0 -3 
C -0.795609 -3 -1.55874 -2.683901 -2.12132 -2.12132 
C -2.683901 -1.55874 -3 -0.795609 -3 0 
C -3 0.795609 -2.683901 1.55874 -2.12132 2.12132 
C -1.55874 2.683901 -0.795609 3 0 3 
z
" style="stroke: #ff7f0e"/>
    </defs>
    <g clip-path="url(#pa9af0fc1b7)">
     <use xlink:href="#m7704575d2d" x="127.623957" y="198.27476" style="fill: #ff7f0e; stroke: #ff7f0e"/>
    </g>
   </g>
   <g id="line2d_60">
    <g clip-path="url(#pa9af0fc1b7)">
     <use xlink:href="#m7704575d2d" x="198.696043" y="119.592354" style="fill: #ff7f0e; stroke: #ff7f0e"/>
    </g>
   </g>
   <g id="line2d_61">
    <g clip-path="url(#pa9af0fc1b7)">
     <use xlink:href="#m7704575d2d" x="252.46" y="84.022413" style="fill: #ff7f0e; stroke: #ff7f0e"/>
    </g>
   </g>
   <g id="line2d_62">
    <g clip-path="url(#pa9af0fc1b7)">
     <use xlink:href="#m7704575d2d" x="306.223957" y="63.399377" style="fill: #ff7f0e; stroke: #ff7f0e"/>
    </g>
   </g>
   <g id="line2d_63">
    <path d="M 73.86 135.166941 
L 77.468081 131.737348 
L 81.076162 128.405171 
L 84.684242 125.169285 
L 88.292323 122.028481 
L 91.900404 118.981472 
L 95.508485 116.026898 
L 99.116566 113.16333 
L 102.724646 110.389276 
L 106.332727 107.703187 
L 109.940808 105.10346 
L 113.548889 102.588444 
L 117.15697 100.156448 
L 120.765051 97.805742 
L 124.373131 95.534565 
L 127.981212 93.341131 
L 131.589293 91.22363 
L 135.197374 89.180236 
L 138.805455 87.209112 
L 142.413535 85.30841 
L 146.021616 83.476283 
L 149.629697 81.710881 
L 153.237778 80.01036 
L 156.845859 78.372884 
L 160.453939 76.796629 
L 164.06202 75.279785 
L 167.670101 73.82056 
L 171.278182 72.417182 
L 174.886263 71.067901 
L 178.494343 69.770995 
L 182.102424 68.524767 
L 185.710505 67.327548 
L 189.318586 66.177701 
L 192.926667 65.073621 
L 196.534747 64.013737 
L 200.142828 62.99651 
L 203.750909 62.020438 
L 207.35899 61.084054 
L 210.967071 60.185927 
L 214.575152 59.324664 
L 218.183232 58.498908 
L 221.791313 57.707339 
L 225.399394 56.948676 
L 229.007475 56.221674 
L 232.615556 55.525124 
L 236.223636 54.857856 
L 239.831717 54.218733 
L 243.439798 53.606659 
L 247.047879 53.020569 
L 250.65596 52.459435 
L 254.26404 51.922263 
L 257.872121 51.408094 
L 261.480202 50.915999 
L 265.088283 50.445086 
L 268.696364 49.99449 
L 272.304444 49.563381 
L 275.912525 49.150957 
L 279.520606 48.756446 
L 283.128687 48.379104 
L 286.736768 48.018217 
L 290.344848 47.673094 
L 293.952929 47.343076 
L 297.56101 47.027525 
L 301.169091 46.725828 
L 304.777172 46.437399 
L 308.385253 46.161673 
L 311.993333 45.898107 
L 315.601414 45.646181 
L 319.209495 45.405395 
L 322.817576 45.17527 
L 326.425657 44.955345 
L 330.033737 44.74518 
L 333.641818 44.544351 
L 337.249899 44.352452 
L 340.85798 44.169096 
L 344.466061 43.99391 
L 348.074141 43.826535 
L 351.682222 43.666632 
L 355.290303 43.513871 
L 358.898384 43.367939 
L 362.506465 43.228536 
L 366.114545 43.095375 
L 369.722626 42.968179 
L 373.330707 42.846685 
L 376.938788 42.730641 
L 380.546869 42.619805 
L 384.154949 42.513948 
L 387.76303 42.412847 
L 391.371111 42.316291 
L 394.979192 42.224078 
L 398.587273 42.136015 
L 402.195354 42.051916 
L 405.803434 41.971606 
L 409.411515 41.894914 
L 413.019596 41.821679 
L 416.627677 41.751747 
L 420.235758 41.684969 
L 423.843838 41.621205 
L 427.451919 41.560319 
L 431.06 41.502182 
" clip-path="url(#pa9af0fc1b7)" style="fill: none; stroke: #2ca02c; stroke-width: 1.5; stroke-linecap: square"/>
   </g>
   <g id="line2d_64">
    <defs>
     <path id="m39f601108d" d="M 0 3 
C 0.795609 3 1.55874 2.683901 2.12132 2.12132 
C 2.683901 1.55874 3 0.795609 3 0 
C 3 -0.795609 2.683901 -1.55874 2.12132 -2.12132 
C 1.55874 -2.683901 0.795609 -3 0 -3 
C -0.795609 -3 -1.55874 -2.683901 -2.12132 -2.12132 
C -2.683901 -1.55874 -3 -0.795609 -3 0 
C -3 0.795609 -2.683901 1.55874 -2.12132 2.12132 
C -1.55874 2.683901 -0.795609 3 0 3 
z
" style="stroke: #2ca02c"/>
    </defs>
    <g clip-path="url(#pa9af0fc1b7)">
     <use xlink:href="#m39f601108d" x="127.623957" y="93.554898" style="fill: #2ca02c; stroke: #2ca02c"/>
    </g>
   </g>
   <g id="line2d_65">
    <g clip-path="url(#pa9af0fc1b7)">
     <use xlink:href="#m39f601108d" x="198.696043" y="63.399377" style="fill: #2ca02c; stroke: #2ca02c"/>
    </g>
   </g>
   <g id="line2d_66">
    <g clip-path="url(#pa9af0fc1b7)">
     <use xlink:href="#m39f601108d" x="252.46" y="52.187915" style="fill: #2ca02c; stroke: #2ca02c"/>
    </g>
   </g>
   <g id="line2d_67">
    <g clip-path="url(#pa9af0fc1b7)">
     <use xlink:href="#m39f601108d" x="306.223957" y="46.325343" style="fill: #2ca02c; stroke: #2ca02c"/>
    </g>
   </g>
   <g id="patch_3">
    <path d="M 56 295.648 
L 56 29.4 
" style="fill: none; stroke: #000000; stroke-width: 0.8; stroke-linejoin: miter; stroke-linecap: square"/>
   </g>
   <g id="patch_4">
    <path d="M 448.92 295.648 
L 448.92 29.4 
" style="fill: none; stroke: #000000; stroke-width: 0.8; stroke-linejoin: miter; stroke-linecap: square"/>
   </g>
   <g id="patch_5">
    <path d="M 56 295.648 
L 448.92 295.648 
" style="fill: none; stroke: #000000; stroke-width: 0.8; stroke-linejoin: miter; stroke-linecap: square"/>
   </g>
   <g id="patch_6">
    <path d="M 56 29.4 
L 448.92 29.4 
" style="fill: none; stroke: #000000; stroke-width: 0.8; stroke-linejoin: miter; stroke-linecap: square"/>
   </g>
   <g id="text_11">
    <!-- 11.61 -->
    <g transform="translate(132.623957 147.293232) scale(0.11 -0.11)">
     <use xlink:href="#DejaVuSans-31"/>
     <use xlink:href="#DejaVuSans-31" transform="translate(63.623047 0)"/>
     <use xlink:href="#DejaVuSans-2e" transform="translate(127.246094 0)"/>
     <use xlink:href="#DejaVuSans-36" transform="translate(159.033203 0)"/>
     <use xlink:href="#DejaVuSans-31" transform="translate(222.65625 0)"/>
    </g>
   </g>
   <g id="text_12">
    <!-- 11.82 -->
    <g transform="translate(203.696043 91.848115) scale(0.11 -0.11)">
     <use xlink:href="#DejaVuSans-31"/>
     <use xlink:href="#DejaVuSans-31" transform="translate(63.623047 0)"/>
     <use xlink:href="#DejaVuSans-2e" transform="translate(127.246094 0)"/>
     <use xlink:href="#DejaVuSans-38" transform="translate(159.033203 0)"/>
     <use xlink:href="#DejaVuSans-32" transform="translate(222.65625 0)"/>
    </g>
   </g>
   <g id="text_13">
    <!-- 11.90 -->
    <g transform="translate(257.46 69.102354) scale(0.11 -0.11)">
     <defs>
      <path id="DejaVuSans-39" d="M 703 97 
L 703 672 
Q 941 559 1184 500 
Q 1428 441 1663 441 
Q 2288 441 2617 861 
Q 2947 1281 2994 2138 
Q 2813 1869 2534 1725 
Q 2256 1581 1919 1581 
Q 1219 1581 811 2004 
Q 403 2428 403 3163 
Q 403 3881 828 4315 
Q 1253 4750 1959 4750 
Q 2769 4750 3195 4129 
Q 3622 3509 3622 2328 
Q 3622 1225 3098 567 
Q 2575 -91 1691 -91 
Q 1453 -91 1209 -44 
Q 966 3 703 97 
z
M 1959 2075 
Q 2384 2075 2632 2365 
Q 2881 2656 2881 3163 
Q 2881 3666 2632 3958 
Q 2384 4250 1959 4250 
Q 1534 4250 1286 3958 
Q 1038 3666 1038 3163 
Q 1038 2656 1286 2365 
Q 1534 2075 1959 2075 
z
" transform="scale(0.015625)"/>
     </defs>
     <use xlink:href="#DejaVuSans-31"/>
     <use xlink:href="#DejaVuSans-31" transform="translate(63.623047 0)"/>
     <use xlink:href="#DejaVuSans-2e" transform="translate(127.246094 0)"/>
     <use xlink:href="#DejaVuSans-39" transform="translate(159.033203 0)"/>
     <use xlink:href="#DejaVuSans-30" transform="translate(222.65625 0)"/>
    </g>
   </g>
   <g id="text_14">
    <!-- 11.95 -->
    <g transform="translate(311.223957 56.625867) scale(0.11 -0.11)">
     <defs>
      <path id="DejaVuSans-35" d="M 691 4666 
L 3169 4666 
L 3169 4134 
L 1269 4134 
L 1269 2991 
Q 1406 3038 1543 3061 
Q 1681 3084 1819 3084 
Q 2600 3084 3056 2656 
Q 3513 2228 3513 1497 
Q 3513 744 3044 326 
Q 2575 -91 1722 -91 
Q 1428 -91 1123 -41 
Q 819 9 494 109 
L 494 744 
Q 775 591 1075 516 
Q 1375 441 1709 441 
Q 2250 441 2565 725 
Q 2881 1009 2881 1497 
Q 2881 1984 2565 2268 
Q 2250 2553 1709 2553 
Q 1456 2553 1204 2497 
Q 953 2441 691 2322 
L 691 4666 
z
" transform="scale(0.015625)"/>
     </defs>
     <use xlink:href="#DejaVuSans-31"/>
     <use xlink:href="#DejaVuSans-31" transform="translate(63.623047 0)"/>
     <use xlink:href="#DejaVuSans-2e" transform="translate(127.246094 0)"/>
     <use xlink:href="#DejaVuSans-39" transform="translate(159.033203 0)"/>
     <use xlink:href="#DejaVuSans-35" transform="translate(222.65625 0)"/>
    </g>
   </g>
   <g id="text_15">
    <!-- 11.40 -->
    <g transform="translate(132.623957 201.27476) scale(0.11 -0.11)">
     <use xlink:href="#DejaVuSans-31"/>
     <use xlink:href="#DejaVuSans-31" transform="translate(63.623047 0)"/>
     <use xlink:href="#DejaVuSans-2e" transform="translate(127.246094 0)"/>
     <use xlink:href="#DejaVuSans-34" transform="translate(159.033203 0)"/>
     <use xlink:href="#DejaVuSans-30" transform="translate(222.65625 0)"/>
    </g>
   </g>
   <g id="text_16">
    <!-- 11.70 -->
    <g transform="translate(203.696043 122.592354) scale(0.11 -0.11)">
     <defs>
      <path id="DejaVuSans-37" d="M 525 4666 
L 3525 4666 
L 3525 4397 
L 1831 0 
L 1172 0 
L 2766 4134 
L 525 4134 
L 525 4666 
z
" transform="scale(0.015625)"/>
     </defs>
     <use xlink:href="#DejaVuSans-31"/>
     <use xlink:href="#DejaVuSans-31" transform="translate(63.623047 0)"/>
     <use xlink:href="#DejaVuSans-2e" transform="translate(127.246094 0)"/>
     <use xlink:href="#DejaVuSans-37" transform="translate(159.033203 0)"/>
     <use xlink:href="#DejaVuSans-30" transform="translate(222.65625 0)"/>
    </g>
   </g>
   <g id="text_17">
    <!-- 11.84 -->
    <g transform="translate(257.46 87.022413) scale(0.11 -0.11)">
     <use xlink:href="#DejaVuSans-31"/>
     <use xlink:href="#DejaVuSans-31" transform="translate(63.623047 0)"/>
     <use xlink:href="#DejaVuSans-2e" transform="translate(127.246094 0)"/>
     <use xlink:href="#DejaVuSans-38" transform="translate(159.033203 0)"/>
     <use xlink:href="#DejaVuSans-34" transform="translate(222.65625 0)"/>
    </g>
   </g>
   <g id="text_18">
    <!-- 11.91 -->
    <g transform="translate(311.223957 66.399377) scale(0.11 -0.11)">
     <use xlink:href="#DejaVuSans-31"/>
     <use xlink:href="#DejaVuSans-31" transform="translate(63.623047 0)"/>
     <use xlink:href="#DejaVuSans-2e" transform="translate(127.246094 0)"/>
     <use xlink:href="#DejaVuSans-39" transform="translate(159.033203 0)"/>
     <use xlink:href="#DejaVuSans-31" transform="translate(222.65625 0)"/>
    </g>
   </g>
   <g id="text_19">
    <!-- 11.80 -->
    <g transform="translate(132.623957 96.554898) scale(0.11 -0.11)">
     <use xlink:href="#DejaVuSans-31"/>
     <use xlink:href="#DejaVuSans-31" transform="translate(63.623047 0)"/>
     <use xlink:href="#DejaVuSans-2e" transform="translate(127.246094 0)"/>
     <use xlink:href="#DejaVuSans-38" transform="translate(159.033203 0)"/>
     <use xlink:href="#DejaVuSans-30" transform="translate(222.65625 0)"/>
    </g>
   </g>
   <g id="text_20">
    <!-- 11.91 -->
    <g transform="translate(203.696043 66.399377) scale(0.11 -0.11)">
     <use xlink:href="#DejaVuSans-31"/>
     <use xlink:href="#DejaVuSans-31" transform="translate(63.623047 0)"/>
     <use xlink:href="#DejaVuSans-2e" transform="translate(127.246094 0)"/>
     <use xlink:href="#DejaVuSans-39" transform="translate(159.033203 0)"/>
     <use xlink:href="#DejaVuSans-31" transform="translate(222.65625 0)"/>
    </g>
   </g>
   <g id="text_21">
    <!-- 11.96 -->
    <g transform="translate(257.46 55.187915) scale(0.11 -0.11)">
     <use xlink:href="#DejaVuSans-31"/>
     <use xlink:href="#DejaVuSans-31" transform="translate(63.623047 0)"/>
     <use xlink:href="#DejaVuSans-2e" transform="translate(127.246094 0)"/>
     <use xlink:href="#DejaVuSans-39" transform="translate(159.033203 0)"/>
     <use xlink:href="#DejaVuSans-36" transform="translate(222.65625 0)"/>
    </g>
   </g>
   <g id="text_22">
    <!-- 11.98 -->
    <g transform="translate(311.223957 49.325343) scale(0.11 -0.11)">
     <use xlink:href="#DejaVuSans-31"/>
     <use xlink:href="#DejaVuSans-31" transform="translate(63.623047 0)"/>
     <use xlink:href="#DejaVuSans-2e" transform="translate(127.246094 0)"/>
     <use xlink:href="#DejaVuSans-39" transform="translate(159.033203 0)"/>
     <use xlink:href="#DejaVuSans-38" transform="translate(222.65625 0)"/>
    </g>
   </g>
   <g id="text_23">
    <!-- Degradation of ENOB vs. Sampling Capacitance ($N_{\mathrm{bits}}=12$) -->
    <g transform="translate(75.04 23.4) scale(0.12 -0.12)">
     <defs>
      <path id="DejaVuSans-44" d="M 1259 4147 
L 1259 519 
L 2022 519 
Q 2988 519 3436 956 
Q 3884 1394 3884 2338 
Q 3884 3275 3436 3711 
Q 2988 4147 2022 4147 
L 1259 4147 
z
M 628 4666 
L 1925 4666 
Q 3281 4666 3915 4102 
Q 4550 3538 4550 2338 
Q 4550 1131 3912 565 
Q 3275 0 1925 0 
L 628 0 
L 628 4666 
z
" transform="scale(0.015625)"/>
      <path id="DejaVuSans-76" d="M 191 3500 
L 800 3500 
L 1894 563 
L 2988 3500 
L 3597 3500 
L 2284 0 
L 1503 0 
L 191 3500 
z
" transform="scale(0.015625)"/>
      <path id="DejaVuSans-53" d="M 3425 4513 
L 3425 3897 
Q 3066 4069 2747 4153 
Q 2428 4238 2131 4238 
Q 1616 4238 1336 4038 
Q 1056 3838 1056 3469 
Q 1056 3159 1242 3001 
Q 1428 2844 1947 2747 
L 2328 2669 
Q 3034 2534 3370 2195 
Q 3706 1856 3706 1288 
Q 3706 609 3251 259 
Q 2797 -91 1919 -91 
Q 1588 -91 1214 -16 
Q 841 59 441 206 
L 441 856 
Q 825 641 1194 531 
Q 1563 422 1919 422 
Q 2459 422 2753 634 
Q 3047 847 3047 1241 
Q 3047 1584 2836 1778 
Q 2625 1972 2144 2069 
L 1759 2144 
Q 1053 2284 737 2584 
Q 422 2884 422 3419 
Q 422 4038 858 4394 
Q 1294 4750 2059 4750 
Q 2388 4750 2728 4690 
Q 3069 4631 3425 4513 
z
" transform="scale(0.015625)"/>
      <path id="DejaVuSans-Oblique-4e" d="M 1081 4666 
L 1931 4666 
L 3219 666 
L 4000 4666 
L 4616 4666 
L 3706 0 
L 2853 0 
L 1569 4025 
L 788 0 
L 172 0 
L 1081 4666 
z
" transform="scale(0.015625)"/>
      <path id="DejaVuSans-3d" d="M 678 2906 
L 4684 2906 
L 4684 2381 
L 678 2381 
L 678 2906 
z
M 678 1631 
L 4684 1631 
L 4684 1100 
L 678 1100 
L 678 1631 
z
" transform="scale(0.015625)"/>
     </defs>
     <use xlink:href="#DejaVuSans-44" transform="translate(0 0.015625)"/>
     <use xlink:href="#DejaVuSans-65" transform="translate(77.001953 0.015625)"/>
     <use xlink:href="#DejaVuSans-67" transform="translate(138.525391 0.015625)"/>
     <use xlink:href="#DejaVuSans-72" transform="translate(202.001953 0.015625)"/>
     <use xlink:href="#DejaVuSans-61" transform="translate(243.115234 0.015625)"/>
     <use xlink:href="#DejaVuSans-64" transform="translate(304.394531 0.015625)"/>
     <use xlink:href="#DejaVuSans-61" transform="translate(367.871094 0.015625)"/>
     <use xlink:href="#DejaVuSans-74" transform="translate(429.150391 0.015625)"/>
     <use xlink:href="#DejaVuSans-69" transform="translate(468.359375 0.015625)"/>
     <use xlink:href="#DejaVuSans-6f" transform="translate(496.142578 0.015625)"/>
     <use xlink:href="#DejaVuSans-6e" transform="translate(557.324219 0.015625)"/>
     <use xlink:href="#DejaVuSans-20" transform="translate(620.703125 0.015625)"/>
     <use xlink:href="#DejaVuSans-6f" transform="translate(652.490234 0.015625)"/>
     <use xlink:href="#DejaVuSans-66" transform="translate(713.671875 0.015625)"/>
     <use xlink:href="#DejaVuSans-20" transform="translate(748.876953 0.015625)"/>
     <use xlink:href="#DejaVuSans-45" transform="translate(780.664062 0.015625)"/>
     <use xlink:href="#DejaVuSans-4e" transform="translate(843.847656 0.015625)"/>
     <use xlink:href="#DejaVuSans-4f" transform="translate(918.652344 0.015625)"/>
     <use xlink:href="#DejaVuSans-42" transform="translate(997.363281 0.015625)"/>
     <use xlink:href="#DejaVuSans-20" transform="translate(1065.966797 0.015625)"/>
     <use xlink:href="#DejaVuSans-76" transform="translate(1097.753906 0.015625)"/>
     <use xlink:href="#DejaVuSans-73" transform="translate(1156.933594 0.015625)"/>
     <use xlink:href="#DejaVuSans-2e" transform="translate(1209.033203 0.015625)"/>
     <use xlink:href="#DejaVuSans-20" transform="translate(1240.820312 0.015625)"/>
     <use xlink:href="#DejaVuSans-53" transform="translate(1272.607422 0.015625)"/>
     <use xlink:href="#DejaVuSans-61" transform="translate(1336.083984 0.015625)"/>
     <use xlink:href="#DejaVuSans-6d" transform="translate(1397.363281 0.015625)"/>
     <use xlink:href="#DejaVuSans-70" transform="translate(1494.775391 0.015625)"/>
     <use xlink:href="#DejaVuSans-6c" transform="translate(1558.251953 0.015625)"/>
     <use xlink:href="#DejaVuSans-69" transform="translate(1586.035156 0.015625)"/>
     <use xlink:href="#DejaVuSans-6e" transform="translate(1613.818359 0.015625)"/>
     <use xlink:href="#DejaVuSans-67" transform="translate(1677.197266 0.015625)"/>
     <use xlink:href="#DejaVuSans-20" transform="translate(1740.673828 0.015625)"/>
     <use xlink:href="#DejaVuSans-43" transform="translate(1772.460938 0.015625)"/>
     <use xlink:href="#DejaVuSans-61" transform="translate(1842.285156 0.015625)"/>
     <use xlink:href="#DejaVuSans-70" transform="translate(1903.564453 0.015625)"/>
     <use xlink:href="#DejaVuSans-61" transform="translate(1967.041016 0.015625)"/>
     <use xlink:href="#DejaVuSans-63" transform="translate(2028.320312 0.015625)"/>
     <use xlink:href="#DejaVuSans-69" transform="translate(2083.300781 0.015625)"/>
     <use xlink:href="#DejaVuSans-74" transform="translate(2111.083984 0.015625)"/>
     <use xlink:href="#DejaVuSans-61" transform="translate(2150.292969 0.015625)"/>
     <use xlink:href="#DejaVuSans-6e" transform="translate(2211.572266 0.015625)"/>
     <use xlink:href="#DejaVuSans-63" transform="translate(2274.951172 0.015625)"/>
     <use xlink:href="#DejaVuSans-65" transform="translate(2329.931641 0.015625)"/>
     <use xlink:href="#DejaVuSans-20" transform="translate(2391.455078 0.015625)"/>
     <use xlink:href="#DejaVuSans-28" transform="translate(2423.242188 0.015625)"/>
     <use xlink:href="#DejaVuSans-Oblique-4e" transform="translate(2462.255859 0.015625)"/>
     <use xlink:href="#DejaVuSans-62" transform="translate(2537.060547 -16.390625) scale(0.7)"/>
     <use xlink:href="#DejaVuSans-69" transform="translate(2581.494141 -16.390625) scale(0.7)"/>
     <use xlink:href="#DejaVuSans-74" transform="translate(2600.942383 -16.390625) scale(0.7)"/>
     <use xlink:href="#DejaVuSans-73" transform="translate(2628.388672 -16.390625) scale(0.7)"/>
     <use xlink:href="#DejaVuSans-3d" transform="translate(2687.075195 0.015625)"/>
     <use xlink:href="#DejaVuSans-31" transform="translate(2790.34668 0.015625)"/>
     <use xlink:href="#DejaVuSans-32" transform="translate(2853.969727 0.015625)"/>
     <use xlink:href="#DejaVuSans-29" transform="translate(2917.592773 0.015625)"/>
    </g>
   </g>
   <g id="legend_1">
    <g id="patch_7">
     <path d="M 348.862188 290.648 
L 441.92 290.648 
Q 443.92 290.648 443.92 288.648 
L 443.92 245.613625 
Q 443.92 243.613625 441.92 243.613625 
L 348.862188 243.613625 
Q 346.862188 243.613625 346.862188 245.613625 
L 346.862188 288.648 
Q 346.862188 290.648 348.862188 290.648 
z
" style="fill: #ffffff; opacity: 0.8; stroke: #cccccc; stroke-linejoin: miter"/>
    </g>
    <g id="line2d_68">
     <path d="M 350.862188 251.712062 
L 360.862188 251.712062 
L 370.862188 251.712062 
" style="fill: none; stroke: #1f77b4; stroke-width: 1.5; stroke-linecap: square"/>
    </g>
    <g id="text_24">
     <!-- Vref = 1.2 V -->
     <g transform="translate(378.862188 255.212062) scale(0.1 -0.1)">
      <defs>
       <path id="DejaVuSans-56" d="M 1831 0 
L 50 4666 
L 709 4666 
L 2188 738 
L 3669 4666 
L 4325 4666 
L 2547 0 
L 1831 0 
z
" transform="scale(0.015625)"/>
      </defs>
      <use xlink:href="#DejaVuSans-56"/>
      <use xlink:href="#DejaVuSans-72" transform="translate(68.408203 0)"/>
      <use xlink:href="#DejaVuSans-65" transform="translate(107.271484 0)"/>
      <use xlink:href="#DejaVuSans-66" transform="translate(168.794922 0)"/>
      <use xlink:href="#DejaVuSans-20" transform="translate(204 0)"/>
      <use xlink:href="#DejaVuSans-3d" transform="translate(235.787109 0)"/>
      <use xlink:href="#DejaVuSans-20" transform="translate(319.576172 0)"/>
      <use xlink:href="#DejaVuSans-31" transform="translate(351.363281 0)"/>
      <use xlink:href="#DejaVuSans-2e" transform="translate(414.986328 0)"/>
      <use xlink:href="#DejaVuSans-32" transform="translate(446.773438 0)"/>
      <use xlink:href="#DejaVuSans-20" transform="translate(510.396484 0)"/>
      <use xlink:href="#DejaVuSans-56" transform="translate(542.183594 0)"/>
     </g>
    </g>
    <g id="line2d_69">
     <path d="M 350.862188 266.390187 
L 360.862188 266.390187 
L 370.862188 266.390187 
" style="fill: none; stroke: #ff7f0e; stroke-width: 1.5; stroke-linecap: square"/>
    </g>
    <g id="text_25">
     <!-- Vref = 0.9 V -->
     <g transform="translate(378.862188 269.890187) scale(0.1 -0.1)">
      <use xlink:href="#DejaVuSans-56"/>
      <use xlink:href="#DejaVuSans-72" transform="translate(68.408203 0)"/>
      <use xlink:href="#DejaVuSans-65" transform="translate(107.271484 0)"/>
      <use xlink:href="#DejaVuSans-66" transform="translate(168.794922 0)"/>
      <use xlink:href="#DejaVuSans-20" transform="translate(204 0)"/>
      <use xlink:href="#DejaVuSans-3d" transform="translate(235.787109 0)"/>
      <use xlink:href="#DejaVuSans-20" transform="translate(319.576172 0)"/>
      <use xlink:href="#DejaVuSans-30" transform="translate(351.363281 0)"/>
      <use xlink:href="#DejaVuSans-2e" transform="translate(414.986328 0)"/>
      <use xlink:href="#DejaVuSans-39" transform="translate(446.773438 0)"/>
      <use xlink:href="#DejaVuSans-20" transform="translate(510.396484 0)"/>
      <use xlink:href="#DejaVuSans-56" transform="translate(542.183594 0)"/>
     </g>
    </g>
    <g id="line2d_70">
     <path d="M 350.862188 281.068312 
L 360.862188 281.068312 
L 370.862188 281.068312 
" style="fill: none; stroke: #2ca02c; stroke-width: 1.5; stroke-linecap: square"/>
    </g>
    <g id="text_26">
     <!-- Vref = 1.8 V -->
     <g transform="translate(378.862188 284.568312) scale(0.1 -0.1)">
      <use xlink:href="#DejaVuSans-56"/>
      <use xlink:href="#DejaVuSans-72" transform="translate(68.408203 0)"/>
      <use xlink:href="#DejaVuSans-65" transform="translate(107.271484 0)"/>
      <use xlink:href="#DejaVuSans-66" transform="translate(168.794922 0)"/>
      <use xlink:href="#DejaVuSans-20" transform="translate(204 0)"/>
      <use xlink:href="#DejaVuSans-3d" transform="translate(235.787109 0)"/>
      <use xlink:href="#DejaVuSans-20" transform="translate(319.576172 0)"/>
      <use xlink:href="#DejaVuSans-31" transform="translate(351.363281 0)"/>
      <use xlink:href="#DejaVuSans-2e" transform="translate(414.986328 0)"/>
      <use xlink:href="#DejaVuSans-38" transform="translate(446.773438 0)"/>
      <use xlink:href="#DejaVuSans-20" transform="translate(510.396484 0)"/>
      <use xlink:href="#DejaVuSans-56" transform="translate(542.183594 0)"/>
     </g>
    </g>
   </g>
  </g>
 </g>
 <defs>
  <clipPath id="pa9af0fc1b7">
   <rect x="56" y="29.4" width="392.92" height="266.248"/>
  </clipPath>
 </defs>
</svg>
