<?xml version="1.0" encoding="utf-8" standalone="no"?>
<!DOCTYPE svg PUBLIC "-//W3C//DTD SVG 1.1//EN"
  "http://www.w3.org/Graphics/SVG/1.1/DTD/svg11.dtd">
<svg xmlns:xlink="http://www.w3.org/1999/xlink" width="460.8pt" height="345.6pt" viewBox="0 0 460.8 345.6" xmlns="http://www.w3.org/2000/svg" version="1.1">
 <metadata>
  <rdf:RDF xmlns:dc="http://purl.org/dc/elements/1.1/" xmlns:cc="http://creativecommons.org/ns#" xmlns:rdf="http://www.w3.org/1999/02/22-rdf-syntax-ns#">
   <cc:Work>
    <dc:type rdf:resource="http://purl.org/dc/dcmitype/StillImage"/>
    <dc:date>2025-08-08T13:31:55.544729</dc:date>
    <dc:format>image/svg+xml</dc:format>
    <dc:creator>
     <cc:Agent>
      <dc:title>Matplotlib v3.10.3, https://matplotlib.org/</dc:title>
     </cc:Agent>
    </dc:creator>
   </cc:Work>
  </rdf:RDF>
 </metadata>
 <defs>
  <style type="text/css">*{stroke-linejoin: round; stroke-linecap: butt}</style>
 </defs>
 <g id="figure_1">
  <g id="patch_1">
   <path d="M 0 345.6 
L 460.8 345.6 
L 460.8 0 
L 0 0 
z
" style="fill: #ffffff"/>
  </g>
  <g id="axes_1">
   <g id="patch_2">
    <path d="M 46.37 295.648 
L 448.92 295.648 
L 448.92 29.4 
L 46.37 29.4 
z
" style="fill: #ffffff"/>
   </g>
   <g id="matplotlib.axis_1">
    <g id="xtick_1">
     <g id="line2d_1">
      <path d="M 64.667727 295.648 
L 64.667727 29.4 
" clip-path="url(#p9bf04dd70a)" style="fill: none; stroke-dasharray: 2.96,1.28; stroke-dashoffset: 0; stroke: #b0b0b0; stroke-opacity: 0.5; stroke-width: 0.8"/>
     </g>
     <g id="line2d_2">
      <defs>
       <path id="mbf272b5c45" d="M 0 0 
L 0 3.5 
" style="stroke: #000000; stroke-width: 0.8"/>
      </defs>
      <g>
       <use xlink:href="#mbf272b5c45" x="64.667727" y="295.648" style="stroke: #000000; stroke-width: 0.8"/>
      </g>
     </g>
     <g id="text_1">
      <!-- $\mathdefault{10^{2}}$ -->
      <g transform="translate(55.867727 310.246437) scale(0.1 -0.1)">
       <defs>
        <path id="DejaVuSans-31" d="M 794 531 
L 1825 531 
L 1825 4091 
L 703 3866 
L 703 4441 
L 1819 4666 
L 2450 4666 
L 2450 531 
L 3481 531 
L 3481 0 
L 794 0 
L 794 531 
z
" transform="scale(0.015625)"/>
        <path id="DejaVuSans-30" d="M 2034 4250 
Q 1547 4250 1301 3770 
Q 1056 3291 1056 2328 
Q 1056 1369 1301 889 
Q 1547 409 2034 409 
Q 2525 409 2770 889 
Q 3016 1369 3016 2328 
Q 3016 3291 2770 3770 
Q 2525 4250 2034 4250 
z
M 2034 4750 
Q 2819 4750 3233 4129 
Q 3647 3509 3647 2328 
Q 3647 1150 3233 529 
Q 2819 -91 2034 -91 
Q 1250 -91 836 529 
Q 422 1150 422 2328 
Q 422 3509 836 4129 
Q 1250 4750 2034 4750 
z
" transform="scale(0.015625)"/>
        <path id="DejaVuSans-32" d="M 1228 531 
L 3431 531 
L 3431 0 
L 469 0 
L 469 531 
Q 828 903 1448 1529 
Q 2069 2156 2228 2338 
Q 2531 2678 2651 2914 
Q 2772 3150 2772 3378 
Q 2772 3750 2511 3984 
Q 2250 4219 1831 4219 
Q 1534 4219 1204 4116 
Q 875 4013 500 3803 
L 500 4441 
Q 881 4594 1212 4672 
Q 1544 4750 1819 4750 
Q 2544 4750 2975 4387 
Q 3406 4025 3406 3419 
Q 3406 3131 3298 2873 
Q 3191 2616 2906 2266 
Q 2828 2175 2409 1742 
Q 1991 1309 1228 531 
z
" transform="scale(0.015625)"/>
       </defs>
       <use xlink:href="#DejaVuSans-31" transform="translate(0 0.765625)"/>
       <use xlink:href="#DejaVuSans-30" transform="translate(63.623047 0.765625)"/>
       <use xlink:href="#DejaVuSans-32" transform="translate(128.203125 39.046875) scale(0.7)"/>
      </g>
     </g>
    </g>
    <g id="xtick_2">
     <g id="line2d_3">
      <path d="M 247.645 295.648 
L 247.645 29.4 
" clip-path="url(#p9bf04dd70a)" style="fill: none; stroke-dasharray: 2.96,1.28; stroke-dashoffset: 0; stroke: #b0b0b0; stroke-opacity: 0.5; stroke-width: 0.8"/>
     </g>
     <g id="line2d_4">
      <g>
       <use xlink:href="#mbf272b5c45" x="247.645" y="295.648" style="stroke: #000000; stroke-width: 0.8"/>
      </g>
     </g>
     <g id="text_2">
      <!-- $\mathdefault{10^{3}}$ -->
      <g transform="translate(238.845 310.246437) scale(0.1 -0.1)">
       <defs>
        <path id="DejaVuSans-33" d="M 2597 2516 
Q 3050 2419 3304 2112 
Q 3559 1806 3559 1356 
Q 3559 666 3084 287 
Q 2609 -91 1734 -91 
Q 1441 -91 1130 -33 
Q 819 25 488 141 
L 488 750 
Q 750 597 1062 519 
Q 1375 441 1716 441 
Q 2309 441 2620 675 
Q 2931 909 2931 1356 
Q 2931 1769 2642 2001 
Q 2353 2234 1838 2234 
L 1294 2234 
L 1294 2753 
L 1863 2753 
Q 2328 2753 2575 2939 
Q 2822 3125 2822 3475 
Q 2822 3834 2567 4026 
Q 2313 4219 1838 4219 
Q 1578 4219 1281 4162 
Q 984 4106 628 3988 
L 628 4550 
Q 988 4650 1302 4700 
Q 1616 4750 1894 4750 
Q 2613 4750 3031 4423 
Q 3450 4097 3450 3541 
Q 3450 3153 3228 2886 
Q 3006 2619 2597 2516 
z
" transform="scale(0.015625)"/>
       </defs>
       <use xlink:href="#DejaVuSans-31" transform="translate(0 0.765625)"/>
       <use xlink:href="#DejaVuSans-30" transform="translate(63.623047 0.765625)"/>
       <use xlink:href="#DejaVuSans-33" transform="translate(128.203125 39.046875) scale(0.7)"/>
      </g>
     </g>
    </g>
    <g id="xtick_3">
     <g id="line2d_5">
      <path d="M 430.622273 295.648 
L 430.622273 29.4 
" clip-path="url(#p9bf04dd70a)" style="fill: none; stroke-dasharray: 2.96,1.28; stroke-dashoffset: 0; stroke: #b0b0b0; stroke-opacity: 0.5; stroke-width: 0.8"/>
     </g>
     <g id="line2d_6">
      <g>
       <use xlink:href="#mbf272b5c45" x="430.622273" y="295.648" style="stroke: #000000; stroke-width: 0.8"/>
      </g>
     </g>
     <g id="text_3">
      <!-- $\mathdefault{10^{4}}$ -->
      <g transform="translate(421.822273 310.246437) scale(0.1 -0.1)">
       <defs>
        <path id="DejaVuSans-34" d="M 2419 4116 
L 825 1625 
L 2419 1625 
L 2419 4116 
z
M 2253 4666 
L 3047 4666 
L 3047 1625 
L 3713 1625 
L 3713 1100 
L 3047 1100 
L 3047 0 
L 2419 0 
L 2419 1100 
L 313 1100 
L 313 1709 
L 2253 4666 
z
" transform="scale(0.015625)"/>
       </defs>
       <use xlink:href="#DejaVuSans-31" transform="translate(0 0.684375)"/>
       <use xlink:href="#DejaVuSans-30" transform="translate(63.623047 0.684375)"/>
       <use xlink:href="#DejaVuSans-34" transform="translate(128.203125 38.965625) scale(0.7)"/>
      </g>
     </g>
    </g>
    <g id="xtick_4">
     <g id="line2d_7">
      <path d="M 46.935397 295.648 
L 46.935397 29.4 
" clip-path="url(#p9bf04dd70a)" style="fill: none; stroke-dasharray: 2.96,1.28; stroke-dashoffset: 0; stroke: #b0b0b0; stroke-opacity: 0.5; stroke-width: 0.8"/>
     </g>
     <g id="line2d_8">
      <defs>
       <path id="m5e2f20c1f5" d="M 0 0 
L 0 2 
" style="stroke: #000000; stroke-width: 0.6"/>
      </defs>
      <g>
       <use xlink:href="#m5e2f20c1f5" x="46.935397" y="295.648" style="stroke: #000000; stroke-width: 0.6"/>
      </g>
     </g>
    </g>
    <g id="xtick_5">
     <g id="line2d_9">
      <path d="M 56.295146 295.648 
L 56.295146 29.4 
" clip-path="url(#p9bf04dd70a)" style="fill: none; stroke-dasharray: 2.96,1.28; stroke-dashoffset: 0; stroke: #b0b0b0; stroke-opacity: 0.5; stroke-width: 0.8"/>
     </g>
     <g id="line2d_10">
      <g>
       <use xlink:href="#m5e2f20c1f5" x="56.295146" y="295.648" style="stroke: #000000; stroke-width: 0.6"/>
      </g>
     </g>
    </g>
    <g id="xtick_6">
     <g id="line2d_11">
      <path d="M 119.749375 295.648 
L 119.749375 29.4 
" clip-path="url(#p9bf04dd70a)" style="fill: none; stroke-dasharray: 2.96,1.28; stroke-dashoffset: 0; stroke: #b0b0b0; stroke-opacity: 0.5; stroke-width: 0.8"/>
     </g>
     <g id="line2d_12">
      <g>
       <use xlink:href="#m5e2f20c1f5" x="119.749375" y="295.648" style="stroke: #000000; stroke-width: 0.6"/>
      </g>
     </g>
    </g>
    <g id="xtick_7">
     <g id="line2d_13">
      <path d="M 151.970073 295.648 
L 151.970073 29.4 
" clip-path="url(#p9bf04dd70a)" style="fill: none; stroke-dasharray: 2.96,1.28; stroke-dashoffset: 0; stroke: #b0b0b0; stroke-opacity: 0.5; stroke-width: 0.8"/>
     </g>
     <g id="line2d_14">
      <g>
       <use xlink:href="#m5e2f20c1f5" x="151.970073" y="295.648" style="stroke: #000000; stroke-width: 0.6"/>
      </g>
     </g>
    </g>
    <g id="xtick_8">
     <g id="line2d_15">
      <path d="M 174.831023 295.648 
L 174.831023 29.4 
" clip-path="url(#p9bf04dd70a)" style="fill: none; stroke-dasharray: 2.96,1.28; stroke-dashoffset: 0; stroke: #b0b0b0; stroke-opacity: 0.5; stroke-width: 0.8"/>
     </g>
     <g id="line2d_16">
      <g>
       <use xlink:href="#m5e2f20c1f5" x="174.831023" y="295.648" style="stroke: #000000; stroke-width: 0.6"/>
      </g>
     </g>
    </g>
    <g id="xtick_9">
     <g id="line2d_17">
      <path d="M 192.563352 295.648 
L 192.563352 29.4 
" clip-path="url(#p9bf04dd70a)" style="fill: none; stroke-dasharray: 2.96,1.28; stroke-dashoffset: 0; stroke: #b0b0b0; stroke-opacity: 0.5; stroke-width: 0.8"/>
     </g>
     <g id="line2d_18">
      <g>
       <use xlink:href="#m5e2f20c1f5" x="192.563352" y="295.648" style="stroke: #000000; stroke-width: 0.6"/>
      </g>
     </g>
    </g>
    <g id="xtick_10">
     <g id="line2d_19">
      <path d="M 207.051721 295.648 
L 207.051721 29.4 
" clip-path="url(#p9bf04dd70a)" style="fill: none; stroke-dasharray: 2.96,1.28; stroke-dashoffset: 0; stroke: #b0b0b0; stroke-opacity: 0.5; stroke-width: 0.8"/>
     </g>
     <g id="line2d_20">
      <g>
       <use xlink:href="#m5e2f20c1f5" x="207.051721" y="295.648" style="stroke: #000000; stroke-width: 0.6"/>
      </g>
     </g>
    </g>
    <g id="xtick_11">
     <g id="line2d_21">
      <path d="M 219.301462 295.648 
L 219.301462 29.4 
" clip-path="url(#p9bf04dd70a)" style="fill: none; stroke-dasharray: 2.96,1.28; stroke-dashoffset: 0; stroke: #b0b0b0; stroke-opacity: 0.5; stroke-width: 0.8"/>
     </g>
     <g id="line2d_22">
      <g>
       <use xlink:href="#m5e2f20c1f5" x="219.301462" y="295.648" style="stroke: #000000; stroke-width: 0.6"/>
      </g>
     </g>
    </g>
    <g id="xtick_12">
     <g id="line2d_23">
      <path d="M 229.91267 295.648 
L 229.91267 29.4 
" clip-path="url(#p9bf04dd70a)" style="fill: none; stroke-dasharray: 2.96,1.28; stroke-dashoffset: 0; stroke: #b0b0b0; stroke-opacity: 0.5; stroke-width: 0.8"/>
     </g>
     <g id="line2d_24">
      <g>
       <use xlink:href="#m5e2f20c1f5" x="229.91267" y="295.648" style="stroke: #000000; stroke-width: 0.6"/>
      </g>
     </g>
    </g>
    <g id="xtick_13">
     <g id="line2d_25">
      <path d="M 239.272419 295.648 
L 239.272419 29.4 
" clip-path="url(#p9bf04dd70a)" style="fill: none; stroke-dasharray: 2.96,1.28; stroke-dashoffset: 0; stroke: #b0b0b0; stroke-opacity: 0.5; stroke-width: 0.8"/>
     </g>
     <g id="line2d_26">
      <g>
       <use xlink:href="#m5e2f20c1f5" x="239.272419" y="295.648" style="stroke: #000000; stroke-width: 0.6"/>
      </g>
     </g>
    </g>
    <g id="xtick_14">
     <g id="line2d_27">
      <path d="M 302.726648 295.648 
L 302.726648 29.4 
" clip-path="url(#p9bf04dd70a)" style="fill: none; stroke-dasharray: 2.96,1.28; stroke-dashoffset: 0; stroke: #b0b0b0; stroke-opacity: 0.5; stroke-width: 0.8"/>
     </g>
     <g id="line2d_28">
      <g>
       <use xlink:href="#m5e2f20c1f5" x="302.726648" y="295.648" style="stroke: #000000; stroke-width: 0.6"/>
      </g>
     </g>
    </g>
    <g id="xtick_15">
     <g id="line2d_29">
      <path d="M 334.947346 295.648 
L 334.947346 29.4 
" clip-path="url(#p9bf04dd70a)" style="fill: none; stroke-dasharray: 2.96,1.28; stroke-dashoffset: 0; stroke: #b0b0b0; stroke-opacity: 0.5; stroke-width: 0.8"/>
     </g>
     <g id="line2d_30">
      <g>
       <use xlink:href="#m5e2f20c1f5" x="334.947346" y="295.648" style="stroke: #000000; stroke-width: 0.6"/>
      </g>
     </g>
    </g>
    <g id="xtick_16">
     <g id="line2d_31">
      <path d="M 357.808295 295.648 
L 357.808295 29.4 
" clip-path="url(#p9bf04dd70a)" style="fill: none; stroke-dasharray: 2.96,1.28; stroke-dashoffset: 0; stroke: #b0b0b0; stroke-opacity: 0.5; stroke-width: 0.8"/>
     </g>
     <g id="line2d_32">
      <g>
       <use xlink:href="#m5e2f20c1f5" x="357.808295" y="295.648" style="stroke: #000000; stroke-width: 0.6"/>
      </g>
     </g>
    </g>
    <g id="xtick_17">
     <g id="line2d_33">
      <path d="M 375.540625 295.648 
L 375.540625 29.4 
" clip-path="url(#p9bf04dd70a)" style="fill: none; stroke-dasharray: 2.96,1.28; stroke-dashoffset: 0; stroke: #b0b0b0; stroke-opacity: 0.5; stroke-width: 0.8"/>
     </g>
     <g id="line2d_34">
      <g>
       <use xlink:href="#m5e2f20c1f5" x="375.540625" y="295.648" style="stroke: #000000; stroke-width: 0.6"/>
      </g>
     </g>
    </g>
    <g id="xtick_18">
     <g id="line2d_35">
      <path d="M 390.028994 295.648 
L 390.028994 29.4 
" clip-path="url(#p9bf04dd70a)" style="fill: none; stroke-dasharray: 2.96,1.28; stroke-dashoffset: 0; stroke: #b0b0b0; stroke-opacity: 0.5; stroke-width: 0.8"/>
     </g>
     <g id="line2d_36">
      <g>
       <use xlink:href="#m5e2f20c1f5" x="390.028994" y="295.648" style="stroke: #000000; stroke-width: 0.6"/>
      </g>
     </g>
    </g>
    <g id="xtick_19">
     <g id="line2d_37">
      <path d="M 402.278735 295.648 
L 402.278735 29.4 
" clip-path="url(#p9bf04dd70a)" style="fill: none; stroke-dasharray: 2.96,1.28; stroke-dashoffset: 0; stroke: #b0b0b0; stroke-opacity: 0.5; stroke-width: 0.8"/>
     </g>
     <g id="line2d_38">
      <g>
       <use xlink:href="#m5e2f20c1f5" x="402.278735" y="295.648" style="stroke: #000000; stroke-width: 0.6"/>
      </g>
     </g>
    </g>
    <g id="xtick_20">
     <g id="line2d_39">
      <path d="M 412.889943 295.648 
L 412.889943 29.4 
" clip-path="url(#p9bf04dd70a)" style="fill: none; stroke-dasharray: 2.96,1.28; stroke-dashoffset: 0; stroke: #b0b0b0; stroke-opacity: 0.5; stroke-width: 0.8"/>
     </g>
     <g id="line2d_40">
      <g>
       <use xlink:href="#m5e2f20c1f5" x="412.889943" y="295.648" style="stroke: #000000; stroke-width: 0.6"/>
      </g>
     </g>
    </g>
    <g id="xtick_21">
     <g id="line2d_41">
      <path d="M 422.249692 295.648 
L 422.249692 29.4 
" clip-path="url(#p9bf04dd70a)" style="fill: none; stroke-dasharray: 2.96,1.28; stroke-dashoffset: 0; stroke: #b0b0b0; stroke-opacity: 0.5; stroke-width: 0.8"/>
     </g>
     <g id="line2d_42">
      <g>
       <use xlink:href="#m5e2f20c1f5" x="422.249692" y="295.648" style="stroke: #000000; stroke-width: 0.6"/>
      </g>
     </g>
    </g>
    <g id="text_4">
     <!-- Total Capacitance ($C_{\mathrm{tot}}$) [fF] -->
     <g transform="translate(171.525 324.686125) scale(0.11 -0.11)">
      <defs>
       <path id="DejaVuSans-54" d="M -19 4666 
L 3928 4666 
L 3928 4134 
L 2272 4134 
L 2272 0 
L 1638 0 
L 1638 4134 
L -19 4134 
L -19 4666 
z
" transform="scale(0.015625)"/>
       <path id="DejaVuSans-6f" d="M 1959 3097 
Q 1497 3097 1228 2736 
Q 959 2375 959 1747 
Q 959 1119 1226 758 
Q 1494 397 1959 397 
Q 2419 397 2687 759 
Q 2956 1122 2956 1747 
Q 2956 2369 2687 2733 
Q 2419 3097 1959 3097 
z
M 1959 3584 
Q 2709 3584 3137 3096 
Q 3566 2609 3566 1747 
Q 3566 888 3137 398 
Q 2709 -91 1959 -91 
Q 1206 -91 779 398 
Q 353 888 353 1747 
Q 353 2609 779 3096 
Q 1206 3584 1959 3584 
z
" transform="scale(0.015625)"/>
       <path id="DejaVuSans-74" d="M 1172 4494 
L 1172 3500 
L 2356 3500 
L 2356 3053 
L 1172 3053 
L 1172 1153 
Q 1172 725 1289 603 
Q 1406 481 1766 481 
L 2356 481 
L 2356 0 
L 1766 0 
Q 1100 0 847 248 
Q 594 497 594 1153 
L 594 3053 
L 172 3053 
L 172 3500 
L 594 3500 
L 594 4494 
L 1172 4494 
z
" transform="scale(0.015625)"/>
       <path id="DejaVuSans-61" d="M 2194 1759 
Q 1497 1759 1228 1600 
Q 959 1441 959 1056 
Q 959 750 1161 570 
Q 1363 391 1709 391 
Q 2188 391 2477 730 
Q 2766 1069 2766 1631 
L 2766 1759 
L 2194 1759 
z
M 3341 1997 
L 3341 0 
L 2766 0 
L 2766 531 
Q 2569 213 2275 61 
Q 1981 -91 1556 -91 
Q 1019 -91 701 211 
Q 384 513 384 1019 
Q 384 1609 779 1909 
Q 1175 2209 1959 2209 
L 2766 2209 
L 2766 2266 
Q 2766 2663 2505 2880 
Q 2244 3097 1772 3097 
Q 1472 3097 1187 3025 
Q 903 2953 641 2809 
L 641 3341 
Q 956 3463 1253 3523 
Q 1550 3584 1831 3584 
Q 2591 3584 2966 3190 
Q 3341 2797 3341 1997 
z
" transform="scale(0.015625)"/>
       <path id="DejaVuSans-6c" d="M 603 4863 
L 1178 4863 
L 1178 0 
L 603 0 
L 603 4863 
z
" transform="scale(0.015625)"/>
       <path id="DejaVuSans-20" transform="scale(0.015625)"/>
       <path id="DejaVuSans-43" d="M 4122 4306 
L 4122 3641 
Q 3803 3938 3442 4084 
Q 3081 4231 2675 4231 
Q 1875 4231 1450 3742 
Q 1025 3253 1025 2328 
Q 1025 1406 1450 917 
Q 1875 428 2675 428 
Q 3081 428 3442 575 
Q 3803 722 4122 1019 
L 4122 359 
Q 3791 134 3420 21 
Q 3050 -91 2638 -91 
Q 1578 -91 968 557 
Q 359 1206 359 2328 
Q 359 3453 968 4101 
Q 1578 4750 2638 4750 
Q 3056 4750 3426 4639 
Q 3797 4528 4122 4306 
z
" transform="scale(0.015625)"/>
       <path id="DejaVuSans-70" d="M 1159 525 
L 1159 -1331 
L 581 -1331 
L 581 3500 
L 1159 3500 
L 1159 2969 
Q 1341 3281 1617 3432 
Q 1894 3584 2278 3584 
Q 2916 3584 3314 3078 
Q 3713 2572 3713 1747 
Q 3713 922 3314 415 
Q 2916 -91 2278 -91 
Q 1894 -91 1617 61 
Q 1341 213 1159 525 
z
M 3116 1747 
Q 3116 2381 2855 2742 
Q 2594 3103 2138 3103 
Q 1681 3103 1420 2742 
Q 1159 2381 1159 1747 
Q 1159 1113 1420 752 
Q 1681 391 2138 391 
Q 2594 391 2855 752 
Q 3116 1113 3116 1747 
z
" transform="scale(0.015625)"/>
       <path id="DejaVuSans-63" d="M 3122 3366 
L 3122 2828 
Q 2878 2963 2633 3030 
Q 2388 3097 2138 3097 
Q 1578 3097 1268 2742 
Q 959 2388 959 1747 
Q 959 1106 1268 751 
Q 1578 397 2138 397 
Q 2388 397 2633 464 
Q 2878 531 3122 666 
L 3122 134 
Q 2881 22 2623 -34 
Q 2366 -91 2075 -91 
Q 1284 -91 818 406 
Q 353 903 353 1747 
Q 353 2603 823 3093 
Q 1294 3584 2113 3584 
Q 2378 3584 2631 3529 
Q 2884 3475 3122 3366 
z
" transform="scale(0.015625)"/>
       <path id="DejaVuSans-69" d="M 603 3500 
L 1178 3500 
L 1178 0 
L 603 0 
L 603 3500 
z
M 603 4863 
L 1178 4863 
L 1178 4134 
L 603 4134 
L 603 4863 
z
" transform="scale(0.015625)"/>
       <path id="DejaVuSans-6e" d="M 3513 2113 
L 3513 0 
L 2938 0 
L 2938 2094 
Q 2938 2591 2744 2837 
Q 2550 3084 2163 3084 
Q 1697 3084 1428 2787 
Q 1159 2491 1159 1978 
L 1159 0 
L 581 0 
L 581 3500 
L 1159 3500 
L 1159 2956 
Q 1366 3272 1645 3428 
Q 1925 3584 2291 3584 
Q 2894 3584 3203 3211 
Q 3513 2838 3513 2113 
z
" transform="scale(0.015625)"/>
       <path id="DejaVuSans-65" d="M 3597 1894 
L 3597 1613 
L 953 1613 
Q 991 1019 1311 708 
Q 1631 397 2203 397 
Q 2534 397 2845 478 
Q 3156 559 3463 722 
L 3463 178 
Q 3153 47 2828 -22 
Q 2503 -91 2169 -91 
Q 1331 -91 842 396 
Q 353 884 353 1716 
Q 353 2575 817 3079 
Q 1281 3584 2069 3584 
Q 2775 3584 3186 3129 
Q 3597 2675 3597 1894 
z
M 3022 2063 
Q 3016 2534 2758 2815 
Q 2500 3097 2075 3097 
Q 1594 3097 1305 2825 
Q 1016 2553 972 2059 
L 3022 2063 
z
" transform="scale(0.015625)"/>
       <path id="DejaVuSans-28" d="M 1984 4856 
Q 1566 4138 1362 3434 
Q 1159 2731 1159 2009 
Q 1159 1288 1364 580 
Q 1569 -128 1984 -844 
L 1484 -844 
Q 1016 -109 783 600 
Q 550 1309 550 2009 
Q 550 2706 781 3412 
Q 1013 4119 1484 4856 
L 1984 4856 
z
" transform="scale(0.015625)"/>
       <path id="DejaVuSans-Oblique-43" d="M 4447 4306 
L 4319 3641 
Q 4019 3944 3683 4091 
Q 3347 4238 2956 4238 
Q 2422 4238 2017 3981 
Q 1613 3725 1319 3200 
Q 1131 2863 1032 2486 
Q 934 2109 934 1728 
Q 934 1091 1264 756 
Q 1594 422 2222 422 
Q 2656 422 3056 561 
Q 3456 700 3834 978 
L 3688 231 
Q 3316 72 2936 -9 
Q 2556 -91 2175 -91 
Q 1278 -91 773 396 
Q 269 884 269 1753 
Q 269 2309 461 2846 
Q 653 3384 1013 3828 
Q 1394 4300 1883 4525 
Q 2372 4750 3022 4750 
Q 3422 4750 3780 4639 
Q 4138 4528 4447 4306 
z
" transform="scale(0.015625)"/>
       <path id="DejaVuSans-29" d="M 513 4856 
L 1013 4856 
Q 1481 4119 1714 3412 
Q 1947 2706 1947 2009 
Q 1947 1309 1714 600 
Q 1481 -109 1013 -844 
L 513 -844 
Q 928 -128 1133 580 
Q 1338 1288 1338 2009 
Q 1338 2731 1133 3434 
Q 928 4138 513 4856 
z
" transform="scale(0.015625)"/>
       <path id="DejaVuSans-5b" d="M 550 4863 
L 1875 4863 
L 1875 4416 
L 1125 4416 
L 1125 -397 
L 1875 -397 
L 1875 -844 
L 550 -844 
L 550 4863 
z
" transform="scale(0.015625)"/>
       <path id="DejaVuSans-66" d="M 2375 4863 
L 2375 4384 
L 1825 4384 
Q 1516 4384 1395 4259 
Q 1275 4134 1275 3809 
L 1275 3500 
L 2222 3500 
L 2222 3053 
L 1275 3053 
L 1275 0 
L 697 0 
L 697 3053 
L 147 3053 
L 147 3500 
L 697 3500 
L 697 3744 
Q 697 4328 969 4595 
Q 1241 4863 1831 4863 
L 2375 4863 
z
" transform="scale(0.015625)"/>
       <path id="DejaVuSans-46" d="M 628 4666 
L 3309 4666 
L 3309 4134 
L 1259 4134 
L 1259 2759 
L 3109 2759 
L 3109 2228 
L 1259 2228 
L 1259 0 
L 628 0 
L 628 4666 
z
" transform="scale(0.015625)"/>
       <path id="DejaVuSans-5d" d="M 1947 4863 
L 1947 -844 
L 622 -844 
L 622 -397 
L 1369 -397 
L 1369 4416 
L 622 4416 
L 622 4863 
L 1947 4863 
z
" transform="scale(0.015625)"/>
      </defs>
      <use xlink:href="#DejaVuSans-54" transform="translate(0 0.015625)"/>
      <use xlink:href="#DejaVuSans-6f" transform="translate(61.083984 0.015625)"/>
      <use xlink:href="#DejaVuSans-74" transform="translate(122.265625 0.015625)"/>
      <use xlink:href="#DejaVuSans-61" transform="translate(161.474609 0.015625)"/>
      <use xlink:href="#DejaVuSans-6c" transform="translate(222.753906 0.015625)"/>
      <use xlink:href="#DejaVuSans-20" transform="translate(250.537109 0.015625)"/>
      <use xlink:href="#DejaVuSans-43" transform="translate(282.324219 0.015625)"/>
      <use xlink:href="#DejaVuSans-61" transform="translate(352.148438 0.015625)"/>
      <use xlink:href="#DejaVuSans-70" transform="translate(413.427734 0.015625)"/>
      <use xlink:href="#DejaVuSans-61" transform="translate(476.904297 0.015625)"/>
      <use xlink:href="#DejaVuSans-63" transform="translate(538.183594 0.015625)"/>
      <use xlink:href="#DejaVuSans-69" transform="translate(593.164062 0.015625)"/>
      <use xlink:href="#DejaVuSans-74" transform="translate(620.947266 0.015625)"/>
      <use xlink:href="#DejaVuSans-61" transform="translate(660.15625 0.015625)"/>
      <use xlink:href="#DejaVuSans-6e" transform="translate(721.435547 0.015625)"/>
      <use xlink:href="#DejaVuSans-63" transform="translate(784.814453 0.015625)"/>
      <use xlink:href="#DejaVuSans-65" transform="translate(839.794922 0.015625)"/>
      <use xlink:href="#DejaVuSans-20" transform="translate(901.318359 0.015625)"/>
      <use xlink:href="#DejaVuSans-28" transform="translate(933.105469 0.015625)"/>
      <use xlink:href="#DejaVuSans-Oblique-43" transform="translate(972.119141 0.015625)"/>
      <use xlink:href="#DejaVuSans-74" transform="translate(1041.943359 -16.390625) scale(0.7)"/>
      <use xlink:href="#DejaVuSans-6f" transform="translate(1069.389648 -16.390625) scale(0.7)"/>
      <use xlink:href="#DejaVuSans-74" transform="translate(1112.216797 -16.390625) scale(0.7)"/>
      <use xlink:href="#DejaVuSans-29" transform="translate(1142.397461 0.015625)"/>
      <use xlink:href="#DejaVuSans-20" transform="translate(1181.411133 0.015625)"/>
      <use xlink:href="#DejaVuSans-5b" transform="translate(1213.198242 0.015625)"/>
      <use xlink:href="#DejaVuSans-66" transform="translate(1252.211914 0.015625)"/>
      <use xlink:href="#DejaVuSans-46" transform="translate(1287.416992 0.015625)"/>
      <use xlink:href="#DejaVuSans-5d" transform="translate(1344.936523 0.015625)"/>
     </g>
    </g>
   </g>
   <g id="matplotlib.axis_2">
    <g id="ytick_1">
     <g id="line2d_43">
      <path d="M 46.37 289.752065 
L 448.92 289.752065 
" clip-path="url(#p9bf04dd70a)" style="fill: none; stroke-dasharray: 2.96,1.28; stroke-dashoffset: 0; stroke: #b0b0b0; stroke-opacity: 0.5; stroke-width: 0.8"/>
     </g>
     <g id="line2d_44">
      <defs>
       <path id="mdc82e71aed" d="M 0 0 
L -3.5 0 
" style="stroke: #000000; stroke-width: 0.8"/>
      </defs>
      <g>
       <use xlink:href="#mdc82e71aed" x="46.37" y="289.752065" style="stroke: #000000; stroke-width: 0.8"/>
      </g>
     </g>
     <g id="text_5">
      <!-- 0 -->
      <g transform="translate(33.0075 293.551284) scale(0.1 -0.1)">
       <use xlink:href="#DejaVuSans-30"/>
      </g>
     </g>
    </g>
    <g id="ytick_2">
     <g id="line2d_45">
      <path d="M 46.37 239.326799 
L 448.92 239.326799 
" clip-path="url(#p9bf04dd70a)" style="fill: none; stroke-dasharray: 2.96,1.28; stroke-dashoffset: 0; stroke: #b0b0b0; stroke-opacity: 0.5; stroke-width: 0.8"/>
     </g>
     <g id="line2d_46">
      <g>
       <use xlink:href="#mdc82e71aed" x="46.37" y="239.326799" style="stroke: #000000; stroke-width: 0.8"/>
      </g>
     </g>
     <g id="text_6">
      <!-- 2 -->
      <g transform="translate(33.0075 243.126017) scale(0.1 -0.1)">
       <use xlink:href="#DejaVuSans-32"/>
      </g>
     </g>
    </g>
    <g id="ytick_3">
     <g id="line2d_47">
      <path d="M 46.37 188.901532 
L 448.92 188.901532 
" clip-path="url(#p9bf04dd70a)" style="fill: none; stroke-dasharray: 2.96,1.28; stroke-dashoffset: 0; stroke: #b0b0b0; stroke-opacity: 0.5; stroke-width: 0.8"/>
     </g>
     <g id="line2d_48">
      <g>
       <use xlink:href="#mdc82e71aed" x="46.37" y="188.901532" style="stroke: #000000; stroke-width: 0.8"/>
      </g>
     </g>
     <g id="text_7">
      <!-- 4 -->
      <g transform="translate(33.0075 192.700751) scale(0.1 -0.1)">
       <use xlink:href="#DejaVuSans-34"/>
      </g>
     </g>
    </g>
    <g id="ytick_4">
     <g id="line2d_49">
      <path d="M 46.37 138.476266 
L 448.92 138.476266 
" clip-path="url(#p9bf04dd70a)" style="fill: none; stroke-dasharray: 2.96,1.28; stroke-dashoffset: 0; stroke: #b0b0b0; stroke-opacity: 0.5; stroke-width: 0.8"/>
     </g>
     <g id="line2d_50">
      <g>
       <use xlink:href="#mdc82e71aed" x="46.37" y="138.476266" style="stroke: #000000; stroke-width: 0.8"/>
      </g>
     </g>
     <g id="text_8">
      <!-- 6 -->
      <g transform="translate(33.0075 142.275484) scale(0.1 -0.1)">
       <defs>
        <path id="DejaVuSans-36" d="M 2113 2584 
Q 1688 2584 1439 2293 
Q 1191 2003 1191 1497 
Q 1191 994 1439 701 
Q 1688 409 2113 409 
Q 2538 409 2786 701 
Q 3034 994 3034 1497 
Q 3034 2003 2786 2293 
Q 2538 2584 2113 2584 
z
M 3366 4563 
L 3366 3988 
Q 3128 4100 2886 4159 
Q 2644 4219 2406 4219 
Q 1781 4219 1451 3797 
Q 1122 3375 1075 2522 
Q 1259 2794 1537 2939 
Q 1816 3084 2150 3084 
Q 2853 3084 3261 2657 
Q 3669 2231 3669 1497 
Q 3669 778 3244 343 
Q 2819 -91 2113 -91 
Q 1303 -91 875 529 
Q 447 1150 447 2328 
Q 447 3434 972 4092 
Q 1497 4750 2381 4750 
Q 2619 4750 2861 4703 
Q 3103 4656 3366 4563 
z
" transform="scale(0.015625)"/>
       </defs>
       <use xlink:href="#DejaVuSans-36"/>
      </g>
     </g>
    </g>
    <g id="ytick_5">
     <g id="line2d_51">
      <path d="M 46.37 88.050999 
L 448.92 88.050999 
" clip-path="url(#p9bf04dd70a)" style="fill: none; stroke-dasharray: 2.96,1.28; stroke-dashoffset: 0; stroke: #b0b0b0; stroke-opacity: 0.5; stroke-width: 0.8"/>
     </g>
     <g id="line2d_52">
      <g>
       <use xlink:href="#mdc82e71aed" x="46.37" y="88.050999" style="stroke: #000000; stroke-width: 0.8"/>
      </g>
     </g>
     <g id="text_9">
      <!-- 8 -->
      <g transform="translate(33.0075 91.850218) scale(0.1 -0.1)">
       <defs>
        <path id="DejaVuSans-38" d="M 2034 2216 
Q 1584 2216 1326 1975 
Q 1069 1734 1069 1313 
Q 1069 891 1326 650 
Q 1584 409 2034 409 
Q 2484 409 2743 651 
Q 3003 894 3003 1313 
Q 3003 1734 2745 1975 
Q 2488 2216 2034 2216 
z
M 1403 2484 
Q 997 2584 770 2862 
Q 544 3141 544 3541 
Q 544 4100 942 4425 
Q 1341 4750 2034 4750 
Q 2731 4750 3128 4425 
Q 3525 4100 3525 3541 
Q 3525 3141 3298 2862 
Q 3072 2584 2669 2484 
Q 3125 2378 3379 2068 
Q 3634 1759 3634 1313 
Q 3634 634 3220 271 
Q 2806 -91 2034 -91 
Q 1263 -91 848 271 
Q 434 634 434 1313 
Q 434 1759 690 2068 
Q 947 2378 1403 2484 
z
M 1172 3481 
Q 1172 3119 1398 2916 
Q 1625 2713 2034 2713 
Q 2441 2713 2670 2916 
Q 2900 3119 2900 3481 
Q 2900 3844 2670 4047 
Q 2441 4250 2034 4250 
Q 1625 4250 1398 4047 
Q 1172 3844 1172 3481 
z
" transform="scale(0.015625)"/>
       </defs>
       <use xlink:href="#DejaVuSans-38"/>
      </g>
     </g>
    </g>
    <g id="ytick_6">
     <g id="line2d_53">
      <path d="M 46.37 37.625732 
L 448.92 37.625732 
" clip-path="url(#p9bf04dd70a)" style="fill: none; stroke-dasharray: 2.96,1.28; stroke-dashoffset: 0; stroke: #b0b0b0; stroke-opacity: 0.5; stroke-width: 0.8"/>
     </g>
     <g id="line2d_54">
      <g>
       <use xlink:href="#mdc82e71aed" x="46.37" y="37.625732" style="stroke: #000000; stroke-width: 0.8"/>
      </g>
     </g>
     <g id="text_10">
      <!-- 10 -->
      <g transform="translate(26.645 41.424951) scale(0.1 -0.1)">
       <use xlink:href="#DejaVuSans-31"/>
       <use xlink:href="#DejaVuSans-30" transform="translate(63.623047 0)"/>
      </g>
     </g>
    </g>
    <g id="text_11">
     <!-- Max DNL [LSB] (expected at mid-code) -->
     <g transform="translate(20.357344 269.590953) rotate(-90) scale(0.11 -0.11)">
      <defs>
       <path id="DejaVuSans-4d" d="M 628 4666 
L 1569 4666 
L 2759 1491 
L 3956 4666 
L 4897 4666 
L 4897 0 
L 4281 0 
L 4281 4097 
L 3078 897 
L 2444 897 
L 1241 4097 
L 1241 0 
L 628 0 
L 628 4666 
z
" transform="scale(0.015625)"/>
       <path id="DejaVuSans-78" d="M 3513 3500 
L 2247 1797 
L 3578 0 
L 2900 0 
L 1881 1375 
L 863 0 
L 184 0 
L 1544 1831 
L 300 3500 
L 978 3500 
L 1906 2253 
L 2834 3500 
L 3513 3500 
z
" transform="scale(0.015625)"/>
       <path id="DejaVuSans-44" d="M 1259 4147 
L 1259 519 
L 2022 519 
Q 2988 519 3436 956 
Q 3884 1394 3884 2338 
Q 3884 3275 3436 3711 
Q 2988 4147 2022 4147 
L 1259 4147 
z
M 628 4666 
L 1925 4666 
Q 3281 4666 3915 4102 
Q 4550 3538 4550 2338 
Q 4550 1131 3912 565 
Q 3275 0 1925 0 
L 628 0 
L 628 4666 
z
" transform="scale(0.015625)"/>
       <path id="DejaVuSans-4e" d="M 628 4666 
L 1478 4666 
L 3547 763 
L 3547 4666 
L 4159 4666 
L 4159 0 
L 3309 0 
L 1241 3903 
L 1241 0 
L 628 0 
L 628 4666 
z
" transform="scale(0.015625)"/>
       <path id="DejaVuSans-4c" d="M 628 4666 
L 1259 4666 
L 1259 531 
L 3531 531 
L 3531 0 
L 628 0 
L 628 4666 
z
" transform="scale(0.015625)"/>
       <path id="DejaVuSans-53" d="M 3425 4513 
L 3425 3897 
Q 3066 4069 2747 4153 
Q 2428 4238 2131 4238 
Q 1616 4238 1336 4038 
Q 1056 3838 1056 3469 
Q 1056 3159 1242 3001 
Q 1428 2844 1947 2747 
L 2328 2669 
Q 3034 2534 3370 2195 
Q 3706 1856 3706 1288 
Q 3706 609 3251 259 
Q 2797 -91 1919 -91 
Q 1588 -91 1214 -16 
Q 841 59 441 206 
L 441 856 
Q 825 641 1194 531 
Q 1563 422 1919 422 
Q 2459 422 2753 634 
Q 3047 847 3047 1241 
Q 3047 1584 2836 1778 
Q 2625 1972 2144 2069 
L 1759 2144 
Q 1053 2284 737 2584 
Q 422 2884 422 3419 
Q 422 4038 858 4394 
Q 1294 4750 2059 4750 
Q 2388 4750 2728 4690 
Q 3069 4631 3425 4513 
z
" transform="scale(0.015625)"/>
       <path id="DejaVuSans-42" d="M 1259 2228 
L 1259 519 
L 2272 519 
Q 2781 519 3026 730 
Q 3272 941 3272 1375 
Q 3272 1813 3026 2020 
Q 2781 2228 2272 2228 
L 1259 2228 
z
M 1259 4147 
L 1259 2741 
L 2194 2741 
Q 2656 2741 2882 2914 
Q 3109 3088 3109 3444 
Q 3109 3797 2882 3972 
Q 2656 4147 2194 4147 
L 1259 4147 
z
M 628 4666 
L 2241 4666 
Q 2963 4666 3353 4366 
Q 3744 4066 3744 3513 
Q 3744 3084 3544 2831 
Q 3344 2578 2956 2516 
Q 3422 2416 3680 2098 
Q 3938 1781 3938 1306 
Q 3938 681 3513 340 
Q 3088 0 2303 0 
L 628 0 
L 628 4666 
z
" transform="scale(0.015625)"/>
       <path id="DejaVuSans-64" d="M 2906 2969 
L 2906 4863 
L 3481 4863 
L 3481 0 
L 2906 0 
L 2906 525 
Q 2725 213 2448 61 
Q 2172 -91 1784 -91 
Q 1150 -91 751 415 
Q 353 922 353 1747 
Q 353 2572 751 3078 
Q 1150 3584 1784 3584 
Q 2172 3584 2448 3432 
Q 2725 3281 2906 2969 
z
M 947 1747 
Q 947 1113 1208 752 
Q 1469 391 1925 391 
Q 2381 391 2643 752 
Q 2906 1113 2906 1747 
Q 2906 2381 2643 2742 
Q 2381 3103 1925 3103 
Q 1469 3103 1208 2742 
Q 947 2381 947 1747 
z
" transform="scale(0.015625)"/>
       <path id="DejaVuSans-6d" d="M 3328 2828 
Q 3544 3216 3844 3400 
Q 4144 3584 4550 3584 
Q 5097 3584 5394 3201 
Q 5691 2819 5691 2113 
L 5691 0 
L 5113 0 
L 5113 2094 
Q 5113 2597 4934 2840 
Q 4756 3084 4391 3084 
Q 3944 3084 3684 2787 
Q 3425 2491 3425 1978 
L 3425 0 
L 2847 0 
L 2847 2094 
Q 2847 2600 2669 2842 
Q 2491 3084 2119 3084 
Q 1678 3084 1418 2786 
Q 1159 2488 1159 1978 
L 1159 0 
L 581 0 
L 581 3500 
L 1159 3500 
L 1159 2956 
Q 1356 3278 1631 3431 
Q 1906 3584 2284 3584 
Q 2666 3584 2933 3390 
Q 3200 3197 3328 2828 
z
" transform="scale(0.015625)"/>
       <path id="DejaVuSans-2d" d="M 313 2009 
L 1997 2009 
L 1997 1497 
L 313 1497 
L 313 2009 
z
" transform="scale(0.015625)"/>
      </defs>
      <use xlink:href="#DejaVuSans-4d"/>
      <use xlink:href="#DejaVuSans-61" transform="translate(86.279297 0)"/>
      <use xlink:href="#DejaVuSans-78" transform="translate(147.558594 0)"/>
      <use xlink:href="#DejaVuSans-20" transform="translate(206.738281 0)"/>
      <use xlink:href="#DejaVuSans-44" transform="translate(238.525391 0)"/>
      <use xlink:href="#DejaVuSans-4e" transform="translate(315.527344 0)"/>
      <use xlink:href="#DejaVuSans-4c" transform="translate(390.332031 0)"/>
      <use xlink:href="#DejaVuSans-20" transform="translate(446.044922 0)"/>
      <use xlink:href="#DejaVuSans-5b" transform="translate(477.832031 0)"/>
      <use xlink:href="#DejaVuSans-4c" transform="translate(516.845703 0)"/>
      <use xlink:href="#DejaVuSans-53" transform="translate(572.558594 0)"/>
      <use xlink:href="#DejaVuSans-42" transform="translate(636.035156 0)"/>
      <use xlink:href="#DejaVuSans-5d" transform="translate(704.638672 0)"/>
      <use xlink:href="#DejaVuSans-20" transform="translate(743.652344 0)"/>
      <use xlink:href="#DejaVuSans-28" transform="translate(775.439453 0)"/>
      <use xlink:href="#DejaVuSans-65" transform="translate(814.453125 0)"/>
      <use xlink:href="#DejaVuSans-78" transform="translate(874.226562 0)"/>
      <use xlink:href="#DejaVuSans-70" transform="translate(933.40625 0)"/>
      <use xlink:href="#DejaVuSans-65" transform="translate(996.882812 0)"/>
      <use xlink:href="#DejaVuSans-63" transform="translate(1058.40625 0)"/>
      <use xlink:href="#DejaVuSans-74" transform="translate(1113.386719 0)"/>
      <use xlink:href="#DejaVuSans-65" transform="translate(1152.595703 0)"/>
      <use xlink:href="#DejaVuSans-64" transform="translate(1214.119141 0)"/>
      <use xlink:href="#DejaVuSans-20" transform="translate(1277.595703 0)"/>
      <use xlink:href="#DejaVuSans-61" transform="translate(1309.382812 0)"/>
      <use xlink:href="#DejaVuSans-74" transform="translate(1370.662109 0)"/>
      <use xlink:href="#DejaVuSans-20" transform="translate(1409.871094 0)"/>
      <use xlink:href="#DejaVuSans-6d" transform="translate(1441.658203 0)"/>
      <use xlink:href="#DejaVuSans-69" transform="translate(1539.070312 0)"/>
      <use xlink:href="#DejaVuSans-64" transform="translate(1566.853516 0)"/>
      <use xlink:href="#DejaVuSans-2d" transform="translate(1630.330078 0)"/>
      <use xlink:href="#DejaVuSans-63" transform="translate(1666.414062 0)"/>
      <use xlink:href="#DejaVuSans-6f" transform="translate(1721.394531 0)"/>
      <use xlink:href="#DejaVuSans-64" transform="translate(1782.576172 0)"/>
      <use xlink:href="#DejaVuSans-65" transform="translate(1846.052734 0)"/>
      <use xlink:href="#DejaVuSans-29" transform="translate(1907.576172 0)"/>
     </g>
    </g>
   </g>
   <g id="line2d_55">
    <path d="M 64.667727 227.689594 
L 68.364238 229.116413 
L 72.060748 230.510429 
L 75.757259 231.872397 
L 79.45377 233.203053 
L 83.15028 234.503117 
L 86.846791 235.773293 
L 90.543301 237.014267 
L 94.239812 238.226712 
L 97.936322 239.411282 
L 101.632833 240.568618 
L 105.329343 241.699348 
L 109.025854 242.804082 
L 112.722365 243.883418 
L 116.418875 244.93794 
L 120.115386 245.968219 
L 123.811896 246.974811 
L 127.508407 247.958262 
L 131.204917 248.919104 
L 134.901428 249.857855 
L 138.597938 250.775025 
L 142.294449 251.671109 
L 145.99096 252.546591 
L 149.68747 253.401947 
L 153.383981 254.237638 
L 157.080491 255.054116 
L 160.777002 255.851823 
L 164.473512 256.631191 
L 168.170023 257.392642 
L 171.866534 258.136586 
L 175.563044 258.863427 
L 179.259555 259.573558 
L 182.956065 260.267364 
L 186.652576 260.945218 
L 190.349086 261.607489 
L 194.045597 262.254534 
L 197.742107 262.886703 
L 201.438618 263.504339 
L 205.135129 264.107775 
L 208.831639 264.697339 
L 212.52815 265.273348 
L 216.22466 265.836115 
L 219.921171 266.385943 
L 223.617681 266.923132 
L 227.314192 267.44797 
L 231.010702 267.960742 
L 234.707213 268.461725 
L 238.403724 268.951191 
L 242.100234 269.429404 
L 245.796745 269.896623 
L 249.493255 270.3531 
L 253.189766 270.799083 
L 256.886276 271.234813 
L 260.582787 271.660526 
L 264.279298 272.076451 
L 267.975808 272.482814 
L 271.672319 272.879835 
L 275.368829 273.267728 
L 279.06534 273.646704 
L 282.76185 274.016967 
L 286.458361 274.378717 
L 290.154871 274.732151 
L 293.851382 275.07746 
L 297.547893 275.41483 
L 301.244403 275.744443 
L 304.940914 276.066479 
L 308.637424 276.381111 
L 312.333935 276.68851 
L 316.030445 276.988842 
L 319.726956 277.282269 
L 323.423466 277.56895 
L 327.119977 277.84904 
L 330.816488 278.122691 
L 334.512998 278.390051 
L 338.209509 278.651264 
L 341.906019 278.906472 
L 345.60253 279.155813 
L 349.29904 279.399421 
L 352.995551 279.637429 
L 356.692062 279.869965 
L 360.388572 280.097155 
L 364.085083 280.319122 
L 367.781593 280.535985 
L 371.478104 280.747863 
L 375.174614 280.95487 
L 378.871125 281.157118 
L 382.567635 281.354716 
L 386.264146 281.547772 
L 389.960657 281.736389 
L 393.657167 281.92067 
L 397.353678 282.100714 
L 401.050188 282.276619 
L 404.746699 282.44848 
L 408.443209 282.616389 
L 412.13972 282.780439 
L 415.83623 282.940717 
L 419.532741 283.09731 
L 423.229252 283.250303 
L 426.925762 283.399779 
L 430.622273 283.545818 
" clip-path="url(#p9bf04dd70a)" style="fill: none; stroke: #1f77b4; stroke-width: 1.5; stroke-linecap: square"/>
   </g>
   <g id="line2d_56">
    <path d="M 64.667727 103.564653 
L 68.364238 107.845109 
L 72.060748 112.027158 
L 75.757259 116.113061 
L 79.45377 120.105029 
L 83.15028 124.005222 
L 86.846791 127.815749 
L 90.543301 131.538672 
L 94.239812 135.176004 
L 97.936322 138.729715 
L 101.632833 142.201725 
L 105.329343 145.593914 
L 109.025854 148.908116 
L 112.722365 152.146124 
L 116.418875 155.30969 
L 120.115386 158.400526 
L 123.811896 161.420304 
L 127.508407 164.370657 
L 131.204917 167.253181 
L 134.901428 170.069435 
L 138.597938 172.820944 
L 142.294449 175.509195 
L 145.99096 178.135644 
L 149.68747 180.70171 
L 153.383981 183.208782 
L 157.080491 185.658217 
L 160.777002 188.051339 
L 164.473512 190.389443 
L 168.170023 192.673794 
L 171.866534 194.905628 
L 175.563044 197.086151 
L 179.259555 199.216545 
L 182.956065 201.29796 
L 186.652576 203.331524 
L 190.349086 205.318336 
L 194.045597 207.259471 
L 197.742107 209.155979 
L 201.438618 211.008886 
L 205.135129 212.819196 
L 208.831639 214.587885 
L 212.52815 216.315913 
L 216.22466 218.004213 
L 219.921171 219.6537 
L 223.617681 221.265264 
L 227.314192 222.839779 
L 231.010702 224.378095 
L 234.707213 225.881045 
L 238.403724 227.349443 
L 242.100234 228.784082 
L 245.796745 230.185738 
L 249.493255 231.555171 
L 253.189766 232.89312 
L 256.886276 234.200309 
L 260.582787 235.477447 
L 264.279298 236.725222 
L 267.975808 237.944312 
L 271.672319 239.135374 
L 275.368829 240.299054 
L 279.06534 241.435981 
L 282.76185 242.54677 
L 286.458361 243.632022 
L 290.154871 244.692323 
L 293.851382 245.728249 
L 297.547893 246.740358 
L 301.244403 247.729199 
L 304.940914 248.695307 
L 308.637424 249.639203 
L 312.333935 250.5614 
L 316.030445 251.462395 
L 319.726956 252.342676 
L 323.423466 253.202719 
L 327.119977 254.04299 
L 330.816488 254.863944 
L 334.512998 255.666023 
L 338.209509 256.449662 
L 341.906019 257.215286 
L 345.60253 257.963308 
L 349.29904 258.694133 
L 352.995551 259.408156 
L 356.692062 260.105764 
L 360.388572 260.787334 
L 364.085083 261.453234 
L 367.781593 262.103825 
L 371.478104 262.73946 
L 375.174614 263.360481 
L 378.871125 263.967224 
L 382.567635 264.560019 
L 386.264146 265.139185 
L 389.960657 265.705036 
L 393.657167 266.257878 
L 397.353678 266.798011 
L 401.050188 267.325726 
L 404.746699 267.841308 
L 408.443209 268.345037 
L 412.13972 268.837186 
L 415.83623 269.31802 
L 419.532741 269.787799 
L 423.229252 270.246779 
L 426.925762 270.695206 
L 430.622273 271.133324 
" clip-path="url(#p9bf04dd70a)" style="fill: none; stroke: #ff7f0e; stroke-width: 1.5; stroke-linecap: square"/>
   </g>
   <g id="line2d_57">
    <path d="M 64.667727 41.502182 
L 68.364238 47.209457 
L 72.060748 52.785522 
L 75.757259 58.233393 
L 79.45377 63.556017 
L 83.15028 68.756274 
L 86.846791 73.836977 
L 90.543301 78.800874 
L 94.239812 83.650651 
L 97.936322 88.388931 
L 101.632833 93.018278 
L 105.329343 97.541196 
L 109.025854 101.960132 
L 112.722365 106.277477 
L 116.418875 110.495566 
L 120.115386 114.61668 
L 123.811896 118.64305 
L 127.508407 122.576854 
L 131.204917 126.420219 
L 134.901428 130.175225 
L 138.597938 133.843903 
L 142.294449 137.428239 
L 145.99096 140.93017 
L 149.68747 144.351592 
L 153.383981 147.694355 
L 157.080491 150.960268 
L 160.777002 154.151097 
L 164.473512 157.268569 
L 168.170023 160.31437 
L 171.866534 163.290148 
L 175.563044 166.197513 
L 179.259555 169.038038 
L 182.956065 171.813258 
L 186.652576 174.524677 
L 190.349086 177.173759 
L 194.045597 179.761939 
L 197.742107 182.290617 
L 201.438618 184.76116 
L 205.135129 187.174906 
L 208.831639 189.533159 
L 212.52815 191.837196 
L 216.22466 194.088263 
L 219.921171 196.287578 
L 223.617681 198.43633 
L 227.314192 200.535683 
L 231.010702 202.586771 
L 234.707213 204.590705 
L 238.403724 206.548569 
L 242.100234 208.46142 
L 245.796745 210.330296 
L 249.493255 212.156206 
L 253.189766 213.940138 
L 256.886276 215.683057 
L 260.582787 217.385907 
L 264.279298 219.049608 
L 267.975808 220.675061 
L 271.672319 222.263144 
L 275.368829 223.814717 
L 279.06534 225.330619 
L 282.76185 226.811671 
L 286.458361 228.258674 
L 290.154871 229.672409 
L 293.851382 231.053643 
L 297.547893 232.403122 
L 301.244403 233.721577 
L 304.940914 235.00972 
L 308.637424 236.268249 
L 312.333935 237.497844 
L 316.030445 238.699171 
L 319.726956 239.872879 
L 323.423466 241.019604 
L 327.119977 242.139965 
L 330.816488 243.23457 
L 334.512998 244.304009 
L 338.209509 245.348862 
L 341.906019 246.369693 
L 345.60253 247.367056 
L 349.29904 248.341489 
L 352.995551 249.29352 
L 356.692062 250.223663 
L 360.388572 251.132423 
L 364.085083 252.02029 
L 367.781593 252.887745 
L 371.478104 253.735258 
L 375.174614 254.563286 
L 378.871125 255.372277 
L 382.567635 256.16267 
L 386.264146 256.934892 
L 389.960657 257.68936 
L 393.657167 258.426483 
L 397.353678 259.146659 
L 401.050188 259.850279 
L 404.746699 260.537722 
L 408.443209 261.209361 
L 412.13972 261.865559 
L 415.83623 262.506671 
L 419.532741 263.133044 
L 423.229252 263.745016 
L 426.925762 264.34292 
L 430.622273 264.927077 
" clip-path="url(#p9bf04dd70a)" style="fill: none; stroke: #2ca02c; stroke-width: 1.5; stroke-linecap: square"/>
   </g>
   <g id="patch_3">
    <path d="M 46.37 295.648 
L 46.37 29.4 
" style="fill: none; stroke: #000000; stroke-width: 0.8; stroke-linejoin: miter; stroke-linecap: square"/>
   </g>
   <g id="patch_4">
    <path d="M 448.92 295.648 
L 448.92 29.4 
" style="fill: none; stroke: #000000; stroke-width: 0.8; stroke-linejoin: miter; stroke-linecap: square"/>
   </g>
   <g id="patch_5">
    <path d="M 46.37 295.648 
L 448.92 295.648 
" style="fill: none; stroke: #000000; stroke-width: 0.8; stroke-linejoin: miter; stroke-linecap: square"/>
   </g>
   <g id="patch_6">
    <path d="M 46.37 29.4 
L 448.92 29.4 
" style="fill: none; stroke: #000000; stroke-width: 0.8; stroke-linejoin: miter; stroke-linecap: square"/>
   </g>
   <g id="text_12">
    <!-- 1$\sigma$, 3$\sigma$, and 4$\sigma$ Mid-code LSB vs. $C_{\mathrm{tot}}$ ($N_{\mathrm{bits}}=12$) -->
    <g transform="translate(105.025 23.4) scale(0.12 -0.12)">
     <defs>
      <path id="DejaVuSans-Oblique-3c3" d="M 2219 3044 
Q 1744 3044 1422 2700 
Q 1081 2341 969 1747 
Q 844 1119 1044 756 
Q 1241 397 1706 397 
Q 2166 397 2503 759 
Q 2844 1122 2966 1747 
Q 3075 2319 2881 2700 
Q 2700 3044 2219 3044 
z
M 2309 3503 
L 4219 3500 
L 4106 2925 
L 3463 2925 
Q 3706 2438 3575 1747 
Q 3406 888 2884 400 
Q 2359 -91 1609 -91 
Q 856 -91 525 400 
Q 194 888 363 1747 
Q 528 2609 1050 3097 
Q 1484 3503 2309 3503 
z
" transform="scale(0.015625)"/>
      <path id="DejaVuSans-2c" d="M 750 794 
L 1409 794 
L 1409 256 
L 897 -744 
L 494 -744 
L 750 256 
L 750 794 
z
" transform="scale(0.015625)"/>
      <path id="DejaVuSans-76" d="M 191 3500 
L 800 3500 
L 1894 563 
L 2988 3500 
L 3597 3500 
L 2284 0 
L 1503 0 
L 191 3500 
z
" transform="scale(0.015625)"/>
      <path id="DejaVuSans-73" d="M 2834 3397 
L 2834 2853 
Q 2591 2978 2328 3040 
Q 2066 3103 1784 3103 
Q 1356 3103 1142 2972 
Q 928 2841 928 2578 
Q 928 2378 1081 2264 
Q 1234 2150 1697 2047 
L 1894 2003 
Q 2506 1872 2764 1633 
Q 3022 1394 3022 966 
Q 3022 478 2636 193 
Q 2250 -91 1575 -91 
Q 1294 -91 989 -36 
Q 684 19 347 128 
L 347 722 
Q 666 556 975 473 
Q 1284 391 1588 391 
Q 1994 391 2212 530 
Q 2431 669 2431 922 
Q 2431 1156 2273 1281 
Q 2116 1406 1581 1522 
L 1381 1569 
Q 847 1681 609 1914 
Q 372 2147 372 2553 
Q 372 3047 722 3315 
Q 1072 3584 1716 3584 
Q 2034 3584 2315 3537 
Q 2597 3491 2834 3397 
z
" transform="scale(0.015625)"/>
      <path id="DejaVuSans-2e" d="M 684 794 
L 1344 794 
L 1344 0 
L 684 0 
L 684 794 
z
" transform="scale(0.015625)"/>
      <path id="DejaVuSans-Oblique-4e" d="M 1081 4666 
L 1931 4666 
L 3219 666 
L 4000 4666 
L 4616 4666 
L 3706 0 
L 2853 0 
L 1569 4025 
L 788 0 
L 172 0 
L 1081 4666 
z
" transform="scale(0.015625)"/>
      <path id="DejaVuSans-62" d="M 3116 1747 
Q 3116 2381 2855 2742 
Q 2594 3103 2138 3103 
Q 1681 3103 1420 2742 
Q 1159 2381 1159 1747 
Q 1159 1113 1420 752 
Q 1681 391 2138 391 
Q 2594 391 2855 752 
Q 3116 1113 3116 1747 
z
M 1159 2969 
Q 1341 3281 1617 3432 
Q 1894 3584 2278 3584 
Q 2916 3584 3314 3078 
Q 3713 2572 3713 1747 
Q 3713 922 3314 415 
Q 2916 -91 2278 -91 
Q 1894 -91 1617 61 
Q 1341 213 1159 525 
L 1159 0 
L 581 0 
L 581 4863 
L 1159 4863 
L 1159 2969 
z
" transform="scale(0.015625)"/>
      <path id="DejaVuSans-3d" d="M 678 2906 
L 4684 2906 
L 4684 2381 
L 678 2381 
L 678 2906 
z
M 678 1631 
L 4684 1631 
L 4684 1100 
L 678 1100 
L 678 1631 
z
" transform="scale(0.015625)"/>
     </defs>
     <use xlink:href="#DejaVuSans-31" transform="translate(0 0.015625)"/>
     <use xlink:href="#DejaVuSans-Oblique-3c3" transform="translate(63.623047 0.015625)"/>
     <use xlink:href="#DejaVuSans-2c" transform="translate(127.001953 0.015625)"/>
     <use xlink:href="#DejaVuSans-20" transform="translate(158.789062 0.015625)"/>
     <use xlink:href="#DejaVuSans-33" transform="translate(190.576172 0.015625)"/>
     <use xlink:href="#DejaVuSans-Oblique-3c3" transform="translate(254.199219 0.015625)"/>
     <use xlink:href="#DejaVuSans-2c" transform="translate(317.578125 0.015625)"/>
     <use xlink:href="#DejaVuSans-20" transform="translate(349.365234 0.015625)"/>
     <use xlink:href="#DejaVuSans-61" transform="translate(381.152344 0.015625)"/>
     <use xlink:href="#DejaVuSans-6e" transform="translate(442.431641 0.015625)"/>
     <use xlink:href="#DejaVuSans-64" transform="translate(505.810547 0.015625)"/>
     <use xlink:href="#DejaVuSans-20" transform="translate(569.287109 0.015625)"/>
     <use xlink:href="#DejaVuSans-34" transform="translate(601.074219 0.015625)"/>
     <use xlink:href="#DejaVuSans-Oblique-3c3" transform="translate(664.697266 0.015625)"/>
     <use xlink:href="#DejaVuSans-20" transform="translate(728.076172 0.015625)"/>
     <use xlink:href="#DejaVuSans-4d" transform="translate(759.863281 0.015625)"/>
     <use xlink:href="#DejaVuSans-69" transform="translate(846.142578 0.015625)"/>
     <use xlink:href="#DejaVuSans-64" transform="translate(873.925781 0.015625)"/>
     <use xlink:href="#DejaVuSans-2d" transform="translate(937.402344 0.015625)"/>
     <use xlink:href="#DejaVuSans-63" transform="translate(973.486328 0.015625)"/>
     <use xlink:href="#DejaVuSans-6f" transform="translate(1028.466797 0.015625)"/>
     <use xlink:href="#DejaVuSans-64" transform="translate(1089.648438 0.015625)"/>
     <use xlink:href="#DejaVuSans-65" transform="translate(1153.125 0.015625)"/>
     <use xlink:href="#DejaVuSans-20" transform="translate(1214.648438 0.015625)"/>
     <use xlink:href="#DejaVuSans-4c" transform="translate(1246.435547 0.015625)"/>
     <use xlink:href="#DejaVuSans-53" transform="translate(1302.148438 0.015625)"/>
     <use xlink:href="#DejaVuSans-42" transform="translate(1365.625 0.015625)"/>
     <use xlink:href="#DejaVuSans-20" transform="translate(1434.228516 0.015625)"/>
     <use xlink:href="#DejaVuSans-76" transform="translate(1466.015625 0.015625)"/>
     <use xlink:href="#DejaVuSans-73" transform="translate(1525.195312 0.015625)"/>
     <use xlink:href="#DejaVuSans-2e" transform="translate(1577.294922 0.015625)"/>
     <use xlink:href="#DejaVuSans-20" transform="translate(1609.082031 0.015625)"/>
     <use xlink:href="#DejaVuSans-Oblique-43" transform="translate(1640.869141 0.015625)"/>
     <use xlink:href="#DejaVuSans-74" transform="translate(1710.693359 -16.390625) scale(0.7)"/>
     <use xlink:href="#DejaVuSans-6f" transform="translate(1738.139648 -16.390625) scale(0.7)"/>
     <use xlink:href="#DejaVuSans-74" transform="translate(1780.966797 -16.390625) scale(0.7)"/>
     <use xlink:href="#DejaVuSans-20" transform="translate(1811.147461 0.015625)"/>
     <use xlink:href="#DejaVuSans-28" transform="translate(1842.93457 0.015625)"/>
     <use xlink:href="#DejaVuSans-Oblique-4e" transform="translate(1881.948242 0.015625)"/>
     <use xlink:href="#DejaVuSans-62" transform="translate(1956.75293 -16.390625) scale(0.7)"/>
     <use xlink:href="#DejaVuSans-69" transform="translate(2001.186523 -16.390625) scale(0.7)"/>
     <use xlink:href="#DejaVuSans-74" transform="translate(2020.634766 -16.390625) scale(0.7)"/>
     <use xlink:href="#DejaVuSans-73" transform="translate(2048.081055 -16.390625) scale(0.7)"/>
     <use xlink:href="#DejaVuSans-3d" transform="translate(2106.767578 0.015625)"/>
     <use xlink:href="#DejaVuSans-31" transform="translate(2210.039062 0.015625)"/>
     <use xlink:href="#DejaVuSans-32" transform="translate(2273.662109 0.015625)"/>
     <use xlink:href="#DejaVuSans-29" transform="translate(2337.285156 0.015625)"/>
    </g>
   </g>
   <g id="legend_1">
    <g id="patch_7">
     <path d="M 362.02 81.434375 
L 441.92 81.434375 
Q 443.92 81.434375 443.92 79.434375 
L 443.92 36.4 
Q 443.92 34.4 441.92 34.4 
L 362.02 34.4 
Q 360.02 34.4 360.02 36.4 
L 360.02 79.434375 
Q 360.02 81.434375 362.02 81.434375 
z
" style="fill: #ffffff; opacity: 0.8; stroke: #cccccc; stroke-linejoin: miter"/>
    </g>
    <g id="line2d_58">
     <path d="M 364.02 42.498437 
L 374.02 42.498437 
L 384.02 42.498437 
" style="fill: none; stroke: #1f77b4; stroke-width: 1.5; stroke-linecap: square"/>
    </g>
    <g id="text_13">
     <!-- 1$\sigma$ Bound -->
     <g transform="translate(392.02 45.998437) scale(0.1 -0.1)">
      <defs>
       <path id="DejaVuSans-75" d="M 544 1381 
L 544 3500 
L 1119 3500 
L 1119 1403 
Q 1119 906 1312 657 
Q 1506 409 1894 409 
Q 2359 409 2629 706 
Q 2900 1003 2900 1516 
L 2900 3500 
L 3475 3500 
L 3475 0 
L 2900 0 
L 2900 538 
Q 2691 219 2414 64 
Q 2138 -91 1772 -91 
Q 1169 -91 856 284 
Q 544 659 544 1381 
z
M 1991 3584 
L 1991 3584 
z
" transform="scale(0.015625)"/>
      </defs>
      <use xlink:href="#DejaVuSans-31" transform="translate(0 0.015625)"/>
      <use xlink:href="#DejaVuSans-Oblique-3c3" transform="translate(63.623047 0.015625)"/>
      <use xlink:href="#DejaVuSans-20" transform="translate(127.001953 0.015625)"/>
      <use xlink:href="#DejaVuSans-42" transform="translate(158.789062 0.015625)"/>
      <use xlink:href="#DejaVuSans-6f" transform="translate(227.392578 0.015625)"/>
      <use xlink:href="#DejaVuSans-75" transform="translate(288.574219 0.015625)"/>
      <use xlink:href="#DejaVuSans-6e" transform="translate(351.953125 0.015625)"/>
      <use xlink:href="#DejaVuSans-64" transform="translate(415.332031 0.015625)"/>
     </g>
    </g>
    <g id="line2d_59">
     <path d="M 364.02 57.176562 
L 374.02 57.176562 
L 384.02 57.176562 
" style="fill: none; stroke: #ff7f0e; stroke-width: 1.5; stroke-linecap: square"/>
    </g>
    <g id="text_14">
     <!-- 3$\sigma$ Bound -->
     <g transform="translate(392.02 60.676562) scale(0.1 -0.1)">
      <use xlink:href="#DejaVuSans-33" transform="translate(0 0.015625)"/>
      <use xlink:href="#DejaVuSans-Oblique-3c3" transform="translate(63.623047 0.015625)"/>
      <use xlink:href="#DejaVuSans-20" transform="translate(127.001953 0.015625)"/>
      <use xlink:href="#DejaVuSans-42" transform="translate(158.789062 0.015625)"/>
      <use xlink:href="#DejaVuSans-6f" transform="translate(227.392578 0.015625)"/>
      <use xlink:href="#DejaVuSans-75" transform="translate(288.574219 0.015625)"/>
      <use xlink:href="#DejaVuSans-6e" transform="translate(351.953125 0.015625)"/>
      <use xlink:href="#DejaVuSans-64" transform="translate(415.332031 0.015625)"/>
     </g>
    </g>
    <g id="line2d_60">
     <path d="M 364.02 71.854687 
L 374.02 71.854687 
L 384.02 71.854687 
" style="fill: none; stroke: #2ca02c; stroke-width: 1.5; stroke-linecap: square"/>
    </g>
    <g id="text_15">
     <!-- 4$\sigma$ Bound -->
     <g transform="translate(392.02 75.354687) scale(0.1 -0.1)">
      <use xlink:href="#DejaVuSans-34" transform="translate(0 0.015625)"/>
      <use xlink:href="#DejaVuSans-Oblique-3c3" transform="translate(63.623047 0.015625)"/>
      <use xlink:href="#DejaVuSans-20" transform="translate(127.001953 0.015625)"/>
      <use xlink:href="#DejaVuSans-42" transform="translate(158.789062 0.015625)"/>
      <use xlink:href="#DejaVuSans-6f" transform="translate(227.392578 0.015625)"/>
      <use xlink:href="#DejaVuSans-75" transform="translate(288.574219 0.015625)"/>
      <use xlink:href="#DejaVuSans-6e" transform="translate(351.953125 0.015625)"/>
      <use xlink:href="#DejaVuSans-64" transform="translate(415.332031 0.015625)"/>
     </g>
    </g>
   </g>
  </g>
 </g>
 <defs>
  <clipPath id="p9bf04dd70a">
   <rect x="46.37" y="29.4" width="402.55" height="266.248"/>
  </clipPath>
 </defs>
</svg>
