<svg xmlns="http://www.w3.org/2000/svg" xmlns:xlink="http://www.w3.org/1999/xlink" xmlns:s="https://github.com/nturley/netlistsvg" width="796" height="1071.5">
  <style>svg {
    stroke:#000;
    fill:none;
  }
  text {
    fill:#000;
    stroke:none;
    font-size:10px;
    font-weight: bold;
    font-family: "Courier New", monospace;
  }
  .nodelabel {
    text-anchor: middle;
  }
  .inputPortLabel {
    text-anchor: end;
  }
  .splitjoinBody {
    fill:#000;
  }</style>
  <g s:type="generic" transform="translate(621,22)" s:width="30" s:height="40" id="cell_adc_inst">
    <text x="15" y="-4" class="nodelabel cell_adc_inst" s:attribute="ref">adc</text>
    <rect width="30" height="460" s:generic="body" class="cell_adc_inst"/>
    <g transform="translate(0,10)" s:x="0" s:y="10" s:pid="in0" id="port_adc_inst~dac_astate_n">
      <text x="-3" y="-4" class="inputPortLabel cell_adc_inst">dac_astate_n</text>
    </g>
    <g transform="translate(0,30)" s:x="0" s:y="10" s:pid="in0" id="port_adc_inst~dac_astate_p">
      <text x="-3" y="-4" class="inputPortLabel cell_adc_inst">dac_astate_p</text>
    </g>
    <g transform="translate(0,50)" s:x="0" s:y="10" s:pid="in0" id="port_adc_inst~dac_bstate_n">
      <text x="-3" y="-4" class="inputPortLabel cell_adc_inst">dac_bstate_n</text>
    </g>
    <g transform="translate(0,70)" s:x="0" s:y="10" s:pid="in0" id="port_adc_inst~dac_bstate_p">
      <text x="-3" y="-4" class="inputPortLabel cell_adc_inst">dac_bstate_p</text>
    </g>
    <g transform="translate(0,90)" s:x="0" s:y="10" s:pid="in0" id="port_adc_inst~dac_diffcaps">
      <text x="-3" y="-4" class="inputPortLabel cell_adc_inst">dac_diffcaps</text>
    </g>
    <g transform="translate(0,110)" s:x="0" s:y="10" s:pid="in0" id="port_adc_inst~dac_mode">
      <text x="-3" y="-4" class="inputPortLabel cell_adc_inst">dac_mode</text>
    </g>
    <g transform="translate(0,130)" s:x="0" s:y="10" s:pid="in0" id="port_adc_inst~en_comp">
      <text x="-3" y="-4" class="inputPortLabel cell_adc_inst">en_comp</text>
    </g>
    <g transform="translate(0,150)" s:x="0" s:y="10" s:pid="in0" id="port_adc_inst~en_init">
      <text x="-3" y="-4" class="inputPortLabel cell_adc_inst">en_init</text>
    </g>
    <g transform="translate(0,170)" s:x="0" s:y="10" s:pid="in0" id="port_adc_inst~en_samp_n">
      <text x="-3" y="-4" class="inputPortLabel cell_adc_inst">en_samp_n</text>
    </g>
    <g transform="translate(0,190)" s:x="0" s:y="10" s:pid="in0" id="port_adc_inst~en_samp_p">
      <text x="-3" y="-4" class="inputPortLabel cell_adc_inst">en_samp_p</text>
    </g>
    <g transform="translate(0,210)" s:x="0" s:y="10" s:pid="in0" id="port_adc_inst~en_update">
      <text x="-3" y="-4" class="inputPortLabel cell_adc_inst">en_update</text>
    </g>
    <g transform="translate(0,230)" s:x="0" s:y="10" s:pid="in0" id="port_adc_inst~seq_comp">
      <text x="-3" y="-4" class="inputPortLabel cell_adc_inst">seq_comp</text>
    </g>
    <g transform="translate(0,250)" s:x="0" s:y="10" s:pid="in0" id="port_adc_inst~seq_init">
      <text x="-3" y="-4" class="inputPortLabel cell_adc_inst">seq_init</text>
    </g>
    <g transform="translate(0,270)" s:x="0" s:y="10" s:pid="in0" id="port_adc_inst~seq_samp">
      <text x="-3" y="-4" class="inputPortLabel cell_adc_inst">seq_samp</text>
    </g>
    <g transform="translate(0,290)" s:x="0" s:y="10" s:pid="in0" id="port_adc_inst~seq_update">
      <text x="-3" y="-4" class="inputPortLabel cell_adc_inst">seq_update</text>
    </g>
    <g transform="translate(0,310)" s:x="0" s:y="10" s:pid="in0" id="port_adc_inst~vdd_a">
      <text x="-3" y="-4" class="inputPortLabel cell_adc_inst">vdd_a</text>
    </g>
    <g transform="translate(0,330)" s:x="0" s:y="10" s:pid="in0" id="port_adc_inst~vdd_d">
      <text x="-3" y="-4" class="inputPortLabel cell_adc_inst">vdd_d</text>
    </g>
    <g transform="translate(0,350)" s:x="0" s:y="10" s:pid="in0" id="port_adc_inst~vdd_dac">
      <text x="-3" y="-4" class="inputPortLabel cell_adc_inst">vdd_dac</text>
    </g>
    <g transform="translate(0,370)" s:x="0" s:y="10" s:pid="in0" id="port_adc_inst~vin_n">
      <text x="-3" y="-4" class="inputPortLabel cell_adc_inst">vin_n</text>
    </g>
    <g transform="translate(0,390)" s:x="0" s:y="10" s:pid="in0" id="port_adc_inst~vin_p">
      <text x="-3" y="-4" class="inputPortLabel cell_adc_inst">vin_p</text>
    </g>
    <g transform="translate(0,410)" s:x="0" s:y="10" s:pid="in0" id="port_adc_inst~vss_a">
      <text x="-3" y="-4" class="inputPortLabel cell_adc_inst">vss_a</text>
    </g>
    <g transform="translate(0,430)" s:x="0" s:y="10" s:pid="in0" id="port_adc_inst~vss_d">
      <text x="-3" y="-4" class="inputPortLabel cell_adc_inst">vss_d</text>
    </g>
    <g transform="translate(0,450)" s:x="0" s:y="10" s:pid="in0" id="port_adc_inst~vss_dac">
      <text x="-3" y="-4" class="inputPortLabel cell_adc_inst">vss_dac</text>
    </g>
    <g transform="translate(30,10)" s:x="30" s:y="10" s:pid="out0" id="port_adc_inst~comp_out">
      <text x="5" y="-4" style="fill:#000; stroke:none" class="cell_adc_inst">comp_out</text>
    </g>
  </g>
  <g s:type="generic" transform="translate(149,32)" s:width="30" s:height="40" id="cell_spi_reg">
    <text x="15" y="-4" class="nodelabel cell_spi_reg" s:attribute="ref">spi_register</text>
    <rect width="30" height="80" s:generic="body" class="cell_spi_reg"/>
    <g transform="translate(0,10)" s:x="0" s:y="10" s:pid="in0" id="port_spi_reg~rst_b">
      <text x="-3" y="-4" class="inputPortLabel cell_spi_reg">rst_b</text>
    </g>
    <g transform="translate(0,30)" s:x="0" s:y="10" s:pid="in0" id="port_spi_reg~spi_cs_b">
      <text x="-3" y="-4" class="inputPortLabel cell_spi_reg">spi_cs_b</text>
    </g>
    <g transform="translate(0,50)" s:x="0" s:y="10" s:pid="in0" id="port_spi_reg~spi_sclk">
      <text x="-3" y="-4" class="inputPortLabel cell_spi_reg">spi_sclk</text>
    </g>
    <g transform="translate(0,70)" s:x="0" s:y="10" s:pid="in0" id="port_spi_reg~spi_sdi">
      <text x="-3" y="-4" class="inputPortLabel cell_spi_reg">spi_sdi</text>
    </g>
    <g transform="translate(30,10)" s:x="30" s:y="10" s:pid="out0" id="port_spi_reg~spi_bits">
      <text x="5" y="-4" style="fill:#000; stroke:none" class="cell_spi_reg">spi_bits</text>
    </g>
    <g transform="translate(30,30)" s:x="30" s:y="10" s:pid="out0" id="port_spi_reg~spi_sdo">
      <text x="5" y="-4" style="fill:#000; stroke:none" class="cell_spi_reg">spi_sdo</text>
    </g>
  </g>
  <g s:type="inputExt" transform="translate(264,369.5)" s:width="30" s:height="20" id="cell_seq_init">
    <text x="15" y="-4" class="nodelabel cell_seq_init" s:attribute="ref">seq_init</text>
    <s:alias val="$_inputExt_"/>
    <path d="M0,0 L0,20 L15,20 L30,10 L15,0 Z" class="cell_seq_init"/>
    <g s:x="28" s:y="10" s:pid="Y"/>
  </g>
  <g s:type="inputExt" transform="translate(264,434.5)" s:width="30" s:height="20" id="cell_seq_samp">
    <text x="15" y="-4" class="nodelabel cell_seq_samp" s:attribute="ref">seq_samp</text>
    <s:alias val="$_inputExt_"/>
    <path d="M0,0 L0,20 L15,20 L30,10 L15,0 Z" class="cell_seq_samp"/>
    <g s:x="28" s:y="10" s:pid="Y"/>
  </g>
  <g s:type="inputExt" transform="translate(264,304.5)" s:width="30" s:height="20" id="cell_seq_comp">
    <text x="15" y="-4" class="nodelabel cell_seq_comp" s:attribute="ref">seq_comp</text>
    <s:alias val="$_inputExt_"/>
    <path d="M0,0 L0,20 L15,20 L30,10 L15,0 Z" class="cell_seq_comp"/>
    <g s:x="28" s:y="10" s:pid="Y"/>
  </g>
  <g s:type="inputExt" transform="translate(264,499.5)" s:width="30" s:height="20" id="cell_seq_logic">
    <text x="15" y="-4" class="nodelabel cell_seq_logic" s:attribute="ref">seq_logic</text>
    <s:alias val="$_inputExt_"/>
    <path d="M0,0 L0,20 L15,20 L30,10 L15,0 Z" class="cell_seq_logic"/>
    <g s:x="28" s:y="10" s:pid="Y"/>
  </g>
  <g s:type="inputExt" transform="translate(12,162.5)" s:width="30" s:height="20" id="cell_spi_sclk">
    <text x="15" y="-4" class="nodelabel cell_spi_sclk" s:attribute="ref">spi_sclk</text>
    <s:alias val="$_inputExt_"/>
    <path d="M0,0 L0,20 L15,20 L30,10 L15,0 Z" class="cell_spi_sclk"/>
    <g s:x="28" s:y="10" s:pid="Y"/>
  </g>
  <g s:type="inputExt" transform="translate(12,227.5)" s:width="30" s:height="20" id="cell_spi_sdi">
    <text x="15" y="-4" class="nodelabel cell_spi_sdi" s:attribute="ref">spi_sdi</text>
    <s:alias val="$_inputExt_"/>
    <path d="M0,0 L0,20 L15,20 L30,10 L15,0 Z" class="cell_spi_sdi"/>
    <g s:x="28" s:y="10" s:pid="Y"/>
  </g>
  <g s:type="outputExt" transform="translate(736,1039.5)" s:width="30" s:height="20" id="cell_spi_sdo">
    <text x="15" y="-4" class="nodelabel cell_spi_sdo" s:attribute="ref">spi_sdo</text>
    <s:alias val="$_outputExt_"/>
    <path d="M30,0 L30,20 L15,20 L0,10 L15,0 Z" class="cell_spi_sdo"/>
    <g s:x="0" s:y="10" s:pid="A"/>
  </g>
  <g s:type="inputExt" transform="translate(12,97.5)" s:width="30" s:height="20" id="cell_spi_cs_b">
    <text x="15" y="-4" class="nodelabel cell_spi_cs_b" s:attribute="ref">spi_cs_b</text>
    <s:alias val="$_inputExt_"/>
    <path d="M0,0 L0,20 L15,20 L30,10 L15,0 Z" class="cell_spi_cs_b"/>
    <g s:x="28" s:y="10" s:pid="Y"/>
  </g>
  <g s:type="inputExt" transform="translate(12,32.5)" s:width="30" s:height="20" id="cell_reset_b">
    <text x="15" y="-4" class="nodelabel cell_reset_b" s:attribute="ref">reset_b</text>
    <s:alias val="$_inputExt_"/>
    <path d="M0,0 L0,20 L15,20 L30,10 L15,0 Z" class="cell_reset_b"/>
    <g s:x="28" s:y="10" s:pid="Y"/>
  </g>
  <g s:type="outputExt" transform="translate(736,22.5)" s:width="30" s:height="20" id="cell_comp_out">
    <text x="15" y="-4" class="nodelabel cell_comp_out" s:attribute="ref">comp_out</text>
    <s:alias val="$_outputExt_"/>
    <path d="M30,0 L30,20 L15,20 L0,10 L15,0 Z" class="cell_comp_out"/>
    <g s:x="0" s:y="10" s:pid="A"/>
  </g>
  <g s:type="inputExt" transform="translate(264,824.5)" s:width="30" s:height="20" id="cell_vin_p">
    <text x="15" y="-4" class="nodelabel cell_vin_p" s:attribute="ref">vin_p</text>
    <s:alias val="$_inputExt_"/>
    <path d="M0,0 L0,20 L15,20 L30,10 L15,0 Z" class="cell_vin_p"/>
    <g s:x="28" s:y="10" s:pid="Y"/>
  </g>
  <g s:type="inputExt" transform="translate(264,759.5)" s:width="30" s:height="20" id="cell_vin_n">
    <text x="15" y="-4" class="nodelabel cell_vin_n" s:attribute="ref">vin_n</text>
    <s:alias val="$_inputExt_"/>
    <path d="M0,0 L0,20 L15,20 L30,10 L15,0 Z" class="cell_vin_n"/>
    <g s:x="28" s:y="10" s:pid="Y"/>
  </g>
  <g s:type="inputExt" transform="translate(264,564.5)" s:width="30" s:height="20" id="cell_vdd_a">
    <text x="15" y="-4" class="nodelabel cell_vdd_a" s:attribute="ref">vdd_a</text>
    <s:alias val="$_inputExt_"/>
    <path d="M0,0 L0,20 L15,20 L30,10 L15,0 Z" class="cell_vdd_a"/>
    <g s:x="28" s:y="10" s:pid="Y"/>
  </g>
  <g s:type="inputExt" transform="translate(264,889.5)" s:width="30" s:height="20" id="cell_vss_a">
    <text x="15" y="-4" class="nodelabel cell_vss_a" s:attribute="ref">vss_a</text>
    <s:alias val="$_inputExt_"/>
    <path d="M0,0 L0,20 L15,20 L30,10 L15,0 Z" class="cell_vss_a"/>
    <g s:x="28" s:y="10" s:pid="Y"/>
  </g>
  <g s:type="inputExt" transform="translate(264,629.5)" s:width="30" s:height="20" id="cell_vdd_d">
    <text x="15" y="-4" class="nodelabel cell_vdd_d" s:attribute="ref">vdd_d</text>
    <s:alias val="$_inputExt_"/>
    <path d="M0,0 L0,20 L15,20 L30,10 L15,0 Z" class="cell_vdd_d"/>
    <g s:x="28" s:y="10" s:pid="Y"/>
  </g>
  <g s:type="inputExt" transform="translate(264,954.5)" s:width="30" s:height="20" id="cell_vss_d">
    <text x="15" y="-4" class="nodelabel cell_vss_d" s:attribute="ref">vss_d</text>
    <s:alias val="$_inputExt_"/>
    <path d="M0,0 L0,20 L15,20 L30,10 L15,0 Z" class="cell_vss_d"/>
    <g s:x="28" s:y="10" s:pid="Y"/>
  </g>
  <g s:type="inputExt" transform="translate(264,694.5)" s:width="30" s:height="20" id="cell_vdd_dac">
    <text x="15" y="-4" class="nodelabel cell_vdd_dac" s:attribute="ref">vdd_dac</text>
    <s:alias val="$_inputExt_"/>
    <path d="M0,0 L0,20 L15,20 L30,10 L15,0 Z" class="cell_vdd_dac"/>
    <g s:x="28" s:y="10" s:pid="Y"/>
  </g>
  <g s:type="inputExt" transform="translate(264,1019.5)" s:width="30" s:height="20" id="cell_vss_dac">
    <text x="15" y="-4" class="nodelabel cell_vss_dac" s:attribute="ref">vss_dac</text>
    <s:alias val="$_inputExt_"/>
    <path d="M0,0 L0,20 L15,20 L30,10 L15,0 Z" class="cell_vss_dac"/>
    <g s:x="28" s:y="10" s:pid="Y"/>
  </g>
  <g s:type="split" transform="translate(291,54.5)" s:width="5" s:height="40" id="cell_$split$,52,53,54,55,56,57,58,59,60,61,62,63,64,65,66,67,20,21,22,23,24,25,26,27,28,29,30,31,32,33,34,35,68,69,70,71,72,73,74,75,76,77,78,79,80,81,82,83,36,37,38,39,40,41,42,43,44,45,46,47,48,49,50,51,87,89,88,86,90,85,84,91,92,93,94,95,96,97,98,99,100,101,102,103,104,105,106,107,108,109,110,111,112,113,114,115,116,117,118,119,120,121,122,123,124,125,126,127,128,129,130,131,132,133,134,135,136,137,138,139,140,141,142,143,144,145,146,147,148,149,150,151,152,153,154,155,156,157,158,159,160,161,162,163,164,165,166,167,168,169,170,171,172,173,174,175,176,177,178,179,180,181,182,183,184,185,186,187,188,189,190,191,192,193,194,195,196,197,198,199,">
    <rect width="5" height="220" class="splitjoinBody" s:generic="body"/>
    <s:alias val="$_split_"/>
    <g s:x="0" s:y="20" s:pid="in"/>
    <g transform="translate(4,10)" s:x="4" s:y="10" s:pid="out0">
      <text x="5" y="-4">16:31</text>
    </g>
    <g transform="translate(4,30)" s:x="4" s:y="10" s:pid="out0">
      <text x="5" y="-4">48:63</text>
    </g>
    <g transform="translate(4,50)" s:x="4" s:y="10" s:pid="out0">
      <text x="5" y="-4">0:15</text>
    </g>
    <g transform="translate(4,70)" s:x="4" s:y="10" s:pid="out0">
      <text x="5" y="-4">32:47</text>
    </g>
    <g transform="translate(4,90)" s:x="4" s:y="10" s:pid="out0">
      <text x="5" y="-4">70</text>
    </g>
    <g transform="translate(4,110)" s:x="4" s:y="10" s:pid="out0">
      <text x="5" y="-4">69</text>
    </g>
    <g transform="translate(4,130)" s:x="4" s:y="10" s:pid="out0">
      <text x="5" y="-4">67</text>
    </g>
    <g transform="translate(4,150)" s:x="4" s:y="10" s:pid="out0">
      <text x="5" y="-4">64</text>
    </g>
    <g transform="translate(4,170)" s:x="4" s:y="10" s:pid="out0">
      <text x="5" y="-4">66</text>
    </g>
    <g transform="translate(4,190)" s:x="4" s:y="10" s:pid="out0">
      <text x="5" y="-4">65</text>
    </g>
    <g transform="translate(4,210)" s:x="4" s:y="10" s:pid="out0">
      <text x="5" y="-4">68</text>
    </g>
  </g>
  <line x1="295.5" x2="295.5" y1="64.5" y2="32.5" class="net_20,21,22,23,24,25,26,27,28,29,30,31,32,33,34,35"/>
  <line x1="295.5" x2="621" y1="32.5" y2="32.5" class="net_20,21,22,23,24,25,26,27,28,29,30,31,32,33,34,35"/>
  <line x1="296" x2="328" y1="85" y2="85" class="net_36,37,38,39,40,41,42,43,44,45,46,47,48,49,50,51"/>
  <line x1="328" x2="328" y1="85" y2="52.5" class="net_36,37,38,39,40,41,42,43,44,45,46,47,48,49,50,51"/>
  <line x1="328" x2="621" y1="52.5" y2="52.5" class="net_36,37,38,39,40,41,42,43,44,45,46,47,48,49,50,51"/>
  <line x1="296" x2="338" y1="105" y2="105" class="net_52,53,54,55,56,57,58,59,60,61,62,63,64,65,66,67"/>
  <line x1="338" x2="338" y1="105" y2="72.5" class="net_52,53,54,55,56,57,58,59,60,61,62,63,64,65,66,67"/>
  <line x1="338" x2="621" y1="72.5" y2="72.5" class="net_52,53,54,55,56,57,58,59,60,61,62,63,64,65,66,67"/>
  <line x1="296" x2="348" y1="125" y2="125" class="net_68,69,70,71,72,73,74,75,76,77,78,79,80,81,82,83"/>
  <line x1="348" x2="348" y1="125" y2="92.5" class="net_68,69,70,71,72,73,74,75,76,77,78,79,80,81,82,83"/>
  <line x1="348" x2="621" y1="92.5" y2="92.5" class="net_68,69,70,71,72,73,74,75,76,77,78,79,80,81,82,83"/>
  <line x1="296" x2="358" y1="145" y2="145" class="net_84"/>
  <line x1="358" x2="358" y1="145" y2="112.5" class="net_84"/>
  <line x1="358" x2="621" y1="112.5" y2="112.5" class="net_84"/>
  <line x1="296" x2="368" y1="165" y2="165" class="net_85"/>
  <line x1="368" x2="368" y1="165" y2="132.5" class="net_85"/>
  <line x1="368" x2="621" y1="132.5" y2="132.5" class="net_85"/>
  <line x1="296" x2="378" y1="185" y2="185" class="net_86"/>
  <line x1="378" x2="378" y1="185" y2="152.5" class="net_86"/>
  <line x1="378" x2="621" y1="152.5" y2="152.5" class="net_86"/>
  <line x1="296" x2="388" y1="205" y2="205" class="net_87"/>
  <line x1="388" x2="388" y1="205" y2="172.5" class="net_87"/>
  <line x1="388" x2="621" y1="172.5" y2="172.5" class="net_87"/>
  <line x1="296" x2="398" y1="225" y2="225" class="net_88"/>
  <line x1="398" x2="398" y1="225" y2="192.5" class="net_88"/>
  <line x1="398" x2="621" y1="192.5" y2="192.5" class="net_88"/>
  <line x1="296" x2="408" y1="245" y2="245" class="net_89"/>
  <line x1="408" x2="408" y1="245" y2="212.5" class="net_89"/>
  <line x1="408" x2="621" y1="212.5" y2="212.5" class="net_89"/>
  <line x1="295.5" x2="295.5" y1="265.5" y2="284.5" class="net_90"/>
  <line x1="295.5" x2="418" y1="284.5" y2="284.5" class="net_90"/>
  <line x1="418" x2="418" y1="284.5" y2="232.5" class="net_90"/>
  <line x1="418" x2="621" y1="232.5" y2="232.5" class="net_90"/>
  <line x1="292" x2="428" y1="314.5" y2="314.5" class="net_4"/>
  <line x1="428" x2="428" y1="314.5" y2="252.5" class="net_4"/>
  <line x1="428" x2="621" y1="252.5" y2="252.5" class="net_4"/>
  <line x1="292" x2="438" y1="379.5" y2="379.5" class="net_2"/>
  <line x1="438" x2="438" y1="379.5" y2="272.5" class="net_2"/>
  <line x1="438" x2="621" y1="272.5" y2="272.5" class="net_2"/>
  <line x1="292" x2="448" y1="444.5" y2="444.5" class="net_3"/>
  <line x1="448" x2="448" y1="444.5" y2="292.5" class="net_3"/>
  <line x1="448" x2="621" y1="292.5" y2="292.5" class="net_3"/>
  <line x1="292" x2="458" y1="509.5" y2="509.5" class="net_5"/>
  <line x1="458" x2="458" y1="509.5" y2="312.5" class="net_5"/>
  <line x1="458" x2="621" y1="312.5" y2="312.5" class="net_5"/>
  <line x1="292" x2="468" y1="574.5" y2="574.5" class="net_14"/>
  <line x1="468" x2="468" y1="574.5" y2="332.5" class="net_14"/>
  <line x1="468" x2="621" y1="332.5" y2="332.5" class="net_14"/>
  <line x1="292" x2="478" y1="639.5" y2="639.5" class="net_16"/>
  <line x1="478" x2="478" y1="639.5" y2="352.5" class="net_16"/>
  <line x1="478" x2="621" y1="352.5" y2="352.5" class="net_16"/>
  <line x1="292" x2="488" y1="704.5" y2="704.5" class="net_18"/>
  <line x1="488" x2="488" y1="704.5" y2="372.5" class="net_18"/>
  <line x1="488" x2="621" y1="372.5" y2="372.5" class="net_18"/>
  <line x1="292" x2="498" y1="769.5" y2="769.5" class="net_13"/>
  <line x1="498" x2="498" y1="769.5" y2="392.5" class="net_13"/>
  <line x1="498" x2="621" y1="392.5" y2="392.5" class="net_13"/>
  <line x1="292" x2="508" y1="834.5" y2="834.5" class="net_12"/>
  <line x1="508" x2="508" y1="834.5" y2="412.5" class="net_12"/>
  <line x1="508" x2="621" y1="412.5" y2="412.5" class="net_12"/>
  <line x1="292" x2="518" y1="899.5" y2="899.5" class="net_15"/>
  <line x1="518" x2="518" y1="899.5" y2="432.5" class="net_15"/>
  <line x1="518" x2="621" y1="432.5" y2="432.5" class="net_15"/>
  <line x1="292" x2="528" y1="964.5" y2="964.5" class="net_17"/>
  <line x1="528" x2="528" y1="964.5" y2="452.5" class="net_17"/>
  <line x1="528" x2="621" y1="452.5" y2="452.5" class="net_17"/>
  <line x1="292" x2="538" y1="1029.5" y2="1029.5" class="net_19"/>
  <line x1="538" x2="538" y1="1029.5" y2="472.5" class="net_19"/>
  <line x1="538" x2="621" y1="472.5" y2="472.5" class="net_19"/>
  <line x1="40" x2="149" y1="42.5" y2="42.5" class="net_10"/>
  <line x1="40" x2="70" y1="107.5" y2="107.5" class="net_9"/>
  <line x1="70" x2="70" y1="107.5" y2="62.5" class="net_9"/>
  <line x1="70" x2="149" y1="62.5" y2="62.5" class="net_9"/>
  <line x1="40" x2="80" y1="172.5" y2="172.5" class="net_6"/>
  <line x1="80" x2="80" y1="172.5" y2="82.5" class="net_6"/>
  <line x1="80" x2="149" y1="82.5" y2="82.5" class="net_6"/>
  <line x1="40" x2="90" y1="237.5" y2="237.5" class="net_7"/>
  <line x1="90" x2="90" y1="237.5" y2="102.5" class="net_7"/>
  <line x1="90" x2="149" y1="102.5" y2="102.5" class="net_7"/>
  <line x1="180" x2="239" y1="62.5" y2="62.5" class="net_8"/>
  <line x1="239" x2="239" y1="62.5" y2="1049.5" class="net_8"/>
  <line x1="239" x2="736" y1="1049.5" y2="1049.5" class="net_8"/>
  <line x1="652" x2="736" y1="32.5" y2="32.5" class="net_11"/>
  <line x1="180" x2="291.5" y1="42.5" y2="42.5" class="net_52,53,54,55,56,57,58,59,60,61,62,63,64,65,66,67,20,21,22,23,24,25,26,27,28,29,30,31,32,33,34,35,68,69,70,71,72,73,74,75,76,77,78,79,80,81,82,83,36,37,38,39,40,41,42,43,44,45,46,47,48,49,50,51,87,89,88,86,90,85,84,91,92,93,94,95,96,97,98,99,100,101,102,103,104,105,106,107,108,109,110,111,112,113,114,115,116,117,118,119,120,121,122,123,124,125,126,127,128,129,130,131,132,133,134,135,136,137,138,139,140,141,142,143,144,145,146,147,148,149,150,151,152,153,154,155,156,157,158,159,160,161,162,163,164,165,166,167,168,169,170,171,172,173,174,175,176,177,178,179,180,181,182,183,184,185,186,187,188,189,190,191,192,193,194,195,196,197,198,199"/>
  <line x1="291.5" x2="291.5" y1="42.5" y2="74.5" class="net_52,53,54,55,56,57,58,59,60,61,62,63,64,65,66,67,20,21,22,23,24,25,26,27,28,29,30,31,32,33,34,35,68,69,70,71,72,73,74,75,76,77,78,79,80,81,82,83,36,37,38,39,40,41,42,43,44,45,46,47,48,49,50,51,87,89,88,86,90,85,84,91,92,93,94,95,96,97,98,99,100,101,102,103,104,105,106,107,108,109,110,111,112,113,114,115,116,117,118,119,120,121,122,123,124,125,126,127,128,129,130,131,132,133,134,135,136,137,138,139,140,141,142,143,144,145,146,147,148,149,150,151,152,153,154,155,156,157,158,159,160,161,162,163,164,165,166,167,168,169,170,171,172,173,174,175,176,177,178,179,180,181,182,183,184,185,186,187,188,189,190,191,192,193,194,195,196,197,198,199"/>
</svg>
