<?xml version="1.0" encoding="utf-8" standalone="no"?>
<!DOCTYPE svg PUBLIC "-//W3C//DTD SVG 1.1//EN"
  "http://www.w3.org/Graphics/SVG/1.1/DTD/svg11.dtd">
<svg xmlns:xlink="http://www.w3.org/1999/xlink" width="460.8pt" height="345.6pt" viewBox="0 0 460.8 345.6" xmlns="http://www.w3.org/2000/svg" version="1.1">
 <metadata>
  <rdf:RDF xmlns:dc="http://purl.org/dc/elements/1.1/" xmlns:cc="http://creativecommons.org/ns#" xmlns:rdf="http://www.w3.org/1999/02/22-rdf-syntax-ns#">
   <cc:Work>
    <dc:type rdf:resource="http://purl.org/dc/dcmitype/StillImage"/>
    <dc:date>2025-08-08T13:31:55.794939</dc:date>
    <dc:format>image/svg+xml</dc:format>
    <dc:creator>
     <cc:Agent>
      <dc:title>Matplotlib v3.10.3, https://matplotlib.org/</dc:title>
     </cc:Agent>
    </dc:creator>
   </cc:Work>
  </rdf:RDF>
 </metadata>
 <defs>
  <style type="text/css">*{stroke-linejoin: round; stroke-linecap: butt}</style>
 </defs>
 <g id="figure_1">
  <g id="patch_1">
   <path d="M 0 345.6 
L 460.8 345.6 
L 460.8 0 
L 0 0 
z
" style="fill: #ffffff"/>
  </g>
  <g id="axes_1">
   <g id="patch_2">
    <path d="M 61.85 295.648 
L 448.92 295.648 
L 448.92 29.4 
L 61.85 29.4 
z
" style="fill: #ffffff"/>
   </g>
   <g id="matplotlib.axis_1">
    <g id="xtick_1">
     <g id="line2d_1">
      <path d="M 79.444091 295.648 
L 79.444091 29.4 
" clip-path="url(#p00835014c6)" style="fill: none; stroke-dasharray: 2.96,1.28; stroke-dashoffset: 0; stroke: #b0b0b0; stroke-opacity: 0.5; stroke-width: 0.8"/>
     </g>
     <g id="line2d_2">
      <defs>
       <path id="m2bba2a2af8" d="M 0 0 
L 0 3.5 
" style="stroke: #000000; stroke-width: 0.8"/>
      </defs>
      <g>
       <use xlink:href="#m2bba2a2af8" x="79.444091" y="295.648" style="stroke: #000000; stroke-width: 0.8"/>
      </g>
     </g>
     <g id="text_1">
      <!-- $\mathdefault{10^{2}}$ -->
      <g transform="translate(70.644091 310.246437) scale(0.1 -0.1)">
       <defs>
        <path id="DejaVuSans-31" d="M 794 531 
L 1825 531 
L 1825 4091 
L 703 3866 
L 703 4441 
L 1819 4666 
L 2450 4666 
L 2450 531 
L 3481 531 
L 3481 0 
L 794 0 
L 794 531 
z
" transform="scale(0.015625)"/>
        <path id="DejaVuSans-30" d="M 2034 4250 
Q 1547 4250 1301 3770 
Q 1056 3291 1056 2328 
Q 1056 1369 1301 889 
Q 1547 409 2034 409 
Q 2525 409 2770 889 
Q 3016 1369 3016 2328 
Q 3016 3291 2770 3770 
Q 2525 4250 2034 4250 
z
M 2034 4750 
Q 2819 4750 3233 4129 
Q 3647 3509 3647 2328 
Q 3647 1150 3233 529 
Q 2819 -91 2034 -91 
Q 1250 -91 836 529 
Q 422 1150 422 2328 
Q 422 3509 836 4129 
Q 1250 4750 2034 4750 
z
" transform="scale(0.015625)"/>
        <path id="DejaVuSans-32" d="M 1228 531 
L 3431 531 
L 3431 0 
L 469 0 
L 469 531 
Q 828 903 1448 1529 
Q 2069 2156 2228 2338 
Q 2531 2678 2651 2914 
Q 2772 3150 2772 3378 
Q 2772 3750 2511 3984 
Q 2250 4219 1831 4219 
Q 1534 4219 1204 4116 
Q 875 4013 500 3803 
L 500 4441 
Q 881 4594 1212 4672 
Q 1544 4750 1819 4750 
Q 2544 4750 2975 4387 
Q 3406 4025 3406 3419 
Q 3406 3131 3298 2873 
Q 3191 2616 2906 2266 
Q 2828 2175 2409 1742 
Q 1991 1309 1228 531 
z
" transform="scale(0.015625)"/>
       </defs>
       <use xlink:href="#DejaVuSans-31" transform="translate(0 0.765625)"/>
       <use xlink:href="#DejaVuSans-30" transform="translate(63.623047 0.765625)"/>
       <use xlink:href="#DejaVuSans-32" transform="translate(128.203125 39.046875) scale(0.7)"/>
      </g>
     </g>
    </g>
    <g id="xtick_2">
     <g id="line2d_3">
      <path d="M 255.385 295.648 
L 255.385 29.4 
" clip-path="url(#p00835014c6)" style="fill: none; stroke-dasharray: 2.96,1.28; stroke-dashoffset: 0; stroke: #b0b0b0; stroke-opacity: 0.5; stroke-width: 0.8"/>
     </g>
     <g id="line2d_4">
      <g>
       <use xlink:href="#m2bba2a2af8" x="255.385" y="295.648" style="stroke: #000000; stroke-width: 0.8"/>
      </g>
     </g>
     <g id="text_2">
      <!-- $\mathdefault{10^{3}}$ -->
      <g transform="translate(246.585 310.246437) scale(0.1 -0.1)">
       <defs>
        <path id="DejaVuSans-33" d="M 2597 2516 
Q 3050 2419 3304 2112 
Q 3559 1806 3559 1356 
Q 3559 666 3084 287 
Q 2609 -91 1734 -91 
Q 1441 -91 1130 -33 
Q 819 25 488 141 
L 488 750 
Q 750 597 1062 519 
Q 1375 441 1716 441 
Q 2309 441 2620 675 
Q 2931 909 2931 1356 
Q 2931 1769 2642 2001 
Q 2353 2234 1838 2234 
L 1294 2234 
L 1294 2753 
L 1863 2753 
Q 2328 2753 2575 2939 
Q 2822 3125 2822 3475 
Q 2822 3834 2567 4026 
Q 2313 4219 1838 4219 
Q 1578 4219 1281 4162 
Q 984 4106 628 3988 
L 628 4550 
Q 988 4650 1302 4700 
Q 1616 4750 1894 4750 
Q 2613 4750 3031 4423 
Q 3450 4097 3450 3541 
Q 3450 3153 3228 2886 
Q 3006 2619 2597 2516 
z
" transform="scale(0.015625)"/>
       </defs>
       <use xlink:href="#DejaVuSans-31" transform="translate(0 0.765625)"/>
       <use xlink:href="#DejaVuSans-30" transform="translate(63.623047 0.765625)"/>
       <use xlink:href="#DejaVuSans-33" transform="translate(128.203125 39.046875) scale(0.7)"/>
      </g>
     </g>
    </g>
    <g id="xtick_3">
     <g id="line2d_5">
      <path d="M 431.325909 295.648 
L 431.325909 29.4 
" clip-path="url(#p00835014c6)" style="fill: none; stroke-dasharray: 2.96,1.28; stroke-dashoffset: 0; stroke: #b0b0b0; stroke-opacity: 0.5; stroke-width: 0.8"/>
     </g>
     <g id="line2d_6">
      <g>
       <use xlink:href="#m2bba2a2af8" x="431.325909" y="295.648" style="stroke: #000000; stroke-width: 0.8"/>
      </g>
     </g>
     <g id="text_3">
      <!-- $\mathdefault{10^{4}}$ -->
      <g transform="translate(422.525909 310.246437) scale(0.1 -0.1)">
       <defs>
        <path id="DejaVuSans-34" d="M 2419 4116 
L 825 1625 
L 2419 1625 
L 2419 4116 
z
M 2253 4666 
L 3047 4666 
L 3047 1625 
L 3713 1625 
L 3713 1100 
L 3047 1100 
L 3047 0 
L 2419 0 
L 2419 1100 
L 313 1100 
L 313 1709 
L 2253 4666 
z
" transform="scale(0.015625)"/>
       </defs>
       <use xlink:href="#DejaVuSans-31" transform="translate(0 0.684375)"/>
       <use xlink:href="#DejaVuSans-30" transform="translate(63.623047 0.684375)"/>
       <use xlink:href="#DejaVuSans-34" transform="translate(128.203125 38.965625) scale(0.7)"/>
      </g>
     </g>
    </g>
    <g id="xtick_4">
     <g id="line2d_7">
      <path d="M 62.393655 295.648 
L 62.393655 29.4 
" clip-path="url(#p00835014c6)" style="fill: none; stroke-dasharray: 2.96,1.28; stroke-dashoffset: 0; stroke: #b0b0b0; stroke-opacity: 0.5; stroke-width: 0.8"/>
     </g>
     <g id="line2d_8">
      <defs>
       <path id="m8ad5454c78" d="M 0 0 
L 0 2 
" style="stroke: #000000; stroke-width: 0.6"/>
      </defs>
      <g>
       <use xlink:href="#m8ad5454c78" x="62.393655" y="295.648" style="stroke: #000000; stroke-width: 0.6"/>
      </g>
     </g>
    </g>
    <g id="xtick_5">
     <g id="line2d_9">
      <path d="M 71.393476 295.648 
L 71.393476 29.4 
" clip-path="url(#p00835014c6)" style="fill: none; stroke-dasharray: 2.96,1.28; stroke-dashoffset: 0; stroke: #b0b0b0; stroke-opacity: 0.5; stroke-width: 0.8"/>
     </g>
     <g id="line2d_10">
      <g>
       <use xlink:href="#m8ad5454c78" x="71.393476" y="295.648" style="stroke: #000000; stroke-width: 0.6"/>
      </g>
     </g>
    </g>
    <g id="xtick_6">
     <g id="line2d_11">
      <path d="M 132.407582 295.648 
L 132.407582 29.4 
" clip-path="url(#p00835014c6)" style="fill: none; stroke-dasharray: 2.96,1.28; stroke-dashoffset: 0; stroke: #b0b0b0; stroke-opacity: 0.5; stroke-width: 0.8"/>
     </g>
     <g id="line2d_12">
      <g>
       <use xlink:href="#m8ad5454c78" x="132.407582" y="295.648" style="stroke: #000000; stroke-width: 0.6"/>
      </g>
     </g>
    </g>
    <g id="xtick_7">
     <g id="line2d_13">
      <path d="M 163.389238 295.648 
L 163.389238 29.4 
" clip-path="url(#p00835014c6)" style="fill: none; stroke-dasharray: 2.96,1.28; stroke-dashoffset: 0; stroke: #b0b0b0; stroke-opacity: 0.5; stroke-width: 0.8"/>
     </g>
     <g id="line2d_14">
      <g>
       <use xlink:href="#m8ad5454c78" x="163.389238" y="295.648" style="stroke: #000000; stroke-width: 0.6"/>
      </g>
     </g>
    </g>
    <g id="xtick_8">
     <g id="line2d_15">
      <path d="M 185.371073 295.648 
L 185.371073 29.4 
" clip-path="url(#p00835014c6)" style="fill: none; stroke-dasharray: 2.96,1.28; stroke-dashoffset: 0; stroke: #b0b0b0; stroke-opacity: 0.5; stroke-width: 0.8"/>
     </g>
     <g id="line2d_16">
      <g>
       <use xlink:href="#m8ad5454c78" x="185.371073" y="295.648" style="stroke: #000000; stroke-width: 0.6"/>
      </g>
     </g>
    </g>
    <g id="xtick_9">
     <g id="line2d_17">
      <path d="M 202.421509 295.648 
L 202.421509 29.4 
" clip-path="url(#p00835014c6)" style="fill: none; stroke-dasharray: 2.96,1.28; stroke-dashoffset: 0; stroke: #b0b0b0; stroke-opacity: 0.5; stroke-width: 0.8"/>
     </g>
     <g id="line2d_18">
      <g>
       <use xlink:href="#m8ad5454c78" x="202.421509" y="295.648" style="stroke: #000000; stroke-width: 0.6"/>
      </g>
     </g>
    </g>
    <g id="xtick_10">
     <g id="line2d_19">
      <path d="M 216.352729 295.648 
L 216.352729 29.4 
" clip-path="url(#p00835014c6)" style="fill: none; stroke-dasharray: 2.96,1.28; stroke-dashoffset: 0; stroke: #b0b0b0; stroke-opacity: 0.5; stroke-width: 0.8"/>
     </g>
     <g id="line2d_20">
      <g>
       <use xlink:href="#m8ad5454c78" x="216.352729" y="295.648" style="stroke: #000000; stroke-width: 0.6"/>
      </g>
     </g>
    </g>
    <g id="xtick_11">
     <g id="line2d_21">
      <path d="M 228.131408 295.648 
L 228.131408 29.4 
" clip-path="url(#p00835014c6)" style="fill: none; stroke-dasharray: 2.96,1.28; stroke-dashoffset: 0; stroke: #b0b0b0; stroke-opacity: 0.5; stroke-width: 0.8"/>
     </g>
     <g id="line2d_22">
      <g>
       <use xlink:href="#m8ad5454c78" x="228.131408" y="295.648" style="stroke: #000000; stroke-width: 0.6"/>
      </g>
     </g>
    </g>
    <g id="xtick_12">
     <g id="line2d_23">
      <path d="M 238.334564 295.648 
L 238.334564 29.4 
" clip-path="url(#p00835014c6)" style="fill: none; stroke-dasharray: 2.96,1.28; stroke-dashoffset: 0; stroke: #b0b0b0; stroke-opacity: 0.5; stroke-width: 0.8"/>
     </g>
     <g id="line2d_24">
      <g>
       <use xlink:href="#m8ad5454c78" x="238.334564" y="295.648" style="stroke: #000000; stroke-width: 0.6"/>
      </g>
     </g>
    </g>
    <g id="xtick_13">
     <g id="line2d_25">
      <path d="M 247.334386 295.648 
L 247.334386 29.4 
" clip-path="url(#p00835014c6)" style="fill: none; stroke-dasharray: 2.96,1.28; stroke-dashoffset: 0; stroke: #b0b0b0; stroke-opacity: 0.5; stroke-width: 0.8"/>
     </g>
     <g id="line2d_26">
      <g>
       <use xlink:href="#m8ad5454c78" x="247.334386" y="295.648" style="stroke: #000000; stroke-width: 0.6"/>
      </g>
     </g>
    </g>
    <g id="xtick_14">
     <g id="line2d_27">
      <path d="M 308.348491 295.648 
L 308.348491 29.4 
" clip-path="url(#p00835014c6)" style="fill: none; stroke-dasharray: 2.96,1.28; stroke-dashoffset: 0; stroke: #b0b0b0; stroke-opacity: 0.5; stroke-width: 0.8"/>
     </g>
     <g id="line2d_28">
      <g>
       <use xlink:href="#m8ad5454c78" x="308.348491" y="295.648" style="stroke: #000000; stroke-width: 0.6"/>
      </g>
     </g>
    </g>
    <g id="xtick_15">
     <g id="line2d_29">
      <path d="M 339.330147 295.648 
L 339.330147 29.4 
" clip-path="url(#p00835014c6)" style="fill: none; stroke-dasharray: 2.96,1.28; stroke-dashoffset: 0; stroke: #b0b0b0; stroke-opacity: 0.5; stroke-width: 0.8"/>
     </g>
     <g id="line2d_30">
      <g>
       <use xlink:href="#m8ad5454c78" x="339.330147" y="295.648" style="stroke: #000000; stroke-width: 0.6"/>
      </g>
     </g>
    </g>
    <g id="xtick_16">
     <g id="line2d_31">
      <path d="M 361.311982 295.648 
L 361.311982 29.4 
" clip-path="url(#p00835014c6)" style="fill: none; stroke-dasharray: 2.96,1.28; stroke-dashoffset: 0; stroke: #b0b0b0; stroke-opacity: 0.5; stroke-width: 0.8"/>
     </g>
     <g id="line2d_32">
      <g>
       <use xlink:href="#m8ad5454c78" x="361.311982" y="295.648" style="stroke: #000000; stroke-width: 0.6"/>
      </g>
     </g>
    </g>
    <g id="xtick_17">
     <g id="line2d_33">
      <path d="M 378.362418 295.648 
L 378.362418 29.4 
" clip-path="url(#p00835014c6)" style="fill: none; stroke-dasharray: 2.96,1.28; stroke-dashoffset: 0; stroke: #b0b0b0; stroke-opacity: 0.5; stroke-width: 0.8"/>
     </g>
     <g id="line2d_34">
      <g>
       <use xlink:href="#m8ad5454c78" x="378.362418" y="295.648" style="stroke: #000000; stroke-width: 0.6"/>
      </g>
     </g>
    </g>
    <g id="xtick_18">
     <g id="line2d_35">
      <path d="M 392.293638 295.648 
L 392.293638 29.4 
" clip-path="url(#p00835014c6)" style="fill: none; stroke-dasharray: 2.96,1.28; stroke-dashoffset: 0; stroke: #b0b0b0; stroke-opacity: 0.5; stroke-width: 0.8"/>
     </g>
     <g id="line2d_36">
      <g>
       <use xlink:href="#m8ad5454c78" x="392.293638" y="295.648" style="stroke: #000000; stroke-width: 0.6"/>
      </g>
     </g>
    </g>
    <g id="xtick_19">
     <g id="line2d_37">
      <path d="M 404.072317 295.648 
L 404.072317 29.4 
" clip-path="url(#p00835014c6)" style="fill: none; stroke-dasharray: 2.96,1.28; stroke-dashoffset: 0; stroke: #b0b0b0; stroke-opacity: 0.5; stroke-width: 0.8"/>
     </g>
     <g id="line2d_38">
      <g>
       <use xlink:href="#m8ad5454c78" x="404.072317" y="295.648" style="stroke: #000000; stroke-width: 0.6"/>
      </g>
     </g>
    </g>
    <g id="xtick_20">
     <g id="line2d_39">
      <path d="M 414.275473 295.648 
L 414.275473 29.4 
" clip-path="url(#p00835014c6)" style="fill: none; stroke-dasharray: 2.96,1.28; stroke-dashoffset: 0; stroke: #b0b0b0; stroke-opacity: 0.5; stroke-width: 0.8"/>
     </g>
     <g id="line2d_40">
      <g>
       <use xlink:href="#m8ad5454c78" x="414.275473" y="295.648" style="stroke: #000000; stroke-width: 0.6"/>
      </g>
     </g>
    </g>
    <g id="xtick_21">
     <g id="line2d_41">
      <path d="M 423.275295 295.648 
L 423.275295 29.4 
" clip-path="url(#p00835014c6)" style="fill: none; stroke-dasharray: 2.96,1.28; stroke-dashoffset: 0; stroke: #b0b0b0; stroke-opacity: 0.5; stroke-width: 0.8"/>
     </g>
     <g id="line2d_42">
      <g>
       <use xlink:href="#m8ad5454c78" x="423.275295" y="295.648" style="stroke: #000000; stroke-width: 0.6"/>
      </g>
     </g>
    </g>
    <g id="text_4">
     <!-- Total Capacitance ($C_{\mathrm{tot}}$) [fF] -->
     <g transform="translate(179.265 324.686125) scale(0.11 -0.11)">
      <defs>
       <path id="DejaVuSans-54" d="M -19 4666 
L 3928 4666 
L 3928 4134 
L 2272 4134 
L 2272 0 
L 1638 0 
L 1638 4134 
L -19 4134 
L -19 4666 
z
" transform="scale(0.015625)"/>
       <path id="DejaVuSans-6f" d="M 1959 3097 
Q 1497 3097 1228 2736 
Q 959 2375 959 1747 
Q 959 1119 1226 758 
Q 1494 397 1959 397 
Q 2419 397 2687 759 
Q 2956 1122 2956 1747 
Q 2956 2369 2687 2733 
Q 2419 3097 1959 3097 
z
M 1959 3584 
Q 2709 3584 3137 3096 
Q 3566 2609 3566 1747 
Q 3566 888 3137 398 
Q 2709 -91 1959 -91 
Q 1206 -91 779 398 
Q 353 888 353 1747 
Q 353 2609 779 3096 
Q 1206 3584 1959 3584 
z
" transform="scale(0.015625)"/>
       <path id="DejaVuSans-74" d="M 1172 4494 
L 1172 3500 
L 2356 3500 
L 2356 3053 
L 1172 3053 
L 1172 1153 
Q 1172 725 1289 603 
Q 1406 481 1766 481 
L 2356 481 
L 2356 0 
L 1766 0 
Q 1100 0 847 248 
Q 594 497 594 1153 
L 594 3053 
L 172 3053 
L 172 3500 
L 594 3500 
L 594 4494 
L 1172 4494 
z
" transform="scale(0.015625)"/>
       <path id="DejaVuSans-61" d="M 2194 1759 
Q 1497 1759 1228 1600 
Q 959 1441 959 1056 
Q 959 750 1161 570 
Q 1363 391 1709 391 
Q 2188 391 2477 730 
Q 2766 1069 2766 1631 
L 2766 1759 
L 2194 1759 
z
M 3341 1997 
L 3341 0 
L 2766 0 
L 2766 531 
Q 2569 213 2275 61 
Q 1981 -91 1556 -91 
Q 1019 -91 701 211 
Q 384 513 384 1019 
Q 384 1609 779 1909 
Q 1175 2209 1959 2209 
L 2766 2209 
L 2766 2266 
Q 2766 2663 2505 2880 
Q 2244 3097 1772 3097 
Q 1472 3097 1187 3025 
Q 903 2953 641 2809 
L 641 3341 
Q 956 3463 1253 3523 
Q 1550 3584 1831 3584 
Q 2591 3584 2966 3190 
Q 3341 2797 3341 1997 
z
" transform="scale(0.015625)"/>
       <path id="DejaVuSans-6c" d="M 603 4863 
L 1178 4863 
L 1178 0 
L 603 0 
L 603 4863 
z
" transform="scale(0.015625)"/>
       <path id="DejaVuSans-20" transform="scale(0.015625)"/>
       <path id="DejaVuSans-43" d="M 4122 4306 
L 4122 3641 
Q 3803 3938 3442 4084 
Q 3081 4231 2675 4231 
Q 1875 4231 1450 3742 
Q 1025 3253 1025 2328 
Q 1025 1406 1450 917 
Q 1875 428 2675 428 
Q 3081 428 3442 575 
Q 3803 722 4122 1019 
L 4122 359 
Q 3791 134 3420 21 
Q 3050 -91 2638 -91 
Q 1578 -91 968 557 
Q 359 1206 359 2328 
Q 359 3453 968 4101 
Q 1578 4750 2638 4750 
Q 3056 4750 3426 4639 
Q 3797 4528 4122 4306 
z
" transform="scale(0.015625)"/>
       <path id="DejaVuSans-70" d="M 1159 525 
L 1159 -1331 
L 581 -1331 
L 581 3500 
L 1159 3500 
L 1159 2969 
Q 1341 3281 1617 3432 
Q 1894 3584 2278 3584 
Q 2916 3584 3314 3078 
Q 3713 2572 3713 1747 
Q 3713 922 3314 415 
Q 2916 -91 2278 -91 
Q 1894 -91 1617 61 
Q 1341 213 1159 525 
z
M 3116 1747 
Q 3116 2381 2855 2742 
Q 2594 3103 2138 3103 
Q 1681 3103 1420 2742 
Q 1159 2381 1159 1747 
Q 1159 1113 1420 752 
Q 1681 391 2138 391 
Q 2594 391 2855 752 
Q 3116 1113 3116 1747 
z
" transform="scale(0.015625)"/>
       <path id="DejaVuSans-63" d="M 3122 3366 
L 3122 2828 
Q 2878 2963 2633 3030 
Q 2388 3097 2138 3097 
Q 1578 3097 1268 2742 
Q 959 2388 959 1747 
Q 959 1106 1268 751 
Q 1578 397 2138 397 
Q 2388 397 2633 464 
Q 2878 531 3122 666 
L 3122 134 
Q 2881 22 2623 -34 
Q 2366 -91 2075 -91 
Q 1284 -91 818 406 
Q 353 903 353 1747 
Q 353 2603 823 3093 
Q 1294 3584 2113 3584 
Q 2378 3584 2631 3529 
Q 2884 3475 3122 3366 
z
" transform="scale(0.015625)"/>
       <path id="DejaVuSans-69" d="M 603 3500 
L 1178 3500 
L 1178 0 
L 603 0 
L 603 3500 
z
M 603 4863 
L 1178 4863 
L 1178 4134 
L 603 4134 
L 603 4863 
z
" transform="scale(0.015625)"/>
       <path id="DejaVuSans-6e" d="M 3513 2113 
L 3513 0 
L 2938 0 
L 2938 2094 
Q 2938 2591 2744 2837 
Q 2550 3084 2163 3084 
Q 1697 3084 1428 2787 
Q 1159 2491 1159 1978 
L 1159 0 
L 581 0 
L 581 3500 
L 1159 3500 
L 1159 2956 
Q 1366 3272 1645 3428 
Q 1925 3584 2291 3584 
Q 2894 3584 3203 3211 
Q 3513 2838 3513 2113 
z
" transform="scale(0.015625)"/>
       <path id="DejaVuSans-65" d="M 3597 1894 
L 3597 1613 
L 953 1613 
Q 991 1019 1311 708 
Q 1631 397 2203 397 
Q 2534 397 2845 478 
Q 3156 559 3463 722 
L 3463 178 
Q 3153 47 2828 -22 
Q 2503 -91 2169 -91 
Q 1331 -91 842 396 
Q 353 884 353 1716 
Q 353 2575 817 3079 
Q 1281 3584 2069 3584 
Q 2775 3584 3186 3129 
Q 3597 2675 3597 1894 
z
M 3022 2063 
Q 3016 2534 2758 2815 
Q 2500 3097 2075 3097 
Q 1594 3097 1305 2825 
Q 1016 2553 972 2059 
L 3022 2063 
z
" transform="scale(0.015625)"/>
       <path id="DejaVuSans-28" d="M 1984 4856 
Q 1566 4138 1362 3434 
Q 1159 2731 1159 2009 
Q 1159 1288 1364 580 
Q 1569 -128 1984 -844 
L 1484 -844 
Q 1016 -109 783 600 
Q 550 1309 550 2009 
Q 550 2706 781 3412 
Q 1013 4119 1484 4856 
L 1984 4856 
z
" transform="scale(0.015625)"/>
       <path id="DejaVuSans-Oblique-43" d="M 4447 4306 
L 4319 3641 
Q 4019 3944 3683 4091 
Q 3347 4238 2956 4238 
Q 2422 4238 2017 3981 
Q 1613 3725 1319 3200 
Q 1131 2863 1032 2486 
Q 934 2109 934 1728 
Q 934 1091 1264 756 
Q 1594 422 2222 422 
Q 2656 422 3056 561 
Q 3456 700 3834 978 
L 3688 231 
Q 3316 72 2936 -9 
Q 2556 -91 2175 -91 
Q 1278 -91 773 396 
Q 269 884 269 1753 
Q 269 2309 461 2846 
Q 653 3384 1013 3828 
Q 1394 4300 1883 4525 
Q 2372 4750 3022 4750 
Q 3422 4750 3780 4639 
Q 4138 4528 4447 4306 
z
" transform="scale(0.015625)"/>
       <path id="DejaVuSans-29" d="M 513 4856 
L 1013 4856 
Q 1481 4119 1714 3412 
Q 1947 2706 1947 2009 
Q 1947 1309 1714 600 
Q 1481 -109 1013 -844 
L 513 -844 
Q 928 -128 1133 580 
Q 1338 1288 1338 2009 
Q 1338 2731 1133 3434 
Q 928 4138 513 4856 
z
" transform="scale(0.015625)"/>
       <path id="DejaVuSans-5b" d="M 550 4863 
L 1875 4863 
L 1875 4416 
L 1125 4416 
L 1125 -397 
L 1875 -397 
L 1875 -844 
L 550 -844 
L 550 4863 
z
" transform="scale(0.015625)"/>
       <path id="DejaVuSans-66" d="M 2375 4863 
L 2375 4384 
L 1825 4384 
Q 1516 4384 1395 4259 
Q 1275 4134 1275 3809 
L 1275 3500 
L 2222 3500 
L 2222 3053 
L 1275 3053 
L 1275 0 
L 697 0 
L 697 3053 
L 147 3053 
L 147 3500 
L 697 3500 
L 697 3744 
Q 697 4328 969 4595 
Q 1241 4863 1831 4863 
L 2375 4863 
z
" transform="scale(0.015625)"/>
       <path id="DejaVuSans-46" d="M 628 4666 
L 3309 4666 
L 3309 4134 
L 1259 4134 
L 1259 2759 
L 3109 2759 
L 3109 2228 
L 1259 2228 
L 1259 0 
L 628 0 
L 628 4666 
z
" transform="scale(0.015625)"/>
       <path id="DejaVuSans-5d" d="M 1947 4863 
L 1947 -844 
L 622 -844 
L 622 -397 
L 1369 -397 
L 1369 4416 
L 622 4416 
L 622 4863 
L 1947 4863 
z
" transform="scale(0.015625)"/>
      </defs>
      <use xlink:href="#DejaVuSans-54" transform="translate(0 0.015625)"/>
      <use xlink:href="#DejaVuSans-6f" transform="translate(61.083984 0.015625)"/>
      <use xlink:href="#DejaVuSans-74" transform="translate(122.265625 0.015625)"/>
      <use xlink:href="#DejaVuSans-61" transform="translate(161.474609 0.015625)"/>
      <use xlink:href="#DejaVuSans-6c" transform="translate(222.753906 0.015625)"/>
      <use xlink:href="#DejaVuSans-20" transform="translate(250.537109 0.015625)"/>
      <use xlink:href="#DejaVuSans-43" transform="translate(282.324219 0.015625)"/>
      <use xlink:href="#DejaVuSans-61" transform="translate(352.148438 0.015625)"/>
      <use xlink:href="#DejaVuSans-70" transform="translate(413.427734 0.015625)"/>
      <use xlink:href="#DejaVuSans-61" transform="translate(476.904297 0.015625)"/>
      <use xlink:href="#DejaVuSans-63" transform="translate(538.183594 0.015625)"/>
      <use xlink:href="#DejaVuSans-69" transform="translate(593.164062 0.015625)"/>
      <use xlink:href="#DejaVuSans-74" transform="translate(620.947266 0.015625)"/>
      <use xlink:href="#DejaVuSans-61" transform="translate(660.15625 0.015625)"/>
      <use xlink:href="#DejaVuSans-6e" transform="translate(721.435547 0.015625)"/>
      <use xlink:href="#DejaVuSans-63" transform="translate(784.814453 0.015625)"/>
      <use xlink:href="#DejaVuSans-65" transform="translate(839.794922 0.015625)"/>
      <use xlink:href="#DejaVuSans-20" transform="translate(901.318359 0.015625)"/>
      <use xlink:href="#DejaVuSans-28" transform="translate(933.105469 0.015625)"/>
      <use xlink:href="#DejaVuSans-Oblique-43" transform="translate(972.119141 0.015625)"/>
      <use xlink:href="#DejaVuSans-74" transform="translate(1041.943359 -16.390625) scale(0.7)"/>
      <use xlink:href="#DejaVuSans-6f" transform="translate(1069.389648 -16.390625) scale(0.7)"/>
      <use xlink:href="#DejaVuSans-74" transform="translate(1112.216797 -16.390625) scale(0.7)"/>
      <use xlink:href="#DejaVuSans-29" transform="translate(1142.397461 0.015625)"/>
      <use xlink:href="#DejaVuSans-20" transform="translate(1181.411133 0.015625)"/>
      <use xlink:href="#DejaVuSans-5b" transform="translate(1213.198242 0.015625)"/>
      <use xlink:href="#DejaVuSans-66" transform="translate(1252.211914 0.015625)"/>
      <use xlink:href="#DejaVuSans-46" transform="translate(1287.416992 0.015625)"/>
      <use xlink:href="#DejaVuSans-5d" transform="translate(1344.936523 0.015625)"/>
     </g>
    </g>
   </g>
   <g id="matplotlib.axis_2">
    <g id="ytick_1">
     <g id="line2d_43">
      <path d="M 61.85 289.752065 
L 448.92 289.752065 
" clip-path="url(#p00835014c6)" style="fill: none; stroke-dasharray: 2.96,1.28; stroke-dashoffset: 0; stroke: #b0b0b0; stroke-opacity: 0.5; stroke-width: 0.8"/>
     </g>
     <g id="line2d_44">
      <defs>
       <path id="m472868c06b" d="M 0 0 
L -3.5 0 
" style="stroke: #000000; stroke-width: 0.8"/>
      </defs>
      <g>
       <use xlink:href="#m472868c06b" x="61.85" y="289.752065" style="stroke: #000000; stroke-width: 0.8"/>
      </g>
     </g>
     <g id="text_5">
      <!-- 0 -->
      <g transform="translate(48.4875 293.551284) scale(0.1 -0.1)">
       <use xlink:href="#DejaVuSans-30"/>
      </g>
     </g>
    </g>
    <g id="ytick_2">
     <g id="line2d_45">
      <path d="M 61.85 246.722504 
L 448.92 246.722504 
" clip-path="url(#p00835014c6)" style="fill: none; stroke-dasharray: 2.96,1.28; stroke-dashoffset: 0; stroke: #b0b0b0; stroke-opacity: 0.5; stroke-width: 0.8"/>
     </g>
     <g id="line2d_46">
      <g>
       <use xlink:href="#m472868c06b" x="61.85" y="246.722504" style="stroke: #000000; stroke-width: 0.8"/>
      </g>
     </g>
     <g id="text_6">
      <!-- 1000 -->
      <g transform="translate(29.4 250.521723) scale(0.1 -0.1)">
       <use xlink:href="#DejaVuSans-31"/>
       <use xlink:href="#DejaVuSans-30" transform="translate(63.623047 0)"/>
       <use xlink:href="#DejaVuSans-30" transform="translate(127.246094 0)"/>
       <use xlink:href="#DejaVuSans-30" transform="translate(190.869141 0)"/>
      </g>
     </g>
    </g>
    <g id="ytick_3">
     <g id="line2d_47">
      <path d="M 61.85 203.692944 
L 448.92 203.692944 
" clip-path="url(#p00835014c6)" style="fill: none; stroke-dasharray: 2.96,1.28; stroke-dashoffset: 0; stroke: #b0b0b0; stroke-opacity: 0.5; stroke-width: 0.8"/>
     </g>
     <g id="line2d_48">
      <g>
       <use xlink:href="#m472868c06b" x="61.85" y="203.692944" style="stroke: #000000; stroke-width: 0.8"/>
      </g>
     </g>
     <g id="text_7">
      <!-- 2000 -->
      <g transform="translate(29.4 207.492162) scale(0.1 -0.1)">
       <use xlink:href="#DejaVuSans-32"/>
       <use xlink:href="#DejaVuSans-30" transform="translate(63.623047 0)"/>
       <use xlink:href="#DejaVuSans-30" transform="translate(127.246094 0)"/>
       <use xlink:href="#DejaVuSans-30" transform="translate(190.869141 0)"/>
      </g>
     </g>
    </g>
    <g id="ytick_4">
     <g id="line2d_49">
      <path d="M 61.85 160.663383 
L 448.92 160.663383 
" clip-path="url(#p00835014c6)" style="fill: none; stroke-dasharray: 2.96,1.28; stroke-dashoffset: 0; stroke: #b0b0b0; stroke-opacity: 0.5; stroke-width: 0.8"/>
     </g>
     <g id="line2d_50">
      <g>
       <use xlink:href="#m472868c06b" x="61.85" y="160.663383" style="stroke: #000000; stroke-width: 0.8"/>
      </g>
     </g>
     <g id="text_8">
      <!-- 3000 -->
      <g transform="translate(29.4 164.462602) scale(0.1 -0.1)">
       <use xlink:href="#DejaVuSans-33"/>
       <use xlink:href="#DejaVuSans-30" transform="translate(63.623047 0)"/>
       <use xlink:href="#DejaVuSans-30" transform="translate(127.246094 0)"/>
       <use xlink:href="#DejaVuSans-30" transform="translate(190.869141 0)"/>
      </g>
     </g>
    </g>
    <g id="ytick_5">
     <g id="line2d_51">
      <path d="M 61.85 117.633822 
L 448.92 117.633822 
" clip-path="url(#p00835014c6)" style="fill: none; stroke-dasharray: 2.96,1.28; stroke-dashoffset: 0; stroke: #b0b0b0; stroke-opacity: 0.5; stroke-width: 0.8"/>
     </g>
     <g id="line2d_52">
      <g>
       <use xlink:href="#m472868c06b" x="61.85" y="117.633822" style="stroke: #000000; stroke-width: 0.8"/>
      </g>
     </g>
     <g id="text_9">
      <!-- 4000 -->
      <g transform="translate(29.4 121.433041) scale(0.1 -0.1)">
       <use xlink:href="#DejaVuSans-34"/>
       <use xlink:href="#DejaVuSans-30" transform="translate(63.623047 0)"/>
       <use xlink:href="#DejaVuSans-30" transform="translate(127.246094 0)"/>
       <use xlink:href="#DejaVuSans-30" transform="translate(190.869141 0)"/>
      </g>
     </g>
    </g>
    <g id="ytick_6">
     <g id="line2d_53">
      <path d="M 61.85 74.604261 
L 448.92 74.604261 
" clip-path="url(#p00835014c6)" style="fill: none; stroke-dasharray: 2.96,1.28; stroke-dashoffset: 0; stroke: #b0b0b0; stroke-opacity: 0.5; stroke-width: 0.8"/>
     </g>
     <g id="line2d_54">
      <g>
       <use xlink:href="#m472868c06b" x="61.85" y="74.604261" style="stroke: #000000; stroke-width: 0.8"/>
      </g>
     </g>
     <g id="text_10">
      <!-- 5000 -->
      <g transform="translate(29.4 78.40348) scale(0.1 -0.1)">
       <defs>
        <path id="DejaVuSans-35" d="M 691 4666 
L 3169 4666 
L 3169 4134 
L 1269 4134 
L 1269 2991 
Q 1406 3038 1543 3061 
Q 1681 3084 1819 3084 
Q 2600 3084 3056 2656 
Q 3513 2228 3513 1497 
Q 3513 744 3044 326 
Q 2575 -91 1722 -91 
Q 1428 -91 1123 -41 
Q 819 9 494 109 
L 494 744 
Q 775 591 1075 516 
Q 1375 441 1709 441 
Q 2250 441 2565 725 
Q 2881 1009 2881 1497 
Q 2881 1984 2565 2268 
Q 2250 2553 1709 2553 
Q 1456 2553 1204 2497 
Q 953 2441 691 2322 
L 691 4666 
z
" transform="scale(0.015625)"/>
       </defs>
       <use xlink:href="#DejaVuSans-35"/>
       <use xlink:href="#DejaVuSans-30" transform="translate(63.623047 0)"/>
       <use xlink:href="#DejaVuSans-30" transform="translate(127.246094 0)"/>
       <use xlink:href="#DejaVuSans-30" transform="translate(190.869141 0)"/>
      </g>
     </g>
    </g>
    <g id="ytick_7">
     <g id="line2d_55">
      <path d="M 61.85 31.5747 
L 448.92 31.5747 
" clip-path="url(#p00835014c6)" style="fill: none; stroke-dasharray: 2.96,1.28; stroke-dashoffset: 0; stroke: #b0b0b0; stroke-opacity: 0.5; stroke-width: 0.8"/>
     </g>
     <g id="line2d_56">
      <g>
       <use xlink:href="#m472868c06b" x="61.85" y="31.5747" style="stroke: #000000; stroke-width: 0.8"/>
      </g>
     </g>
     <g id="text_11">
      <!-- 6000 -->
      <g transform="translate(29.4 35.373919) scale(0.1 -0.1)">
       <defs>
        <path id="DejaVuSans-36" d="M 2113 2584 
Q 1688 2584 1439 2293 
Q 1191 2003 1191 1497 
Q 1191 994 1439 701 
Q 1688 409 2113 409 
Q 2538 409 2786 701 
Q 3034 994 3034 1497 
Q 3034 2003 2786 2293 
Q 2538 2584 2113 2584 
z
M 3366 4563 
L 3366 3988 
Q 3128 4100 2886 4159 
Q 2644 4219 2406 4219 
Q 1781 4219 1451 3797 
Q 1122 3375 1075 2522 
Q 1259 2794 1537 2939 
Q 1816 3084 2150 3084 
Q 2853 3084 3261 2657 
Q 3669 2231 3669 1497 
Q 3669 778 3244 343 
Q 2819 -91 2113 -91 
Q 1303 -91 875 529 
Q 447 1150 447 2328 
Q 447 3434 972 4092 
Q 1497 4750 2381 4750 
Q 2619 4750 2861 4703 
Q 3103 4656 3366 4563 
z
" transform="scale(0.015625)"/>
       </defs>
       <use xlink:href="#DejaVuSans-36"/>
       <use xlink:href="#DejaVuSans-30" transform="translate(63.623047 0)"/>
       <use xlink:href="#DejaVuSans-30" transform="translate(127.246094 0)"/>
       <use xlink:href="#DejaVuSans-30" transform="translate(190.869141 0)"/>
      </g>
     </g>
    </g>
    <g id="text_12">
     <!-- Mismatch DNL Noise [$\mu$V] -->
     <g transform="translate(23.09 232.539) rotate(-90) scale(0.11 -0.11)">
      <defs>
       <path id="DejaVuSans-4d" d="M 628 4666 
L 1569 4666 
L 2759 1491 
L 3956 4666 
L 4897 4666 
L 4897 0 
L 4281 0 
L 4281 4097 
L 3078 897 
L 2444 897 
L 1241 4097 
L 1241 0 
L 628 0 
L 628 4666 
z
" transform="scale(0.015625)"/>
       <path id="DejaVuSans-73" d="M 2834 3397 
L 2834 2853 
Q 2591 2978 2328 3040 
Q 2066 3103 1784 3103 
Q 1356 3103 1142 2972 
Q 928 2841 928 2578 
Q 928 2378 1081 2264 
Q 1234 2150 1697 2047 
L 1894 2003 
Q 2506 1872 2764 1633 
Q 3022 1394 3022 966 
Q 3022 478 2636 193 
Q 2250 -91 1575 -91 
Q 1294 -91 989 -36 
Q 684 19 347 128 
L 347 722 
Q 666 556 975 473 
Q 1284 391 1588 391 
Q 1994 391 2212 530 
Q 2431 669 2431 922 
Q 2431 1156 2273 1281 
Q 2116 1406 1581 1522 
L 1381 1569 
Q 847 1681 609 1914 
Q 372 2147 372 2553 
Q 372 3047 722 3315 
Q 1072 3584 1716 3584 
Q 2034 3584 2315 3537 
Q 2597 3491 2834 3397 
z
" transform="scale(0.015625)"/>
       <path id="DejaVuSans-6d" d="M 3328 2828 
Q 3544 3216 3844 3400 
Q 4144 3584 4550 3584 
Q 5097 3584 5394 3201 
Q 5691 2819 5691 2113 
L 5691 0 
L 5113 0 
L 5113 2094 
Q 5113 2597 4934 2840 
Q 4756 3084 4391 3084 
Q 3944 3084 3684 2787 
Q 3425 2491 3425 1978 
L 3425 0 
L 2847 0 
L 2847 2094 
Q 2847 2600 2669 2842 
Q 2491 3084 2119 3084 
Q 1678 3084 1418 2786 
Q 1159 2488 1159 1978 
L 1159 0 
L 581 0 
L 581 3500 
L 1159 3500 
L 1159 2956 
Q 1356 3278 1631 3431 
Q 1906 3584 2284 3584 
Q 2666 3584 2933 3390 
Q 3200 3197 3328 2828 
z
" transform="scale(0.015625)"/>
       <path id="DejaVuSans-68" d="M 3513 2113 
L 3513 0 
L 2938 0 
L 2938 2094 
Q 2938 2591 2744 2837 
Q 2550 3084 2163 3084 
Q 1697 3084 1428 2787 
Q 1159 2491 1159 1978 
L 1159 0 
L 581 0 
L 581 4863 
L 1159 4863 
L 1159 2956 
Q 1366 3272 1645 3428 
Q 1925 3584 2291 3584 
Q 2894 3584 3203 3211 
Q 3513 2838 3513 2113 
z
" transform="scale(0.015625)"/>
       <path id="DejaVuSans-44" d="M 1259 4147 
L 1259 519 
L 2022 519 
Q 2988 519 3436 956 
Q 3884 1394 3884 2338 
Q 3884 3275 3436 3711 
Q 2988 4147 2022 4147 
L 1259 4147 
z
M 628 4666 
L 1925 4666 
Q 3281 4666 3915 4102 
Q 4550 3538 4550 2338 
Q 4550 1131 3912 565 
Q 3275 0 1925 0 
L 628 0 
L 628 4666 
z
" transform="scale(0.015625)"/>
       <path id="DejaVuSans-4e" d="M 628 4666 
L 1478 4666 
L 3547 763 
L 3547 4666 
L 4159 4666 
L 4159 0 
L 3309 0 
L 1241 3903 
L 1241 0 
L 628 0 
L 628 4666 
z
" transform="scale(0.015625)"/>
       <path id="DejaVuSans-4c" d="M 628 4666 
L 1259 4666 
L 1259 531 
L 3531 531 
L 3531 0 
L 628 0 
L 628 4666 
z
" transform="scale(0.015625)"/>
       <path id="DejaVuSans-Oblique-3bc" d="M -84 -1331 
L 856 3500 
L 1434 3500 
L 1009 1322 
Q 997 1256 987 1175 
Q 978 1094 978 1013 
Q 978 722 1161 565 
Q 1344 409 1684 409 
Q 2147 409 2431 671 
Q 2716 934 2816 1459 
L 3213 3500 
L 3788 3500 
L 3266 809 
Q 3253 750 3248 706 
Q 3244 663 3244 628 
Q 3244 531 3283 486 
Q 3322 441 3406 441 
Q 3438 441 3492 456 
Q 3547 472 3647 513 
L 3559 50 
Q 3422 -19 3297 -55 
Q 3172 -91 3053 -91 
Q 2847 -91 2730 40 
Q 2613 172 2613 403 
Q 2438 153 2195 31 
Q 1953 -91 1625 -91 
Q 1334 -91 1117 43 
Q 900 178 831 397 
L 494 -1331 
L -84 -1331 
z
" transform="scale(0.015625)"/>
       <path id="DejaVuSans-56" d="M 1831 0 
L 50 4666 
L 709 4666 
L 2188 738 
L 3669 4666 
L 4325 4666 
L 2547 0 
L 1831 0 
z
" transform="scale(0.015625)"/>
      </defs>
      <use xlink:href="#DejaVuSans-4d" transform="translate(0 0.015625)"/>
      <use xlink:href="#DejaVuSans-69" transform="translate(86.279297 0.015625)"/>
      <use xlink:href="#DejaVuSans-73" transform="translate(114.0625 0.015625)"/>
      <use xlink:href="#DejaVuSans-6d" transform="translate(166.162109 0.015625)"/>
      <use xlink:href="#DejaVuSans-61" transform="translate(263.574219 0.015625)"/>
      <use xlink:href="#DejaVuSans-74" transform="translate(324.853516 0.015625)"/>
      <use xlink:href="#DejaVuSans-63" transform="translate(364.0625 0.015625)"/>
      <use xlink:href="#DejaVuSans-68" transform="translate(419.042969 0.015625)"/>
      <use xlink:href="#DejaVuSans-20" transform="translate(482.421875 0.015625)"/>
      <use xlink:href="#DejaVuSans-44" transform="translate(514.208984 0.015625)"/>
      <use xlink:href="#DejaVuSans-4e" transform="translate(591.210938 0.015625)"/>
      <use xlink:href="#DejaVuSans-4c" transform="translate(666.015625 0.015625)"/>
      <use xlink:href="#DejaVuSans-20" transform="translate(721.728516 0.015625)"/>
      <use xlink:href="#DejaVuSans-4e" transform="translate(753.515625 0.015625)"/>
      <use xlink:href="#DejaVuSans-6f" transform="translate(828.320312 0.015625)"/>
      <use xlink:href="#DejaVuSans-69" transform="translate(889.501953 0.015625)"/>
      <use xlink:href="#DejaVuSans-73" transform="translate(917.285156 0.015625)"/>
      <use xlink:href="#DejaVuSans-65" transform="translate(969.384766 0.015625)"/>
      <use xlink:href="#DejaVuSans-20" transform="translate(1030.908203 0.015625)"/>
      <use xlink:href="#DejaVuSans-5b" transform="translate(1062.695312 0.015625)"/>
      <use xlink:href="#DejaVuSans-Oblique-3bc" transform="translate(1101.708984 0.015625)"/>
      <use xlink:href="#DejaVuSans-56" transform="translate(1165.332031 0.015625)"/>
      <use xlink:href="#DejaVuSans-5d" transform="translate(1233.740234 0.015625)"/>
     </g>
    </g>
   </g>
   <g id="line2d_57">
    <path d="M 79.444091 227.689594 
L 82.998453 229.116413 
L 86.552815 230.510429 
L 90.107176 231.872397 
L 93.661538 233.203053 
L 97.2159 234.503117 
L 100.770262 235.773293 
L 104.324624 237.014267 
L 107.878985 238.226712 
L 111.433347 239.411282 
L 114.987709 240.568618 
L 118.542071 241.699348 
L 122.096433 242.804082 
L 125.650794 243.883418 
L 129.205156 244.93794 
L 132.759518 245.968219 
L 136.31388 246.974811 
L 139.868242 247.958262 
L 143.422603 248.919104 
L 146.976965 249.857855 
L 150.531327 250.775025 
L 154.085689 251.671109 
L 157.640051 252.546591 
L 161.194412 253.401947 
L 164.748774 254.237638 
L 168.303136 255.054116 
L 171.857498 255.851823 
L 175.41186 256.631191 
L 178.966221 257.392642 
L 182.520583 258.136586 
L 186.074945 258.863427 
L 189.629307 259.573558 
L 193.183669 260.267364 
L 196.73803 260.945218 
L 200.292392 261.607489 
L 203.846754 262.254534 
L 207.401116 262.886703 
L 210.955478 263.504339 
L 214.509839 264.107775 
L 218.064201 264.697339 
L 221.618563 265.273348 
L 225.172925 265.836115 
L 228.727287 266.385943 
L 232.281648 266.923132 
L 235.83601 267.44797 
L 239.390372 267.960742 
L 242.944734 268.461725 
L 246.499096 268.951191 
L 250.053457 269.429404 
L 253.607819 269.896623 
L 257.162181 270.3531 
L 260.716543 270.799083 
L 264.270904 271.234813 
L 267.825266 271.660526 
L 271.379628 272.076451 
L 274.93399 272.482814 
L 278.488352 272.879835 
L 282.042713 273.267728 
L 285.597075 273.646704 
L 289.151437 274.016967 
L 292.705799 274.378717 
L 296.260161 274.732151 
L 299.814522 275.07746 
L 303.368884 275.41483 
L 306.923246 275.744443 
L 310.477608 276.066479 
L 314.03197 276.381111 
L 317.586331 276.68851 
L 321.140693 276.988842 
L 324.695055 277.282269 
L 328.249417 277.56895 
L 331.803779 277.84904 
L 335.35814 278.122691 
L 338.912502 278.390051 
L 342.466864 278.651264 
L 346.021226 278.906472 
L 349.575588 279.155813 
L 353.129949 279.399421 
L 356.684311 279.637429 
L 360.238673 279.869965 
L 363.793035 280.097155 
L 367.347397 280.319122 
L 370.901758 280.535985 
L 374.45612 280.747863 
L 378.010482 280.95487 
L 381.564844 281.157118 
L 385.119206 281.354716 
L 388.673567 281.547772 
L 392.227929 281.736389 
L 395.782291 281.92067 
L 399.336653 282.100714 
L 402.891015 282.276619 
L 406.445376 282.44848 
L 409.999738 282.616389 
L 413.5541 282.780439 
L 417.108462 282.940717 
L 420.662824 283.09731 
L 424.217185 283.250303 
L 427.771547 283.399779 
L 431.325909 283.545818 
" clip-path="url(#p00835014c6)" style="fill: none; stroke: #1f77b4; stroke-width: 1.5; stroke-linecap: square"/>
   </g>
   <g id="line2d_58">
    <path d="M 79.444091 103.564653 
L 82.998453 107.845109 
L 86.552815 112.027158 
L 90.107176 116.113061 
L 93.661538 120.105029 
L 97.2159 124.005222 
L 100.770262 127.815749 
L 104.324624 131.538672 
L 107.878985 135.176004 
L 111.433347 138.729715 
L 114.987709 142.201725 
L 118.542071 145.593914 
L 122.096433 148.908116 
L 125.650794 152.146124 
L 129.205156 155.30969 
L 132.759518 158.400526 
L 136.31388 161.420304 
L 139.868242 164.370657 
L 143.422603 167.253181 
L 146.976965 170.069435 
L 150.531327 172.820944 
L 154.085689 175.509195 
L 157.640051 178.135644 
L 161.194412 180.70171 
L 164.748774 183.208782 
L 168.303136 185.658217 
L 171.857498 188.051339 
L 175.41186 190.389443 
L 178.966221 192.673794 
L 182.520583 194.905628 
L 186.074945 197.086151 
L 189.629307 199.216545 
L 193.183669 201.29796 
L 196.73803 203.331524 
L 200.292392 205.318336 
L 203.846754 207.259471 
L 207.401116 209.155979 
L 210.955478 211.008886 
L 214.509839 212.819196 
L 218.064201 214.587885 
L 221.618563 216.315913 
L 225.172925 218.004213 
L 228.727287 219.6537 
L 232.281648 221.265264 
L 235.83601 222.839779 
L 239.390372 224.378095 
L 242.944734 225.881045 
L 246.499096 227.349443 
L 250.053457 228.784082 
L 253.607819 230.185738 
L 257.162181 231.555171 
L 260.716543 232.89312 
L 264.270904 234.200309 
L 267.825266 235.477447 
L 271.379628 236.725222 
L 274.93399 237.944312 
L 278.488352 239.135374 
L 282.042713 240.299054 
L 285.597075 241.435981 
L 289.151437 242.54677 
L 292.705799 243.632022 
L 296.260161 244.692323 
L 299.814522 245.728249 
L 303.368884 246.740358 
L 306.923246 247.729199 
L 310.477608 248.695307 
L 314.03197 249.639203 
L 317.586331 250.5614 
L 321.140693 251.462395 
L 324.695055 252.342676 
L 328.249417 253.202719 
L 331.803779 254.04299 
L 335.35814 254.863944 
L 338.912502 255.666023 
L 342.466864 256.449662 
L 346.021226 257.215286 
L 349.575588 257.963308 
L 353.129949 258.694133 
L 356.684311 259.408156 
L 360.238673 260.105764 
L 363.793035 260.787334 
L 367.347397 261.453234 
L 370.901758 262.103825 
L 374.45612 262.73946 
L 378.010482 263.360481 
L 381.564844 263.967224 
L 385.119206 264.560019 
L 388.673567 265.139185 
L 392.227929 265.705036 
L 395.782291 266.257878 
L 399.336653 266.798011 
L 402.891015 267.325726 
L 406.445376 267.841308 
L 409.999738 268.345037 
L 413.5541 268.837186 
L 417.108462 269.31802 
L 420.662824 269.787799 
L 424.217185 270.246779 
L 427.771547 270.695206 
L 431.325909 271.133324 
" clip-path="url(#p00835014c6)" style="fill: none; stroke: #ff7f0e; stroke-width: 1.5; stroke-linecap: square"/>
   </g>
   <g id="line2d_59">
    <path d="M 79.444091 41.502182 
L 82.998453 47.209457 
L 86.552815 52.785522 
L 90.107176 58.233393 
L 93.661538 63.556017 
L 97.2159 68.756274 
L 100.770262 73.836977 
L 104.324624 78.800874 
L 107.878985 83.650651 
L 111.433347 88.388931 
L 114.987709 93.018278 
L 118.542071 97.541196 
L 122.096433 101.960132 
L 125.650794 106.277477 
L 129.205156 110.495566 
L 132.759518 114.61668 
L 136.31388 118.64305 
L 139.868242 122.576854 
L 143.422603 126.420219 
L 146.976965 130.175225 
L 150.531327 133.843903 
L 154.085689 137.428239 
L 157.640051 140.93017 
L 161.194412 144.351592 
L 164.748774 147.694355 
L 168.303136 150.960268 
L 171.857498 154.151097 
L 175.41186 157.268569 
L 178.966221 160.31437 
L 182.520583 163.290148 
L 186.074945 166.197513 
L 189.629307 169.038038 
L 193.183669 171.813258 
L 196.73803 174.524677 
L 200.292392 177.173759 
L 203.846754 179.761939 
L 207.401116 182.290617 
L 210.955478 184.76116 
L 214.509839 187.174906 
L 218.064201 189.533159 
L 221.618563 191.837196 
L 225.172925 194.088263 
L 228.727287 196.287578 
L 232.281648 198.43633 
L 235.83601 200.535683 
L 239.390372 202.586771 
L 242.944734 204.590705 
L 246.499096 206.548569 
L 250.053457 208.46142 
L 253.607819 210.330296 
L 257.162181 212.156206 
L 260.716543 213.940138 
L 264.270904 215.683057 
L 267.825266 217.385907 
L 271.379628 219.049608 
L 274.93399 220.675061 
L 278.488352 222.263144 
L 282.042713 223.814717 
L 285.597075 225.330619 
L 289.151437 226.811671 
L 292.705799 228.258674 
L 296.260161 229.672409 
L 299.814522 231.053643 
L 303.368884 232.403122 
L 306.923246 233.721577 
L 310.477608 235.00972 
L 314.03197 236.268249 
L 317.586331 237.497844 
L 321.140693 238.699171 
L 324.695055 239.872879 
L 328.249417 241.019604 
L 331.803779 242.139965 
L 335.35814 243.23457 
L 338.912502 244.304009 
L 342.466864 245.348862 
L 346.021226 246.369693 
L 349.575588 247.367056 
L 353.129949 248.341489 
L 356.684311 249.29352 
L 360.238673 250.223663 
L 363.793035 251.132423 
L 367.347397 252.02029 
L 370.901758 252.887745 
L 374.45612 253.735258 
L 378.010482 254.563286 
L 381.564844 255.372277 
L 385.119206 256.16267 
L 388.673567 256.934892 
L 392.227929 257.68936 
L 395.782291 258.426483 
L 399.336653 259.146659 
L 402.891015 259.850279 
L 406.445376 260.537722 
L 409.999738 261.209361 
L 413.5541 261.865559 
L 417.108462 262.506671 
L 420.662824 263.133044 
L 424.217185 263.745016 
L 427.771547 264.34292 
L 431.325909 264.927077 
" clip-path="url(#p00835014c6)" style="fill: none; stroke: #2ca02c; stroke-width: 1.5; stroke-linecap: square"/>
   </g>
   <g id="patch_3">
    <path d="M 61.85 295.648 
L 61.85 29.4 
" style="fill: none; stroke: #000000; stroke-width: 0.8; stroke-linejoin: miter; stroke-linecap: square"/>
   </g>
   <g id="patch_4">
    <path d="M 448.92 295.648 
L 448.92 29.4 
" style="fill: none; stroke: #000000; stroke-width: 0.8; stroke-linejoin: miter; stroke-linecap: square"/>
   </g>
   <g id="patch_5">
    <path d="M 61.85 295.648 
L 448.92 295.648 
" style="fill: none; stroke: #000000; stroke-width: 0.8; stroke-linejoin: miter; stroke-linecap: square"/>
   </g>
   <g id="patch_6">
    <path d="M 61.85 29.4 
L 448.92 29.4 
" style="fill: none; stroke: #000000; stroke-width: 0.8; stroke-linejoin: miter; stroke-linecap: square"/>
   </g>
   <g id="text_13">
    <!-- Mismatch DNL Noise vs. $C_{\mathrm{tot}}$ ($N_{\mathrm{bits}}=12$) -->
    <g transform="translate(137.005 23.4) scale(0.12 -0.12)">
     <defs>
      <path id="DejaVuSans-76" d="M 191 3500 
L 800 3500 
L 1894 563 
L 2988 3500 
L 3597 3500 
L 2284 0 
L 1503 0 
L 191 3500 
z
" transform="scale(0.015625)"/>
      <path id="DejaVuSans-2e" d="M 684 794 
L 1344 794 
L 1344 0 
L 684 0 
L 684 794 
z
" transform="scale(0.015625)"/>
      <path id="DejaVuSans-Oblique-4e" d="M 1081 4666 
L 1931 4666 
L 3219 666 
L 4000 4666 
L 4616 4666 
L 3706 0 
L 2853 0 
L 1569 4025 
L 788 0 
L 172 0 
L 1081 4666 
z
" transform="scale(0.015625)"/>
      <path id="DejaVuSans-62" d="M 3116 1747 
Q 3116 2381 2855 2742 
Q 2594 3103 2138 3103 
Q 1681 3103 1420 2742 
Q 1159 2381 1159 1747 
Q 1159 1113 1420 752 
Q 1681 391 2138 391 
Q 2594 391 2855 752 
Q 3116 1113 3116 1747 
z
M 1159 2969 
Q 1341 3281 1617 3432 
Q 1894 3584 2278 3584 
Q 2916 3584 3314 3078 
Q 3713 2572 3713 1747 
Q 3713 922 3314 415 
Q 2916 -91 2278 -91 
Q 1894 -91 1617 61 
Q 1341 213 1159 525 
L 1159 0 
L 581 0 
L 581 4863 
L 1159 4863 
L 1159 2969 
z
" transform="scale(0.015625)"/>
      <path id="DejaVuSans-3d" d="M 678 2906 
L 4684 2906 
L 4684 2381 
L 678 2381 
L 678 2906 
z
M 678 1631 
L 4684 1631 
L 4684 1100 
L 678 1100 
L 678 1631 
z
" transform="scale(0.015625)"/>
     </defs>
     <use xlink:href="#DejaVuSans-4d" transform="translate(0 0.015625)"/>
     <use xlink:href="#DejaVuSans-69" transform="translate(86.279297 0.015625)"/>
     <use xlink:href="#DejaVuSans-73" transform="translate(114.0625 0.015625)"/>
     <use xlink:href="#DejaVuSans-6d" transform="translate(166.162109 0.015625)"/>
     <use xlink:href="#DejaVuSans-61" transform="translate(263.574219 0.015625)"/>
     <use xlink:href="#DejaVuSans-74" transform="translate(324.853516 0.015625)"/>
     <use xlink:href="#DejaVuSans-63" transform="translate(364.0625 0.015625)"/>
     <use xlink:href="#DejaVuSans-68" transform="translate(419.042969 0.015625)"/>
     <use xlink:href="#DejaVuSans-20" transform="translate(482.421875 0.015625)"/>
     <use xlink:href="#DejaVuSans-44" transform="translate(514.208984 0.015625)"/>
     <use xlink:href="#DejaVuSans-4e" transform="translate(591.210938 0.015625)"/>
     <use xlink:href="#DejaVuSans-4c" transform="translate(666.015625 0.015625)"/>
     <use xlink:href="#DejaVuSans-20" transform="translate(721.728516 0.015625)"/>
     <use xlink:href="#DejaVuSans-4e" transform="translate(753.515625 0.015625)"/>
     <use xlink:href="#DejaVuSans-6f" transform="translate(828.320312 0.015625)"/>
     <use xlink:href="#DejaVuSans-69" transform="translate(889.501953 0.015625)"/>
     <use xlink:href="#DejaVuSans-73" transform="translate(917.285156 0.015625)"/>
     <use xlink:href="#DejaVuSans-65" transform="translate(969.384766 0.015625)"/>
     <use xlink:href="#DejaVuSans-20" transform="translate(1030.908203 0.015625)"/>
     <use xlink:href="#DejaVuSans-76" transform="translate(1062.695312 0.015625)"/>
     <use xlink:href="#DejaVuSans-73" transform="translate(1121.875 0.015625)"/>
     <use xlink:href="#DejaVuSans-2e" transform="translate(1173.974609 0.015625)"/>
     <use xlink:href="#DejaVuSans-20" transform="translate(1205.761719 0.015625)"/>
     <use xlink:href="#DejaVuSans-Oblique-43" transform="translate(1237.548828 0.015625)"/>
     <use xlink:href="#DejaVuSans-74" transform="translate(1307.373047 -16.390625) scale(0.7)"/>
     <use xlink:href="#DejaVuSans-6f" transform="translate(1334.819336 -16.390625) scale(0.7)"/>
     <use xlink:href="#DejaVuSans-74" transform="translate(1377.646484 -16.390625) scale(0.7)"/>
     <use xlink:href="#DejaVuSans-20" transform="translate(1407.827148 0.015625)"/>
     <use xlink:href="#DejaVuSans-28" transform="translate(1439.614258 0.015625)"/>
     <use xlink:href="#DejaVuSans-Oblique-4e" transform="translate(1478.62793 0.015625)"/>
     <use xlink:href="#DejaVuSans-62" transform="translate(1553.432617 -16.390625) scale(0.7)"/>
     <use xlink:href="#DejaVuSans-69" transform="translate(1597.866211 -16.390625) scale(0.7)"/>
     <use xlink:href="#DejaVuSans-74" transform="translate(1617.314453 -16.390625) scale(0.7)"/>
     <use xlink:href="#DejaVuSans-73" transform="translate(1644.760742 -16.390625) scale(0.7)"/>
     <use xlink:href="#DejaVuSans-3d" transform="translate(1703.447266 0.015625)"/>
     <use xlink:href="#DejaVuSans-31" transform="translate(1806.71875 0.015625)"/>
     <use xlink:href="#DejaVuSans-32" transform="translate(1870.341797 0.015625)"/>
     <use xlink:href="#DejaVuSans-29" transform="translate(1933.964844 0.015625)"/>
    </g>
   </g>
   <g id="legend_1">
    <g id="patch_7">
     <path d="M 342.32 81.434375 
L 441.92 81.434375 
Q 443.92 81.434375 443.92 79.434375 
L 443.92 36.4 
Q 443.92 34.4 441.92 34.4 
L 342.32 34.4 
Q 340.32 34.4 340.32 36.4 
L 340.32 79.434375 
Q 340.32 81.434375 342.32 81.434375 
z
" style="fill: #ffffff; opacity: 0.8; stroke: #cccccc; stroke-linejoin: miter"/>
    </g>
    <g id="line2d_60">
     <path d="M 344.32 42.498437 
L 354.32 42.498437 
L 364.32 42.498437 
" style="fill: none; stroke: #1f77b4; stroke-width: 1.5; stroke-linecap: square"/>
    </g>
    <g id="text_14">
     <!-- 1$\sigma$ DNL Noise -->
     <g transform="translate(372.32 45.998437) scale(0.1 -0.1)">
      <defs>
       <path id="DejaVuSans-Oblique-3c3" d="M 2219 3044 
Q 1744 3044 1422 2700 
Q 1081 2341 969 1747 
Q 844 1119 1044 756 
Q 1241 397 1706 397 
Q 2166 397 2503 759 
Q 2844 1122 2966 1747 
Q 3075 2319 2881 2700 
Q 2700 3044 2219 3044 
z
M 2309 3503 
L 4219 3500 
L 4106 2925 
L 3463 2925 
Q 3706 2438 3575 1747 
Q 3406 888 2884 400 
Q 2359 -91 1609 -91 
Q 856 -91 525 400 
Q 194 888 363 1747 
Q 528 2609 1050 3097 
Q 1484 3503 2309 3503 
z
" transform="scale(0.015625)"/>
      </defs>
      <use xlink:href="#DejaVuSans-31" transform="translate(0 0.015625)"/>
      <use xlink:href="#DejaVuSans-Oblique-3c3" transform="translate(63.623047 0.015625)"/>
      <use xlink:href="#DejaVuSans-20" transform="translate(127.001953 0.015625)"/>
      <use xlink:href="#DejaVuSans-44" transform="translate(158.789062 0.015625)"/>
      <use xlink:href="#DejaVuSans-4e" transform="translate(235.791016 0.015625)"/>
      <use xlink:href="#DejaVuSans-4c" transform="translate(310.595703 0.015625)"/>
      <use xlink:href="#DejaVuSans-20" transform="translate(366.308594 0.015625)"/>
      <use xlink:href="#DejaVuSans-4e" transform="translate(398.095703 0.015625)"/>
      <use xlink:href="#DejaVuSans-6f" transform="translate(472.900391 0.015625)"/>
      <use xlink:href="#DejaVuSans-69" transform="translate(534.082031 0.015625)"/>
      <use xlink:href="#DejaVuSans-73" transform="translate(561.865234 0.015625)"/>
      <use xlink:href="#DejaVuSans-65" transform="translate(613.964844 0.015625)"/>
     </g>
    </g>
    <g id="line2d_61">
     <path d="M 344.32 57.176562 
L 354.32 57.176562 
L 364.32 57.176562 
" style="fill: none; stroke: #ff7f0e; stroke-width: 1.5; stroke-linecap: square"/>
    </g>
    <g id="text_15">
     <!-- 3$\sigma$ DNL Noise -->
     <g transform="translate(372.32 60.676562) scale(0.1 -0.1)">
      <use xlink:href="#DejaVuSans-33" transform="translate(0 0.015625)"/>
      <use xlink:href="#DejaVuSans-Oblique-3c3" transform="translate(63.623047 0.015625)"/>
      <use xlink:href="#DejaVuSans-20" transform="translate(127.001953 0.015625)"/>
      <use xlink:href="#DejaVuSans-44" transform="translate(158.789062 0.015625)"/>
      <use xlink:href="#DejaVuSans-4e" transform="translate(235.791016 0.015625)"/>
      <use xlink:href="#DejaVuSans-4c" transform="translate(310.595703 0.015625)"/>
      <use xlink:href="#DejaVuSans-20" transform="translate(366.308594 0.015625)"/>
      <use xlink:href="#DejaVuSans-4e" transform="translate(398.095703 0.015625)"/>
      <use xlink:href="#DejaVuSans-6f" transform="translate(472.900391 0.015625)"/>
      <use xlink:href="#DejaVuSans-69" transform="translate(534.082031 0.015625)"/>
      <use xlink:href="#DejaVuSans-73" transform="translate(561.865234 0.015625)"/>
      <use xlink:href="#DejaVuSans-65" transform="translate(613.964844 0.015625)"/>
     </g>
    </g>
    <g id="line2d_62">
     <path d="M 344.32 71.854687 
L 354.32 71.854687 
L 364.32 71.854687 
" style="fill: none; stroke: #2ca02c; stroke-width: 1.5; stroke-linecap: square"/>
    </g>
    <g id="text_16">
     <!-- 4$\sigma$ DNL Noise -->
     <g transform="translate(372.32 75.354687) scale(0.1 -0.1)">
      <use xlink:href="#DejaVuSans-34" transform="translate(0 0.015625)"/>
      <use xlink:href="#DejaVuSans-Oblique-3c3" transform="translate(63.623047 0.015625)"/>
      <use xlink:href="#DejaVuSans-20" transform="translate(127.001953 0.015625)"/>
      <use xlink:href="#DejaVuSans-44" transform="translate(158.789062 0.015625)"/>
      <use xlink:href="#DejaVuSans-4e" transform="translate(235.791016 0.015625)"/>
      <use xlink:href="#DejaVuSans-4c" transform="translate(310.595703 0.015625)"/>
      <use xlink:href="#DejaVuSans-20" transform="translate(366.308594 0.015625)"/>
      <use xlink:href="#DejaVuSans-4e" transform="translate(398.095703 0.015625)"/>
      <use xlink:href="#DejaVuSans-6f" transform="translate(472.900391 0.015625)"/>
      <use xlink:href="#DejaVuSans-69" transform="translate(534.082031 0.015625)"/>
      <use xlink:href="#DejaVuSans-73" transform="translate(561.865234 0.015625)"/>
      <use xlink:href="#DejaVuSans-65" transform="translate(613.964844 0.015625)"/>
     </g>
    </g>
   </g>
  </g>
 </g>
 <defs>
  <clipPath id="p00835014c6">
   <rect x="61.85" y="29.4" width="387.07" height="266.248"/>
  </clipPath>
 </defs>
</svg>
