<?xml version="1.0" encoding="utf-8" ?>
<svg baseProfile="full" class="WaveDrom" height="485" version="1.1" viewBox="0,0,1609,485" width="1609" xmlns="http://www.w3.org/2000/svg" xmlns:ev="http://www.w3.org/2001/xml-events" xmlns:xlink="http://www.w3.org/1999/xlink"><defs /><g font-family="sans-serif" font-size="14" font-weight="normal" text-anchor="middle" transform="translate(4.5,400.5)"><g stroke="black" stroke-linecap="round" stroke-width="1" transform="translate(0,20.0)"><line x1="0" x2="1600" y1="0" y2="0" /><line x1="0" x2="0" y1="0" y2="40.0" /><line x1="0" x2="1600" y1="40.0" y2="40.0" /><line x1="1600.0" x2="1600.0" y1="0" y2="40.0" /><line x1="1546.6666666666667" x2="1546.6666666666667" y1="0" y2="5.0" /><line x1="1546.6666666666667" x2="1546.6666666666667" y1="35.0" y2="40.0" /><line x1="1493.3333333333335" x2="1493.3333333333335" y1="0" y2="5.0" /><line x1="1493.3333333333335" x2="1493.3333333333335" y1="35.0" y2="40.0" /><line x1="1440.0" x2="1440.0" y1="0" y2="5.0" /><line x1="1440.0" x2="1440.0" y1="35.0" y2="40.0" /><line x1="1386.6666666666667" x2="1386.6666666666667" y1="0" y2="5.0" /><line x1="1386.6666666666667" x2="1386.6666666666667" y1="35.0" y2="40.0" /><line x1="1333.3333333333335" x2="1333.3333333333335" y1="0" y2="5.0" /><line x1="1333.3333333333335" x2="1333.3333333333335" y1="35.0" y2="40.0" /><line x1="1280.0" x2="1280.0" y1="0" y2="5.0" /><line x1="1280.0" x2="1280.0" y1="35.0" y2="40.0" /><line x1="1226.6666666666667" x2="1226.6666666666667" y1="0" y2="5.0" /><line x1="1226.6666666666667" x2="1226.6666666666667" y1="35.0" y2="40.0" /><line x1="1173.3333333333335" x2="1173.3333333333335" y1="0" y2="5.0" /><line x1="1173.3333333333335" x2="1173.3333333333335" y1="35.0" y2="40.0" /><line x1="1120.0" x2="1120.0" y1="0" y2="5.0" /><line x1="1120.0" x2="1120.0" y1="35.0" y2="40.0" /><line x1="1066.6666666666667" x2="1066.6666666666667" y1="0" y2="5.0" /><line x1="1066.6666666666667" x2="1066.6666666666667" y1="35.0" y2="40.0" /><line x1="1013.3333333333334" x2="1013.3333333333334" y1="0" y2="5.0" /><line x1="1013.3333333333334" x2="1013.3333333333334" y1="35.0" y2="40.0" /><line x1="960.0" x2="960.0" y1="0" y2="5.0" /><line x1="960.0" x2="960.0" y1="35.0" y2="40.0" /><line x1="906.6666666666667" x2="906.6666666666667" y1="0" y2="5.0" /><line x1="906.6666666666667" x2="906.6666666666667" y1="35.0" y2="40.0" /><line x1="853.3333333333334" x2="853.3333333333334" y1="0" y2="5.0" /><line x1="853.3333333333334" x2="853.3333333333334" y1="35.0" y2="40.0" /><line x1="800.0" x2="800.0" y1="0" y2="5.0" /><line x1="800.0" x2="800.0" y1="35.0" y2="40.0" /><line x1="746.6666666666667" x2="746.6666666666667" y1="0" y2="40.0" /><line x1="693.3333333333334" x2="693.3333333333334" y1="0" y2="5.0" /><line x1="693.3333333333334" x2="693.3333333333334" y1="35.0" y2="40.0" /><line x1="640.0" x2="640.0" y1="0" y2="5.0" /><line x1="640.0" x2="640.0" y1="35.0" y2="40.0" /><line x1="586.6666666666667" x2="586.6666666666667" y1="0" y2="5.0" /><line x1="586.6666666666667" x2="586.6666666666667" y1="35.0" y2="40.0" /><line x1="533.3333333333334" x2="533.3333333333334" y1="0" y2="5.0" /><line x1="533.3333333333334" x2="533.3333333333334" y1="35.0" y2="40.0" /><line x1="480.0" x2="480.0" y1="0" y2="5.0" /><line x1="480.0" x2="480.0" y1="35.0" y2="40.0" /><line x1="426.6666666666667" x2="426.6666666666667" y1="0" y2="5.0" /><line x1="426.6666666666667" x2="426.6666666666667" y1="35.0" y2="40.0" /><line x1="373.33333333333337" x2="373.33333333333337" y1="0" y2="5.0" /><line x1="373.33333333333337" x2="373.33333333333337" y1="35.0" y2="40.0" /><line x1="320.0" x2="320.0" y1="0" y2="5.0" /><line x1="320.0" x2="320.0" y1="35.0" y2="40.0" /><line x1="266.6666666666667" x2="266.6666666666667" y1="0" y2="5.0" /><line x1="266.6666666666667" x2="266.6666666666667" y1="35.0" y2="40.0" /><line x1="213.33333333333334" x2="213.33333333333334" y1="0" y2="5.0" /><line x1="213.33333333333334" x2="213.33333333333334" y1="35.0" y2="40.0" /><line x1="160.0" x2="160.0" y1="0" y2="5.0" /><line x1="160.0" x2="160.0" y1="35.0" y2="40.0" /><line x1="106.66666666666667" x2="106.66666666666667" y1="0" y2="5.0" /><line x1="106.66666666666667" x2="106.66666666666667" y1="35.0" y2="40.0" /><line x1="53.333333333333336" x2="53.333333333333336" y1="0" y2="5.0" /><line x1="53.333333333333336" x2="53.333333333333336" y1="35.0" y2="40.0" /></g><g text-anchor="middle"><g><g transform="translate(0,20.0)" /><g transform="translate(26.666666666666668,16.0)"><text x="1546.6666666666667"><tspan>0</tspan></text><text x="746.6666666666667"><tspan>15</tspan></text><text x="693.3333333333334"><tspan>16</tspan></text><text x="0.0"><tspan>29</tspan></text></g><g transform="translate(26.666666666666668,44.0)"><text x="1146.6666666666667"><tspan>shared_dac_bstate_n</tspan></text><text x="346.6666666666667"><tspan>shared_dac_astate_n</tspan></text></g><g transform="translate(26.666666666666668,80)"><text x="1146.6666666666667"><tspan>[15:0]</tspan></text><text x="346.6666666666667"><tspan>[31:16]</tspan></text></g></g></g></g><g font-family="sans-serif" font-size="14" font-weight="normal" text-anchor="middle" transform="translate(4.5,320.5)"><g stroke="black" stroke-linecap="round" stroke-width="1" transform="translate(0,20.0)"><line x1="0" x2="1600" y1="0" y2="0" /><line x1="0" x2="0" y1="0" y2="40.0" /><line x1="0" x2="1600" y1="40.0" y2="40.0" /><line x1="1600.0" x2="1600.0" y1="0" y2="40.0" /><line x1="1546.6666666666667" x2="1546.6666666666667" y1="0" y2="5.0" /><line x1="1546.6666666666667" x2="1546.6666666666667" y1="35.0" y2="40.0" /><line x1="1493.3333333333335" x2="1493.3333333333335" y1="0" y2="40.0" /><line x1="1440.0" x2="1440.0" y1="0" y2="5.0" /><line x1="1440.0" x2="1440.0" y1="35.0" y2="40.0" /><line x1="1386.6666666666667" x2="1386.6666666666667" y1="0" y2="5.0" /><line x1="1386.6666666666667" x2="1386.6666666666667" y1="35.0" y2="40.0" /><line x1="1333.3333333333335" x2="1333.3333333333335" y1="0" y2="5.0" /><line x1="1333.3333333333335" x2="1333.3333333333335" y1="35.0" y2="40.0" /><line x1="1280.0" x2="1280.0" y1="0" y2="5.0" /><line x1="1280.0" x2="1280.0" y1="35.0" y2="40.0" /><line x1="1226.6666666666667" x2="1226.6666666666667" y1="0" y2="5.0" /><line x1="1226.6666666666667" x2="1226.6666666666667" y1="35.0" y2="40.0" /><line x1="1173.3333333333335" x2="1173.3333333333335" y1="0" y2="5.0" /><line x1="1173.3333333333335" x2="1173.3333333333335" y1="35.0" y2="40.0" /><line x1="1120.0" x2="1120.0" y1="0" y2="5.0" /><line x1="1120.0" x2="1120.0" y1="35.0" y2="40.0" /><line x1="1066.6666666666667" x2="1066.6666666666667" y1="0" y2="5.0" /><line x1="1066.6666666666667" x2="1066.6666666666667" y1="35.0" y2="40.0" /><line x1="1013.3333333333334" x2="1013.3333333333334" y1="0" y2="5.0" /><line x1="1013.3333333333334" x2="1013.3333333333334" y1="35.0" y2="40.0" /><line x1="960.0" x2="960.0" y1="0" y2="5.0" /><line x1="960.0" x2="960.0" y1="35.0" y2="40.0" /><line x1="906.6666666666667" x2="906.6666666666667" y1="0" y2="5.0" /><line x1="906.6666666666667" x2="906.6666666666667" y1="35.0" y2="40.0" /><line x1="853.3333333333334" x2="853.3333333333334" y1="0" y2="5.0" /><line x1="853.3333333333334" x2="853.3333333333334" y1="35.0" y2="40.0" /><line x1="800.0" x2="800.0" y1="0" y2="5.0" /><line x1="800.0" x2="800.0" y1="35.0" y2="40.0" /><line x1="746.6666666666667" x2="746.6666666666667" y1="0" y2="5.0" /><line x1="746.6666666666667" x2="746.6666666666667" y1="35.0" y2="40.0" /><line x1="693.3333333333334" x2="693.3333333333334" y1="0" y2="5.0" /><line x1="693.3333333333334" x2="693.3333333333334" y1="35.0" y2="40.0" /><line x1="640.0" x2="640.0" y1="0" y2="40.0" /><line x1="586.6666666666667" x2="586.6666666666667" y1="0" y2="5.0" /><line x1="586.6666666666667" x2="586.6666666666667" y1="35.0" y2="40.0" /><line x1="533.3333333333334" x2="533.3333333333334" y1="0" y2="5.0" /><line x1="533.3333333333334" x2="533.3333333333334" y1="35.0" y2="40.0" /><line x1="480.0" x2="480.0" y1="0" y2="5.0" /><line x1="480.0" x2="480.0" y1="35.0" y2="40.0" /><line x1="426.6666666666667" x2="426.6666666666667" y1="0" y2="5.0" /><line x1="426.6666666666667" x2="426.6666666666667" y1="35.0" y2="40.0" /><line x1="373.33333333333337" x2="373.33333333333337" y1="0" y2="5.0" /><line x1="373.33333333333337" x2="373.33333333333337" y1="35.0" y2="40.0" /><line x1="320.0" x2="320.0" y1="0" y2="5.0" /><line x1="320.0" x2="320.0" y1="35.0" y2="40.0" /><line x1="266.6666666666667" x2="266.6666666666667" y1="0" y2="5.0" /><line x1="266.6666666666667" x2="266.6666666666667" y1="35.0" y2="40.0" /><line x1="213.33333333333334" x2="213.33333333333334" y1="0" y2="5.0" /><line x1="213.33333333333334" x2="213.33333333333334" y1="35.0" y2="40.0" /><line x1="160.0" x2="160.0" y1="0" y2="5.0" /><line x1="160.0" x2="160.0" y1="35.0" y2="40.0" /><line x1="106.66666666666667" x2="106.66666666666667" y1="0" y2="5.0" /><line x1="106.66666666666667" x2="106.66666666666667" y1="35.0" y2="40.0" /><line x1="53.333333333333336" x2="53.333333333333336" y1="0" y2="5.0" /><line x1="53.333333333333336" x2="53.333333333333336" y1="35.0" y2="40.0" /></g><g text-anchor="middle"><g><g transform="translate(0,20.0)" /><g transform="translate(26.666666666666668,16.0)"><text x="1546.6666666666667"><tspan>30</tspan></text><text x="1493.3333333333335"><tspan>31</tspan></text><text x="1440.0"><tspan>32</tspan></text><text x="640.0"><tspan>47</tspan></text><text x="586.6666666666667"><tspan>48</tspan></text><text x="0.0"><tspan>59</tspan></text></g><g transform="translate(26.666666666666668,44.0)"><text x="1520.0"><tspan>shared_dac_astate_n</tspan></text><text x="1040.0"><tspan>shared_dac_bstate_p</tspan></text><text x="293.33333333333337"><tspan>shared_dac_astate_p</tspan></text></g><g transform="translate(26.666666666666668,80)"><text x="1520.0"><tspan>[31:16]</tspan></text><text x="1040.0"><tspan>[47:32]</tspan></text><text x="293.33333333333337"><tspan>[63:48]</tspan></text></g></g></g></g><g font-family="sans-serif" font-size="14" font-weight="normal" text-anchor="middle" transform="translate(4.5,240.5)"><g stroke="black" stroke-linecap="round" stroke-width="1" transform="translate(0,20.0)"><line x1="0" x2="1600" y1="0" y2="0" /><line x1="0" x2="0" y1="0" y2="40.0" /><line x1="0" x2="1600" y1="40.0" y2="40.0" /><line x1="1600.0" x2="1600.0" y1="0" y2="40.0" /><line x1="1546.6666666666667" x2="1546.6666666666667" y1="0" y2="5.0" /><line x1="1546.6666666666667" x2="1546.6666666666667" y1="35.0" y2="40.0" /><line x1="1493.3333333333335" x2="1493.3333333333335" y1="0" y2="5.0" /><line x1="1493.3333333333335" x2="1493.3333333333335" y1="35.0" y2="40.0" /><line x1="1440.0" x2="1440.0" y1="0" y2="5.0" /><line x1="1440.0" x2="1440.0" y1="35.0" y2="40.0" /><line x1="1386.6666666666667" x2="1386.6666666666667" y1="0" y2="40.0" /><line x1="1333.3333333333335" x2="1333.3333333333335" y1="0" y2="5.0" /><line x1="1333.3333333333335" x2="1333.3333333333335" y1="35.0" y2="40.0" /><line x1="1280.0" x2="1280.0" y1="0" y2="5.0" /><line x1="1280.0" x2="1280.0" y1="35.0" y2="40.0" /><line x1="1226.6666666666667" x2="1226.6666666666667" y1="0" y2="5.0" /><line x1="1226.6666666666667" x2="1226.6666666666667" y1="35.0" y2="40.0" /><line x1="1173.3333333333335" x2="1173.3333333333335" y1="0" y2="5.0" /><line x1="1173.3333333333335" x2="1173.3333333333335" y1="35.0" y2="40.0" /><line x1="1120.0" x2="1120.0" y1="0" y2="5.0" /><line x1="1120.0" x2="1120.0" y1="35.0" y2="40.0" /><line x1="1066.6666666666667" x2="1066.6666666666667" y1="0" y2="5.0" /><line x1="1066.6666666666667" x2="1066.6666666666667" y1="35.0" y2="40.0" /><line x1="1013.3333333333334" x2="1013.3333333333334" y1="0" y2="40.0" /><line x1="960.0" x2="960.0" y1="0" y2="5.0" /><line x1="960.0" x2="960.0" y1="35.0" y2="40.0" /><line x1="906.6666666666667" x2="906.6666666666667" y1="0" y2="5.0" /><line x1="906.6666666666667" x2="906.6666666666667" y1="35.0" y2="40.0" /><line x1="853.3333333333334" x2="853.3333333333334" y1="0" y2="5.0" /><line x1="853.3333333333334" x2="853.3333333333334" y1="35.0" y2="40.0" /><line x1="800.0" x2="800.0" y1="0" y2="5.0" /><line x1="800.0" x2="800.0" y1="35.0" y2="40.0" /><line x1="746.6666666666667" x2="746.6666666666667" y1="0" y2="5.0" /><line x1="746.6666666666667" x2="746.6666666666667" y1="35.0" y2="40.0" /><line x1="693.3333333333334" x2="693.3333333333334" y1="0" y2="5.0" /><line x1="693.3333333333334" x2="693.3333333333334" y1="35.0" y2="40.0" /><line x1="640.0" x2="640.0" y1="0" y2="40.0" /><line x1="586.6666666666667" x2="586.6666666666667" y1="0" y2="5.0" /><line x1="586.6666666666667" x2="586.6666666666667" y1="35.0" y2="40.0" /><line x1="533.3333333333334" x2="533.3333333333334" y1="0" y2="5.0" /><line x1="533.3333333333334" x2="533.3333333333334" y1="35.0" y2="40.0" /><line x1="480.0" x2="480.0" y1="0" y2="5.0" /><line x1="480.0" x2="480.0" y1="35.0" y2="40.0" /><line x1="426.6666666666667" x2="426.6666666666667" y1="0" y2="5.0" /><line x1="426.6666666666667" x2="426.6666666666667" y1="35.0" y2="40.0" /><line x1="373.33333333333337" x2="373.33333333333337" y1="0" y2="5.0" /><line x1="373.33333333333337" x2="373.33333333333337" y1="35.0" y2="40.0" /><line x1="320.0" x2="320.0" y1="0" y2="5.0" /><line x1="320.0" x2="320.0" y1="35.0" y2="40.0" /><line x1="266.6666666666667" x2="266.6666666666667" y1="0" y2="40.0" /><line x1="213.33333333333334" x2="213.33333333333334" y1="0" y2="5.0" /><line x1="213.33333333333334" x2="213.33333333333334" y1="35.0" y2="40.0" /><line x1="160.0" x2="160.0" y1="0" y2="5.0" /><line x1="160.0" x2="160.0" y1="35.0" y2="40.0" /><line x1="106.66666666666667" x2="106.66666666666667" y1="0" y2="5.0" /><line x1="106.66666666666667" x2="106.66666666666667" y1="35.0" y2="40.0" /><line x1="53.333333333333336" x2="53.333333333333336" y1="0" y2="5.0" /><line x1="53.333333333333336" x2="53.333333333333336" y1="35.0" y2="40.0" /></g><g text-anchor="middle"><g><g transform="translate(0,20.0)" /><g transform="translate(26.666666666666668,16.0)"><text x="1546.6666666666667"><tspan>60</tspan></text><text x="1386.6666666666667"><tspan>63</tspan></text><text x="1333.3333333333335"><tspan>64</tspan></text><text x="1013.3333333333334"><tspan>70</tspan></text><text x="960.0"><tspan>71</tspan></text><text x="640.0"><tspan>77</tspan></text><text x="586.6666666666667"><tspan>78</tspan></text><text x="266.6666666666667"><tspan>84</tspan></text><text x="213.33333333333334"><tspan>85</tspan></text><text x="0.0"><tspan>89</tspan></text></g><g transform="translate(26.666666666666668,44.0)"><text x="1466.6666666666667"><tspan>shared_dac_astate_p</tspan></text><text x="1173.3333333333335"><tspan>ADC0 cfg</tspan></text><text x="800.0"><tspan>ADC1 cfg</tspan></text><text x="426.6666666666667"><tspan>ADC2 cfg</tspan></text><text x="106.66666666666667"><tspan>ADC3 cfg</tspan></text></g><g transform="translate(26.666666666666668,80)"><text x="1466.6666666666667"><tspan>[63:48]</tspan></text><text x="1173.3333333333335"><tspan>[70:64]</tspan></text><text x="800.0"><tspan>[77:71]</tspan></text><text x="426.6666666666667"><tspan>[84:78]</tspan></text><text x="106.66666666666667"><tspan>[91:85]</tspan></text></g></g></g></g><g font-family="sans-serif" font-size="14" font-weight="normal" text-anchor="middle" transform="translate(4.5,160.5)"><g stroke="black" stroke-linecap="round" stroke-width="1" transform="translate(0,20.0)"><line x1="0" x2="1600" y1="0" y2="0" /><line x1="0" x2="0" y1="0" y2="40.0" /><line x1="0" x2="1600" y1="40.0" y2="40.0" /><line x1="1600.0" x2="1600.0" y1="0" y2="40.0" /><line x1="1546.6666666666667" x2="1546.6666666666667" y1="0" y2="5.0" /><line x1="1546.6666666666667" x2="1546.6666666666667" y1="35.0" y2="40.0" /><line x1="1493.3333333333335" x2="1493.3333333333335" y1="0" y2="40.0" /><line x1="1440.0" x2="1440.0" y1="0" y2="5.0" /><line x1="1440.0" x2="1440.0" y1="35.0" y2="40.0" /><line x1="1386.6666666666667" x2="1386.6666666666667" y1="0" y2="5.0" /><line x1="1386.6666666666667" x2="1386.6666666666667" y1="35.0" y2="40.0" /><line x1="1333.3333333333335" x2="1333.3333333333335" y1="0" y2="5.0" /><line x1="1333.3333333333335" x2="1333.3333333333335" y1="35.0" y2="40.0" /><line x1="1280.0" x2="1280.0" y1="0" y2="5.0" /><line x1="1280.0" x2="1280.0" y1="35.0" y2="40.0" /><line x1="1226.6666666666667" x2="1226.6666666666667" y1="0" y2="5.0" /><line x1="1226.6666666666667" x2="1226.6666666666667" y1="35.0" y2="40.0" /><line x1="1173.3333333333335" x2="1173.3333333333335" y1="0" y2="5.0" /><line x1="1173.3333333333335" x2="1173.3333333333335" y1="35.0" y2="40.0" /><line x1="1120.0" x2="1120.0" y1="0" y2="40.0" /><line x1="1066.6666666666667" x2="1066.6666666666667" y1="0" y2="5.0" /><line x1="1066.6666666666667" x2="1066.6666666666667" y1="35.0" y2="40.0" /><line x1="1013.3333333333334" x2="1013.3333333333334" y1="0" y2="5.0" /><line x1="1013.3333333333334" x2="1013.3333333333334" y1="35.0" y2="40.0" /><line x1="960.0" x2="960.0" y1="0" y2="5.0" /><line x1="960.0" x2="960.0" y1="35.0" y2="40.0" /><line x1="906.6666666666667" x2="906.6666666666667" y1="0" y2="5.0" /><line x1="906.6666666666667" x2="906.6666666666667" y1="35.0" y2="40.0" /><line x1="853.3333333333334" x2="853.3333333333334" y1="0" y2="5.0" /><line x1="853.3333333333334" x2="853.3333333333334" y1="35.0" y2="40.0" /><line x1="800.0" x2="800.0" y1="0" y2="5.0" /><line x1="800.0" x2="800.0" y1="35.0" y2="40.0" /><line x1="746.6666666666667" x2="746.6666666666667" y1="0" y2="40.0" /><line x1="693.3333333333334" x2="693.3333333333334" y1="0" y2="5.0" /><line x1="693.3333333333334" x2="693.3333333333334" y1="35.0" y2="40.0" /><line x1="640.0" x2="640.0" y1="0" y2="5.0" /><line x1="640.0" x2="640.0" y1="35.0" y2="40.0" /><line x1="586.6666666666667" x2="586.6666666666667" y1="0" y2="5.0" /><line x1="586.6666666666667" x2="586.6666666666667" y1="35.0" y2="40.0" /><line x1="533.3333333333334" x2="533.3333333333334" y1="0" y2="5.0" /><line x1="533.3333333333334" x2="533.3333333333334" y1="35.0" y2="40.0" /><line x1="480.0" x2="480.0" y1="0" y2="5.0" /><line x1="480.0" x2="480.0" y1="35.0" y2="40.0" /><line x1="426.6666666666667" x2="426.6666666666667" y1="0" y2="5.0" /><line x1="426.6666666666667" x2="426.6666666666667" y1="35.0" y2="40.0" /><line x1="373.33333333333337" x2="373.33333333333337" y1="0" y2="40.0" /><line x1="320.0" x2="320.0" y1="0" y2="5.0" /><line x1="320.0" x2="320.0" y1="35.0" y2="40.0" /><line x1="266.6666666666667" x2="266.6666666666667" y1="0" y2="5.0" /><line x1="266.6666666666667" x2="266.6666666666667" y1="35.0" y2="40.0" /><line x1="213.33333333333334" x2="213.33333333333334" y1="0" y2="5.0" /><line x1="213.33333333333334" x2="213.33333333333334" y1="35.0" y2="40.0" /><line x1="160.0" x2="160.0" y1="0" y2="5.0" /><line x1="160.0" x2="160.0" y1="35.0" y2="40.0" /><line x1="106.66666666666667" x2="106.66666666666667" y1="0" y2="5.0" /><line x1="106.66666666666667" x2="106.66666666666667" y1="35.0" y2="40.0" /><line x1="53.333333333333336" x2="53.333333333333336" y1="0" y2="5.0" /><line x1="53.333333333333336" x2="53.333333333333336" y1="35.0" y2="40.0" /></g><g text-anchor="middle"><g><g transform="translate(0,20.0)" /><g transform="translate(26.666666666666668,16.0)"><text x="1546.6666666666667"><tspan>90</tspan></text><text x="1493.3333333333335"><tspan>91</tspan></text><text x="1440.0"><tspan>92</tspan></text><text x="1120.0"><tspan>98</tspan></text><text x="1066.6666666666667"><tspan>99</tspan></text><text x="746.6666666666667"><tspan>105</tspan></text><text x="693.3333333333334"><tspan>106</tspan></text><text x="373.33333333333337"><tspan>112</tspan></text><text x="320.0"><tspan>113</tspan></text><text x="0.0"><tspan>119</tspan></text></g><g transform="translate(26.666666666666668,44.0)"><text x="1520.0"><tspan>ADC3 cfg</tspan></text><text x="1280.0"><tspan>ADC4 cfg</tspan></text><text x="906.6666666666667"><tspan>ADC5 cfg</tspan></text><text x="533.3333333333334"><tspan>ADC6 cfg</tspan></text><text x="160.0"><tspan>ADC7 cfg</tspan></text></g><g transform="translate(26.666666666666668,80)"><text x="1520.0"><tspan>[91:85]</tspan></text><text x="1280.0"><tspan>[98:92]</tspan></text><text x="906.6666666666667"><tspan>[105:99]</tspan></text><text x="533.3333333333334"><tspan>[112:106]</tspan></text><text x="160.0"><tspan>[119:113]</tspan></text></g></g></g></g><g font-family="sans-serif" font-size="14" font-weight="normal" text-anchor="middle" transform="translate(4.5,80.5)"><g stroke="black" stroke-linecap="round" stroke-width="1" transform="translate(0,20.0)"><line x1="0" x2="1600" y1="0" y2="0" /><line x1="0" x2="0" y1="0" y2="40.0" /><line x1="0" x2="1600" y1="40.0" y2="40.0" /><line x1="1600.0" x2="1600.0" y1="0" y2="40.0" /><line x1="1546.6666666666667" x2="1546.6666666666667" y1="0" y2="5.0" /><line x1="1546.6666666666667" x2="1546.6666666666667" y1="35.0" y2="40.0" /><line x1="1493.3333333333335" x2="1493.3333333333335" y1="0" y2="5.0" /><line x1="1493.3333333333335" x2="1493.3333333333335" y1="35.0" y2="40.0" /><line x1="1440.0" x2="1440.0" y1="0" y2="5.0" /><line x1="1440.0" x2="1440.0" y1="35.0" y2="40.0" /><line x1="1386.6666666666667" x2="1386.6666666666667" y1="0" y2="5.0" /><line x1="1386.6666666666667" x2="1386.6666666666667" y1="35.0" y2="40.0" /><line x1="1333.3333333333335" x2="1333.3333333333335" y1="0" y2="5.0" /><line x1="1333.3333333333335" x2="1333.3333333333335" y1="35.0" y2="40.0" /><line x1="1280.0" x2="1280.0" y1="0" y2="5.0" /><line x1="1280.0" x2="1280.0" y1="35.0" y2="40.0" /><line x1="1226.6666666666667" x2="1226.6666666666667" y1="0" y2="40.0" /><line x1="1173.3333333333335" x2="1173.3333333333335" y1="0" y2="5.0" /><line x1="1173.3333333333335" x2="1173.3333333333335" y1="35.0" y2="40.0" /><line x1="1120.0" x2="1120.0" y1="0" y2="5.0" /><line x1="1120.0" x2="1120.0" y1="35.0" y2="40.0" /><line x1="1066.6666666666667" x2="1066.6666666666667" y1="0" y2="5.0" /><line x1="1066.6666666666667" x2="1066.6666666666667" y1="35.0" y2="40.0" /><line x1="1013.3333333333334" x2="1013.3333333333334" y1="0" y2="5.0" /><line x1="1013.3333333333334" x2="1013.3333333333334" y1="35.0" y2="40.0" /><line x1="960.0" x2="960.0" y1="0" y2="5.0" /><line x1="960.0" x2="960.0" y1="35.0" y2="40.0" /><line x1="906.6666666666667" x2="906.6666666666667" y1="0" y2="5.0" /><line x1="906.6666666666667" x2="906.6666666666667" y1="35.0" y2="40.0" /><line x1="853.3333333333334" x2="853.3333333333334" y1="0" y2="40.0" /><line x1="800.0" x2="800.0" y1="0" y2="5.0" /><line x1="800.0" x2="800.0" y1="35.0" y2="40.0" /><line x1="746.6666666666667" x2="746.6666666666667" y1="0" y2="5.0" /><line x1="746.6666666666667" x2="746.6666666666667" y1="35.0" y2="40.0" /><line x1="693.3333333333334" x2="693.3333333333334" y1="0" y2="5.0" /><line x1="693.3333333333334" x2="693.3333333333334" y1="35.0" y2="40.0" /><line x1="640.0" x2="640.0" y1="0" y2="5.0" /><line x1="640.0" x2="640.0" y1="35.0" y2="40.0" /><line x1="586.6666666666667" x2="586.6666666666667" y1="0" y2="5.0" /><line x1="586.6666666666667" x2="586.6666666666667" y1="35.0" y2="40.0" /><line x1="533.3333333333334" x2="533.3333333333334" y1="0" y2="5.0" /><line x1="533.3333333333334" x2="533.3333333333334" y1="35.0" y2="40.0" /><line x1="480.0" x2="480.0" y1="0" y2="40.0" /><line x1="426.6666666666667" x2="426.6666666666667" y1="0" y2="5.0" /><line x1="426.6666666666667" x2="426.6666666666667" y1="35.0" y2="40.0" /><line x1="373.33333333333337" x2="373.33333333333337" y1="0" y2="5.0" /><line x1="373.33333333333337" x2="373.33333333333337" y1="35.0" y2="40.0" /><line x1="320.0" x2="320.0" y1="0" y2="5.0" /><line x1="320.0" x2="320.0" y1="35.0" y2="40.0" /><line x1="266.6666666666667" x2="266.6666666666667" y1="0" y2="5.0" /><line x1="266.6666666666667" x2="266.6666666666667" y1="35.0" y2="40.0" /><line x1="213.33333333333334" x2="213.33333333333334" y1="0" y2="5.0" /><line x1="213.33333333333334" x2="213.33333333333334" y1="35.0" y2="40.0" /><line x1="160.0" x2="160.0" y1="0" y2="5.0" /><line x1="160.0" x2="160.0" y1="35.0" y2="40.0" /><line x1="106.66666666666667" x2="106.66666666666667" y1="0" y2="40.0" /><line x1="53.333333333333336" x2="53.333333333333336" y1="0" y2="5.0" /><line x1="53.333333333333336" x2="53.333333333333336" y1="35.0" y2="40.0" /></g><g text-anchor="middle"><g><g transform="translate(0,20.0)" /><g transform="translate(26.666666666666668,16.0)"><text x="1546.6666666666667"><tspan>120</tspan></text><text x="1226.6666666666667"><tspan>126</tspan></text><text x="1173.3333333333335"><tspan>127</tspan></text><text x="853.3333333333334"><tspan>133</tspan></text><text x="800.0"><tspan>134</tspan></text><text x="480.0"><tspan>140</tspan></text><text x="426.6666666666667"><tspan>141</tspan></text><text x="106.66666666666667"><tspan>147</tspan></text><text x="53.333333333333336"><tspan>148</tspan></text><text x="0.0"><tspan>149</tspan></text></g><g transform="translate(26.666666666666668,44.0)"><text x="1386.6666666666667"><tspan>ADC8 cfg</tspan></text><text x="1013.3333333333334"><tspan>ADC9 cfg</tspan></text><text x="640.0"><tspan>ADC10 cfg</tspan></text><text x="266.6666666666667"><tspan>ADC11 cfg</tspan></text><text x="26.666666666666668"><tspan>ADC12 cfg</tspan></text></g><g transform="translate(26.666666666666668,80)"><text x="1386.6666666666667"><tspan>[126:120]</tspan></text><text x="1013.3333333333334"><tspan>[133:127]</tspan></text><text x="640.0"><tspan>[140:134]</tspan></text><text x="266.6666666666667"><tspan>[147:141]</tspan></text><text x="26.666666666666668"><tspan>[154:148]</tspan></text></g></g></g></g><g font-family="sans-serif" font-size="14" font-weight="normal" text-anchor="middle" transform="translate(4.5,0.5)"><g stroke="black" stroke-linecap="round" stroke-width="1" transform="translate(0,20.0)"><line x1="0" x2="1600" y1="0" y2="0" /><line x1="0" x2="0" y1="0" y2="40.0" /><line x1="0" x2="1600" y1="40.0" y2="40.0" /><line x1="1600.0" x2="1600.0" y1="0" y2="40.0" /><line x1="1546.6666666666667" x2="1546.6666666666667" y1="0" y2="5.0" /><line x1="1546.6666666666667" x2="1546.6666666666667" y1="35.0" y2="40.0" /><line x1="1493.3333333333335" x2="1493.3333333333335" y1="0" y2="5.0" /><line x1="1493.3333333333335" x2="1493.3333333333335" y1="35.0" y2="40.0" /><line x1="1440.0" x2="1440.0" y1="0" y2="5.0" /><line x1="1440.0" x2="1440.0" y1="35.0" y2="40.0" /><line x1="1386.6666666666667" x2="1386.6666666666667" y1="0" y2="5.0" /><line x1="1386.6666666666667" x2="1386.6666666666667" y1="35.0" y2="40.0" /><line x1="1333.3333333333335" x2="1333.3333333333335" y1="0" y2="40.0" /><line x1="1280.0" x2="1280.0" y1="0" y2="5.0" /><line x1="1280.0" x2="1280.0" y1="35.0" y2="40.0" /><line x1="1226.6666666666667" x2="1226.6666666666667" y1="0" y2="5.0" /><line x1="1226.6666666666667" x2="1226.6666666666667" y1="35.0" y2="40.0" /><line x1="1173.3333333333335" x2="1173.3333333333335" y1="0" y2="5.0" /><line x1="1173.3333333333335" x2="1173.3333333333335" y1="35.0" y2="40.0" /><line x1="1120.0" x2="1120.0" y1="0" y2="5.0" /><line x1="1120.0" x2="1120.0" y1="35.0" y2="40.0" /><line x1="1066.6666666666667" x2="1066.6666666666667" y1="0" y2="5.0" /><line x1="1066.6666666666667" x2="1066.6666666666667" y1="35.0" y2="40.0" /><line x1="1013.3333333333334" x2="1013.3333333333334" y1="0" y2="5.0" /><line x1="1013.3333333333334" x2="1013.3333333333334" y1="35.0" y2="40.0" /><line x1="960.0" x2="960.0" y1="0" y2="40.0" /><line x1="906.6666666666667" x2="906.6666666666667" y1="0" y2="5.0" /><line x1="906.6666666666667" x2="906.6666666666667" y1="35.0" y2="40.0" /><line x1="853.3333333333334" x2="853.3333333333334" y1="0" y2="5.0" /><line x1="853.3333333333334" x2="853.3333333333334" y1="35.0" y2="40.0" /><line x1="800.0" x2="800.0" y1="0" y2="5.0" /><line x1="800.0" x2="800.0" y1="35.0" y2="40.0" /><line x1="746.6666666666667" x2="746.6666666666667" y1="0" y2="5.0" /><line x1="746.6666666666667" x2="746.6666666666667" y1="35.0" y2="40.0" /><line x1="693.3333333333334" x2="693.3333333333334" y1="0" y2="5.0" /><line x1="693.3333333333334" x2="693.3333333333334" y1="35.0" y2="40.0" /><line x1="640.0" x2="640.0" y1="0" y2="5.0" /><line x1="640.0" x2="640.0" y1="35.0" y2="40.0" /><line x1="586.6666666666667" x2="586.6666666666667" y1="0" y2="40.0" /><line x1="533.3333333333334" x2="533.3333333333334" y1="0" y2="5.0" /><line x1="533.3333333333334" x2="533.3333333333334" y1="35.0" y2="40.0" /><line x1="480.0" x2="480.0" y1="0" y2="5.0" /><line x1="480.0" x2="480.0" y1="35.0" y2="40.0" /><line x1="426.6666666666667" x2="426.6666666666667" y1="0" y2="5.0" /><line x1="426.6666666666667" x2="426.6666666666667" y1="35.0" y2="40.0" /><line x1="373.33333333333337" x2="373.33333333333337" y1="0" y2="5.0" /><line x1="373.33333333333337" x2="373.33333333333337" y1="35.0" y2="40.0" /><line x1="320.0" x2="320.0" y1="0" y2="5.0" /><line x1="320.0" x2="320.0" y1="35.0" y2="40.0" /><line x1="266.6666666666667" x2="266.6666666666667" y1="0" y2="5.0" /><line x1="266.6666666666667" x2="266.6666666666667" y1="35.0" y2="40.0" /><line x1="213.33333333333334" x2="213.33333333333334" y1="0" y2="40.0" /><line x1="160.0" x2="160.0" y1="0" y2="5.0" /><line x1="160.0" x2="160.0" y1="35.0" y2="40.0" /><line x1="106.66666666666667" x2="106.66666666666667" y1="0" y2="5.0" /><line x1="106.66666666666667" x2="106.66666666666667" y1="35.0" y2="40.0" /><line x1="53.333333333333336" x2="53.333333333333336" y1="0" y2="5.0" /><line x1="53.333333333333336" x2="53.333333333333336" y1="35.0" y2="40.0" /></g><g text-anchor="middle"><g><g transform="translate(0,20.0)" /><g transform="translate(26.666666666666668,16.0)"><text x="1546.6666666666667"><tspan>150</tspan></text><text x="1333.3333333333335"><tspan>154</tspan></text><text x="1280.0"><tspan>155</tspan></text><text x="960.0"><tspan>161</tspan></text><text x="906.6666666666667"><tspan>162</tspan></text><text x="586.6666666666667"><tspan>168</tspan></text><text x="533.3333333333334"><tspan>169</tspan></text><text x="213.33333333333334"><tspan>175</tspan></text><text x="160.0"><tspan>176</tspan></text><text x="0.0"><tspan>179</tspan></text></g><g transform="translate(26.666666666666668,44.0)"><text x="1440.0"><tspan>ADC12 cfg</tspan></text><text x="1120.0"><tspan>ADC13 cfg</tspan></text><text x="746.6666666666667"><tspan>ADC14 cfg</tspan></text><text x="373.33333333333337"><tspan>ADC15 cfg</tspan></text><text x="80.0"><tspan>mux_sel</tspan></text></g><g transform="translate(26.666666666666668,80)"><text x="1440.0"><tspan>[154:148]</tspan></text><text x="1120.0"><tspan>[161:155]</tspan></text><text x="746.6666666666667"><tspan>[168:162]</tspan></text><text x="373.33333333333337"><tspan>[175:169]</tspan></text><text x="80.0"><tspan>[179:176]</tspan></text></g></g></g></g></svg>