<svg xmlns="http://www.w3.org/2000/svg" width="1600" height="420" viewBox="0 0 1600 420" xmlns:xlink="http://www.w3.org/1999/xlink" class="WaveDrom"><g transform="translate(0.5,0.5)" text-anchor="middle" font-size="14" font-family="sans-serif" font-weight="normal"><g transform="translate(4,371)"><g stroke="black" stroke-width="1" stroke-linecap="round"><line x2="1591"/><line y2="31"/><line x2="1591" y1="31" y2="31"/><line x1="1591" x2="1591" y2="31"/><line x1="1538" x2="1538" y2="3"/><line x1="1538" x2="1538" y1="31" y2="28"/><line x1="1485" x2="1485" y2="3"/><line x1="1485" x2="1485" y1="31" y2="28"/><line x1="1432" x2="1432" y2="3"/><line x1="1432" x2="1432" y1="31" y2="28"/><line x1="1379" x2="1379" y2="3"/><line x1="1379" x2="1379" y1="31" y2="28"/><line x1="1326" x2="1326" y2="3"/><line x1="1326" x2="1326" y1="31" y2="28"/><line x1="1273" x2="1273" y2="3"/><line x1="1273" x2="1273" y1="31" y2="28"/><line x1="1220" x2="1220" y2="3"/><line x1="1220" x2="1220" y1="31" y2="28"/><line x1="1167" x2="1167" y2="3"/><line x1="1167" x2="1167" y1="31" y2="28"/><line x1="1114" x2="1114" y2="3"/><line x1="1114" x2="1114" y1="31" y2="28"/><line x1="1061" x2="1061" y2="3"/><line x1="1061" x2="1061" y1="31" y2="28"/><line x1="1008" x2="1008" y2="3"/><line x1="1008" x2="1008" y1="31" y2="28"/><line x1="955" x2="955" y2="3"/><line x1="955" x2="955" y1="31" y2="28"/><line x1="902" x2="902" y2="3"/><line x1="902" x2="902" y1="31" y2="28"/><line x1="849" x2="849" y2="3"/><line x1="849" x2="849" y1="31" y2="28"/><line x1="796" x2="796" y2="3"/><line x1="796" x2="796" y1="31" y2="28"/><line x1="742" x2="742" y2="31"/><line x1="689" x2="689" y2="3"/><line x1="689" x2="689" y1="31" y2="28"/><line x1="636" x2="636" y2="3"/><line x1="636" x2="636" y1="31" y2="28"/><line x1="583" x2="583" y2="3"/><line x1="583" x2="583" y1="31" y2="28"/><line x1="530" x2="530" y2="3"/><line x1="530" x2="530" y1="31" y2="28"/><line x1="477" x2="477" y2="3"/><line x1="477" x2="477" y1="31" y2="28"/><line x1="424" x2="424" y2="3"/><line x1="424" x2="424" y1="31" y2="28"/><line x1="371" x2="371" y2="3"/><line x1="371" x2="371" y1="31" y2="28"/><line x1="318" x2="318" y2="3"/><line x1="318" x2="318" y1="31" y2="28"/><line x1="265" x2="265" y2="3"/><line x1="265" x2="265" y1="31" y2="28"/><line x1="212" x2="212" y2="3"/><line x1="212" x2="212" y1="31" y2="28"/><line x1="159" x2="159" y2="3"/><line x1="159" x2="159" y1="31" y2="28"/><line x1="106" x2="106" y2="3"/><line x1="106" x2="106" y1="31" y2="28"/><line x1="53" x2="53" y2="3"/><line x1="53" x2="53" y1="31" y2="28"/></g><g><g/><g transform="translate(27,-11)"><g transform="translate(1538)"><text y="6">0</text></g><g transform="translate(742)"><text y="6">15</text></g><g transform="translate(689)"><text y="6">16</text></g><g transform="translate(0)"><text y="6">29</text></g></g><g transform="translate(27,15)"><g transform="translate(1140)"><text y="6"><tspan>shared_dac_bstate_n</tspan></text></g><g transform="translate(345)"><text y="6"><tspan>shared_dac_astate_n</tspan></text></g></g><g transform="translate(27,39)"><g transform="translate(1140)"><text y="6"><tspan>[15:0]</tspan></text></g><g transform="translate(345)"><text y="6"><tspan>[31:16]</tspan></text></g></g></g></g><g transform="translate(4,301)"><g stroke="black" stroke-width="1" stroke-linecap="round"><line x2="1591"/><line y2="31"/><line x2="1591" y1="31" y2="31"/><line x1="1591" x2="1591" y2="31"/><line x1="1538" x2="1538" y2="3"/><line x1="1538" x2="1538" y1="31" y2="28"/><line x1="1485" x2="1485" y2="31"/><line x1="1432" x2="1432" y2="3"/><line x1="1432" x2="1432" y1="31" y2="28"/><line x1="1379" x2="1379" y2="3"/><line x1="1379" x2="1379" y1="31" y2="28"/><line x1="1326" x2="1326" y2="3"/><line x1="1326" x2="1326" y1="31" y2="28"/><line x1="1273" x2="1273" y2="3"/><line x1="1273" x2="1273" y1="31" y2="28"/><line x1="1220" x2="1220" y2="3"/><line x1="1220" x2="1220" y1="31" y2="28"/><line x1="1167" x2="1167" y2="3"/><line x1="1167" x2="1167" y1="31" y2="28"/><line x1="1114" x2="1114" y2="3"/><line x1="1114" x2="1114" y1="31" y2="28"/><line x1="1061" x2="1061" y2="3"/><line x1="1061" x2="1061" y1="31" y2="28"/><line x1="1008" x2="1008" y2="3"/><line x1="1008" x2="1008" y1="31" y2="28"/><line x1="955" x2="955" y2="3"/><line x1="955" x2="955" y1="31" y2="28"/><line x1="902" x2="902" y2="3"/><line x1="902" x2="902" y1="31" y2="28"/><line x1="849" x2="849" y2="3"/><line x1="849" x2="849" y1="31" y2="28"/><line x1="796" x2="796" y2="3"/><line x1="796" x2="796" y1="31" y2="28"/><line x1="742" x2="742" y2="3"/><line x1="742" x2="742" y1="31" y2="28"/><line x1="689" x2="689" y2="3"/><line x1="689" x2="689" y1="31" y2="28"/><line x1="636" x2="636" y2="31"/><line x1="583" x2="583" y2="3"/><line x1="583" x2="583" y1="31" y2="28"/><line x1="530" x2="530" y2="3"/><line x1="530" x2="530" y1="31" y2="28"/><line x1="477" x2="477" y2="3"/><line x1="477" x2="477" y1="31" y2="28"/><line x1="424" x2="424" y2="3"/><line x1="424" x2="424" y1="31" y2="28"/><line x1="371" x2="371" y2="3"/><line x1="371" x2="371" y1="31" y2="28"/><line x1="318" x2="318" y2="3"/><line x1="318" x2="318" y1="31" y2="28"/><line x1="265" x2="265" y2="3"/><line x1="265" x2="265" y1="31" y2="28"/><line x1="212" x2="212" y2="3"/><line x1="212" x2="212" y1="31" y2="28"/><line x1="159" x2="159" y2="3"/><line x1="159" x2="159" y1="31" y2="28"/><line x1="106" x2="106" y2="3"/><line x1="106" x2="106" y1="31" y2="28"/><line x1="53" x2="53" y2="3"/><line x1="53" x2="53" y1="31" y2="28"/></g><g><g/><g transform="translate(27,-11)"><g transform="translate(1538)"><text y="6">30</text></g><g transform="translate(1485)"><text y="6">31</text></g><g transform="translate(1432)"><text y="6">32</text></g><g transform="translate(636)"><text y="6">47</text></g><g transform="translate(583)"><text y="6">48</text></g><g transform="translate(0)"><text y="6">59</text></g></g><g transform="translate(27,15)"><g transform="translate(1511)"><text y="6"><tspan>shared_dac_astate_n</tspan></text></g><g transform="translate(1034)"><text y="6"><tspan>shared_dac_bstate_p</tspan></text></g><g transform="translate(292)"><text y="6"><tspan>shared_dac_astate_p</tspan></text></g></g><g transform="translate(27,39)"><g transform="translate(1511)"><text y="6"><tspan>[31:16]</tspan></text></g><g transform="translate(1034)"><text y="6"><tspan>[47:32]</tspan></text></g><g transform="translate(292)"><text y="6"><tspan>[63:48]</tspan></text></g></g></g></g><g transform="translate(4,231)"><g stroke="black" stroke-width="1" stroke-linecap="round"><line x2="1591"/><line y2="31"/><line x2="1591" y1="31" y2="31"/><line x1="1591" x2="1591" y2="31"/><line x1="1538" x2="1538" y2="3"/><line x1="1538" x2="1538" y1="31" y2="28"/><line x1="1485" x2="1485" y2="3"/><line x1="1485" x2="1485" y1="31" y2="28"/><line x1="1432" x2="1432" y2="3"/><line x1="1432" x2="1432" y1="31" y2="28"/><line x1="1379" x2="1379" y2="31"/><line x1="1326" x2="1326" y2="3"/><line x1="1326" x2="1326" y1="31" y2="28"/><line x1="1273" x2="1273" y2="3"/><line x1="1273" x2="1273" y1="31" y2="28"/><line x1="1220" x2="1220" y2="3"/><line x1="1220" x2="1220" y1="31" y2="28"/><line x1="1167" x2="1167" y2="3"/><line x1="1167" x2="1167" y1="31" y2="28"/><line x1="1114" x2="1114" y2="3"/><line x1="1114" x2="1114" y1="31" y2="28"/><line x1="1061" x2="1061" y2="3"/><line x1="1061" x2="1061" y1="31" y2="28"/><line x1="1008" x2="1008" y2="31"/><line x1="955" x2="955" y2="3"/><line x1="955" x2="955" y1="31" y2="28"/><line x1="902" x2="902" y2="3"/><line x1="902" x2="902" y1="31" y2="28"/><line x1="849" x2="849" y2="3"/><line x1="849" x2="849" y1="31" y2="28"/><line x1="796" x2="796" y2="3"/><line x1="796" x2="796" y1="31" y2="28"/><line x1="742" x2="742" y2="3"/><line x1="742" x2="742" y1="31" y2="28"/><line x1="689" x2="689" y2="3"/><line x1="689" x2="689" y1="31" y2="28"/><line x1="636" x2="636" y2="31"/><line x1="583" x2="583" y2="3"/><line x1="583" x2="583" y1="31" y2="28"/><line x1="530" x2="530" y2="3"/><line x1="530" x2="530" y1="31" y2="28"/><line x1="477" x2="477" y2="3"/><line x1="477" x2="477" y1="31" y2="28"/><line x1="424" x2="424" y2="3"/><line x1="424" x2="424" y1="31" y2="28"/><line x1="371" x2="371" y2="3"/><line x1="371" x2="371" y1="31" y2="28"/><line x1="318" x2="318" y2="3"/><line x1="318" x2="318" y1="31" y2="28"/><line x1="265" x2="265" y2="31"/><line x1="212" x2="212" y2="3"/><line x1="212" x2="212" y1="31" y2="28"/><line x1="159" x2="159" y2="3"/><line x1="159" x2="159" y1="31" y2="28"/><line x1="106" x2="106" y2="3"/><line x1="106" x2="106" y1="31" y2="28"/><line x1="53" x2="53" y2="3"/><line x1="53" x2="53" y1="31" y2="28"/></g><g><g/><g transform="translate(27,-11)"><g transform="translate(1538)"><text y="6">60</text></g><g transform="translate(1379)"><text y="6">63</text></g><g transform="translate(1326)"><text y="6">64</text></g><g transform="translate(1008)"><text y="6">70</text></g><g transform="translate(955)"><text y="6">71</text></g><g transform="translate(636)"><text y="6">77</text></g><g transform="translate(583)"><text y="6">78</text></g><g transform="translate(265)"><text y="6">84</text></g><g transform="translate(212)"><text y="6">85</text></g><g transform="translate(0)"><text y="6">89</text></g></g><g transform="translate(27,15)"><g transform="translate(1458)"><text y="6"><tspan>shared_dac_astate_p</tspan></text></g><g transform="translate(1167)"><text y="6"><tspan>ADC0 cfg</tspan></text></g><g transform="translate(796)"><text y="6"><tspan>ADC1 cfg</tspan></text></g><g transform="translate(424)"><text y="6"><tspan>ADC2 cfg</tspan></text></g><g transform="translate(106)"><text y="6"><tspan>ADC3 cfg</tspan></text></g></g><g transform="translate(27,39)"><g transform="translate(1458)"><text y="6"><tspan>[63:48]</tspan></text></g><g transform="translate(1167)"><text y="6"><tspan>[70:64]</tspan></text></g><g transform="translate(796)"><text y="6"><tspan>[77:71]</tspan></text></g><g transform="translate(424)"><text y="6"><tspan>[84:78]</tspan></text></g><g transform="translate(106)"><text y="6"><tspan>[91:85]</tspan></text></g></g></g></g><g transform="translate(4,161)"><g stroke="black" stroke-width="1" stroke-linecap="round"><line x2="1591"/><line y2="31"/><line x2="1591" y1="31" y2="31"/><line x1="1591" x2="1591" y2="31"/><line x1="1538" x2="1538" y2="3"/><line x1="1538" x2="1538" y1="31" y2="28"/><line x1="1485" x2="1485" y2="31"/><line x1="1432" x2="1432" y2="3"/><line x1="1432" x2="1432" y1="31" y2="28"/><line x1="1379" x2="1379" y2="3"/><line x1="1379" x2="1379" y1="31" y2="28"/><line x1="1326" x2="1326" y2="3"/><line x1="1326" x2="1326" y1="31" y2="28"/><line x1="1273" x2="1273" y2="3"/><line x1="1273" x2="1273" y1="31" y2="28"/><line x1="1220" x2="1220" y2="3"/><line x1="1220" x2="1220" y1="31" y2="28"/><line x1="1167" x2="1167" y2="3"/><line x1="1167" x2="1167" y1="31" y2="28"/><line x1="1114" x2="1114" y2="31"/><line x1="1061" x2="1061" y2="3"/><line x1="1061" x2="1061" y1="31" y2="28"/><line x1="1008" x2="1008" y2="3"/><line x1="1008" x2="1008" y1="31" y2="28"/><line x1="955" x2="955" y2="3"/><line x1="955" x2="955" y1="31" y2="28"/><line x1="902" x2="902" y2="3"/><line x1="902" x2="902" y1="31" y2="28"/><line x1="849" x2="849" y2="3"/><line x1="849" x2="849" y1="31" y2="28"/><line x1="796" x2="796" y2="3"/><line x1="796" x2="796" y1="31" y2="28"/><line x1="742" x2="742" y2="31"/><line x1="689" x2="689" y2="3"/><line x1="689" x2="689" y1="31" y2="28"/><line x1="636" x2="636" y2="3"/><line x1="636" x2="636" y1="31" y2="28"/><line x1="583" x2="583" y2="3"/><line x1="583" x2="583" y1="31" y2="28"/><line x1="530" x2="530" y2="3"/><line x1="530" x2="530" y1="31" y2="28"/><line x1="477" x2="477" y2="3"/><line x1="477" x2="477" y1="31" y2="28"/><line x1="424" x2="424" y2="3"/><line x1="424" x2="424" y1="31" y2="28"/><line x1="371" x2="371" y2="31"/><line x1="318" x2="318" y2="3"/><line x1="318" x2="318" y1="31" y2="28"/><line x1="265" x2="265" y2="3"/><line x1="265" x2="265" y1="31" y2="28"/><line x1="212" x2="212" y2="3"/><line x1="212" x2="212" y1="31" y2="28"/><line x1="159" x2="159" y2="3"/><line x1="159" x2="159" y1="31" y2="28"/><line x1="106" x2="106" y2="3"/><line x1="106" x2="106" y1="31" y2="28"/><line x1="53" x2="53" y2="3"/><line x1="53" x2="53" y1="31" y2="28"/></g><g><g/><g transform="translate(27,-11)"><g transform="translate(1538)"><text y="6">90</text></g><g transform="translate(1485)"><text y="6">91</text></g><g transform="translate(1432)"><text y="6">92</text></g><g transform="translate(1114)"><text y="6">98</text></g><g transform="translate(1061)"><text y="6">99</text></g><g transform="translate(742)"><text y="6">105</text></g><g transform="translate(689)"><text y="6">106</text></g><g transform="translate(371)"><text y="6">112</text></g><g transform="translate(318)"><text y="6">113</text></g><g transform="translate(0)"><text y="6">119</text></g></g><g transform="translate(27,15)"><g transform="translate(1511)"><text y="6"><tspan>ADC3 cfg</tspan></text></g><g transform="translate(1273)"><text y="6"><tspan>ADC4 cfg</tspan></text></g><g transform="translate(902)"><text y="6"><tspan>ADC5 cfg</tspan></text></g><g transform="translate(530)"><text y="6"><tspan>ADC6 cfg</tspan></text></g><g transform="translate(159)"><text y="6"><tspan>ADC7 cfg</tspan></text></g></g><g transform="translate(27,39)"><g transform="translate(1511)"><text y="6"><tspan>[91:85]</tspan></text></g><g transform="translate(1273)"><text y="6"><tspan>[98:92]</tspan></text></g><g transform="translate(902)"><text y="6"><tspan>[105:99]</tspan></text></g><g transform="translate(530)"><text y="6"><tspan>[112:106]</tspan></text></g><g transform="translate(159)"><text y="6"><tspan>[119:113]</tspan></text></g></g></g></g><g transform="translate(4,91)"><g stroke="black" stroke-width="1" stroke-linecap="round"><line x2="1591"/><line y2="31"/><line x2="1591" y1="31" y2="31"/><line x1="1591" x2="1591" y2="31"/><line x1="1538" x2="1538" y2="3"/><line x1="1538" x2="1538" y1="31" y2="28"/><line x1="1485" x2="1485" y2="3"/><line x1="1485" x2="1485" y1="31" y2="28"/><line x1="1432" x2="1432" y2="3"/><line x1="1432" x2="1432" y1="31" y2="28"/><line x1="1379" x2="1379" y2="3"/><line x1="1379" x2="1379" y1="31" y2="28"/><line x1="1326" x2="1326" y2="3"/><line x1="1326" x2="1326" y1="31" y2="28"/><line x1="1273" x2="1273" y2="3"/><line x1="1273" x2="1273" y1="31" y2="28"/><line x1="1220" x2="1220" y2="31"/><line x1="1167" x2="1167" y2="3"/><line x1="1167" x2="1167" y1="31" y2="28"/><line x1="1114" x2="1114" y2="3"/><line x1="1114" x2="1114" y1="31" y2="28"/><line x1="1061" x2="1061" y2="3"/><line x1="1061" x2="1061" y1="31" y2="28"/><line x1="1008" x2="1008" y2="3"/><line x1="1008" x2="1008" y1="31" y2="28"/><line x1="955" x2="955" y2="3"/><line x1="955" x2="955" y1="31" y2="28"/><line x1="902" x2="902" y2="3"/><line x1="902" x2="902" y1="31" y2="28"/><line x1="849" x2="849" y2="31"/><line x1="796" x2="796" y2="3"/><line x1="796" x2="796" y1="31" y2="28"/><line x1="742" x2="742" y2="3"/><line x1="742" x2="742" y1="31" y2="28"/><line x1="689" x2="689" y2="3"/><line x1="689" x2="689" y1="31" y2="28"/><line x1="636" x2="636" y2="3"/><line x1="636" x2="636" y1="31" y2="28"/><line x1="583" x2="583" y2="3"/><line x1="583" x2="583" y1="31" y2="28"/><line x1="530" x2="530" y2="3"/><line x1="530" x2="530" y1="31" y2="28"/><line x1="477" x2="477" y2="31"/><line x1="424" x2="424" y2="3"/><line x1="424" x2="424" y1="31" y2="28"/><line x1="371" x2="371" y2="3"/><line x1="371" x2="371" y1="31" y2="28"/><line x1="318" x2="318" y2="3"/><line x1="318" x2="318" y1="31" y2="28"/><line x1="265" x2="265" y2="3"/><line x1="265" x2="265" y1="31" y2="28"/><line x1="212" x2="212" y2="3"/><line x1="212" x2="212" y1="31" y2="28"/><line x1="159" x2="159" y2="3"/><line x1="159" x2="159" y1="31" y2="28"/><line x1="106" x2="106" y2="31"/><line x1="53" x2="53" y2="3"/><line x1="53" x2="53" y1="31" y2="28"/></g><g><g/><g transform="translate(27,-11)"><g transform="translate(1538)"><text y="6">120</text></g><g transform="translate(1220)"><text y="6">126</text></g><g transform="translate(1167)"><text y="6">127</text></g><g transform="translate(849)"><text y="6">133</text></g><g transform="translate(796)"><text y="6">134</text></g><g transform="translate(477)"><text y="6">140</text></g><g transform="translate(424)"><text y="6">141</text></g><g transform="translate(106)"><text y="6">147</text></g><g transform="translate(53)"><text y="6">148</text></g><g transform="translate(0)"><text y="6">149</text></g></g><g transform="translate(27,15)"><g transform="translate(1379)"><text y="6"><tspan>ADC8 cfg</tspan></text></g><g transform="translate(1008)"><text y="6"><tspan>ADC9 cfg</tspan></text></g><g transform="translate(636)"><text y="6"><tspan>ADC10 cfg</tspan></text></g><g transform="translate(265)"><text y="6"><tspan>ADC11 cfg</tspan></text></g><g transform="translate(27)"><text y="6"><tspan>ADC12 cfg</tspan></text></g></g><g transform="translate(27,39)"><g transform="translate(1379)"><text y="6"><tspan>[126:120]</tspan></text></g><g transform="translate(1008)"><text y="6"><tspan>[133:127]</tspan></text></g><g transform="translate(636)"><text y="6"><tspan>[140:134]</tspan></text></g><g transform="translate(265)"><text y="6"><tspan>[147:141]</tspan></text></g><g transform="translate(27)"><text y="6"><tspan>[154:148]</tspan></text></g></g></g></g><g transform="translate(4,21)"><g stroke="black" stroke-width="1" stroke-linecap="round"><line x2="1591"/><line y2="31"/><line x2="1591" y1="31" y2="31"/><line x1="1591" x2="1591" y2="31"/><line x1="1538" x2="1538" y2="3"/><line x1="1538" x2="1538" y1="31" y2="28"/><line x1="1485" x2="1485" y2="3"/><line x1="1485" x2="1485" y1="31" y2="28"/><line x1="1432" x2="1432" y2="3"/><line x1="1432" x2="1432" y1="31" y2="28"/><line x1="1379" x2="1379" y2="3"/><line x1="1379" x2="1379" y1="31" y2="28"/><line x1="1326" x2="1326" y2="31"/><line x1="1273" x2="1273" y2="3"/><line x1="1273" x2="1273" y1="31" y2="28"/><line x1="1220" x2="1220" y2="3"/><line x1="1220" x2="1220" y1="31" y2="28"/><line x1="1167" x2="1167" y2="3"/><line x1="1167" x2="1167" y1="31" y2="28"/><line x1="1114" x2="1114" y2="3"/><line x1="1114" x2="1114" y1="31" y2="28"/><line x1="1061" x2="1061" y2="3"/><line x1="1061" x2="1061" y1="31" y2="28"/><line x1="1008" x2="1008" y2="3"/><line x1="1008" x2="1008" y1="31" y2="28"/><line x1="955" x2="955" y2="31"/><line x1="902" x2="902" y2="3"/><line x1="902" x2="902" y1="31" y2="28"/><line x1="849" x2="849" y2="3"/><line x1="849" x2="849" y1="31" y2="28"/><line x1="796" x2="796" y2="3"/><line x1="796" x2="796" y1="31" y2="28"/><line x1="742" x2="742" y2="3"/><line x1="742" x2="742" y1="31" y2="28"/><line x1="689" x2="689" y2="3"/><line x1="689" x2="689" y1="31" y2="28"/><line x1="636" x2="636" y2="3"/><line x1="636" x2="636" y1="31" y2="28"/><line x1="583" x2="583" y2="31"/><line x1="530" x2="530" y2="3"/><line x1="530" x2="530" y1="31" y2="28"/><line x1="477" x2="477" y2="3"/><line x1="477" x2="477" y1="31" y2="28"/><line x1="424" x2="424" y2="3"/><line x1="424" x2="424" y1="31" y2="28"/><line x1="371" x2="371" y2="3"/><line x1="371" x2="371" y1="31" y2="28"/><line x1="318" x2="318" y2="3"/><line x1="318" x2="318" y1="31" y2="28"/><line x1="265" x2="265" y2="3"/><line x1="265" x2="265" y1="31" y2="28"/><line x1="212" x2="212" y2="31"/><line x1="159" x2="159" y2="3"/><line x1="159" x2="159" y1="31" y2="28"/><line x1="106" x2="106" y2="3"/><line x1="106" x2="106" y1="31" y2="28"/><line x1="53" x2="53" y2="3"/><line x1="53" x2="53" y1="31" y2="28"/></g><g><g/><g transform="translate(27,-11)"><g transform="translate(1538)"><text y="6">150</text></g><g transform="translate(1326)"><text y="6">154</text></g><g transform="translate(1273)"><text y="6">155</text></g><g transform="translate(955)"><text y="6">161</text></g><g transform="translate(902)"><text y="6">162</text></g><g transform="translate(583)"><text y="6">168</text></g><g transform="translate(530)"><text y="6">169</text></g><g transform="translate(212)"><text y="6">175</text></g><g transform="translate(159)"><text y="6">176</text></g><g transform="translate(0)"><text y="6">179</text></g></g><g transform="translate(27,15)"><g transform="translate(1432)"><text y="6"><tspan>ADC12 cfg</tspan></text></g><g transform="translate(1114)"><text y="6"><tspan>ADC13 cfg</tspan></text></g><g transform="translate(742)"><text y="6"><tspan>ADC14 cfg</tspan></text></g><g transform="translate(371)"><text y="6"><tspan>ADC15 cfg</tspan></text></g><g transform="translate(80)"><text y="6"><tspan>mux_sel</tspan></text></g></g><g transform="translate(27,39)"><g transform="translate(1432)"><text y="6"><tspan>[154:148]</tspan></text></g><g transform="translate(1114)"><text y="6"><tspan>[161:155]</tspan></text></g><g transform="translate(742)"><text y="6"><tspan>[168:162]</tspan></text></g><g transform="translate(371)"><text y="6"><tspan>[175:169]</tspan></text></g><g transform="translate(80)"><text y="6"><tspan>[179:176]</tspan></text></g></g></g></g></g></svg>