<svg xmlns="http://www.w3.org/2000/svg" xmlns:xlink="http://www.w3.org/1999/xlink" xmlns:s="https://github.com/nturley/netlistsvg" width="602.5" height="484.5"><style>svg {
  stroke:#000;
  fill:none;
}
text {
  fill:#000;
  stroke:none;
  font-size:10px;
  font-weight: bold;
  font-family: "Courier New", monospace;
}
line {
    stroke-linecap: round;
}
.nodelabel {
  text-anchor: middle;
}
.inputPortLabel {
  text-anchor: end;
}
.splitjoinBody {
  fill:#000;
}</style><g s:type="add" transform="translate(535.5,303)" s:width="25" s:height="25" id="cell_$add$logic.v:30$2"><s:alias val="$add"/><circle r="12.5" cx="12.5" cy="12.5" class="cell_$add$logic.v:30$2"/><line x1="7.5" x2="17.5" y1="12.5" y2="12.5" class="cell_$add$logic.v:30$2"/><line x1="12.5" x2="12.5" y1="7.5" y2="17.5" class="cell_$add$logic.v:30$2"/><g s:x="2" s:y="5" s:pid="A"/><g s:x="2" s:y="20" s:pid="B"/><g s:x="26" s:y="12.5" s:pid="Y"/></g><g s:type="mux-bus" transform="translate(202.66666666666666,406.5)" s:width="24" s:height="40" id="cell_$auto$proc_dff.cc:242:proc_dff$13"><s:alias val="$pmux-bus"/><s:alias val="$mux-bus"/><s:alias val="$_MUX_-bus"/><path d="M0,0 L20,10 L20,30 L0,40 Z" class="cell_$auto$proc_dff.cc:242:proc_dff$13"/><path d="M4,2 L4,0 L22,9 L22,31 L4,40 L4,38" class="cell_$auto$proc_dff.cc:242:proc_dff$13"/><path d="M8,2 L8,0 L24,8 L24,32 L8,40 L8,38" class="cell_$auto$proc_dff.cc:242:proc_dff$13"/><text x="5" y="32" class="nodelabel cell_$auto$proc_dff.cc:242:proc_dff$13" s:attribute="">1</text><text x="5" y="13" class="nodelabel cell_$auto$proc_dff.cc:242:proc_dff$13" s:attribute="">0</text><g s:x="-1" s:y="10" s:pid="A"/><g s:x="-1" s:y="30" s:pid="B"/><g s:x="12" s:y="38" s:pid="S"/><g s:x="24.5" s:y="20" s:pid="Y"/></g><g s:type="mux-bus" transform="translate(535.5,196)" s:width="24" s:height="40" id="cell_$auto$proc_dff.cc:242:proc_dff$8"><s:alias val="$pmux-bus"/><s:alias val="$mux-bus"/><s:alias val="$_MUX_-bus"/><path d="M0,0 L20,10 L20,30 L0,40 Z" class="cell_$auto$proc_dff.cc:242:proc_dff$8"/><path d="M4,2 L4,0 L22,9 L22,31 L4,40 L4,38" class="cell_$auto$proc_dff.cc:242:proc_dff$8"/><path d="M8,2 L8,0 L24,8 L24,32 L8,40 L8,38" class="cell_$auto$proc_dff.cc:242:proc_dff$8"/><text x="5" y="32" class="nodelabel cell_$auto$proc_dff.cc:242:proc_dff$8" s:attribute="">1</text><text x="5" y="13" class="nodelabel cell_$auto$proc_dff.cc:242:proc_dff$8" s:attribute="">0</text><g s:x="-1" s:y="10" s:pid="A"/><g s:x="-1" s:y="30" s:pid="B"/><g s:x="12" s:y="38" s:pid="S"/><g s:x="24.5" s:y="20" s:pid="Y"/></g><g s:type="eq" transform="translate(341,237)" s:width="25" s:height="25" id="cell_$eq$logic.v:33$3"><s:alias val="$eq"/><s:alias val="$eqx"/><circle r="12.5" cx="12.5" cy="12.5" class="cell_$eq$logic.v:33$3"/><line x1="7.5" x2="17.5" y1="10" y2="10" class="cell_$eq$logic.v:33$3"/><line x1="7.5" x2="17.5" y1="15" y2="15" class="cell_$eq$logic.v:33$3"/><g s:x="2" s:y="5" s:pid="A"/><g s:x="2" s:y="20" s:pid="B"/><g s:x="25" s:y="12.5" s:pid="Y"/></g><g s:type="dff-bus" transform="translate(267,77)" s:width="34" s:height="44" id="cell_$procdff$10"><s:alias val="$dff-bus"/><s:alias val="$_DFF_-bus"/><s:alias val="$_DFF_P_-bus"/><s:alias val="adff-bus"/><s:alias val="$adff-bus"/><s:alias val="$_DFF_-bus"/><s:alias val="$_DFF_P_-bus"/><s:alias val="sdff-bus"/><s:alias val="$sdff-bus"/><s:alias val="$_DFF_-bus"/><s:alias val="$_DFF_P_-bus"/><rect width="30" height="40" x="0" y="0" class="cell_$procdff$10"/><path d="M0,35 L5,30 L0,25" class="cell_$procdff$10"/><path d="M30,2 L32,2 L32,42 L2,42 L2,40" class="cell_$procdff$10"/><path d="M32,4 L34,4 L34,44 L4,44 L4,42" class="cell_$procdff$10"/><g s:x="35" s:y="10" s:pid="Q"/><g s:x="-1" s:y="30" s:pid="CLK"/><g s:x="-1" s:y="30" s:pid="C"/><g s:x="-1" s:y="10" s:pid="D"/><g s:x="17" s:y="44" s:pid="ARST"/><g s:x="17" s:y="44" s:pid="SRST"/></g><g s:type="dff-bus" transform="translate(338,365.5)" s:width="34" s:height="44" id="cell_$procdff$15"><s:alias val="$dff-bus"/><s:alias val="$_DFF_-bus"/><s:alias val="$_DFF_P_-bus"/><s:alias val="adff-bus"/><s:alias val="$adff-bus"/><s:alias val="$_DFF_-bus"/><s:alias val="$_DFF_P_-bus"/><s:alias val="sdff-bus"/><s:alias val="$sdff-bus"/><s:alias val="$_DFF_-bus"/><s:alias val="$_DFF_P_-bus"/><rect width="30" height="40" x="0" y="0" class="cell_$procdff$15"/><path d="M0,35 L5,30 L0,25" class="cell_$procdff$15"/><path d="M30,2 L32,2 L32,42 L2,42 L2,40" class="cell_$procdff$15"/><path d="M32,4 L34,4 L34,44 L4,44 L4,42" class="cell_$procdff$15"/><g s:x="35" s:y="10" s:pid="Q"/><g s:x="-1" s:y="30" s:pid="CLK"/><g s:x="-1" s:y="30" s:pid="C"/><g s:x="-1" s:y="10" s:pid="D"/><g s:x="17" s:y="44" s:pid="ARST"/><g s:x="17" s:y="44" s:pid="SRST"/></g><g s:type="dff-bus" transform="translate(196,173)" s:width="34" s:height="44" id="cell_$procdff$18"><s:alias val="$dff-bus"/><s:alias val="$_DFF_-bus"/><s:alias val="$_DFF_P_-bus"/><s:alias val="adff-bus"/><s:alias val="$adff-bus"/><s:alias val="$_DFF_-bus"/><s:alias val="$_DFF_P_-bus"/><s:alias val="sdff-bus"/><s:alias val="$sdff-bus"/><s:alias val="$_DFF_-bus"/><s:alias val="$_DFF_P_-bus"/><rect width="30" height="40" x="0" y="0" class="cell_$procdff$18"/><path d="M0,35 L5,30 L0,25" class="cell_$procdff$18"/><path d="M30,2 L32,2 L32,42 L2,42 L2,40" class="cell_$procdff$18"/><path d="M32,4 L34,4 L34,44 L4,44 L4,42" class="cell_$procdff$18"/><g s:x="35" s:y="10" s:pid="Q"/><g s:x="-1" s:y="30" s:pid="CLK"/><g s:x="-1" s:y="30" s:pid="C"/><g s:x="-1" s:y="10" s:pid="D"/><g s:x="17" s:y="44" s:pid="ARST"/><g s:x="17" s:y="44" s:pid="SRST"/></g><g s:type="mux-bus" transform="translate(409,102)" s:width="24" s:height="40" id="cell_$procmux$4"><s:alias val="$pmux-bus"/><s:alias val="$mux-bus"/><s:alias val="$_MUX_-bus"/><path d="M0,0 L20,10 L20,30 L0,40 Z" class="cell_$procmux$4"/><path d="M4,2 L4,0 L22,9 L22,31 L4,40 L4,38" class="cell_$procmux$4"/><path d="M8,2 L8,0 L24,8 L24,32 L8,40 L8,38" class="cell_$procmux$4"/><text x="5" y="32" class="nodelabel cell_$procmux$4" s:attribute="">1</text><text x="5" y="13" class="nodelabel cell_$procmux$4" s:attribute="">0</text><g s:x="-1" s:y="10" s:pid="A"/><g s:x="-1" s:y="30" s:pid="B"/><g s:x="12" s:y="38" s:pid="S"/><g s:x="24.5" s:y="20" s:pid="Y"/></g><g s:type="inputExt" transform="translate(125,193)" s:width="30" s:height="20" id="cell_sclk"><text x="15" y="-4" class="nodelabel cell_sclk" s:attribute="ref">sclk</text><s:alias val="$_inputExt_"/><path d="M0,0 L0,20 L15,20 L30,10 L15,0 Z" class="cell_sclk"/><g s:x="30" s:y="10" s:pid="Y"/></g><g s:type="inputExt" transform="translate(12,112)" s:width="30" s:height="20" id="cell_sdi"><text x="15" y="-4" class="nodelabel cell_sdi" s:attribute="ref">sdi</text><s:alias val="$_inputExt_"/><path d="M0,0 L0,20 L15,20 L30,10 L15,0 Z" class="cell_sdi"/><g s:x="30" s:y="10" s:pid="Y"/></g><g s:type="outputExt" transform="translate(535.5,375.5)" s:width="30" s:height="20" id="cell_sdo"><text x="15" y="-4" class="nodelabel cell_sdo" s:attribute="ref">sdo</text><s:alias val="$_outputExt_"/><path d="M30,0 L30,20 L15,20 L0,10 L15,0 Z" class="cell_sdo"/><g s:x="0" s:y="10" s:pid="A"/></g><g s:type="inputExt" transform="translate(125,267)" s:width="30" s:height="20" id="cell_cs_b"><text x="15" y="-4" class="nodelabel cell_cs_b" s:attribute="ref">cs_b</text><s:alias val="$_inputExt_"/><path d="M0,0 L0,20 L15,20 L30,10 L15,0 Z" class="cell_cs_b"/><g s:x="30" s:y="10" s:pid="Y"/></g><g s:type="outputExt" transform="translate(534.5,36)" s:width="30" s:height="20" id="cell_config"><text x="15" y="-4" class="nodelabel cell_config" s:attribute="ref">config</text><s:alias val="$_outputExt_"/><path d="M30,0 L30,20 L15,20 L0,10 L15,0 Z" class="cell_config"/><g s:x="0" s:y="10" s:pid="A"/></g><g s:type="constant" transform="translate(468.5,313)" s:width="30" s:height="20" id="cell_1"><text x="15" y="-4" class="nodelabel cell_1" s:attribute="ref">1</text><s:alias val="$_constant_"/><rect width="30" height="20" class="cell_1"/><g s:x="31" s:y="10" s:pid="Y"/></g><g s:type="constant" transform="translate(200,247)" s:width="30" s:height="20" id="cell_111"><text x="15" y="-4" class="nodelabel cell_111" s:attribute="ref">111</text><s:alias val="$_constant_"/><rect width="30" height="20" class="cell_111"/><g s:x="31" s:y="10" s:pid="Y"/></g><g s:type="join" transform="translate(84,111.5)" s:width="4" s:height="40" id="cell_$join$,3,20,21,22,23,24,25,26,"><rect width="5" height="40" class="splitjoinBody" s:generic="body"/><s:alias val="$_join_"/><g s:x="5" s:y="20" s:pid="out"/><g transform="translate(0,10)" s:x="0" s:y="10" s:pid="in0"><text x="-3" y="-4" class="inputPortLabel">0</text></g><g transform="translate(0,30)" s:x="0" s:y="10" s:pid="in0"><text x="-3" y="-4" class="inputPortLabel">1:7</text></g></g><g s:type="split" transform="translate(475.5,355)" s:width="5" s:height="40" id="cell_$split$,20,21,22,23,24,25,26,4,"><rect width="5" height="40" class="splitjoinBody" s:generic="body"/><s:alias val="$_split_"/><g s:x="0" s:y="20" s:pid="in"/><g transform="translate(4,10)" s:x="4" s:y="10" s:pid="out0"><text x="5" y="-4">0:6</text></g><g transform="translate(4,30)" s:x="4" s:y="10" s:pid="out0"><text x="5" y="-4">7</text></g></g><line x1="231" x2="241" y1="183" y2="183" class="net_14,15,16 width_3" style="stroke-width: 2"/><line x1="241" x2="241" y1="183" y2="292" class="net_14,15,16 width_3" style="stroke-width: 2"/><line x1="241" x2="509.5" y1="292" y2="292" class="net_14,15,16 width_3" style="stroke-width: 2"/><line x1="509.5" x2="509.5" y1="292" y2="308" class="net_14,15,16 width_3" style="stroke-width: 2"/><circle cx="241" cy="183" r="3" style="fill:#000" class="net_14,15,16 width_3"/><line x1="509.5" x2="537.5" y1="308" y2="308" class="net_14,15,16 width_3" style="stroke-width: 2"/><line x1="231" x2="312" y1="183" y2="183" class="net_14,15,16 width_3" style="stroke-width: 2"/><line x1="312" x2="312" y1="183" y2="242" class="net_14,15,16 width_3" style="stroke-width: 2"/><line x1="312" x2="343" y1="242" y2="242" class="net_14,15,16 width_3" style="stroke-width: 2"/><line x1="499.5" x2="537.5" y1="323" y2="323" class="net_52 width_1" style="stroke-width: 1"/><line x1="90" x2="100" y1="132" y2="132" class="net_3,20,21,22,23,24,25,26 width_8" style="stroke-width: 2"/><line x1="100" x2="100" y1="132" y2="416.5" class="net_3,20,21,22,23,24,25,26 width_8" style="stroke-width: 2"/><circle cx="100" cy="132" r="3" style="fill:#000" class="net_3,20,21,22,23,24,25,26 width_8"/><line x1="100" x2="201.66666666666666" y1="416.5" y2="416.5" class="net_3,20,21,22,23,24,25,26 width_8" style="stroke-width: 2"/><line x1="90" x2="408" y1="132" y2="132" class="net_3,20,21,22,23,24,25,26 width_8" style="stroke-width: 2"/><line x1="373" x2="383" y1="375.5" y2="375.5" class="net_20,21,22,23,24,25,26,4 width_8" style="stroke-width: 2"/><line x1="383" x2="383" y1="375.5" y2="466.5" class="net_20,21,22,23,24,25,26,4 width_8" style="stroke-width: 2"/><line x1="383" x2="165" y1="466.5" y2="466.5" class="net_20,21,22,23,24,25,26,4 width_8" style="stroke-width: 2"/><line x1="165" x2="165" y1="466.5" y2="436.5" class="net_20,21,22,23,24,25,26,4 width_8" style="stroke-width: 2"/><circle cx="383" cy="375.5" r="3" style="fill:#000" class="net_20,21,22,23,24,25,26,4 width_8"/><line x1="165" x2="201.66666666666666" y1="436.5" y2="436.5" class="net_20,21,22,23,24,25,26,4 width_8" style="stroke-width: 2"/><line x1="373" x2="475.5" y1="375.5" y2="375.5" class="net_20,21,22,23,24,25,26,4 width_8" style="stroke-width: 2"/><line x1="155" x2="175" y1="277" y2="277" class="net_5 width_1" style="stroke-width: 1"/><line x1="175" x2="175" y1="277" y2="456.5" class="net_5 width_1" style="stroke-width: 1"/><line x1="175" x2="214.66666666666666" y1="456.5" y2="456.5" class="net_5 width_1" style="stroke-width: 1"/><circle cx="175" cy="277" r="2" style="fill:#000" class="net_5 width_1"/><line x1="214.66666666666666" x2="214.66666666666666" y1="456.5" y2="444.5" class="net_5 width_1" style="stroke-width: 1"/><line x1="155" x2="547.5" y1="277" y2="277" class="net_5 width_1" style="stroke-width: 1"/><line x1="547.5" x2="547.5" y1="277" y2="234" class="net_5 width_1" style="stroke-width: 1"/><line x1="155" x2="175" y1="277" y2="277" class="net_5 width_1" style="stroke-width: 1"/><line x1="175" x2="175" y1="277" y2="227" class="net_5 width_1" style="stroke-width: 1"/><line x1="175" x2="213" y1="227" y2="227" class="net_5 width_1" style="stroke-width: 1"/><line x1="213" x2="213" y1="227" y2="217" class="net_5 width_1" style="stroke-width: 1"/><line x1="433.5" x2="509.5" y1="122" y2="122" class="net_35,36,37,38,39,40,41,42 width_8" style="stroke-width: 2"/><line x1="509.5" x2="509.5" y1="122" y2="206" class="net_35,36,37,38,39,40,41,42 width_8" style="stroke-width: 2"/><line x1="509.5" x2="534.5" y1="206" y2="206" class="net_35,36,37,38,39,40,41,42 width_8" style="stroke-width: 2"/><line x1="302" x2="322" y1="87" y2="87" class="net_6,7,8,9,10,11,12,13 width_8" style="stroke-width: 2"/><line x1="322" x2="322" y1="87" y2="226" class="net_6,7,8,9,10,11,12,13 width_8" style="stroke-width: 2"/><circle cx="322" cy="87" r="3" style="fill:#000" class="net_6,7,8,9,10,11,12,13 width_8"/><line x1="322" x2="534.5" y1="226" y2="226" class="net_6,7,8,9,10,11,12,13 width_8" style="stroke-width: 2"/><line x1="302" x2="383" y1="87" y2="87" class="net_6,7,8,9,10,11,12,13 width_8" style="stroke-width: 2"/><line x1="383" x2="383" y1="87" y2="112" class="net_6,7,8,9,10,11,12,13 width_8" style="stroke-width: 2"/><line x1="383" x2="408" y1="112" y2="112" class="net_6,7,8,9,10,11,12,13 width_8" style="stroke-width: 2"/><line x1="302" x2="322" y1="87" y2="87" class="net_6,7,8,9,10,11,12,13 width_8" style="stroke-width: 2"/><line x1="322" x2="322" y1="87" y2="46" class="net_6,7,8,9,10,11,12,13 width_8" style="stroke-width: 2"/><line x1="322" x2="534.5" y1="46" y2="46" class="net_6,7,8,9,10,11,12,13 width_8" style="stroke-width: 2"/><line x1="231" x2="343" y1="257" y2="257" class="net_53,54,55 width_3" style="stroke-width: 2"/><line x1="155" x2="185" y1="203" y2="203" class="net_2 width_1" style="stroke-width: 1"/><line x1="185" x2="185" y1="203" y2="107" class="net_2 width_1" style="stroke-width: 1"/><circle cx="185" cy="203" r="2" style="fill:#000" class="net_2 width_1"/><line x1="185" x2="266" y1="107" y2="107" class="net_2 width_1" style="stroke-width: 1"/><line x1="155" x2="185" y1="203" y2="203" class="net_2 width_1" style="stroke-width: 1"/><line x1="185" x2="185" y1="203" y2="395.5" class="net_2 width_1" style="stroke-width: 1"/><line x1="185" x2="337" y1="395.5" y2="395.5" class="net_2 width_1" style="stroke-width: 1"/><line x1="155" x2="195" y1="203" y2="203" class="net_2 width_1" style="stroke-width: 1"/><line x1="560" x2="590.5" y1="216" y2="216" class="net_43,44,45,46,47,48,49,50 width_8" style="stroke-width: 2"/><line x1="590.5" x2="590.5" y1="216" y2="16" class="net_43,44,45,46,47,48,49,50 width_8" style="stroke-width: 2"/><line x1="590.5" x2="241" y1="16" y2="16" class="net_43,44,45,46,47,48,49,50 width_8" style="stroke-width: 2"/><line x1="241" x2="241" y1="16" y2="87" class="net_43,44,45,46,47,48,49,50 width_8" style="stroke-width: 2"/><line x1="241" x2="266" y1="87" y2="87" class="net_43,44,45,46,47,48,49,50 width_8" style="stroke-width: 2"/><line x1="227.16666666666666" x2="241" y1="426.5" y2="426.5" class="net_27,28,29,30,31,32,33,34 width_8" style="stroke-width: 2"/><line x1="241" x2="241" y1="426.5" y2="379.5" class="net_27,28,29,30,31,32,33,34 width_8" style="stroke-width: 2"/><line x1="241" x2="312" y1="379.5" y2="379.5" class="net_27,28,29,30,31,32,33,34 width_8" style="stroke-width: 2"/><line x1="312" x2="312" y1="379.5" y2="375.5" class="net_27,28,29,30,31,32,33,34 width_8" style="stroke-width: 2"/><line x1="312" x2="337" y1="375.5" y2="375.5" class="net_27,28,29,30,31,32,33,34 width_8" style="stroke-width: 2"/><line x1="561.5" x2="580.5" y1="315.5" y2="315.5" class="net_17,18,19 width_3" style="stroke-width: 2"/><line x1="580.5" x2="580.5" y1="315.5" y2="66" class="net_17,18,19 width_3" style="stroke-width: 2"/><line x1="580.5" x2="165" y1="66" y2="66" class="net_17,18,19 width_3" style="stroke-width: 2"/><line x1="165" x2="165" y1="66" y2="183" class="net_17,18,19 width_3" style="stroke-width: 2"/><line x1="165" x2="195" y1="183" y2="183" class="net_17,18,19 width_3" style="stroke-width: 2"/><line x1="366" x2="421" y1="249.5" y2="249.5" class="net_51 width_1" style="stroke-width: 1"/><line x1="421" x2="421" y1="249.5" y2="140" class="net_51 width_1" style="stroke-width: 1"/><line x1="480.5" x2="535.5" y1="385.5" y2="385.5" class="net_4 width_1" style="stroke-width: 1"/><line x1="42" x2="84" y1="122" y2="122" class="net_3 width_1" style="stroke-width: 1"/><line x1="480.5" x2="509.5" y1="365.5" y2="365.5" class="net_20,21,22,23,24,25,26 width_7" style="stroke-width: 2"/><line x1="509.5" x2="509.5" y1="365.5" y2="343" class="net_20,21,22,23,24,25,26 width_7" style="stroke-width: 2"/><line x1="509.5" x2="52" y1="343" y2="343" class="net_20,21,22,23,24,25,26 width_7" style="stroke-width: 2"/><line x1="52" x2="52" y1="343" y2="142" class="net_20,21,22,23,24,25,26 width_7" style="stroke-width: 2"/><line x1="52" x2="84" y1="142" y2="142" class="net_20,21,22,23,24,25,26 width_7" style="stroke-width: 2"/><rect x="283" y="178" width="16" height="9" class="net_14,15,16 width_3 busLabel_3" style="fill: white; stroke: none"/><text x="282" y="186" class="net_14,15,16 width_3 busLabel_3">/3/</text><rect x="283" y="178" width="16" height="9" class="net_14,15,16 width_3 busLabel_3" style="fill: white; stroke: none"/><text x="282" y="186" class="net_14,15,16 width_3 busLabel_3">/3/</text><rect x="212" y="127" width="16" height="9" class="net_3,20,21,22,23,24,25,26 width_8 busLabel_8" style="fill: white; stroke: none"/><text x="211" y="135" class="net_3,20,21,22,23,24,25,26 width_8 busLabel_8">/8/</text><rect x="212" y="127" width="16" height="9" class="net_3,20,21,22,23,24,25,26 width_8 busLabel_8" style="fill: white; stroke: none"/><text x="211" y="135" class="net_3,20,21,22,23,24,25,26 width_8 busLabel_8">/8/</text><rect x="419.75" y="370.5" width="16" height="9" class="net_20,21,22,23,24,25,26,4 width_8 busLabel_8" style="fill: white; stroke: none"/><text x="418.75" y="378.5" class="net_20,21,22,23,24,25,26,4 width_8 busLabel_8">/8/</text><rect x="419.75" y="370.5" width="16" height="9" class="net_20,21,22,23,24,25,26,4 width_8 busLabel_8" style="fill: white; stroke: none"/><text x="418.75" y="378.5" class="net_20,21,22,23,24,25,26,4 width_8 busLabel_8">/8/</text><rect x="483" y="117" width="16" height="9" class="net_35,36,37,38,39,40,41,42 width_8 busLabel_8" style="fill: white; stroke: none"/><text x="482" y="125" class="net_35,36,37,38,39,40,41,42 width_8 busLabel_8">/8/</text><rect x="419.75" y="41" width="16" height="9" class="net_6,7,8,9,10,11,12,13 width_8 busLabel_8" style="fill: white; stroke: none"/><text x="418.75" y="49" class="net_6,7,8,9,10,11,12,13 width_8 busLabel_8">/8/</text><rect x="419.75" y="41" width="16" height="9" class="net_6,7,8,9,10,11,12,13 width_8 busLabel_8" style="fill: white; stroke: none"/><text x="418.75" y="49" class="net_6,7,8,9,10,11,12,13 width_8 busLabel_8">/8/</text><rect x="419.75" y="41" width="16" height="9" class="net_6,7,8,9,10,11,12,13 width_8 busLabel_8" style="fill: white; stroke: none"/><text x="418.75" y="49" class="net_6,7,8,9,10,11,12,13 width_8 busLabel_8">/8/</text><rect x="283" y="252" width="16" height="9" class="net_53,54,55 width_3 busLabel_3" style="fill: white; stroke: none"/><text x="282" y="260" class="net_53,54,55 width_3 busLabel_3">/3/</text><rect x="419.75" y="11" width="16" height="9" class="net_43,44,45,46,47,48,49,50 width_8 busLabel_8" style="fill: white; stroke: none"/><text x="418.75" y="19" class="net_43,44,45,46,47,48,49,50 width_8 busLabel_8">/8/</text><rect x="283" y="374.5" width="16" height="9" class="net_27,28,29,30,31,32,33,34 width_8 busLabel_8" style="fill: white; stroke: none"/><text x="282" y="382.5" class="net_27,28,29,30,31,32,33,34 width_8 busLabel_8">/8/</text><rect x="354" y="61" width="16" height="9" class="net_17,18,19 width_3 busLabel_3" style="fill: white; stroke: none"/><text x="353" y="69" class="net_17,18,19 width_3 busLabel_3">/3/</text><rect x="283" y="338" width="16" height="9" class="net_20,21,22,23,24,25,26 width_7 busLabel_7" style="fill: white; stroke: none"/><text x="282" y="346" class="net_20,21,22,23,24,25,26 width_7 busLabel_7">/7/</text></svg>